<?xml version="1.0" standalone="no"?>
<!DOCTYPE svg PUBLIC "-//W3C//DTD SVG 1.1//EN" "http://www.w3.org/Graphics/SVG/1.1/DTD/svg11.dtd" >
<svg xmlns="http://www.w3.org/2000/svg">
<metadata></metadata>
<defs>
<font id="pt_serifitalic" horiz-adv-x="1073" >
<font-face units-per-em="2048" ascent="1638" descent="-410" />
<missing-glyph horiz-adv-x="497" />
<glyph horiz-adv-x="2048" />
<glyph horiz-adv-x="2048" />
<glyph unicode="&#xd;" horiz-adv-x="497" />
<glyph unicode=" "  horiz-adv-x="497" />
<glyph unicode="&#x09;" horiz-adv-x="497" />
<glyph unicode="&#xa0;" horiz-adv-x="497" />
<glyph unicode="!" horiz-adv-x="669" d="M139 117q0 61 39 98t101 37q63 0 102 -37t39 -98q0 -59 -39 -96t-102 -37q-61 0 -100.5 37t-39.5 96zM299 446l8 361l123 606q49 23 102 23t95 -23l-135 -606l-140 -361h-53z" />
<glyph unicode="&#x22;" horiz-adv-x="698" d="M182 1372q16 27 41 44.5t60 17.5q63 0 73 -62l-131 -340h-41zM428 1372q16 27 41 44.5t60 17.5q63 0 73 -62l-131 -340h-41z" />
<glyph unicode="#" d="M63 477l52 94h155l140 308h-158l49 94h150l155 342h107l-154 -342h291l156 342h106l-156 -342h164l-55 -94h-150l-139 -308h158l-57 -94h-142l-162 -358h-106l162 358h-293l-160 -358h-108l161 358h-166zM379 571h291l139 308h-291z" />
<glyph unicode="$" d="M35 90q16 68 39.5 129.5t48.5 102.5h53l82 -199q39 -39 150 -41l124 575q-53 35 -104 71t-91 82t-65.5 104.5t-25.5 138.5q0 74 28.5 144.5t85 125.5t141.5 91t197 42l23 100h106l-22 -100q100 -4 172 -22.5t123 -42.5q-18 -68 -51 -114t-64 -77h-53l-74 139 q-16 2 -34.5 4.5t-39.5 6.5l-110 -527q49 -33 99 -68.5t90 -84.5t64.5 -115t24.5 -154q0 -80 -31.5 -151.5t-91 -127.5t-145.5 -94t-192 -48l-25 -123h-107l25 118q-53 2 -107.5 14.5t-101.5 30t-85 36t-56 34.5zM436 1112q0 -84 41 -136t103 -93l100 467 q-111 -8 -177.5 -70t-66.5 -168zM512 88q49 8 93 28.5t79 52.5t55.5 75t20.5 98q0 86 -40 145.5t-99 106.5z" />
<glyph unicode="%" horiz-adv-x="1601" d="M86 51l1360 1403l71 -63l-1362 -1405zM129 1024q0 94 37 174t98 137.5t141 90t166 32.5q141 0 217 -73.5t76 -190.5q0 -106 -40 -187t-102.5 -135.5t-141 -82t-156.5 -27.5q-61 0 -115.5 19.5t-94.5 54t-62.5 83t-22.5 105.5zM299 1022q0 -37 7 -69.5t24.5 -58.5t44 -41 t63.5 -15q45 0 91 22.5t83 69.5t59.5 118.5t22.5 170.5q0 31 -7 59.5t-23.5 52t-43 36.5t-67.5 13q-45 0 -90 -27.5t-82 -74.5t-59.5 -113.5t-22.5 -142.5zM725 240q0 94 37 174t98 137.5t141 90t166 32.5q141 0 217 -73.5t76 -190.5q0 -106 -40 -187t-102.5 -135.5 t-141 -82t-156.5 -27.5q-61 0 -115.5 19.5t-94.5 54t-62.5 83t-22.5 105.5zM895 238q0 -37 7 -69.5t24.5 -58.5t44 -41t63.5 -15q45 0 91 22.5t83 69.5t59.5 118.5t22.5 170.5q0 31 -7 59.5t-23.5 52t-43 36.5t-67.5 13q-45 0 -90 -27.5t-82 -74.5t-59.5 -113.5 t-22.5 -142.5z" />
<glyph unicode="&#x26;" horiz-adv-x="1785" d="M137 309q0 104 51.5 193.5t122 162t143 124t117.5 77.5q-45 66 -61 133.5t-16 139.5q0 66 30.5 124t81.5 101t119 68.5t141 25.5q260 0 260 -207q0 -70 -33.5 -131t-86 -113.5t-114 -96.5t-114.5 -79q61 -104 148.5 -214.5t185.5 -221.5q20 23 57 76t74 125t68.5 157 t44.5 169q-66 12 -111 49l10 53h416l-12 -53q-66 -35 -146 -49q-45 -121 -94 -219.5t-95 -173t-85 -127t-61 -76.5q66 -63 128 -117.5t144 -108.5l104 -49l-12 -51h-291q-39 29 -95 71t-118 117q-37 -39 -88 -76.5t-115.5 -68.5t-140.5 -49.5t-157 -18.5q-100 0 -175 27 t-125.5 73t-75 106.5t-24.5 127.5zM356 348q2 -117 76 -191.5t203 -74.5q92 0 180 42t168 128q-51 55 -107.5 130t-108.5 152.5t-94 149.5t-63 119q-109 -86 -180.5 -195.5t-73.5 -259.5zM649 1155q0 -70 29 -141.5t70 -130.5q43 31 82.5 67.5t72.5 78.5t52.5 89t19.5 101 q0 72 -28.5 112.5t-98.5 38.5q-45 2 -82 -16.5t-62.5 -48t-40 -68.5t-14.5 -82z" />
<glyph unicode="'" horiz-adv-x="452" d="M182 1372q16 27 41 44.5t60 17.5q63 0 73 -62l-131 -340h-41z" />
<glyph unicode="(" horiz-adv-x="702" d="M125 240q0 229 68.5 415.5t174 334t234.5 259t252 189.5l35 -37q-100 -86 -204.5 -203t-190.5 -259t-140.5 -312t-52.5 -363q-2 -184 43 -345t166 -308l-59 -41q-176 152 -251 316.5t-75 353.5z" />
<glyph unicode=")" horiz-adv-x="702" d="M-164 -389q90 74 193.5 188.5t190.5 263t145.5 328.5t58.5 385q0 88 -9 164t-33 149.5t-65 149.5t-104 162l53 37q176 -160 253 -325t77 -357q0 -213 -63.5 -396.5t-166 -333t-230.5 -265t-259 -191.5z" />
<glyph unicode="*" horiz-adv-x="952" d="M295 1007.5q-6 22.5 0 39.5l256 88q31 -18 31 -50l-207 -176q-16 2 -32.5 17.5t-29 37t-18.5 44zM295 1297.5q4 21.5 16.5 43t29.5 38t36 20.5l205 -178q0 -39 -29 -54l-256 95q-6 14 -2 35.5zM567 1509q8 14 29.5 20.5t46.5 6.5t47.5 -6t32.5 -21l-45 -266 q-31 -20 -64 0zM569 795l47 266q33 16 66 0l43 -264q-10 -14 -30.5 -19.5t-45.5 -5.5t-47 5t-33 18zM713 1217l205 182q16 -2 32.5 -17.5t28.5 -37t17 -44t-1 -40.5l-254 -97q-29 20 -28 54zM715 1081q0 33 26 52l252 -86q8 -14 3 -37t-17 -44.5t-28.5 -38t-35.5 -18.5z" />
<glyph unicode="+" d="M76 649v109h405v430h109v-430h407v-109h-407v-440h-109v440h-405z" />
<glyph unicode="," horiz-adv-x="579" d="M-74 -305q43 14 84 44t75 66.5t55.5 80.5t27.5 87q-20 23 -56 45.5t-65 32.5q-2 39 14.5 76t41 65.5t52 46t50.5 19.5q70 -10 104.5 -49t34.5 -117t-34 -151.5t-88 -135t-124.5 -106.5t-144.5 -66z" />
<glyph unicode="-" horiz-adv-x="870" d="M145 512l29 129h578l-27 -129h-580z" />
<glyph unicode="." horiz-adv-x="555" d="M59 117q0 61 39 98t101 37q63 0 102 -37t39 -98q0 -59 -39 -96t-102 -37q-61 0 -100.5 37t-39.5 96z" />
<glyph unicode="/" horiz-adv-x="704" d="M-76 -227l746 1685l86 -37l-748 -1687z" />
<glyph unicode="0" d="M39 416q0 121 18.5 245.5t54 240.5t90 217.5t127 177t164 118.5t199.5 43q121 0 196 -44t117 -110.5t56 -142.5t14 -139q0 -182 -41 -367.5t-122 -337t-203.5 -247t-286.5 -95.5q-121 0 -196.5 44t-116.5 111t-55.5 143.5t-14.5 142.5zM236 408q0 -59 9 -121t31.5 -112 t61.5 -83t98 -33q111 0 194 88.5t138 228.5t83 311t28 337q0 61 -9.5 122.5t-32 112t-61.5 82t-98 33.5q-113 -2 -196 -93t-138 -232.5t-81.5 -311t-26.5 -329.5z" />
<glyph unicode="1" d="M176 0l12 59q55 25 111.5 41.5t114.5 28.5l213 1006l39 120q-59 -23 -127 -32t-133 -6v49q100 31 210.5 75.5t210.5 116.5h52l-281 -1329q100 -23 188 -70l-12 -59h-598z" />
<glyph unicode="2" d="M-12 0l14 66q61 49 147.5 122.5t181.5 162.5t189 191.5t169 208t122 212t47 204.5q0 82 -50 133.5t-149 51.5q-86 0 -155 -25l-131 -293h-51q-10 59 -17.5 139t-5.5 152q86 59 180 96t211 37q102 0 171 -22.5t111 -62.5t60.5 -92t18.5 -112q0 -119 -71 -244.5 t-178.5 -247.5t-234.5 -233.5t-237 -199.5l-103 -80v-8l115 12h352l150 229h51q-2 -49 -8 -103t-15.5 -107.5t-19.5 -101.5t-18 -85h-846z" />
<glyph unicode="3" d="M12 80l94 184h41q10 -14 26.5 -36.5t35 -47t36 -49.5t29.5 -43q20 -4 55.5 -10t88.5 -6q84 0 149.5 33.5t109.5 89t66.5 126t20.5 144.5q2 125 -66.5 177t-193.5 52h-123l2 51l434 465l92 72v8l-110 -12h-332l-125 -209h-51q2 88 9 189.5t24 175.5h790l-2 -64l-422 -457 l-121 -90v-4l72 15q166 -14 243 -98.5t77 -233.5q0 -104 -34 -200.5t-105.5 -168.5t-184.5 -115t-272 -43q-47 0 -99.5 7.5t-100.5 21.5t-88 32.5t-65 43.5z" />
<glyph unicode="4" d="M-35 395l10 47l973 1016h56l-203 -956h262l-25 -107h-260l-61 -286q35 -8 71.5 -20.5t71.5 -29.5l-10 -59h-531l11 59q53 16 102 28.5t98 21.5l60 286h-625zM129 487l150 15h335l111 526l59 148h-6l-108 -148l-445 -473z" />
<glyph unicode="5" d="M31 80l96 184h41q10 -14 23.5 -36.5t27.5 -47t28.5 -49.5t26.5 -43q20 -4 45 -10t62 -6q98 0 170 33.5t118 91t68.5 131t22.5 151.5q0 135 -89 192.5t-249 53.5l-146 -2l232 711h489l111 112h51q-6 -31 -17.5 -68.5t-24.5 -75.5t-28.5 -73t-27.5 -57h-506l-131 -395h100 q197 0 304.5 -88.5t107.5 -258.5q0 -123 -41 -225t-115.5 -176t-180 -114t-237.5 -40q-49 0 -97 7.5t-93 21.5t-81 33.5t-60 42.5z" />
<glyph unicode="6" d="M80 375q0 166 67.5 337t194.5 321.5t308 266t409 170.5l8 -61q-270 -98 -453.5 -271t-275.5 -433q49 59 140 103t202 44q178 0 261 -86t83 -225q0 -96 -34 -196.5t-103.5 -182.5t-176 -134.5t-251.5 -52.5q-72 0 -140.5 19.5t-122 67t-85 123t-31.5 190.5zM276 391 q0 -63 9.5 -121.5t34 -102.5t66.5 -70.5t106 -26.5q88 0 151.5 46t104 114.5t60 147t19.5 144.5q0 109 -50 166t-173 57q-92 0 -170 -47t-125 -108q-6 -16 -12 -44t-10 -56.5t-7.5 -56t-3.5 -42.5z" />
<glyph unicode="7" d="M150 0q127 293 294.5 591t395.5 597l82 98l-109 -10h-424l-125 -209h-51q4 88 12 190.5t23 176.5h848v-60q-145 -176 -254 -341t-195 -330.5t-155.5 -339t-137.5 -363.5h-204z" />
<glyph unicode="8" d="M25 279q0 152 107.5 266t311.5 174q-100 72 -150 149.5t-50 178.5q0 86 31.5 161.5t91 131t145.5 87t195 31.5q174 0 258 -75.5t84 -202.5q0 -61 -26 -121t-73 -113t-114.5 -96t-149.5 -72q57 -39 102.5 -76.5t77 -82t49 -97.5t17.5 -123q0 -78 -33 -154.5t-98.5 -136 t-164.5 -96.5t-230 -37q-180 0 -280.5 83.5t-100.5 220.5zM201 289q0 -98 61.5 -158.5t165.5 -60.5q88 0 150.5 27.5t101.5 70.5t57.5 96.5t18.5 104.5q0 53 -20.5 96t-55.5 81t-84 72.5t-107 69.5q-90 -47 -146 -100t-88 -106.5t-43 -103.5t-11 -89zM420 1081 q0 -41 19.5 -79.5t50 -74.5t70.5 -67t83 -55q123 92 177 184t52 178q2 82 -43 138.5t-153 56.5q-61 0 -109.5 -22.5t-81 -61.5t-49 -90.5t-16.5 -106.5z" />
<glyph unicode="9" d="M80 35q272 98 454.5 271t274.5 433q-49 -59 -139 -103t-201 -44q-180 0 -262 86t-82 227q0 96 34 196.5t103.5 182.5t175 134t250.5 52q72 0 140.5 -19t122 -66.5t86 -124t32.5 -189.5q0 -166 -67.5 -337t-195.5 -321.5t-309.5 -266t-408.5 -171.5zM322 924 q0 -109 49 -167.5t172 -58.5q92 0 170 48.5t125 109.5q6 16 12 44t11 56.5t8 55t3 43.5q0 63 -10 121.5t-34.5 102.5t-66.5 69.5t-106 25.5q-88 0 -151.5 -46t-103.5 -113.5t-59 -146t-19 -144.5z" />
<glyph unicode=":" horiz-adv-x="661" d="M155 117q0 61 39 98t101 37q63 0 102 -37t39 -98q0 -59 -39 -96t-102 -37q-61 0 -100.5 37t-39.5 96zM258 905q0 61 39 98t101 37q63 0 102 -37t39 -98q0 -59 -39 -96t-102 -37q-61 0 -100.5 37t-39.5 96z" />
<glyph unicode=";" horiz-adv-x="638" d="M-6 -305q43 14 84 44t75 66.5t55.5 80.5t27.5 87q-20 23 -56 45.5t-65 32.5q-2 39 14.5 76t41 65.5t52 46t50.5 19.5q70 -10 104.5 -49t34.5 -117t-34 -151.5t-88 -135t-124.5 -106.5t-144.5 -66zM247 905q0 61 39 98t101 37q63 0 102 -37t39 -98q0 -59 -39 -96t-102 -37 q-61 0 -100.5 37t-39.5 96z" />
<glyph unicode="&#x3c;" d="M90 664v63l789 481l51 -90l-512 -309l-176 -82l174 -63l542 -320l-81 -133z" />
<glyph unicode="=" d="M27 485v109h921v-109h-921zM27 813v109h921v-109h-921z" />
<glyph unicode="&#x3e;" d="M115 1075l82 133l786 -452v-64l-788 -481l-50 90l512 309l174 82l-172 64z" />
<glyph unicode="?" horiz-adv-x="1011" d="M242 117q0 61 38.5 98t100.5 37q63 0 102 -37t39 -98q0 -59 -39 -96t-102 -37q-61 0 -100 37t-39 96zM324 1289q0 42 4 83q88 47 177 66.5t193 19.5q164 0 252 -72.5t88 -201.5q0 -102 -43 -177t-108.5 -135.5t-143 -112.5t-147.5 -108.5t-121 -124t-61 -157.5h-41 q-8 106 23.5 186t82.5 144.5t114.5 118.5t118 108.5t91.5 113t39 134.5q-2 92 -54.5 135t-136.5 43q-66 0 -109.5 -10.5t-64.5 -26.5l-80 -252h-51q-4 29 -9 65.5t-9 77.5t-4 83z" />
<glyph unicode="@" horiz-adv-x="2062" d="M164 483q0 223 73.5 403.5t201.5 307.5t300 195.5t369 68.5q184 0 343 -54t275.5 -155.5t181 -248t64.5 -332.5q0 -133 -45 -252t-124 -209t-181 -143.5t-215 -53.5q-61 0 -104 19.5t-66 63.5t-24 113.5t22 168.5h-8q-23 -66 -63 -130.5t-91 -116.5t-109.5 -85 t-117.5 -33q-123 0 -189.5 85t-66.5 227q0 131 44 255.5t118.5 223t173 158t207.5 59.5q74 0 116.5 -12t91.5 -35q76 35 154 33l-104 -586q-12 -68 -17.5 -123t-0.5 -95t22.5 -61.5t52.5 -21.5q68 0 139.5 38t132 109.5t98 174t37.5 229.5q0 156 -58 282.5t-161.5 215.5 t-242 137.5t-295.5 48.5q-188 0 -339 -66.5t-257.5 -182.5t-163.5 -272.5t-57 -334.5q0 -182 59 -322.5t166.5 -238t256 -147.5t327.5 -50q59 0 134.5 14.5t137.5 42.5l33 -90q-72 -41 -158 -57.5t-190 -16.5q-176 0 -336 53.5t-282 160t-193.5 266t-71.5 372.5zM774 346 q0 -98 31 -153.5t117 -55.5q39 0 84 38t89 99.5t86 138t74 154.5l52 305q-33 20 -67 30.5t-87 8.5q-78 2 -147.5 -52t-120.5 -138t-81 -183.5t-30 -191.5z" />
<glyph unicode="A" horiz-adv-x="1380" d="M-100 0l12 59q80 33 160 50l809 1349h53l231 -1349q37 -8 75 -19.5t69 -30.5l-11 -59h-520l10 59q92 35 181 50l-62 374h-481l-219 -374q88 -12 164 -50l-11 -59h-460zM485 590h406l-66 434l-4 176h-4l-82 -180z" />
<glyph unicode="B" horiz-adv-x="1239" d="M-41 0l10 59q92 39 181 50l256 1214q-41 8 -80 21.5t-78 29.5l14 60h217q76 0 152 6t190 6q82 0 156 -14.5t129 -45t88 -81t33 -123.5q0 -72 -21.5 -136.5t-66.5 -119t-114 -95t-161 -65.5v-8q47 -4 96.5 -20.5t89.5 -48.5t64.5 -80t24.5 -113q0 -109 -41 -201 t-122 -160.5t-204 -107.5t-287 -39q-72 0 -158.5 6t-170.5 6h-197zM334 111q28 -7 66 -13q28 -4 82 -5q20 0 42 1h13q77 0 147 22q76 24 133 72t91 116.5t34 156.5q0 68 -23.5 110.5t-67.5 65t-105.5 31t-137.5 8.5h-155zM475 782h103q35 0 83 3t82 8q162 57 224.5 154 t62.5 212q0 80 -57.5 130t-192.5 50q-66 0 -111.5 -3t-76.5 -7z" />
<glyph unicode="C" horiz-adv-x="1300" d="M135 528q0 209 59.5 380t169 293t266 189.5t353.5 67.5q135 0 229.5 -18.5t157.5 -50.5q-6 -33 -17.5 -77t-26.5 -93.5t-31.5 -96.5t-30.5 -86h-54l-43 295q-27 10 -81 15.5t-105 5.5q-135 0 -250 -52.5t-198.5 -155t-131 -256t-47.5 -356.5q0 -127 44 -214t110 -140 q67 -54 145 -76q72 -21 137 -20h11h20q57 0 98 10q48 12 70 27l152 254h51q0 -57 -11.5 -144.5t-33.5 -169.5q-41 -23 -88 -39t-98.5 -26t-100.5 -14.5t-92 -4.5q-174 0 -295 49.5t-195.5 129t-108.5 178t-34 196.5z" />
<glyph unicode="D" horiz-adv-x="1437" d="M-41 0l10 59q84 35 181 50l256 1214q-45 10 -85 23.5t-73 27.5l14 60h207q35 0 83 2t98 5t97.5 6t77.5 3q164 0 279 -39t185.5 -105.5t102 -157.5t31.5 -196q0 -104 -17 -217.5t-58 -221t-110 -204t-172 -169t-244.5 -115.5t-325.5 -43q-31 0 -73 3t-89 6l-94 6t-86 3 h-195zM330 94q20 -2 50 -3l60 -2q28 -1 52 -2h15q13 0 21 1h10q187 0 313 76q130 78 209 204t111.5 282.5t32.5 314.5q0 80 -18.5 149.5t-65.5 119.5t-128 79.5t-208 29.5q-53 0 -108 -2t-84 -6z" />
<glyph unicode="E" horiz-adv-x="1171" d="M-41 0l10 59q84 35 181 50l256 1214q-41 10 -80 22.5t-78 28.5l14 60h969q-16 -82 -39 -166t-53 -166h-54l-34 225h-449l-113 -543h332l113 152h51q-16 -102 -37.5 -205.5t-50.5 -208.5h-51l-47 156h-334l-119 -572h469l154 246h51q-4 -80 -16.5 -171t-34.5 -181h-1010z " />
<glyph unicode="F" horiz-adv-x="1095" d="M-41 0l10 59q37 16 78 28.5t82 21.5l256 1214q-41 12 -76 24.5t-61 26.5l14 60h961q-18 -80 -41 -164t-54 -168h-53l-35 225h-458l-123 -584h358l111 152h51q-10 -92 -33.5 -206t-52.5 -208h-51l-45 158h-361l-110 -530q86 -12 163 -50l-10 -59h-520z" />
<glyph unicode="G" horiz-adv-x="1390" d="M135 530q0 207 58.5 378t169 293t269.5 189.5t359 67.5q135 0 231.5 -17.5t159.5 -51.5q-6 -31 -17 -76t-26.5 -94.5t-32 -97.5t-30.5 -85h-53l-43 295q-37 10 -92.5 15.5t-106.5 5.5q-158 0 -275.5 -64.5t-195.5 -175.5t-117 -259t-39 -318q0 -145 41 -234.5 t101.5 -138.5t129.5 -66q61 -14 113 -14h13h11q76 0 141 24q69 27 95 48l91 413q-53 4 -98.5 18.5t-88.5 30.5l15 60h501l-12 -60q-23 -14 -55.5 -26t-83.5 -23l-99 -469q-45 -27 -102 -49t-117.5 -38.5t-121 -26t-111.5 -9.5q-272 0 -427 144.5t-155 410.5z" />
<glyph unicode="H" horiz-adv-x="1472" d="M-41 0l10 59q45 20 90 31.5t91 18.5l256 1214q-92 18 -158 51l14 60h518l-12 -60q-35 -18 -80 -30.5t-86 -20.5l-113 -535h644l114 535q-41 10 -76.5 21.5t-68.5 29.5l14 60h518l-12 -60q-41 -20 -87 -31.5t-91 -19.5l-258 -1214q92 -16 155 -50l-10 -59h-518l10 59 q39 16 81 28.5t85 21.5l121 573h-645l-119 -573q37 -8 74 -20.5t67 -29.5l-10 -59h-518z" />
<glyph unicode="I" horiz-adv-x="702" d="M-2 0l10 59q90 37 176 50l256 1214q-41 8 -77.5 21.5t-75.5 29.5l14 60h524l-12 -60q-41 -16 -88 -29.5t-88 -21.5l-256 -1214q41 -8 81 -20.5t70 -29.5l-10 -59h-524z" />
<glyph unicode="J" horiz-adv-x="677" d="M-66 -297q41 33 75 66.5t62.5 84t53.5 122t47 178.5l246 1169q-88 20 -152 51l13 60h522l-10 -60q-41 -18 -88.5 -30.5t-88.5 -20.5l-241 -1147q-31 -141 -83 -233.5t-112.5 -148.5t-121 -83.5t-107.5 -38.5z" />
<glyph unicode="K" horiz-adv-x="1304" d="M-41 0l10 59q92 37 181 50l256 1214q-45 8 -85 20.5t-73 30.5l14 60h518l-12 -60q-70 -33 -166 -51l-119 -567l123 28l492 539q-41 10 -74 21.5t-63 29.5l14 60h465l-15 -60q-37 -18 -82 -30.5t-83 -20.5l-531 -553q37 -68 85 -149.5t102.5 -170t112.5 -178.5t116 -172 l88 -49l-10 -51h-248l-60 49q-92 141 -178 305t-162 332h-108l-121 -577q84 -16 141 -50l-10 -59h-518z" />
<glyph unicode="L" horiz-adv-x="1101" d="M-41 0l10 59q55 23 98.5 33t82.5 17l256 1214q-96 18 -158 51l14 60h561l-14 -60q-51 -18 -103.5 -31.5t-103.5 -19.5l-256 -1217h469l191 330h53q-4 -43 -10.5 -99t-15.5 -116.5t-20.5 -118t-23.5 -102.5h-1030z" />
<glyph unicode="M" horiz-adv-x="1755" d="M-41 0l10 59q82 35 178 52l256 1212q-41 8 -81.5 21.5t-75.5 29.5l12 60h426l145 -936l25 -211h2l107 215l577 932h377l-14 -60q-80 -35 -166 -51l-258 -1217q41 -8 77.5 -19t65.5 -28l-10 -59h-508l10 59q45 16 88 27.5t90 22.5l193 921l61 240h-16l-111 -219 l-647 -1051h-53l-178 1051l-23 239h-18l-54 -260l-194 -921q37 -8 73.5 -20.5t71.5 -29.5l-12 -59h-426z" />
<glyph unicode="N" horiz-adv-x="1480" d="M-41 0l10 59q88 53 185 72l249 1174q-39 16 -74.5 34.5t-64.5 36.5l10 58h340l441 -973l61 -176h8l33 176l176 831q-82 35 -141 82l12 60h436l-12 -60q-41 -29 -90 -49t-94 -33l-281 -1317h-110l-514 1129l-43 160h-7l-20 -160l-205 -973q37 -10 74 -28.5t68 -43.5 l-13 -59h-434z" />
<glyph unicode="O" horiz-adv-x="1495" d="M135 569q0 186 56.5 348t163 282t256 189.5t337.5 69.5q150 0 252.5 -49t164.5 -129t90 -183.5t28 -213.5q0 -164 -46 -327t-142.5 -292t-243 -209t-346.5 -80q-147 0 -255 48.5t-177.5 129t-103.5 188t-34 228.5zM354 567q0 -113 30 -203t82 -154q52 -62 122 -96 q67 -32 146 -32h9h8q145 0 241 72q100 74 160 192.5t86 261t26 277.5q0 104 -23.5 190t-71 147.5t-116 95.5t-158.5 34q-141 0 -243.5 -74t-169 -188.5t-97.5 -254t-31 -268.5z" />
<glyph unicode="P" horiz-adv-x="1198" d="M-41 0l10 59q47 20 91 30.5t90 19.5l256 1214q-45 8 -84 21.5t-74 29.5l14 60h184q82 0 179.5 8t185.5 8q98 0 181 -19.5t141.5 -61.5t91 -104.5t32.5 -148.5q0 -121 -44 -223t-126.5 -178t-199.5 -119t-260 -43h-34t-51.5 1t-55 3t-46.5 4l-94 -452q53 -6 99.5 -19.5 t84.5 -30.5l-10 -59h-561zM465 670q10 -2 29.5 -4t41 -3t41 -2.5t31.5 -1.5q213 0 321.5 122t108.5 333q0 51 -11 93t-43 73t-86 47t-140 16q-49 0 -87 -3t-67 -7z" />
<glyph unicode="Q" horiz-adv-x="1536" d="M135 569q0 186 56.5 348t163 282t256 189.5t337.5 69.5q150 0 252.5 -49t164.5 -129t90 -183.5t28 -213.5q0 -164 -46 -327t-142.5 -292t-243 -209t-346.5 -80q-147 0 -255 48.5t-177.5 129t-103.5 188t-34 228.5zM338 -135l72 41q48 6 94 6t91 -6q89 -12 174 -37 t171 -52.5t176 -44.5q81 -16 168 -16h20q99 2 212 37l4 -29q-98 -74 -194 -126q-93 -50 -191 -50h-7q-84 0 -169 31t-180 74t-203.5 90t-237.5 82zM354 567q0 -113 30 -203t82 -153.5t122 -96.5q67 -32 146 -32h9h8q145 0 241 72q100 75 160 193t86 260.5t26 277.5 q0 104 -23.5 190t-71 147.5t-116 95.5t-158.5 34q-141 0 -243.5 -74t-169 -188.5t-97.5 -254t-31 -268.5z" />
<glyph unicode="R" horiz-adv-x="1284" d="M-41 0l10 59q49 20 93 30.5t88 19.5l256 1214q-49 12 -89.5 24.5t-68.5 26.5l14 60h180q82 0 181.5 8t189.5 8q203 0 302 -87t99 -247q0 -80 -27.5 -153.5t-77.5 -133t-123 -103.5t-165 -67q59 -139 130 -276t147 -272l96 -60l-10 -51h-234l-69 57q-43 72 -77 141.5 t-61.5 139.5t-49 143.5t-40.5 153.5h-196l-111 -526q90 -16 162 -50l-10 -59h-539zM475 723h146h12q101 0 171 33q74 35 120.5 93t68 132t21.5 152v7q0 106 -63 154q-65 50 -206 49q-47 0 -80.5 -3t-62.5 -7z" />
<glyph unicode="S" horiz-adv-x="1079" d="M45 72q8 37 23.5 87t34 101t37 99.5t34.5 82.5h53l21 -301q23 -17 76 -39q48 -20 102 -20h10h19q59 0 113 10q64 12 114.5 43t81.5 81t31 126q0 84 -40 141.5t-99.5 101.5t-128 84t-128 89t-99.5 115.5t-40 164.5q0 94 34 171t100.5 132.5t162.5 86t219 30.5 q125 0 223.5 -19.5t153.5 -47.5q-8 -35 -23.5 -81t-32 -95.5t-35 -95.5t-32.5 -81h-53l-25 281q-35 16 -89 24.5t-118 8.5q-61 0 -115.5 -14.5t-94 -44t-62 -74.5t-22.5 -107q0 -82 39.5 -136t99 -97t128 -83t128 -91.5t99.5 -124t40 -179.5q0 -96 -38 -173.5t-108.5 -134 t-174 -87.5t-234.5 -31q-66 0 -126 8.5t-110.5 22.5t-89 31.5t-59.5 34.5z" />
<glyph unicode="T" horiz-adv-x="1249" d="M180 1034q2 41 9.5 93.5t15.5 106.5t17 106.5t20 93.5h1188q-8 -41 -20.5 -92.5t-27 -105.5t-30 -106.5t-29.5 -95.5h-53l-43 293h-314l-258 -1218q49 -10 93.5 -20.5t82.5 -29.5l-10 -59h-575l10 59q49 18 97 29.5t106 20.5l258 1218h-314l-170 -293h-53z" />
<glyph unicode="U" horiz-adv-x="1363" d="M188 292q-5 35 -5 72q0 64 16 134l176 825q-41 8 -84 21.5t-74 29.5l12 60h521l-13 -60q-80 -35 -166 -51l-174 -813q-16 -75 -16 -134q-1 -28 3 -52q10 -76 49.5 -125t103 -72t147.5 -23q166 0 265.5 92.5t140.5 290.5l174 818q-90 31 -148 69l12 60h439l-15 -60 q-35 -23 -82 -41t-92 -28l-174 -822q-57 -268 -201.5 -384.5t-371.5 -116.5q-135 0 -228.5 38.5t-147 107.5t-67.5 164z" />
<glyph unicode="V" horiz-adv-x="1380" d="M195 1374l12 60h538l-12 -60q-37 -16 -84 -28.5t-94 -22.5l150 -936l10 -164h4l76 168l503 932q-47 10 -88 22.5t-77 28.5l14 60h455l-13 -60q-35 -16 -72.5 -28.5t-84.5 -22.5l-742 -1323l-112 -25l-238 1348q-47 10 -83 23.5t-62 27.5z" />
<glyph unicode="W" horiz-adv-x="1894" d="M195 1374l12 60h528l-12 -60q-41 -16 -85 -28.5t-93 -22.5l26 -829l-6 -267h4l125 271l477 936h72l86 -936l10 -267h4l109 271l365 821q-41 8 -85 20.5t-79 30.5l12 60h451l-13 -60q-39 -20 -78.5 -30.5t-78.5 -20.5l-623 -1323l-131 -25l-94 1115l-555 -1090l-127 -25 l-76 1348q-80 18 -145 51z" />
<glyph unicode="X" horiz-adv-x="1353" d="M-82 0l12 59q41 20 82 30.5t82 19.5l537 612l-254 602q-41 10 -78 21.5t-74 29.5l13 60h544l-12 -60q-63 -29 -168 -51l182 -463l383 463q-39 10 -77.5 20.5t-79.5 30.5l12 60h471l-14 -60q-37 -16 -79 -28.5t-85 -22.5l-488 -555l281 -659q94 -16 154 -50l-11 -59h-544 l10 59q78 37 166 50l-207 514l-430 -517q41 -6 81 -15t74 -32l-12 -59h-471z" />
<glyph unicode="Y" horiz-adv-x="1300" d="M188 1374l15 60h540l-12 -60q-33 -12 -74 -26.5t-94 -24.5l207 -602l434 602q-43 10 -81 22.5t-70 28.5l12 60h457l-15 -60q-41 -20 -82 -31.5t-82 -19.5l-538 -713l-107 -501q76 -10 144 -50l-11 -59h-520l11 59q82 37 180 50l106 499l-264 715q-45 8 -83 21.5t-73 29.5 z" />
<glyph unicode="Z" horiz-adv-x="1234" d="M10 0v104l1077 1223h-595l-187 -287h-53q2 43 9 94.5t15.5 104.5t17.5 103.5t19 91.5h1018v-107l-1077 -1221h643l186 287h54q-4 -43 -10.5 -94t-14.5 -103.5t-17.5 -103.5t-19.5 -92h-1065z" />
<glyph unicode="[" horiz-adv-x="628" d="M-14 -471l403 1905h387l-18 -88h-213l-369 -1729h213l-16 -88h-387z" />
<glyph unicode="\" horiz-adv-x="782" d="M-96 1413l86 45l848 -1677l-84 -47z" />
<glyph unicode="]" horiz-adv-x="628" d="M-117 -471l19 88h211l368 1729h-213l17 88h387l-404 -1905h-385z" />
<glyph unicode="^" horiz-adv-x="1062" d="M215 889l381 567h68l348 -567h-183l-180 309l-47 137l-67 -139l-203 -307h-117z" />
<glyph unicode="_" horiz-adv-x="839" d="M-92 -293h840v-108h-840v108z" />
<glyph unicode="`" horiz-adv-x="661" d="M281 1485v41q12 10 39.5 19t60.5 15.5t62.5 9.5t45.5 1l177 -357l-45 -34z" />
<glyph unicode="a" horiz-adv-x="1095" d="M88 285q0 143 41 279t119 242.5t189.5 171t252.5 64.5q51 0 82 -9t74 -27q82 43 172 43l-184 -936h149v-52q-41 -33 -98.5 -53t-112.5 -20q-59 0 -84.5 25.5t-25.5 54.5q0 37 14 120.5t43 212.5h-8q-27 -74 -67 -149.5t-92 -137t-115.5 -100.5t-135.5 -39 q-213 0 -213 310zM272 319q0 -104 26 -160.5t89 -56.5q55 0 110.5 52.5t104.5 126t88 153.5t62 133l65 351q-29 20 -55.5 28t-73.5 8q-94 0 -171 -58t-131 -150.5t-84 -205t-30 -221.5z" />
<glyph unicode="b" horiz-adv-x="1077" d="M74 61l262 1336l-143 18v47q33 12 71.5 24.5t78.5 24t79 18.5t72 11l43 -22l-181 -854h11q37 74 81 143.5t94 122.5t105 86t117 33q109 0 172 -76t63 -236q0 -158 -44 -296t-123.5 -241.5t-192.5 -164t-250 -60.5q-100 0 -187 26t-128 60zM260 106q31 -20 77 -31.5 t91 -11.5q80 0 150.5 55.5t124 145.5t83.5 204q29 107 29 216v14v11q-1 90 -31 150q-32 63 -106 63q-53 0 -104.5 -47.5t-95.5 -114t-80 -139t-60 -121.5z" />
<glyph unicode="c" horiz-adv-x="876" d="M82 334q0 147 47 277t128 227.5t190.5 154t234.5 56.5q78 0 127 -12.5t74 -35.5q1 -6 1 -13q0 -18 -4 -37q-6 -27 -17 -54t-28.5 -49.5t-35.5 -30.5l-140 144q-70 -2 -138 -43t-123 -117q-54 -75 -88 -183q-31 -99 -31 -221v-22v-9q0 -134 56 -198q58 -66 159 -66 q43 0 80.5 12.5t70.5 31t59.5 39t47.5 36.5l30 -39q-23 -39 -57.5 -75.5t-81.5 -66.5t-105.5 -47.5t-127.5 -17.5q-152 0 -240 96.5t-88 262.5z" />
<glyph unicode="d" horiz-adv-x="1095" d="M92 287q0 145 41 281.5t119 241.5t188.5 168.5t251.5 63.5q53 0 80 -7t68 -25l78 387l-144 18v51q31 12 68 23t76.5 21t80.5 18t76 12l43 -16l-280 -1411h149v-52q-41 -33 -98.5 -53t-112.5 -20q-59 0 -84.5 25.5t-25.5 54.5q0 37 14 120.5t43 212.5h-8 q-27 -74 -68 -149.5t-93 -137t-114.5 -100.5t-134.5 -39q-213 0 -213 312zM276 319q0 -104 26 -160.5t89 -56.5q55 0 110.5 52.5t104.5 126t88 153.5t62 133l65 351q-31 20 -56.5 27t-72.5 9q-98 -2 -176 -60t-131 -149.5t-81 -204t-28 -221.5z" />
<glyph unicode="e" horiz-adv-x="929" d="M82 342q0 145 41 274t114.5 225.5t179 152t234.5 55.5q98 0 169 -50.5t71 -148.5q0 -145 -144.5 -229t-465.5 -109q-8 -35 -11.5 -67.5t-3.5 -63.5q0 -123 62.5 -201t183.5 -78q39 0 77 12.5t71.5 31t61.5 39t48 36.5l33 -39q-18 -39 -53 -75.5t-82 -66.5t-106.5 -47.5 t-127.5 -17.5q-170 0 -261 97.5t-91 269.5zM295 600q199 6 309.5 68.5t110.5 173.5q0 43 -25.5 80t-101.5 39q-88 -2 -164 -83t-129 -278z" />
<glyph unicode="f" horiz-adv-x="608" d="M-106 -389q25 12 59.5 44t68 85t63.5 130t46 179l133 873h-149v53q41 23 87 40t87 27l14 72q27 127 73 210t107.5 131t135 66.5t157.5 18.5q35 0 83 -8t81 -25q-4 -45 -21.5 -93t-58.5 -83l-155 127q-37 -10 -68 -22.5t-58.5 -46t-52 -95t-47.5 -168.5l-20 -102h227 q2 -13 2 -26q0 -38 -22 -76h-228l-131 -834q-23 -145 -76 -241.5t-113.5 -156t-117.5 -88t-88 -36.5z" />
<glyph unicode="g" horiz-adv-x="1001" d="M-113 -195q0 57 26 106.5t69 93.5t98 81t115 70q-31 16 -50.5 43.5t-19.5 62.5q0 31 20.5 64.5t48 64.5t55 53.5t42.5 32.5q-25 6 -50.5 22.5t-48 43t-37 61.5t-14.5 78q0 80 34 147.5t93.5 115.5t137 76t167.5 28q98 0 161 -25t97 -53q18 16 49 32.5t66 31t72 26.5 t69 22q6 -10 11 -31q3 -16 3 -36v-8q-1 -25 -8.5 -50.5t-21.5 -46.5l-211 15q6 -18 12.5 -42t6.5 -53q0 -82 -34 -151.5t-93.5 -119.5t-138 -78.5t-167.5 -28.5q-35 0 -56 1t-48 7q-18 -20 -50 -48t-32 -61q0 -35 45 -53t113.5 -33.5t148.5 -33t148.5 -47t113.5 -77 t45 -124.5q0 -96 -54 -173t-143 -131.5t-203 -84t-230 -29.5q-94 0 -162 19.5t-111 53t-63.5 76.5t-20.5 90zM72 -150q-2 -92 70.5 -144t195.5 -52q63 0 125.5 18.5t113 52t82 84t31.5 113.5q0 61 -50 95t-122 54.5t-148.5 34t-131.5 31.5q-96 -70 -132 -145 q-34 -72 -34 -135v-7zM307 686q0 -78 50.5 -114.5t107.5 -36.5q61 0 105 21.5t74 58t44 83.5t14 99q0 76 -35.5 123t-109.5 47q-59 0 -105 -22.5t-79 -60.5t-49.5 -89.5t-16.5 -108.5z" />
<glyph unicode="h" horiz-adv-x="1112" d="M70 0l280 1397l-139 18v47q31 12 68.5 25.5t78.5 25t80 18.5t74 9l43 -18l-184 -860h10q39 82 88 152.5t103.5 122.5t113.5 82t121 30q94 0 136 -54.5t42 -134.5q0 -55 -10 -118.5t-25 -123.5l-116 -503h151v-54q-41 -33 -98.5 -53t-114.5 -20q-59 0 -81.5 24.5 t-22.5 53.5q0 37 10 83t20 93l74 342q14 63 25.5 118.5t11.5 106.5q0 47 -20.5 80t-55.5 33q-63 0 -122.5 -45.5t-110.5 -108.5t-90 -132t-60 -114l-108 -522h-172z" />
<glyph unicode="i" horiz-adv-x="567" d="M111 76q0 41 6 80t16 86l143 661l-131 21v51q31 12 70 25.5t80 23.5t78 17.5t65 7.5l37 -25l-192 -909h151v-54q-43 -33 -100.5 -53t-112.5 -20q-59 0 -84.5 26.5t-25.5 61.5zM309 1378q0 53 33 84t86 31q57 0 90 -30.5t33 -84.5q0 -51 -33 -79.5t-90 -28.5 q-53 0 -86 28.5t-33 79.5z" />
<glyph unicode="j" horiz-adv-x="563" d="M-150 -389q25 12 58 42t65.5 82t64.5 130t54 184l180 856l-122 19v51q63 29 141 51.5t141 22.5l41 -25l-199 -936q-31 -145 -85 -241.5t-113.5 -156t-113.5 -88t-87 -36.5zM299 1378q0 53 33 84t86 31q57 0 90 -30.5t33 -84.5q0 -51 -33 -79.5t-90 -28.5q-53 0 -86 28.5 t-33 79.5z" />
<glyph unicode="k" horiz-adv-x="985" d="M70 0l278 1397l-143 18v51q59 27 144 48.5t157 25.5l43 -22l-193 -957h60q43 27 89 66t88 80t74.5 78.5t51.5 64.5q2 14 3 38.5t0 50.5t-2 49.5t-3 35.5q76 27 147 27q74 0 123 -27q-27 -68 -82 -135.5t-118.5 -125.5t-125 -106.5t-98.5 -74.5q14 -39 46 -101.5t70 -130 t80 -131t77 -104.5h129v-54q-41 -33 -89.5 -53t-101.5 -20q-49 0 -88 22.5t-74 81.5q-66 111 -110.5 210t-85.5 185l-74 21l-96 -508h-176z" />
<glyph unicode="l" horiz-adv-x="567" d="M94 76q0 41 6 80t17 86l239 1155l-145 18v51q29 12 66.5 25t79.5 24t83 18t74 7l41 -22l-283 -1403h150v-54q-41 -33 -99.5 -53t-113.5 -20q-59 0 -87 26.5t-28 61.5z" />
<glyph unicode="m" horiz-adv-x="1638" d="M88 0l191 905l-125 19v51q68 35 146.5 54.5t135.5 19.5l43 -25l-90 -362h8q25 57 69 124.5t101.5 126t123 97.5t130.5 39q25 0 49.5 -8.5t43 -30t30.5 -58.5t12 -94q0 -45 -9 -96t-21 -100q31 70 78 138t102 123.5t117.5 90.5t128.5 35q78 0 117.5 -49.5t39.5 -135.5 q0 -66 -12 -124t-27 -126l-133 -499h152v-54q-41 -33 -100.5 -53t-112.5 -20q-59 0 -82 26.5t-23 63.5q0 59 29 164l96 372q12 49 23.5 102.5t13.5 88.5q-2 53 -17.5 85t-62.5 32q-49 0 -100 -39t-97 -98.5t-84 -129t-63 -131.5l-125 -524h-163l129 575q14 63 24 122t10 122 q0 47 -16 75t-57 28t-90.5 -39t-96.5 -98.5t-87 -129t-64 -133.5l-109 -522h-176z" />
<glyph unicode="n" horiz-adv-x="1130" d="M88 0l180 905l-125 19l4 51q29 14 65 27.5t74 23.5t73.5 16.5t66.5 6.5l41 -25l-78 -362h10q39 82 89.5 152.5t106.5 122.5t117.5 82t125.5 30q86 0 126 -54.5t40 -136.5q0 -45 -10.5 -112.5t-24.5 -127.5l-117 -503h152v-54q-41 -33 -99.5 -53t-113.5 -20 q-59 0 -82 24.5t-23 53.5q0 39 10.5 85t20.5 93l74 340q14 63 25 117.5t11 107.5q0 47 -21.5 80t-68.5 33q-55 0 -112.5 -45.5t-106.5 -108.5t-89 -132t-60 -114l-109 -522h-172z" />
<glyph unicode="o" horiz-adv-x="1042" d="M84 381q0 109 34 226.5t103.5 216t174 162t243.5 63.5q160 0 241 -98.5t81 -291.5q0 -135 -39 -259t-109 -218t-168 -150.5t-217 -56.5q-158 0 -251 101.5t-93 304.5zM268 336q0 -121 53.5 -197t143.5 -76q72 0 128 54.5t96 143.5t61.5 201.5t21.5 227.5q0 121 -42 195 t-132 76q-100 -2 -163.5 -66t-100.5 -158t-51.5 -202.5t-14.5 -198.5z" />
<glyph unicode="p" horiz-adv-x="1110" d="M2 -391l88 407l191 889l-125 19v51q68 29 142.5 51.5t139.5 22.5l41 -25l-84 -360h8q37 82 81 151.5t95.5 121.5t111 82t126.5 30q45 0 86 -17.5t72 -53.5t48 -89t17 -123q0 -158 -47 -301t-128 -252t-189.5 -173.5t-233.5 -64.5q-35 0 -59.5 2.5t-42.5 7.5t-35.5 13 t-38.5 18l-67 -315q72 -12 143 -51v-60h-322zM287 111q29 -25 60.5 -36.5t101.5 -11.5q82 0 154.5 60.5t126.5 155t86 210t32 228.5q0 98 -34 151.5t-93 53.5t-112.5 -46.5t-99.5 -112t-83 -138t-59 -127.5z" />
<glyph unicode="q" horiz-adv-x="1054" d="M82 287q0 145 39 281.5t115.5 241.5t190.5 168.5t265 63.5q45 0 91 -6t87 -15t75 -20.5t54 -21.5l-274 -1278q68 -12 143 -51v-60h-321l-19 17l183 792h-9q-27 -72 -66.5 -147.5t-91.5 -137t-114.5 -100.5t-134.5 -39q-213 0 -213 312zM266 319v-14q0 -94 25 -147 q27 -56 90 -56q55 0 109.5 52.5t103.5 126t88 152.5t61 132l68 361q-23 16 -53.5 22t-77.5 6q-104 0 -182 -58t-130.5 -150.5t-77.5 -205.5q-24 -104 -24 -205v-16z" />
<glyph unicode="r" horiz-adv-x="788" d="M88 0l191 905l-125 19v51q70 33 145.5 50t136.5 24l41 -25l-57 -272h8q59 135 145 216t185 81q27 0 53.5 -5.5t50.5 -19.5q0 -18 -6 -48t-17.5 -60.5t-24.5 -58.5t-28 -42l-161 84q-53 -20 -120 -103t-118 -225l-123 -571h-176z" />
<glyph unicode="s" horiz-adv-x="856" d="M14 37q10 53 24.5 103t59.5 93l185 -170q43 0 85 10.5t75.5 33t55 55.5t23.5 80q-2 49 -27.5 84.5t-65.5 68.5t-85 66t-85 72.5t-65.5 92t-25.5 126.5t28.5 129t79 92t121 56.5t154.5 19.5q53 0 119.5 -9.5t126.5 -44.5q0 -23 -8.5 -52.5t-21.5 -57t-29.5 -51 t-35.5 -31.5l-151 158q-43 -2 -80 -10.5t-64.5 -27t-43 -48t-15.5 -74.5q0 -53 26.5 -91t66.5 -72t86 -65.5t86 -71.5t67 -92.5t27 -123.5q0 -74 -34 -131.5t-92.5 -97.5t-135 -60.5t-162.5 -20.5t-157 17.5t-112 44.5z" />
<glyph unicode="t" horiz-adv-x="690" d="M109 922l2 53q41 23 87 41t91 28l33 156q29 23 66.5 40t78.5 34l43 -25l-49 -225h254q2 -12 2 -25t-2 -27q-4 -26 -21 -50h-254l-129 -594q-8 -39 -12 -69t-4 -54q0 -53 30.5 -78t67.5 -25q51 0 109.5 19.5t107.5 44.5l23 -37q-18 -27 -55 -53.5t-83 -49t-96.5 -37 t-95.5 -14.5q-90 0 -141 41t-51 127q0 29 5 64t13 72l135 643h-155z" />
<glyph unicode="u" horiz-adv-x="1110" d="M109 168q0 45 14 133t34.5 192.5t44 214t42.5 197.5l-125 19v51q33 12 70.5 24.5t75.5 22.5t73 17.5t63 9.5l45 -25q-33 -154 -66.5 -292t-62.5 -292q-10 -49 -21 -109.5t-11 -131.5q0 -43 23.5 -70t53.5 -27q45 0 90.5 27t85.5 70t75.5 95t64.5 103.5t48 95.5t30 70 l90 461h170l-168 -911h151v-52q-41 -33 -99 -53t-114 -20q-59 0 -84.5 24.5t-25.5 53.5q0 37 10 123.5t45 211.5h-8q-27 -57 -67 -130.5t-95 -139t-125.5 -111t-156.5 -45.5q-72 0 -121 50.5t-49 142.5z" />
<glyph unicode="v" horiz-adv-x="915" d="M31 922v51q12 8 36.5 21.5t54.5 25.5t61.5 20.5t60.5 8.5q45 0 64.5 -22.5t25.5 -55.5l94 -666l10 -129h4l68 133q74 123 131 239t98 232q0 23 -5 58.5t-10 72.5t-11 69t-11 44q59 25 122 26h4q60 0 106 -26q-31 -127 -84 -259t-122 -263t-149.5 -258t-168.5 -244 l-97 -25l-151 930z" />
<glyph unicode="w" horiz-adv-x="1406" d="M31 922v51q12 8 36.5 21.5t54.5 25.5t61.5 20.5t60.5 8.5q45 0 68.5 -21.5t27.5 -56.5l55 -647l-8 -148h4l62 150l331 673l70 25q25 -174 41 -287.5t23 -167.5q16 -123 32 -245l2 -148h4l54 133q76 123 129 238t92 231q0 23 -5 59.5t-10.5 73.5t-11.5 69t-10 44 q29 12 61.5 18.5t63.5 6.5q61 0 108 -25q-31 -127 -82 -259t-116.5 -263t-143 -258t-165.5 -244l-97 -25l-86 582v168h-6l-82 -168q-68 -141 -137.5 -279.5t-138.5 -277.5l-113 -25l-98 930z" />
<glyph unicode="x" horiz-adv-x="929" d="M-49 14q18 61 75.5 137t127 148t135 130t98.5 87l-139 377l-131 16v52q12 8 35.5 21t53.5 25.5t60.5 20.5t59.5 8q45 0 65.5 -23.5t32.5 -54.5l100 -356q47 47 103.5 106.5t85.5 112.5q2 14 2 41t-2 56.5t-4 55t-4 38.5q35 12 68.5 19t68.5 7q66 0 114 -26 q-12 -41 -40.5 -88t-67.5 -94.5t-83 -93.5t-85 -86t-77 -71.5t-56 -50.5l147 -399l133 -16v-52q-12 -8 -35.5 -20t-51 -24.5t-59.5 -20.5t-58 -8q-43 0 -65.5 22.5t-33.5 55.5l-112 370q-23 -25 -52.5 -53.5t-58.5 -59t-53.5 -61.5t-38.5 -57q-4 -14 -5 -41t-2 -56.5t-1 -55 t2 -38.5q-35 -14 -71 -20t-69 -6q-68 0 -112 26z" />
<glyph unicode="y" horiz-adv-x="931" d="M-31 -395v11q0 19 5 40q6 29 19 57.5t34.5 53t48.5 38.5l166 -86q14 10 36.5 30t47 53.5t49 81.5t47.5 116l-242 905l-131 17v51q10 8 33.5 20.5t54.5 24.5t63.5 21.5t61.5 9.5q43 0 62.5 -21.5t29.5 -56.5l170 -717l6 -123h5l47 121q27 57 54.5 125.5t54 138.5t49 137.5 t38.5 124.5q0 23 -5 59.5t-11 73.5t-12.5 69t-10.5 44q29 12 62 18.5t63 6.5q61 0 109 -25q-63 -254 -173 -508t-243 -516q-111 -215 -221.5 -321.5t-249.5 -106.5q-31 0 -58.5 8t-58.5 25z" />
<glyph unicode="z" horiz-adv-x="892" d="M-49 55l287 314l450 497q-36 -2 -74 -2q-60 0 -126 6q-108 10 -222 27l-94 -147l-51 12l29 209q12 80 110 80q74 0 214 -21.5t335 -32.5l47 52q27 -4 50.5 -20.5t27.5 -45.5l-705 -776q121 -23 236 -60.5t213 -91.5l119 135l49 -28l-72 -209q-10 -31 -36.5 -51.5 t-65.5 -20.5t-96.5 25.5t-130 58.5t-156.5 65.5t-176 47.5l-84 -90q-27 4 -51.5 20.5t-26.5 46.5z" />
<glyph unicode="{" horiz-adv-x="718" d="M111 453l12 61q39 0 72.5 16.5t61.5 46t47.5 68.5t29.5 84l104 488q20 98 82 157.5t160 59.5h184l-16 -88h-100q-55 0 -87 -28t-47 -93l-100 -475q-14 -68 -46 -115t-71 -77t-82 -45t-79 -19l-5 -13q31 -4 62 -17t56.5 -38t42 -60.5t16.5 -84.5q0 -31 -7 -64l-102 -481 q-6 -25 -6 -47q0 -76 88 -72h98l-18 -88h-185q-76 0 -117.5 37t-41.5 110q0 35 8 68l102 485q10 47 11 80q0 68 -33 106t-94 38z" />
<glyph unicode="|" horiz-adv-x="485" d="M250 -266v1700h106v-1700h-106z" />
<glyph unicode="}" horiz-adv-x="718" d="M-106 -471l18 88h98q55 0 87 26.5t46 92.5l103 481q14 68 42.5 115t64.5 76.5t76 45t77 19.5l2 12q-29 2 -57.5 15.5t-51 36t-36 57.5t-13.5 82q0 39 8 74l101 475q6 25 6 45q2 78 -88 76h-96l16 88h186q76 0 117 -38t41 -110q0 -35 -8 -67l-103 -482q-10 -47 -10 -80 q0 -143 127 -143l-12 -61q-39 0 -73 -17.5t-61.5 -46.5t-47 -67.5t-29.5 -83.5l-105 -492q-20 -98 -81.5 -157.5t-159.5 -59.5h-184z" />
<glyph unicode="~" d="M135 659q74 111 141.5 153t129.5 42q51 0 100 -21.5t96 -48t95 -48t100 -21.5q37 0 76.5 15t80.5 54l27 -43q-59 -86 -117.5 -121.5t-113.5 -35.5q-53 0 -103.5 21.5t-99.5 48t-98.5 48t-98.5 21.5q-45 0 -91 -24.5t-93 -88.5z" />
<glyph unicode="&#xa2;" d="M96 350q0 129 44 244t120 206t178.5 151.5t218.5 82.5l70 318h107l-66 -305q6 0 12 1t13 -1q37 0 79.5 -3.5t80.5 -9.5t68 -14t42 -19q2 -23 -3 -50t-16.5 -54t-28 -49.5t-34.5 -30.5l-139 141q-51 0 -97 -6l-180 -846q104 4 174 41t111 74l31 -39q-23 -37 -55.5 -70.5 t-75.5 -61t-96.5 -47t-114.5 -23.5l-68 -328h-106l69 328q-174 16 -256 114.5t-82 255.5zM293 367q-2 -111 44 -173.5t124 -80.5l176 811q-80 -31 -144.5 -84.5t-109.5 -125t-68.5 -159.5t-21.5 -188z" />
<glyph unicode="&#xa3;" d="M-53 0l12 63q53 20 94 43t74 48.5t60.5 56.5t56.5 70q39 51 61.5 112.5t22.5 108.5q0 57 -7.5 99t-17.5 73h-219l22 106h175q-16 66 -23.5 130.5t-7.5 109.5q0 100 27.5 181t90 138.5t161 88t239.5 30.5q125 0 226.5 -20.5t156.5 -48.5q-8 -33 -23.5 -79t-33 -94.5 t-36 -95.5t-32.5 -82h-51l-23 281q-39 16 -91 24.5t-118 8.5q-96 0 -163.5 -31t-102.5 -98q-20 -41 -28.5 -93.5t-6.5 -95.5q2 -68 9.5 -123t19.5 -131h320l-23 -106h-283q2 -23 4.5 -40.5t3.5 -34.5t0 -36.5t-6 -50.5q-4 -68 -49 -148.5t-131 -142.5l-80 -57v-8l113 12h410 l149 229h51q-4 -45 -11 -98t-15.5 -107.5t-17.5 -104.5t-17 -87h-942z" />
<glyph unicode="&#xa5;" d="M78 1374l12 60h539l-13 -60q-33 -12 -73.5 -24.5t-93.5 -26.5l186 -604l424 604q-43 10 -83 22.5t-73 28.5l12 60h453l-12 -60q-88 -39 -166 -51l-465 -637h295l-21 -106h-333l-29 -129h334l-21 -107h-334l-49 -235q78 -10 142 -50l-11 -59h-520l10 59q82 37 183 50 l49 235h-334l20 107h334l29 129h-334l23 106h291l-216 637q-45 10 -82.5 22.5t-72.5 28.5z" />
<glyph unicode="&#xa8;" horiz-adv-x="999" d="M367 1356q0 49 30.5 78.5t81.5 29.5q49 0 80 -29.5t31 -78.5q0 -47 -31 -76t-80 -29q-51 0 -81.5 29t-30.5 76zM780 1356q0 49 31 78.5t80 29.5q51 0 82 -29.5t31 -78.5q0 -47 -31 -76t-82 -29q-49 0 -80 29t-31 76z" />
<glyph unicode="&#xa9;" horiz-adv-x="1652" d="M104 594q0 170 60.5 304t161 226.5t230.5 141.5t271 49t271.5 -49t229.5 -141.5t159.5 -226.5t60.5 -304t-60.5 -304t-159.5 -226.5t-229 -141.5t-272 -49q-147 0 -279 49t-230.5 141.5t-156 226.5t-57.5 304zM211 594q0 -141 48 -257t132 -197t196.5 -126t239.5 -45 t240 45t196 126t131 197t48 257t-51.5 257t-136.5 196.5t-196.5 126t-230.5 45.5q-135 0 -248.5 -45.5t-194.5 -127t-127 -196.5t-46 -256zM424 596q0 106 38 186t98.5 133.5t137 81t154.5 27.5q80 0 143.5 -11.5t104.5 -31.5q2 -18 2 -48t-2 -62.5t-6 -63.5t-11 -51h-51 l-61 170q-14 10 -45 11t-60 3q-117 -2 -181 -93t-64 -251q0 -68 14 -130.5t46 -110.5t83 -75.5t123 -27.5q41 0 66.5 8t33.5 16l57 146h52q8 -31 12 -93.5t-2 -111.5q-18 -14 -46 -23.5t-58.5 -15.5t-63.5 -8t-59 -2q-100 0 -183.5 27.5t-143.5 82t-94 134.5t-34 184z" />
<glyph unicode="&#xab;" horiz-adv-x="944" d="M94 530l527 424l43 -41l-371 -387l223 -370l-61 -43zM492 530l434 420l43 -39l-303 -383l155 -370l-59 -41z" />
<glyph unicode="&#xad;" horiz-adv-x="870" d="M145 512l29 129h578l-27 -129h-580z" />
<glyph unicode="&#xae;" horiz-adv-x="1427" d="M260 924q0 131 44 232t119 171t174 105.5t210 35.5q115 0 214 -35.5t173 -105.5t117 -171t43 -232q0 -133 -44 -234.5t-119 -171t-174 -105.5t-210 -36q-115 0 -214 36t-173 105.5t-117 171t-43 234.5zM356 924q0 -106 36 -191.5t97.5 -146t143.5 -92t174 -29.5 q96 -2 179 29.5t143.5 91t94 144.5t33.5 194q0 106 -35.5 191t-97 144.5t-143.5 92t-174 30.5q-98 2 -180 -30.5t-142.5 -92t-94.5 -144.5t-34 -191zM559 633v49q35 12 72 18v478q-23 2 -39.5 7t-32.5 15v45h78q37 0 88 4t84 4q45 0 87 -9t75 -30.5t51 -54.5t18 -78 q0 -63 -44 -100t-101 -55q37 -59 70.5 -115.5t93.5 -110.5l47 -24v-43h-102l-58 22q-51 61 -81.5 127t-53.5 125h-74v-207q27 -2 44.5 -7t31.5 -11v-49h-254zM737 967h66q123 0 119 114q-2 53 -36 80t-87 27q-23 0 -36 -1t-26 -5v-215z" />
<glyph unicode="&#xb4;" horiz-adv-x="1048" d="M461 1214l260 357q16 2 43 -1t55.5 -9.5t53 -15.5t36.5 -19v-39l-403 -309z" />
<glyph unicode="&#xb8;" horiz-adv-x="911" d="M188 -453q39 6 78 17.5t70 28t49 40t16 52.5q0 18 -5 34.5t-18 29.5t-38 22.5t-66 13.5l115 217h94l-82 -141q86 -4 123 -40t41 -95q2 -63 -35.5 -109.5t-95 -76t-124 -43t-122.5 -11.5v61z" />
<glyph unicode="&#xbb;" horiz-adv-x="944" d="M57 156l301 383l-153 370l57 41l273 -413l-437 -420zM362 154l371 387l-223 370l61 43l359 -417l-524 -424z" />
<glyph unicode="&#x2c6;" horiz-adv-x="903" d="M393 1241l309 381q10 8 27 8q16 0 25 -8l149 -379l-55 -35l-160 219l-235 -219z" />
<glyph unicode="&#x2da;" horiz-adv-x="958" d="M483 1364q0 47 16.5 90t47.5 75t74 50t96 18q78 0 121 -43t43 -110q0 -49 -18.5 -91t-49.5 -73t-73 -48.5t-89 -17.5q-78 0 -123 39t-45 111zM590 1372q0 -37 21.5 -55.5t47.5 -18.5q39 0 76 38t37 110q0 68 -59 67q-63 0 -93 -46t-30 -95z" />
<glyph unicode="&#x2dc;" horiz-adv-x="884" d="M256 1337q76 72 135.5 96.5t106.5 24.5q37 0 68.5 -10t60 -22.5t58.5 -22.5t60 -10q27 0 53.5 9t59.5 32l27 -58q-66 -66 -120 -91t-101 -25q-37 0 -70 11t-63.5 23.5t-60.5 23.5t-60 11q-27 0 -54.5 -10t-60.5 -39z" />
<glyph unicode="&#x401;" horiz-adv-x="1171" d="M-41 0l10 59q84 35 181 50l256 1214q-41 10 -80 22.5t-78 28.5l14 60h969q-16 -82 -39 -166t-53 -166h-54l-34 225h-449l-113 -543h332l113 152h51q-16 -102 -37.5 -205.5t-50.5 -208.5h-51l-47 156h-334l-119 -572h469l154 246h51q-4 -80 -16.5 -171t-34.5 -181h-1010z M472 1616q0 49 33.5 73.5t82.5 24.5q51 0 84 -24.5t33 -73.5q0 -47 -33 -71.5t-84 -24.5q-49 0 -82.5 24.5t-33.5 71.5zM928 1616q0 49 33 73.5t84 24.5q49 0 82 -24.5t35 -73.5q-2 -47 -35 -71.5t-82 -24.5q-51 0 -84 24.5t-33 71.5z" />
<glyph unicode="&#x402;" horiz-adv-x="1529" d="M162 1034q2 41 9 93.5t16.5 106.5t18.5 106.5t17 93.5h1188q-8 -41 -19.5 -92.5t-25.5 -103.5t-29.5 -103.5t-31.5 -94.5h-52l-47 287h-313l-113 -530q63 31 160.5 61.5t214.5 30.5q172 0 247 -79t75 -216q0 -158 -50.5 -271.5t-129 -186.5t-174 -107.5t-187.5 -34.5 l-2 55q72 20 134 59t109.5 102.5t75 153t27.5 211.5q0 45 -9 83t-33 66t-64.5 43t-104.5 15q-86 0 -166 -25.5t-145 -60.5l-123 -587q35 -10 67.5 -22.5t65.5 -27.5l-12 -59h-531l11 59q49 18 98 29.5t104 20.5l258 1218h-313l-170 -293h-51z" />
<glyph unicode="&#x403;" horiz-adv-x="1017" d="M-41 0l10 59q92 35 181 50l256 1214q-41 8 -80 21.5t-78 29.5l14 60h959q-8 -41 -20.5 -94.5t-28 -111t-32 -111.5t-30.5 -97h-53l-41 307h-414l-256 -1218q100 -16 184 -50l-10 -59h-561zM668 1575l299 254q18 2 46.5 -2t58.5 -13.5t55.5 -22.5t37.5 -28v-41l-463 -186z " />
<glyph unicode="&#x404;" horiz-adv-x="1318" d="M135 528q0 209 59.5 380t169 293t266 189.5t353.5 67.5q135 0 229.5 -18.5t157.5 -50.5q-6 -33 -17.5 -77t-26.5 -93.5t-31.5 -96.5t-30.5 -86h-54l-43 295q-27 10 -81 15.5t-105 5.5q-115 0 -214 -37t-178 -111t-135.5 -183.5t-80.5 -252.5l674 29q4 -35 -3.5 -77 t-23.5 -83q-70 6 -154 11t-171 10.5t-174 8.5t-161 3q-6 -66 -6 -138q0 -127 44 -214t110.5 -140t144.5 -75.5t148 -20.5q70 -2 118 10t70 27l152 254h51q0 -57 -11.5 -144.5t-33.5 -169.5q-41 -23 -88 -39t-98.5 -26t-100.5 -14.5t-92 -4.5q-174 0 -295 49.5t-195.5 129 t-108.5 178t-34 196.5z" />
<glyph unicode="&#x405;" horiz-adv-x="1079" d="M45 72q8 37 23.5 87t34 101t37 99.5t34.5 82.5h53l21 -301q23 -18 76 -39.5t112 -19.5q68 -2 131.5 10t114.5 43t82 81t31 126q0 84 -40 141.5t-99.5 101.5t-128 84t-128 89t-99.5 115.5t-40 164.5q0 94 34 171t100.5 132.5t162.5 86t219 30.5q125 0 223.5 -19.5 t153.5 -47.5q-8 -35 -23.5 -81t-32 -95.5t-35 -95.5t-32.5 -81h-53l-25 281q-35 16 -89 24.5t-118 8.5q-61 0 -115.5 -14.5t-94 -44t-62 -74.5t-22.5 -107q0 -82 39.5 -136t99 -97t128 -83t128 -91.5t99.5 -124t40 -179.5q0 -96 -38 -173.5t-108.5 -134t-174 -87.5 t-234.5 -31q-66 0 -126 8.5t-110.5 22.5t-89 31.5t-59.5 34.5z" />
<glyph unicode="&#x406;" horiz-adv-x="702" d="M-2 0l10 59q90 37 176 50l256 1214q-41 8 -77.5 21.5t-75.5 29.5l14 60h524l-12 -60q-41 -16 -88 -29.5t-88 -21.5l-256 -1214q41 -8 81 -20.5t70 -29.5l-10 -59h-524z" />
<glyph unicode="&#x407;" horiz-adv-x="702" d="M-2 0l10 59q90 37 176 50l256 1214q-41 8 -77.5 21.5t-75.5 29.5l14 60h524l-12 -60q-41 -16 -88 -29.5t-88 -21.5l-256 -1214q41 -8 81 -20.5t70 -29.5l-10 -59h-524zM305 1616q0 49 33 73.5t82 24.5q51 0 83 -24.5t32 -73.5q0 -47 -32 -71.5t-83 -24.5q-49 0 -82 24.5 t-33 71.5zM668 1616q0 49 32.5 73.5t81.5 24.5q51 0 83 -24.5t32 -73.5q0 -47 -31.5 -71.5t-83.5 -24.5q-49 0 -81.5 24.5t-32.5 71.5z" />
<glyph unicode="&#x408;" horiz-adv-x="677" d="M-66 -297q41 33 75 66.5t62.5 84t53.5 122t47 178.5l246 1169q-88 20 -152 51l13 60h522l-10 -60q-41 -18 -88.5 -30.5t-88.5 -20.5l-241 -1147q-31 -141 -83 -233.5t-112.5 -148.5t-121 -83.5t-107.5 -38.5z" />
<glyph unicode="&#x409;" horiz-adv-x="1865" d="M-82 164q0 12 1 24.5t3 24.5l41 51l227 -43q41 51 89.5 135t99.5 214t104.5 312.5t106.5 430.5q-121 23 -195 61l13 60h1087l-12 -60q-41 -16 -89 -29.5t-102 -21.5l-98 -469q39 6 92 10t94 4q98 0 177 -21.5t136.5 -63.5t88 -102t30.5 -138q0 -162 -63 -267.5 t-159.5 -168t-210 -88t-214.5 -25.5q-10 0 -38.5 1t-66.5 2t-78 2t-71 1h-252l13 59q86 37 168 50l256 1218h-381q-51 -213 -98.5 -378t-90.5 -289.5t-84 -215t-80.5 -158t-79.5 -117.5t-81 -91q-53 -53 -119 -78t-119 -25q-18 27 -30.5 81.5t-14.5 107.5zM1036 111 q8 -4 26.5 -5.5t40 -3.5t42 -2h33.5q80 0 154.5 23.5t133 78t94 138.5t33.5 201q2 47 -11 88t-45 70.5t-87 46t-137 16.5q-47 0 -80 -3t-62 -9z" />
<glyph unicode="&#x40a;" horiz-adv-x="2015" d="M-41 0l12 59q45 20 90 30.5t91 19.5l256 1214q-92 14 -158 51l12 60h520l-12 -60q-41 -18 -83 -30.5t-83 -20.5l-108 -508h645l108 508q-41 10 -73.5 22.5t-71.5 28.5l12 60h533l-13 -60q-41 -16 -90 -29.5t-100 -21.5l-109 -510q39 6 92.5 10t94.5 4q98 0 179 -20.5 t138 -61t89 -100t32 -137.5q0 -152 -63.5 -251t-160 -157.5t-210 -82t-215.5 -23.5q-10 0 -39 1t-67 2t-77.5 2t-70.5 1h-246l12 59q43 18 82 30.5t84 19.5l127 600h-645l-125 -600q78 -16 141 -50l-10 -59h-520zM1188 111q8 -4 27.5 -5.5t41 -3.5t42 -2h30.5q82 0 157 19.5 t132 68t91 125t34 187.5q0 43 -13.5 83t-45 70.5t-86 49t-136.5 18.5q-49 0 -84 -3t-63 -9z" />
<glyph unicode="&#x40b;" horiz-adv-x="1566" d="M162 1034q2 41 8 93.5t14.5 106.5t18.5 106.5t20 93.5h1188q-8 -41 -20.5 -91.5t-26.5 -103.5t-29.5 -104.5t-29.5 -92.5h-52l-47 285h-313l-113 -530q61 31 150.5 61.5t206.5 30.5q135 0 214 -67.5t81 -215.5q0 -66 -19 -151l-74 -346q70 -12 136 -50l-11 -59h-342 l97 469q12 59 14 115.5t-15.5 100.5t-55.5 70.5t-105 26.5q-86 0 -160 -25.5t-139 -60.5l-123 -587q35 -10 68.5 -22.5t64.5 -27.5l-10 -59h-533l11 59q49 16 98 28.5t104 21.5l256 1218h-311l-168 -293h-53z" />
<glyph unicode="&#x40c;" horiz-adv-x="1304" d="M-41 0l10 59q92 37 181 50l256 1214q-45 8 -85 20.5t-73 30.5l14 60h518l-12 -60q-70 -33 -166 -51l-119 -567l123 28l492 539q-41 10 -74 21.5t-63 29.5l14 60h465l-15 -60q-37 -18 -82 -30.5t-83 -20.5l-531 -553q37 -68 85 -149.5t102.5 -170t112.5 -178.5t116 -172 l88 -49l-10 -51h-248l-60 49q-92 141 -178 305t-162 332h-108l-121 -577q84 -16 141 -50l-10 -59h-518zM768 1575l299 254q18 2 46.5 -2t58.5 -13.5t55.5 -22.5t37.5 -28v-41l-463 -186z" />
<glyph unicode="&#x40e;" horiz-adv-x="1331" d="M190 1374l13 60h538l-12 -60q-35 -16 -81 -28.5t-97 -22.5l217 -678l16 -131h4l70 135l389 674q-94 18 -164 51l13 60h456l-12 -60q-29 -14 -67.5 -27.5t-90.5 -23.5l-606 -971q-127 -195 -234.5 -290t-224.5 -72q-10 18 -17 47t-13 59.5t-8.5 61t2.5 55.5l59 49l215 -55 q10 8 24.5 24.5t29 37t27.5 41t21 36.5l-323 977q-35 10 -72 21.5t-72 29.5zM618 1726q33 27 92.5 40.5t102.5 17.5l51 -27v-135q12 -10 31.5 -18.5t52.5 -8.5q45 0 92 12.5t87 34t70.5 52t43.5 69.5q20 0 40.5 -8t30.5 -22q-12 -43 -47 -85t-87 -76t-120.5 -54.5 t-150.5 -20.5q-84 0 -141.5 23.5t-91 59.5t-47 76t-9.5 70z" />
<glyph unicode="&#x40f;" horiz-adv-x="1452" d="M-41 0l12 59q41 20 87 30.5t92 19.5l256 1214q-39 4 -78 17.5t-78 33.5l12 60h518l-10 -60q-25 -14 -65.5 -27.5t-102.5 -23.5l-256 -1217h623l258 1217q-37 10 -74 22.5t-68 28.5l11 60h518l-10 -60q-35 -16 -78 -29.5t-103 -21.5l-258 -1214q82 -16 158 -50l-12 -59 h-582q-29 -92 -65.5 -189.5t-85.5 -201.5h-54q0 100 3 197.5t12 193.5h-580z" />
<glyph unicode="&#x410;" horiz-adv-x="1380" d="M-100 0l12 59q80 33 160 50l809 1349h53l231 -1349q37 -8 75 -19.5t69 -30.5l-11 -59h-520l10 59q92 35 181 50l-62 374h-481l-219 -374q88 -12 164 -50l-11 -59h-460zM485 590h406l-66 434l-4 176h-4l-82 -180z" />
<glyph unicode="&#x411;" horiz-adv-x="1208" d="M-41 0l10 59q88 37 181 50l256 1214q-45 8 -84 21.5t-74 29.5l14 60h981q-14 -82 -40.5 -183.5t-61.5 -187.5h-54l-47 264h-438l-102 -493q49 8 97 11t89 3q203 0 318.5 -75t115.5 -234q0 -117 -44 -216.5t-127 -172t-202.5 -114.5t-269.5 -42q-10 0 -39.5 1t-68.5 2 t-80 2t-72 1h-258zM346 111q8 -4 27.5 -5.5t41 -3.5t42 -2h32.5q96 0 173 31t130.5 87t81 133t27.5 167q0 47 -10 88t-39 71t-81 47t-134 17q-47 0 -85 -3t-75 -7z" />
<glyph unicode="&#x412;" horiz-adv-x="1239" d="M-41 0l10 59q92 39 181 50l256 1214q-41 8 -80 21.5t-78 29.5l14 60h217q76 0 152 6t190 6q82 0 156 -14.5t129 -45t88 -81t33 -123.5q0 -72 -21.5 -136.5t-66.5 -119t-114 -95t-161 -65.5v-8q47 -4 96.5 -20.5t89.5 -48.5t64.5 -80t24.5 -113q0 -109 -41 -201 t-122 -160.5t-204 -107.5t-287 -39q-72 0 -158.5 6t-170.5 6h-197zM334 111q27 -8 65.5 -13.5t124.5 -3.5q84 -2 160 22.5t133 72t91 116t34 156.5q0 68 -23.5 110.5t-67.5 65t-105.5 31t-137.5 8.5h-155zM475 782h103q35 0 83 3t82 8q162 57 224.5 154t62.5 212 q0 80 -57.5 130t-192.5 50q-66 0 -111.5 -3t-76.5 -7z" />
<glyph unicode="&#x413;" horiz-adv-x="1017" d="M-41 0l10 59q92 35 181 50l256 1214q-41 8 -80 21.5t-78 29.5l14 60h959q-8 -41 -20.5 -94.5t-28 -111t-32 -111.5t-30.5 -97h-53l-41 307h-414l-256 -1218q100 -16 184 -50l-10 -59h-561z" />
<glyph unicode="&#x414;" horiz-adv-x="1388" d="M-115 -309q2 39 6.5 94t9.5 112.5t12 111.5t15 97h170q72 84 146.5 218.5t143.5 296t127 340t95 352.5q-51 10 -103 25.5t-93 35.5l14 60h1085l-14 -60q-66 -29 -178 -51l-256 -1217h233q-10 -43 -24 -96t-30.5 -110.5t-36 -112.5t-38.5 -96h-53l-12 309h-1008l-162 -309 h-49zM231 106h637l256 1221h-389q-66 -252 -133 -449.5t-131.5 -348t-125 -255t-114.5 -168.5z" />
<glyph unicode="&#x415;" horiz-adv-x="1171" d="M-41 0l10 59q84 35 181 50l256 1214q-41 10 -80 22.5t-78 28.5l14 60h969q-16 -82 -39 -166t-53 -166h-54l-34 225h-449l-113 -543h332l113 152h51q-16 -102 -37.5 -205.5t-50.5 -208.5h-51l-47 156h-334l-119 -572h469l154 246h51q-4 -80 -16.5 -171t-34.5 -181h-1010z " />
<glyph unicode="&#x416;" horiz-adv-x="1921" d="M-74 0l11 51l106 49q92 82 178 171t165 178.5t149.5 171t130.5 149.5l-263 553q-82 23 -133 51l13 60h436l-12 -60q-63 -31 -150 -51l234 -551h141l117 551q-41 12 -74 24.5t-62 26.5l13 60h473l-13 -60q-27 -12 -62.5 -25.5t-80.5 -25.5l-121 -567l138 28l456 539 q-37 10 -69.5 22.5t-67.5 28.5l12 60h465l-12 -60q-41 -16 -83 -28.5t-83 -22.5l-498 -555q33 -63 74 -145t88 -171.5t100.5 -179.5t112.5 -172l86 -49l-10 -51h-244l-57 51q-47 70 -86 147.5t-75 158.5t-68.5 164t-69.5 165h-123l-123 -577q33 -10 63.5 -21.5t59.5 -28.5 l-10 -59h-475l10 59q72 35 160 50l125 593l-142 -28q-49 -70 -105.5 -149t-120 -160.5t-132 -162.5t-144.5 -151l-79 -51h-269z" />
<glyph unicode="&#x417;" horiz-adv-x="1146" d="M20 57q6 33 19.5 76t31 89t36 92t36.5 83h52l26 -282q12 -6 36 -12.5t53.5 -11.5t60 -7t57.5 -2q88 0 163 23.5t130 73.5t86 127t33 181q-2 104 -75 151.5t-194 47.5l-161 -22q0 29 4 59.5t18 58.5h66q35 0 86 3t86 8q57 20 106 55t84 81t55.5 99t22.5 113 q-2 117 -57.5 164t-190.5 47q-61 0 -103 -12.5t-67 -26.5l-160 -250h-53q2 39 4 76t6.5 73.5t12.5 75.5t20 86q82 47 184.5 65.5t190.5 18.5q82 0 156.5 -16.5t131 -52t89.5 -90t33 -130.5q0 -53 -14.5 -109t-52.5 -109.5t-103.5 -101.5t-167.5 -83v-8q41 -6 84 -24.5 t77.5 -52.5t56 -81t21.5 -108q0 -119 -44 -214.5t-125 -163t-199 -103.5t-265 -36q-117 0 -219 24t-164 58z" />
<glyph unicode="&#x418;" horiz-adv-x="1492" d="M-41 0l10 59q90 37 181 50l256 1214q-39 10 -80 21.5t-78 29.5l14 60h518l-12 -60q-35 -16 -77 -28.5t-89 -22.5l-188 -889l-54 -153l125 165l783 828l10 49q-45 10 -84 22.5t-70 28.5l13 60h518l-13 -60q-41 -16 -86 -28.5t-92 -22.5l-258 -1214q43 -8 83 -20.5 t73 -29.5l-10 -59h-518l10 59q35 14 78 27.5t90 22.5l188 886l53 154l-114 -156l-797 -839l-8 -45q45 -8 84 -20.5t69 -29.5l-10 -59h-518z" />
<glyph unicode="&#x419;" horiz-adv-x="1492" d="M-41 0l10 59q90 37 181 50l256 1214q-39 10 -80 21.5t-78 29.5l14 60h518l-12 -60q-35 -16 -77 -28.5t-89 -22.5l-188 -889l-54 -153l125 165l783 828l10 49q-45 10 -84 22.5t-70 28.5l13 60h518l-13 -60q-41 -16 -86 -28.5t-92 -22.5l-258 -1214q43 -8 83 -20.5 t73 -29.5l-10 -59h-518l10 59q35 14 78 27.5t90 22.5l188 886l53 154l-114 -156l-797 -839l-8 -45q45 -8 84 -20.5t69 -29.5l-10 -59h-518zM676 1726q33 27 92.5 40.5t102.5 17.5l51 -27v-135q12 -10 31.5 -18.5t52.5 -8.5q45 0 92 12.5t87 34t70.5 52t43.5 69.5 q20 0 40.5 -8t30.5 -22q-12 -43 -47 -85t-87 -76t-120.5 -54.5t-150.5 -20.5q-84 0 -141.5 23.5t-91 59.5t-47 76t-9.5 70z" />
<glyph unicode="&#x41a;" horiz-adv-x="1304" d="M-41 0l10 59q92 37 181 50l256 1214q-45 8 -85 20.5t-73 30.5l14 60h518l-12 -60q-70 -33 -166 -51l-119 -567l123 28l492 539q-41 10 -74 21.5t-63 29.5l14 60h465l-15 -60q-37 -18 -82 -30.5t-83 -20.5l-531 -553q37 -68 85 -149.5t102.5 -170t112.5 -178.5t116 -172 l88 -49l-10 -51h-248l-60 49q-92 141 -178 305t-162 332h-108l-121 -577q84 -16 141 -50l-10 -59h-518z" />
<glyph unicode="&#x41b;" horiz-adv-x="1323" d="M-81 152.5q-1 33.5 3 60.5l41 51l227 -43q41 51 89.5 135t99.5 214t104.5 312.5t106.5 430.5q-121 23 -195 61l13 60h1075l-13 -60q-37 -16 -82 -29.5t-96 -21.5l-256 -1214q43 -8 83 -20.5t73 -29.5l-12 -59h-521l13 59q41 16 83 27.5t85 22.5l256 1218h-381 q-51 -215 -98.5 -379t-90.5 -288.5t-84 -216t-80.5 -159t-79.5 -116.5t-81 -90q-53 -53 -119 -78t-119 -25q-12 16 -21.5 46t-15.5 64t-7 67.5z" />
<glyph unicode="&#x41c;" horiz-adv-x="1755" d="M-41 0l10 59q82 35 178 52l256 1212q-41 8 -81.5 21.5t-75.5 29.5l12 60h426l145 -936l25 -211h2l107 215l577 932h377l-14 -60q-80 -35 -166 -51l-258 -1217q41 -8 77.5 -19t65.5 -28l-10 -59h-508l10 59q45 16 88 27.5t90 22.5l193 921l61 240h-16l-111 -219 l-647 -1051h-53l-178 1051l-23 239h-18l-54 -260l-194 -921q37 -8 73.5 -20.5t71.5 -29.5l-12 -59h-426z" />
<glyph unicode="&#x41d;" horiz-adv-x="1472" d="M-41 0l10 59q45 20 90 31.5t91 18.5l256 1214q-92 18 -158 51l14 60h518l-12 -60q-35 -18 -80 -30.5t-86 -20.5l-113 -535h644l114 535q-41 10 -76.5 21.5t-68.5 29.5l14 60h518l-12 -60q-41 -20 -87 -31.5t-91 -19.5l-258 -1214q92 -16 155 -50l-10 -59h-518l10 59 q39 16 81 28.5t85 21.5l121 573h-645l-119 -573q37 -8 74 -20.5t67 -29.5l-10 -59h-518z" />
<glyph unicode="&#x41e;" horiz-adv-x="1495" d="M135 569q0 186 56.5 348t163 282t256 189.5t337.5 69.5q150 0 252.5 -49t164.5 -129t90 -183.5t28 -213.5q0 -164 -46 -327t-142.5 -292t-243 -209t-346.5 -80q-147 0 -255 48.5t-177.5 129t-103.5 188t-34 228.5zM354 567q0 -113 30 -203t82 -153.5t122.5 -97 t154.5 -31.5q150 -2 249.5 72.5t159.5 192.5t86 260.5t26 277.5q0 104 -23.5 190t-71 147.5t-116 95.5t-158.5 34q-141 0 -243.5 -74t-169 -188.5t-97.5 -254t-31 -268.5z" />
<glyph unicode="&#x41f;" horiz-adv-x="1452" d="M-41 0l10 59q35 16 78 28.5t103 21.5l256 1214q-41 8 -80 21.5t-78 29.5l14 60h1352l-12 -60q-41 -20 -87.5 -31.5t-91.5 -19.5l-258 -1214q80 -10 156 -50l-10 -59h-518l10 59q25 14 65.5 26.5t100.5 23.5l258 1218h-625l-256 -1218q78 -16 141 -50l-10 -59h-518z" />
<glyph unicode="&#x420;" horiz-adv-x="1220" d="M-41 0l10 59q47 20 91 30.5t90 19.5l256 1214q-45 8 -84 21.5t-74 29.5l14 60h184q82 0 179.5 8t185.5 8q98 0 181 -19.5t141.5 -61.5t91 -104.5t32.5 -148.5q0 -121 -44 -223t-126.5 -178t-199.5 -119t-260 -43h-34t-51.5 1t-55 3t-46.5 4l-94 -452q53 -6 99.5 -19.5 t84.5 -30.5l-10 -59h-561zM465 670q10 -2 29.5 -4t41 -3t41 -2.5t31.5 -1.5q213 0 321.5 122t108.5 333q0 51 -11 93t-43 73t-86 47t-140 16q-49 0 -87 -3t-67 -7z" />
<glyph unicode="&#x421;" horiz-adv-x="1300" d="M135 528q0 209 59.5 380t169 293t266 189.5t353.5 67.5q135 0 229.5 -18.5t157.5 -50.5q-6 -33 -17.5 -77t-26.5 -93.5t-31.5 -96.5t-30.5 -86h-54l-43 295q-27 10 -81 15.5t-105 5.5q-135 0 -250 -52.5t-198.5 -155t-131 -256t-47.5 -356.5q0 -127 44 -214t110.5 -140 t144.5 -75.5t148 -20.5q70 -2 118 10t70 27l152 254h51q0 -57 -11.5 -144.5t-33.5 -169.5q-41 -23 -88 -39t-98.5 -26t-100.5 -14.5t-92 -4.5q-174 0 -295 49.5t-195.5 129t-108.5 178t-34 196.5z" />
<glyph unicode="&#x422;" horiz-adv-x="1249" d="M180 1034q2 41 9.5 93.5t15.5 106.5t17 106.5t20 93.5h1188q-8 -41 -20.5 -92.5t-27 -105.5t-30 -106.5t-29.5 -95.5h-53l-43 293h-314l-258 -1218q49 -10 93.5 -20.5t82.5 -29.5l-10 -59h-575l10 59q49 18 97 29.5t106 20.5l258 1218h-314l-170 -293h-53z" />
<glyph unicode="&#x423;" horiz-adv-x="1331" d="M190 1374l13 60h538l-12 -60q-35 -16 -81 -28.5t-97 -22.5l217 -678l16 -131h4l70 135l389 674q-94 18 -164 51l13 60h456l-12 -60q-29 -14 -67.5 -27.5t-90.5 -23.5l-606 -971q-127 -195 -234.5 -290t-224.5 -72q-10 18 -17 47t-13 59.5t-8.5 61t2.5 55.5l59 49l215 -55 q10 8 24.5 24.5t29 37t27.5 41t21 36.5l-323 977q-35 10 -72 21.5t-72 29.5z" />
<glyph unicode="&#x424;" horiz-adv-x="1589" d="M123 598q0 129 44 244.5t124 203t193.5 138.5t252.5 51q27 0 71 -2t73 -6l20 98q-45 10 -79 21.5t-56 27.5l12 60h461l-12 -60q-25 -14 -59.5 -26.5t-86.5 -22.5l-22 -104q43 10 89 12t79 2q98 0 169.5 -28.5t118 -79t69 -119t22.5 -146.5q0 -133 -43 -249.5t-123 -203.5 t-192.5 -137.5t-250.5 -50.5q-23 0 -67.5 3t-79.5 9l-25 -124q78 -20 123 -50l-12 -59h-461l10 59q70 31 156 47l27 123q-41 -4 -74 -6t-64 -2q-76 0 -149.5 22.5t-130.5 68.5t-92 118t-35 168zM319 610q-2 -70 22 -124t61.5 -92t88 -57.5t103.5 -19.5q25 0 52.5 3.5 t43.5 7.5l172 805q-23 4 -56.5 5t-57.5 1q-98 0 -178.5 -39t-136.5 -109.5t-86 -167t-28 -213.5zM868 324q18 -4 56.5 -5.5t54.5 -1.5q104 0 185 42t135.5 115t83 170t26.5 210q2 145 -67.5 214t-188.5 71q-31 0 -58.5 -2t-56.5 -11z" />
<glyph unicode="&#x425;" horiz-adv-x="1353" d="M-82 0l12 59q41 20 82 30.5t82 19.5l537 612l-254 602q-41 10 -78 21.5t-74 29.5l13 60h544l-12 -60q-63 -29 -168 -51l182 -463l383 463q-39 10 -77.5 20.5t-79.5 30.5l12 60h471l-14 -60q-37 -16 -79 -28.5t-85 -22.5l-488 -555l281 -659q94 -16 154 -50l-11 -59h-544 l10 59q78 37 166 50l-207 514l-430 -517q41 -6 81 -15t74 -32l-12 -59h-471z" />
<glyph unicode="&#x426;" horiz-adv-x="1480" d="M-41 0l10 59q63 27 181 52l256 1212q-76 12 -158 51l14 60h518l-14 -60q-61 -29 -164 -51l-256 -1217h610l261 1217q-37 8 -73 20.5t-71 30.5l12 60h519l-13 -60q-43 -16 -88 -29.5t-90 -21.5l-260 -1217h236q-10 -43 -24.5 -97t-33 -110.5t-38 -110.5t-36.5 -97h-51 l-12 309h-1235z" />
<glyph unicode="&#x427;" horiz-adv-x="1284" d="M209 1374l12 60h479l-14 -60q-29 -14 -63.5 -27.5t-79.5 -23.5l-72 -336q-16 -80 -17 -142.5t18.5 -105.5t63.5 -66.5t115 -23.5q86 0 166 24.5t150 59.5l125 590q-74 18 -136 51l13 60h477l-12 -60q-31 -16 -68 -28.5t-78 -22.5l-258 -1214q37 -8 68.5 -20.5t54.5 -29.5 l-10 -59h-520l10 59q53 23 103 34t98 16l112 526q-63 -31 -162.5 -61.5t-222.5 -30.5q-86 0 -151.5 24.5t-104.5 77.5t-48 135t15 199l74 344q-35 8 -71.5 20.5t-65.5 30.5z" />
<glyph unicode="&#x428;" horiz-adv-x="1886" d="M-41 0l10 59q82 37 160 50l256 1214q-37 10 -74 22.5t-63 28.5l14 60h475l-12 -60q-29 -16 -64.5 -28.5t-78.5 -22.5l-258 -1217h452l258 1217q-35 10 -67.5 22.5t-53.5 28.5l13 60h463l-15 -60q-31 -16 -69.5 -29.5t-73.5 -21.5l-258 -1217h452l261 1217 q-35 10 -68 22.5t-59 28.5l12 60h477l-12 -60q-35 -16 -73 -29.5t-81 -21.5l-258 -1214q37 -8 71 -20.5t60 -29.5l-10 -59h-1786z" />
<glyph unicode="&#x429;" horiz-adv-x="1925" d="M-41 0l10 59q37 16 75 28.5t85 21.5l256 1214q-37 8 -74 20.5t-63 30.5l14 60h475l-12 -60q-29 -16 -64.5 -28.5t-78.5 -22.5l-258 -1217h452l258 1217q-33 10 -64.5 22.5t-56.5 28.5l13 60h463l-15 -60q-27 -16 -62.5 -28.5t-80.5 -22.5l-258 -1217h452l261 1217 q-35 10 -69 22.5t-58 28.5l12 60h479l-14 -60q-66 -37 -154 -51l-260 -1219h236q-10 -41 -25.5 -95t-34 -110.5t-37 -111.5t-35.5 -96h-51l-12 309h-1704z" />
<glyph unicode="&#x42a;" horiz-adv-x="1445" d="M180 1034q2 43 9.5 95.5t16.5 106.5t18 105.5t18 92.5h823l-12 -60q-41 -16 -88 -29.5t-105 -21.5l-98 -469q39 8 93 11t95 3q96 0 178 -19.5t140.5 -59t91.5 -100t33 -142.5q0 -133 -45 -235.5t-130 -173t-208 -107.5t-277 -37q-10 0 -39.5 1t-66.5 2t-78 2t-72 1h-262 l12 59q84 35 181 50l256 1218h-263l-168 -293h-53zM604 111q8 -4 27.5 -5.5t41 -3.5t41 -2h31.5q94 0 172 26t135.5 81t89.5 140t32 202q0 43 -13.5 82t-47.5 68.5t-89 46t-137 16.5q-51 0 -85 -3t-63 -9z" />
<glyph unicode="&#x42b;" horiz-adv-x="1708" d="M-41 0l10 59q88 37 181 50l256 1214q-41 8 -80 21.5t-78 29.5l14 60h545l-14 -60q-41 -16 -89.5 -30.5t-101.5 -20.5l-98 -469q39 8 93 11t95 3q205 0 312.5 -88t107.5 -235q0 -141 -48 -244.5t-133 -172.5t-202 -101.5t-254 -32.5q-10 0 -38.5 1t-66.5 2t-78 2t-71 1 h-262zM346 111q8 -4 27.5 -5.5t41 -3.5t41 -2h31.5q188 0 298 113t108 336q2 43 -10.5 82t-42 67.5t-80.5 46t-131 17.5q-49 0 -84 -3t-64 -9zM1049 0l10 59q43 20 85 30.5t87 19.5l256 1214q-37 10 -73 20.5t-77 30.5l13 60h520l-12 -60q-74 -35 -175 -51l-256 -1214 q47 -8 84 -20.5t66 -29.5l-10 -59h-518z" />
<glyph unicode="&#x42c;" horiz-adv-x="1187" d="M-41 0l10 59q88 37 181 50l256 1214q-41 8 -80 21.5t-78 29.5l14 60h545l-12 -60q-41 -16 -90.5 -30.5t-102.5 -20.5l-98 -469q39 8 93 11t95 3q205 0 324 -84t119 -239q0 -147 -52.5 -252t-141.5 -171.5t-209 -97t-257 -30.5q-10 0 -38.5 1t-66.5 2t-78 2t-71 1h-262z M346 111q8 -4 27.5 -5.5t41 -3.5t42 -2h30.5q94 0 173 26t136.5 81t89.5 140t29 202q2 43 -12 82t-47 68.5t-89 46t-138 16.5q-49 0 -84 -3t-64 -9z" />
<glyph unicode="&#x42d;" horiz-adv-x="1273" d="M41 49q14 88 44 183.5t60 166.5h52l45 -295q29 -10 72.5 -16t97.5 -6q113 0 216 38t186 116.5t141.5 195.5t80.5 273l-608 -62q-2 41 5 81t28 79l590 -2q8 123 -18.5 225t-82 174t-136.5 112t-179 40q-51 0 -108.5 -11.5t-84.5 -27.5l-159 -250h-54q2 27 5.5 63.5 t8.5 77.5t13 85t18 85q39 23 89.5 39.5t103.5 26.5t105.5 14t95.5 4q287 0 439.5 -153.5t152.5 -430.5q0 -190 -59.5 -355t-171 -285.5t-271.5 -189.5t-363 -69q-135 0 -214 19.5t-140 54.5z" />
<glyph unicode="&#x42e;" horiz-adv-x="1968" d="M-41 0l10 59q43 16 87 28.5t94 21.5l256 1214q-76 12 -158 51l14 60h520l-14 -60q-29 -12 -64.5 -25.5t-101.5 -25.5l-113 -535h236q29 141 90.5 264.5t152.5 213.5t210.5 141t265.5 51q150 0 248 -48t156.5 -124t82 -169t23.5 -185q0 -170 -50.5 -340t-148.5 -307.5 t-244.5 -223.5t-339.5 -86q-156 0 -255 64.5t-152 166t-65.5 227.5t6.5 249h-240l-119 -573q47 -10 82 -22.5t61 -27.5l-10 -59h-520zM899 530q0 -80 12.5 -159.5t46 -144t94 -105.5t154.5 -39q96 -2 173 39t135.5 110.5t100.5 160.5t68.5 190.5t39 201t12.5 193.5 q2 57 -9.5 122.5t-47.5 122t-99 93.5t-166 37q-90 0 -162.5 -38t-130 -102.5t-99.5 -148.5t-68.5 -175t-40 -184.5t-13.5 -173.5z" />
<glyph unicode="&#x42f;" horiz-adv-x="1284" d="M-104 0l10 51l108 49q80 70 145.5 138.5t123 133t110.5 126t107 120.5q-29 10 -68 35t-73.5 65t-59.5 95t-25 127q0 242 169 369t493 131q41 0 100.5 -3t122.5 -3h262l-12 -60q-35 -16 -77 -28.5t-101 -22.5l-256 -1214q98 -16 153 -50l-10 -59h-543l11 59q86 37 192 50 l103 493h-189q-61 -74 -113.5 -145.5t-103.5 -141t-106.5 -135t-122.5 -129.5l-80 -51h-270zM494 934q-2 -61 20.5 -106.5t56 -75t70.5 -46t68 -16.5q18 0 45.5 1t56.5 2t53.5 4t38.5 8l131 618q-18 4 -56 7t-67 3q-117 0 -197.5 -34.5t-129.5 -92t-70.5 -128t-19.5 -144.5z " />
<glyph unicode="&#x430;" horiz-adv-x="1095" d="M88 285q0 143 41 279t119 242.5t189.5 171t252.5 64.5q51 0 82 -9t74 -27q82 43 172 43l-184 -936h149v-52q-41 -33 -98.5 -53t-112.5 -20q-59 0 -84.5 25.5t-25.5 54.5q0 37 14 120.5t43 212.5h-8q-27 -74 -67 -149.5t-92 -137t-115.5 -100.5t-135.5 -39 q-213 0 -213 310zM272 319q0 -104 26 -160.5t89 -56.5q55 0 110.5 52.5t104.5 126t88 153.5t62 133l65 351q-29 20 -55.5 28t-73.5 8q-94 0 -171 -58t-131 -150.5t-84 -205t-30 -221.5z" />
<glyph unicode="&#x431;" horiz-adv-x="1052" d="M84 387q0 143 23.5 288.5t72.5 274.5t125 232.5t180 163.5q102 59 218 79.5t237 28.5l131 107h51q-4 -59 -30.5 -123t-61.5 -107q-23 -31 -63.5 -43t-96.5 -16q-164 -14 -274.5 -47t-184 -100.5t-120.5 -180.5t-80 -287h10q45 92 103.5 164t123 122t131 77t132.5 27 q63 0 113 -26t84 -72t52.5 -107.5t18.5 -134.5q0 -133 -42 -263.5t-118 -235t-178 -169t-225 -64.5q-74 0 -134.5 26t-104.5 77t-68.5 128t-24.5 181zM268 342q0 -147 49.5 -213t120.5 -66q70 0 132.5 52.5t109.5 136.5t74.5 192.5t27.5 221.5q0 135 -40 194.5t-126 59.5 q-55 0 -104 -28t-89 -67t-67 -78.5t-39 -66.5q-29 -61 -39 -143t-10 -195z" />
<glyph unicode="&#x432;" horiz-adv-x="997" d="M82 315q0 106 22.5 204.5t60.5 181.5t90 148.5t112 108.5q121 90 295 91q98 0 169.5 -50.5t71.5 -146.5q0 -98 -73.5 -167t-208.5 -118q70 -4 115.5 -23.5t74.5 -49t41 -63.5t12 -66q0 -68 -32.5 -136.5t-91 -125t-140.5 -92.5t-180 -36q-88 0 -151.5 27t-105.5 73 t-61.5 107.5t-19.5 132.5zM266 338q0 -117 49.5 -196t155.5 -79q31 0 67.5 18.5t67.5 53.5t51.5 84.5t22.5 110.5q-2 84 -46 124t-145 58q-45 -10 -98 -16.5t-108 -10.5q-6 -29 -11.5 -66.5t-5.5 -80.5zM291 563q96 0 175 22.5t135 61.5t87 90t31 107q0 41 -20.5 78 t-73.5 39q-47 -2 -94.5 -22.5t-90.5 -68t-80.5 -123t-68.5 -184.5z" />
<glyph unicode="&#x433;" horiz-adv-x="798" d="M33 193q0 70 39 127t97 107t125.5 94t126 87t97.5 88t39 95q0 53 -21.5 92t-93.5 39t-136 -38t-103 -77l-31 35q16 31 49 66.5t79 67.5t100.5 52.5t113.5 20.5q119 0 177.5 -58.5t58.5 -134.5t-39 -135t-97.5 -109.5t-126 -94.5t-126 -88t-97.5 -92t-39 -104 q0 -53 35 -92t121 -39q76 0 142.5 34t117.5 75l29 -31q-27 -37 -67 -73.5t-92 -66.5t-113.5 -47.5t-129.5 -17.5q-47 0 -90 16.5t-75.5 45.5t-51 69t-18.5 87z" />
<glyph unicode="&#x434;" horiz-adv-x="1015" d="M59 344q0 125 42 249t121 222t190.5 159.5t251.5 61.5q37 0 73.5 -8t59.5 -24q0 63 -11.5 139t-39 141.5t-76.5 109.5t-123 44q-76 0 -124 -14.5t-95 -39.5l-27 39q23 25 59.5 46.5t80.5 39t92.5 26.5t95.5 9q80 0 144.5 -34.5t110.5 -106.5t71.5 -182.5t25.5 -264.5 q0 -209 -50 -388t-134 -311t-198 -207t-239 -75q-147 0 -224 97.5t-77 271.5zM244 334q0 -47 6 -94t24.5 -87t51 -65t86.5 -25q68 0 136 65t123.5 178.5t90.5 267t35 331.5q-45 25 -80 33t-74 10q-113 -2 -188.5 -63.5t-122.5 -153.5t-67.5 -198.5t-20.5 -198.5z" />
<glyph unicode="&#x435;" horiz-adv-x="929" d="M82 342q0 145 41 274t114.5 225.5t179 152t234.5 55.5q98 0 169 -50.5t71 -148.5q0 -145 -144.5 -229t-465.5 -109q-8 -35 -11.5 -67.5t-3.5 -63.5q0 -123 62.5 -201t183.5 -78q39 0 77 12.5t71.5 31t61.5 39t48 36.5l33 -39q-18 -39 -53 -75.5t-82 -66.5t-106.5 -47.5 t-127.5 -17.5q-170 0 -261 97.5t-91 269.5zM295 600q199 6 309.5 68.5t110.5 173.5q0 43 -25.5 80t-101.5 39q-88 -2 -164 -83t-129 -278z" />
<glyph unicode="&#x436;" horiz-adv-x="1609" d="M-45 14q-4 27 2 57.5t20.5 58.5t37 51.5t51.5 35.5l88 -121q45 12 89 56.5t76.5 119t53 179t18.5 237.5q2 117 -24.5 169t-87.5 52q-76 0 -138 -57l-22 29q53 74 116.5 114.5t147.5 40.5q43 0 77 -21.5t58.5 -58t36.5 -85t12 -99.5q0 -111 -18 -211h188l94 463h166 l-96 -463h189q27 104 71.5 191.5t101 151t125 98t142.5 34.5q55 0 77.5 -7t49.5 -19q2 -23 -3 -50.5t-19.5 -55t-36 -53.5t-52.5 -42l-88 119q-37 -10 -78 -53.5t-75.5 -118t-57 -180t-20.5 -240.5q-2 -117 33.5 -169t99.5 -52q35 0 62.5 14t56.5 43l22 -29 q-41 -63 -108.5 -109t-141.5 -46q-53 0 -91 21.5t-62.5 58t-35.5 85t-11 101.5q0 57 4 111.5t12 107.5h-184l-97 -473h-163l96 473h-189q-29 -106 -73.5 -195.5t-103 -154t-127 -100t-142.5 -35.5q-57 0 -80.5 8t-48.5 18z" />
<glyph unicode="&#x437;" horiz-adv-x="899" d="M-25 74q2 27 12.5 54.5t27 54t37 49t44.5 36.5l140 -194q16 -4 42.5 -7.5t43.5 -3.5q47 0 96 18.5t89 52.5t65.5 84t27.5 112q-2 82 -45 118.5t-145 53.5l-144 -37q-10 27 -9 55.5t9 54.5h146q111 35 166 106t53 136q2 61 -37 102.5t-127 41.5q-16 0 -45 -3.5t-49 -7.5 q-29 -33 -65 -86t-66 -94q-18 8 -36 28.5t-30 47t-16 57.5t4 60q18 12 49 26.5t77 27.5t105.5 22.5t136.5 9.5q57 0 108.5 -12.5t90.5 -37t61.5 -61.5t22.5 -86q0 -195 -274 -295q63 0 109 -18.5t76 -47t44 -66.5t14 -75q0 -74 -32.5 -142.5t-93 -119.5t-147.5 -82t-196 -31 q-115 0 -203 26t-137 73z" />
<glyph unicode="&#x438;" horiz-adv-x="1110" d="M109 168q0 45 14 133t34.5 192.5t44 214t42.5 197.5l-125 19v51q33 12 70.5 24.5t75.5 22.5t73 17.5t63 9.5l45 -25q-33 -154 -66.5 -292t-62.5 -292q-10 -49 -21 -109.5t-11 -131.5q0 -43 23.5 -70t53.5 -27q45 0 90.5 27t85.5 70t75.5 95t64.5 103.5t48 95.5t30 70 l90 461h170l-168 -911h151v-52q-41 -33 -99 -53t-114 -20q-59 0 -84.5 24.5t-25.5 53.5q0 37 10 123.5t45 211.5h-8q-27 -57 -67 -130.5t-95 -139t-125.5 -111t-156.5 -45.5q-72 0 -121 50.5t-49 142.5z" />
<glyph unicode="&#x439;" horiz-adv-x="1110" d="M109 168q0 45 14 133t34.5 192.5t44 214t42.5 197.5l-125 19v51q33 12 70.5 24.5t75.5 22.5t73 17.5t63 9.5l45 -25q-33 -154 -66.5 -292t-62.5 -292q-10 -49 -21 -109.5t-11 -131.5q0 -43 23.5 -70t53.5 -27q45 0 90.5 27t85.5 70t75.5 95t64.5 103.5t48 95.5t30 70 l90 461h170l-168 -911h151v-52q-41 -33 -99 -53t-114 -20q-59 0 -84.5 24.5t-25.5 53.5q0 37 10 123.5t45 211.5h-8q-27 -57 -67 -130.5t-95 -139t-125.5 -111t-156.5 -45.5q-72 0 -121 50.5t-49 142.5zM428 1399q33 25 72 39t82 18l51 -26v-158q12 -10 31.5 -18.5 t52.5 -8.5q90 0 157.5 56.5t94.5 134.5q18 0 39.5 -9.5t31.5 -23.5q-12 -43 -39.5 -88t-70.5 -82t-100.5 -61.5t-131.5 -24.5q-92 0 -147 27.5t-84 66.5t-36 82t-3 76z" />
<glyph unicode="&#x43a;" horiz-adv-x="1046" d="M88 0l178 905l-143 19v51q59 27 144 48t157 26l43 -23l-92 -465h59q43 27 92 66t94.5 80t82 78.5t55.5 64.5q2 14 3 38.5t0 50.5t-2 49.5t-3 35.5q76 27 147 27q72 0 121 -27q-29 -63 -87 -130t-125 -127t-130.5 -109.5t-99.5 -75.5q14 -39 48 -101.5t73.5 -130 t80.5 -131t70 -106.5h129v-52q-41 -33 -89 -53t-101 -20q-49 0 -85 24.5t-73 83.5q-66 111 -113 208t-88 183l-74 21l-96 -508h-176z" />
<glyph unicode="&#x43b;" horiz-adv-x="1052" d="M-59 102q0 33 8 64t28 57l168 -69q39 49 81 135t80 189.5t71 214t53 208.5q-43 10 -90 29.5t-70 40.5v53h686l-180 -909h152v-54q-41 -33 -98.5 -53t-116.5 -20t-85 24.5t-26 53.5q0 39 8 85t19 93l147 692h-239q-25 -111 -59 -232.5t-76 -238.5t-92 -218.5t-109 -170.5 q-49 -59 -104.5 -81t-121.5 -20q-16 20 -26 54t-8 73z" />
<glyph unicode="&#x43c;" horiz-adv-x="1447" d="M-59 104q0 57 28 103l160 -53q39 49 76 134t70.5 188.5t61.5 215t50 211.5q-41 16 -76 32.5t-51 37.5v51h350l78 -614l6 -142h6l82 148l385 608h185l-183 -909h152v-54q-41 -33 -98.5 -53t-114.5 -20q-59 0 -86 24.5t-27 53.5q0 39 10.5 86t20.5 94l100 456q4 18 11.5 43 t15.5 51.5t17.5 51t15.5 41.5h-6l-555 -889h-56l-41 399l-34 328l-11 162h-8q-23 -92 -48.5 -205t-60 -225.5t-79.5 -214t-105 -170.5q-49 -59 -98 -79t-113 -20q-14 23 -23 57t-7 72z" />
<glyph unicode="&#x43d;" horiz-adv-x="1130" d="M88 0l180 905l-125 19l-2 51q29 14 67 27.5t78 23.5t77.5 16.5t66.5 6.5l41 -25l-96 -461h397l90 461h172l-180 -909h150v-54q-41 -33 -99.5 -53t-113.5 -20q-59 0 -86 24.5t-27 53.5q0 37 11 84l22 94l45 231h-398l-98 -475h-172z" />
<glyph unicode="&#x43e;" horiz-adv-x="1042" d="M84 381q0 109 34 226.5t103.5 216t174 162t243.5 63.5q160 0 241 -98.5t81 -291.5q0 -135 -39 -259t-109 -218t-168 -150.5t-217 -56.5q-158 0 -251 101.5t-93 304.5zM268 336q0 -121 53.5 -197t143.5 -76q72 0 128 54.5t96 143.5t61.5 201.5t21.5 227.5q0 121 -42 195 t-132 76q-100 -2 -163.5 -66t-100.5 -158t-51.5 -202.5t-14.5 -198.5z" />
<glyph unicode="&#x43f;" horiz-adv-x="1130" d="M88 0l180 905l-125 19l4 51q29 14 65 27.5t74 23.5t73.5 16.5t66.5 6.5l41 -25l-78 -362h10q39 82 89.5 152.5t106.5 122.5t117.5 82t125.5 30q86 0 126 -54.5t40 -136.5q0 -45 -10.5 -112.5t-24.5 -127.5l-117 -503h152v-54q-41 -33 -99.5 -53t-113.5 -20 q-59 0 -82 24.5t-23 53.5q0 39 10.5 85t20.5 93l74 340q14 63 25 117.5t11 107.5q0 47 -21.5 80t-68.5 33q-55 0 -112.5 -45.5t-106.5 -108.5t-89 -132t-60 -114l-109 -522h-172z" />
<glyph unicode="&#x440;" horiz-adv-x="1110" d="M2 -391l88 407l191 889l-125 19v51q68 29 142.5 51.5t139.5 22.5l41 -25l-84 -360h8q37 82 81 151.5t95.5 121.5t111 82t126.5 30q45 0 86 -17.5t72 -53.5t48 -89t17 -123q0 -158 -47 -301t-128 -252t-189.5 -173.5t-233.5 -64.5q-35 0 -59.5 2.5t-42.5 7.5t-35.5 13 t-38.5 18l-67 -315q72 -12 143 -51v-60h-322zM287 111q29 -25 60.5 -36.5t101.5 -11.5q82 0 154.5 60.5t126.5 155t86 210t32 228.5q0 98 -34 151.5t-93 53.5t-112.5 -46.5t-99.5 -112t-83 -138t-59 -127.5z" />
<glyph unicode="&#x441;" horiz-adv-x="876" d="M82 334q0 147 47 277t128 227.5t190.5 154t234.5 56.5q78 0 127 -12.5t74 -35.5q2 -23 -3.5 -50t-16.5 -54t-28.5 -49.5t-35.5 -30.5l-140 144q-70 -2 -138 -43t-122.5 -117t-88.5 -183.5t-31 -242.5q-2 -141 56 -207t159 -66q43 0 80.5 12.5t70.5 31t59.5 39t47.5 36.5 l30 -39q-23 -39 -57.5 -75.5t-81.5 -66.5t-105.5 -47.5t-127.5 -17.5q-152 0 -240 96.5t-88 262.5z" />
<glyph unicode="&#x442;" horiz-adv-x="1638" d="M88 0l191 905l-125 19v51q68 35 146.5 54.5t135.5 19.5l43 -25l-90 -362h8q25 57 69 124.5t101.5 126t123 97.5t130.5 39q25 0 49.5 -8.5t43 -30t30.5 -58.5t12 -94q0 -45 -9 -96t-21 -100q31 70 78 138t102 123.5t117.5 90.5t128.5 35q78 0 117.5 -49.5t39.5 -135.5 q0 -66 -12 -124t-27 -126l-133 -499h152v-54q-41 -33 -100.5 -53t-112.5 -20q-59 0 -82 26.5t-23 63.5q0 59 29 164l96 372q12 49 23.5 102.5t13.5 88.5q-2 53 -17.5 85t-62.5 32q-49 0 -100 -39t-97 -98.5t-84 -129t-63 -131.5l-125 -524h-163l129 575q14 63 24 122t10 122 q0 47 -16 75t-57 28t-90.5 -39t-96.5 -98.5t-87 -129t-64 -133.5l-109 -522h-176z" />
<glyph unicode="&#x443;" horiz-adv-x="931" d="M-31 -395q-2 23 4.5 51.5t19.5 57t34.5 53t48.5 38.5l166 -86q14 10 36.5 30t47 53.5t49 81.5t47.5 116l-242 905l-131 17v51q10 8 33.5 20.5t54.5 24.5t63.5 21.5t61.5 9.5q43 0 62.5 -21.5t29.5 -56.5l170 -717l6 -123h5l47 121q27 57 54.5 125.5t54 138.5t49 137.5 t38.5 124.5q0 23 -5 59.5t-11 73.5t-12.5 69t-10.5 44q29 12 62 18.5t63 6.5q61 0 109 -25q-63 -254 -173 -508t-243 -516q-111 -215 -221.5 -321.5t-249.5 -106.5q-31 0 -58.5 8t-58.5 25z" />
<glyph unicode="&#x444;" horiz-adv-x="1437" d="M82 258q0 178 42 322.5t111.5 248t160.5 158.5t188 55q47 0 82.5 -12t62.5 -35l70 402l-144 18v51q59 27 140.5 45.5t150.5 28.5l41 -22l-113 -598q35 47 102.5 88t164.5 41q45 0 84 -15.5t67.5 -50.5t45 -89t16.5 -134q0 -178 -42 -322.5t-112 -248t-161 -159 t-187 -55.5q-59 0 -94 25t-51 53l-70 -352q68 -12 143 -51v-60h-309l-18 17l112 514q-51 -66 -111.5 -109t-156.5 -43q-90 0 -152.5 65.5t-62.5 223.5zM258 264q0 -98 32 -145t85 -47q25 0 54.5 12t57 31.5t52 44t41.5 51.5l133 713q-25 16 -51.5 23t-73.5 7 q-72 0 -131.5 -60t-104.5 -157.5t-69.5 -221.5t-24.5 -251zM723 111q16 -23 47 -35.5t80 -12.5q70 0 130 60.5t104 159t69 221.5t25 250q0 98 -31 145t-84 47q-72 0 -123 -39t-86 -82z" />
<glyph unicode="&#x445;" horiz-adv-x="929" d="M-49 14q18 61 75.5 137t127 148t135 130t98.5 87l-139 377l-131 16v52q12 8 35.5 21t53.5 25.5t60.5 20.5t59.5 8q45 0 65.5 -23.5t32.5 -54.5l100 -356q47 47 103.5 106.5t85.5 112.5q2 14 2 41t-2 56.5t-4 55t-4 38.5q35 12 68.5 19t68.5 7q66 0 114 -26 q-12 -41 -40.5 -88t-67.5 -94.5t-83 -93.5t-85 -86t-77 -71.5t-56 -50.5l147 -399l133 -16v-52q-12 -8 -35.5 -20t-51 -24.5t-59.5 -20.5t-58 -8q-43 0 -65.5 22.5t-33.5 55.5l-112 370q-23 -25 -52.5 -53.5t-58.5 -59t-53.5 -61.5t-38.5 -57q-4 -14 -5 -41t-2 -56.5t-1 -55 t2 -38.5q-35 -14 -71 -20t-69 -6q-68 0 -112 26z" />
<glyph unicode="&#x446;" horiz-adv-x="1112" d="M109 168q0 45 14 133t34.5 192.5t44 214t42.5 197.5l-125 19v51q33 12 70.5 24.5t75.5 22.5t73 17.5t63 9.5l45 -25q-33 -154 -66.5 -292t-62.5 -292q-10 -49 -21 -109.5t-11 -131.5q0 -43 23.5 -70t53.5 -27q45 0 90.5 27t85.5 70t75.5 95t64.5 103.5t48 95.5t30 70 l90 461h170l-168 -911h151v-64q-25 -23 -38 -51.5t-19 -62t-7 -69.5t-3 -71q-2 -55 -23.5 -91t-55.5 -59.5t-77 -35.5t-86 -21l-14 41q37 10 58.5 31t32.5 44.5t13 49t2 45.5q-2 72 38 126.5t100 107.5l-7 6q-25 -18 -67.5 -34.5t-79.5 -16.5q-45 0 -67.5 24.5t-22.5 53.5 q0 37 10 123.5t45 211.5h-8q-27 -57 -67 -130.5t-95 -139t-125.5 -111t-156.5 -45.5q-72 0 -121 50.5t-49 142.5z" />
<glyph unicode="&#x447;" horiz-adv-x="1009" d="M59 924v51q33 12 71 24.5t76 22.5t72.5 17.5t63.5 9.5l45 -25q-41 -174 -71.5 -292t-30.5 -197q0 -43 24.5 -71t71.5 -28q33 0 72 13.5t77.5 36t72.5 53t59 65.5l90 420h170l-193 -909h150v-54q-41 -33 -98.5 -53t-114.5 -20q-59 0 -85 26.5t-26 61.5q0 25 3 47t9 51 l82 346h-8q-33 -43 -75 -81t-89 -66.5t-98 -46t-103 -17.5q-70 0 -118.5 44t-48.5 132q0 37 5 75t14 86t23.5 110.5t32.5 148.5z" />
<glyph unicode="&#x448;" horiz-adv-x="1597" d="M109 168q0 45 14 133t34.5 192.5t44 214t42.5 197.5l-125 19v51q33 12 70.5 24.5t75.5 22.5t73 17.5t63 9.5l45 -25q-33 -154 -66.5 -292t-62.5 -292q-10 -49 -21 -109.5t-11 -131.5q0 -43 23.5 -70t53.5 -27q45 0 86 27t77 70t66 95t53.5 103.5t39.5 95.5t27 70l94 461 h170q-33 -154 -65.5 -292t-61.5 -292q-10 -49 -22.5 -109.5t-12.5 -131.5q0 -43 22.5 -70t55.5 -27q45 0 86 27t77 70t66.5 95t54 103.5t41 95.5t27.5 70l90 461h168l-166 -911h150v-52q-41 -33 -98.5 -53t-112.5 -20q-59 0 -85 24.5t-26 53.5q0 37 10.5 123.5t45.5 211.5 h-9q-27 -57 -61.5 -130.5t-83.5 -139t-112.5 -111t-147.5 -45.5q-78 0 -119 50.5t-41 138.5q0 84 45 237h-8q-27 -57 -60.5 -130.5t-80.5 -139t-111.5 -111t-150.5 -45.5q-72 0 -121 50.5t-49 142.5z" />
<glyph unicode="&#x449;" horiz-adv-x="1599" d="M109 168q0 45 14 133t34.5 192.5t44 214t42.5 197.5l-125 19v51q33 12 70.5 24.5t75.5 22.5t73 17.5t63 9.5l45 -25q-33 -154 -66.5 -292t-62.5 -292q-10 -49 -21 -109.5t-11 -131.5q0 -43 23.5 -70t53.5 -27q45 0 86 27t77 70t66 95t53.5 103.5t39.5 95.5t27 70l94 461 h170q-33 -154 -65.5 -292t-61.5 -292q-10 -49 -22.5 -109.5t-12.5 -131.5q0 -43 22.5 -70t55.5 -27q45 0 86 27t77 70t66.5 95t54 103.5t41 95.5t27.5 70l90 461h168l-166 -911h154v-64q-25 -23 -38 -51.5t-19.5 -62t-8.5 -69.5t-4 -71q-2 -55 -23.5 -91t-55 -59.5 t-75.5 -35.5t-85 -21l-15 41q37 10 58.5 31t32 44.5t12.5 49t2 45.5q0 72 40 126.5t99 107.5l-6 6q-27 -18 -70 -34.5t-80 -16.5q-45 0 -67.5 24.5t-22.5 53.5q0 37 10.5 123.5t45.5 211.5h-9q-27 -57 -61.5 -130.5t-83.5 -139t-112.5 -111t-147.5 -45.5q-78 0 -119 50.5 t-41 138.5q0 84 45 237h-8q-27 -57 -60.5 -130.5t-80.5 -139t-111.5 -111t-150.5 -45.5q-72 0 -121 50.5t-49 142.5z" />
<glyph unicode="&#x44a;" horiz-adv-x="931" d="M55 764l31 207q12 80 111 80q37 0 74.5 -6.5t88 -14.5t116 -16t155.5 -15q23 12 44 24.5t42 25.5q23 -4 42 -33t13 -64q-133 -57 -236.5 -176t-175.5 -270h9q76 68 151.5 105.5t173.5 37.5q31 0 65 -11t61.5 -34.5t46 -61.5t18.5 -93q0 -92 -42 -177.5t-111.5 -152 t-157 -105.5t-179.5 -39q-47 0 -95 14.5t-86 47.5t-61.5 87t-23.5 132q0 80 30.5 166t84 170t124 160.5t150.5 140.5q-66 -14 -146.5 -11t-170.5 17l-95 -147zM305 246q0 -76 34 -129.5t97 -53.5q57 0 106.5 29t86.5 76t57.5 105.5t22.5 119.5q-2 37 -14.5 61.5t-31 40 t-40 21.5t-39.5 6q-37 0 -74 -7t-70.5 -20.5t-60.5 -32.5t-43 -42q-18 -55 -24.5 -94t-6.5 -80z" />
<glyph unicode="&#x44b;" horiz-adv-x="1376" d="M109 201q0 66 17 150.5t45 178t60.5 189.5t63.5 186l-123 19v51q31 14 71 26.5t81 22.5t80.5 16.5t70.5 8.5l45 -25q-49 -129 -95 -250t-93 -268h8q55 68 125 116t168 48q31 0 64.5 -10.5t61 -34t46 -61.5t18.5 -93q0 -92 -39 -180t-106.5 -159t-157.5 -114t-190 -43 q-45 0 -85 13.5t-71 41t-48 70.5t-17 101zM285 215q0 -72 24.5 -112t85.5 -40q57 0 103.5 33t79 83t50 112.5t19.5 124.5q-2 37 -14 60.5t-30.5 38.5t-40 21.5t-40.5 6.5q-72 0 -119.5 -38t-80.5 -85q-18 -55 -27.5 -103.5t-9.5 -101.5zM911 76q0 41 6.5 80t16.5 86l172 782 h174l-195 -909h150v-54q-41 -33 -99.5 -53t-111.5 -20q-59 0 -86 26.5t-27 61.5z" />
<glyph unicode="&#x44c;" horiz-adv-x="911" d="M109 201q0 66 17 150.5t45 178t60.5 189.5t63.5 186l-123 19v51q31 14 71 26.5t81 22.5t80.5 16.5t70.5 8.5l45 -25q-49 -129 -95 -250t-93 -268h8q55 68 145 116t189 48q31 0 64.5 -10.5t61 -34t46 -61.5t18.5 -93q0 -92 -43 -181t-113.5 -159t-163.5 -113t-194 -43 q-111 0 -176 54.5t-65 171.5zM285 215q0 -72 33.5 -112t97.5 -40q57 0 106 33t86 83t57.5 112.5t22.5 124.5q-2 37 -14 60.5t-30.5 38.5t-41 21.5t-41.5 6.5q-72 0 -139 -38t-100 -85q-18 -55 -27.5 -103.5t-9.5 -101.5z" />
<glyph unicode="&#x44d;" horiz-adv-x="952" d="M-25 74q2 27 12.5 54.5t27 54t37 49t44.5 36.5l140 -194q16 -4 37.5 -7.5t35.5 -3.5q57 0 115.5 30t108 85t87 135t56.5 181l-387 -50q-10 27 -10 66t10 65h395q2 16 3 36t1 38q0 143 -58.5 227.5t-162.5 84.5q-16 0 -44 -3.5t-48 -7.5q-29 -33 -66 -86t-67 -94 q-18 8 -36 28.5t-30 47t-16 57.5t4 60q39 25 126 55.5t228 30.5q162 0 262.5 -96.5t100.5 -264.5q0 -158 -44 -289t-121 -225t-180.5 -146.5t-220.5 -52.5q-115 0 -202.5 26t-137.5 73z" />
<glyph unicode="&#x44e;" horiz-adv-x="1466" d="M88 0l180 905l-125 19l-2 51q29 14 67 27.5t78 23.5t77.5 16.5t66.5 6.5l41 -25l-96 -461h184q20 92 63.5 179t107 155t147.5 110t186 42q160 0 240.5 -98.5t80.5 -291.5q0 -135 -39.5 -259t-111.5 -218t-171 -150.5t-218 -56.5q-143 0 -225 101.5t-82 304.5q0 45 6 94 h-185l-98 -475h-172zM713 336q0 -121 45 -197t121 -76q72 0 130 54.5t100 143.5t64.5 201.5t22.5 227.5q0 121 -41 195t-133 76q-90 -2 -149.5 -66t-94.5 -158t-50 -202.5t-15 -198.5z" />
<glyph unicode="&#x44f;" horiz-adv-x="1028" d="M-59 59v54h96q35 25 80 68.5t89 92t82.5 95.5t63.5 82q-37 8 -70.5 28.5t-60 51t-43 71.5t-16.5 92q0 76 38 138.5t103.5 107.5t153.5 70.5t190 25.5q27 0 64 -1t73.5 -4t72.5 -8t65 -13l-179 -895h152v-54q-41 -33 -99.5 -53t-115.5 -20q-59 0 -85 24.5t-26 53.5 q0 37 8.5 83t18.5 93l41 202l-141 -20q-43 -76 -107.5 -171t-138.5 -173q-47 -51 -88 -71.5t-84 -20.5t-78 21.5t-59 49.5zM346 676q0 -78 60.5 -128t189.5 -50h51l94 438q-27 4 -65.5 8t-63.5 4q-55 0 -103 -20.5t-85 -56t-57.5 -86t-20.5 -109.5z" />
<glyph unicode="&#x451;" horiz-adv-x="929" d="M82 342q0 145 41 274t114.5 225.5t179 152t234.5 55.5q98 0 169 -50.5t71 -148.5q0 -145 -144.5 -229t-465.5 -109q-8 -35 -11.5 -67.5t-3.5 -63.5q0 -123 62.5 -201t183.5 -78q39 0 77 12.5t71.5 31t61.5 39t48 36.5l33 -39q-18 -39 -53 -75.5t-82 -66.5t-106.5 -47.5 t-127.5 -17.5q-170 0 -261 97.5t-91 269.5zM295 600q199 6 309.5 68.5t110.5 173.5q0 43 -25.5 80t-101.5 39q-88 -2 -164 -83t-129 -278zM340 1356q0 49 30.5 78.5t81.5 29.5q49 0 80 -29.5t31 -78.5q0 -47 -31 -76t-80 -29q-51 0 -81.5 29t-30.5 76zM753 1356 q0 49 31 78.5t80 29.5q51 0 82 -29.5t31 -78.5q0 -47 -31 -76t-82 -29q-49 0 -80 29t-31 76z" />
<glyph unicode="&#x452;" d="M72 0l221 1108h-168l27 106h161l39 183l-139 18v47q31 12 68.5 25.5t77.5 25t80 18.5t75 9l43 -18l-68 -308h349l-25 -106h-344l-96 -446h10q80 164 185.5 244.5t217.5 80.5q94 0 140.5 -51t46.5 -133q0 -53 -4 -90t-17 -95l-133 -618q-31 -113 -81 -190.5t-105 -129 t-107.5 -79t-85.5 -35.5l-24 45q25 12 58.5 43t66 79t61.5 114.5t47 152.5l125 584q12 61 17.5 97t5.5 73q0 47 -24.5 76.5t-59.5 29.5q-55 0 -111.5 -36t-104.5 -88t-86 -110.5t-59 -103.5l-108 -522h-172z" />
<glyph unicode="&#x453;" horiz-adv-x="798" d="M33 193q0 70 39 127t97 107t125.5 94t126 87t97.5 88t39 95q0 53 -21.5 92t-93.5 39t-136 -38t-103 -77l-31 35q16 31 49 66.5t79 67.5t100.5 52.5t113.5 20.5q119 0 177.5 -58.5t58.5 -134.5t-39 -135t-97.5 -109.5t-126 -94.5t-126 -88t-97.5 -92t-39 -104 q0 -53 35 -92t121 -39q76 0 142.5 34t117.5 75l29 -31q-27 -37 -67 -73.5t-92 -66.5t-113.5 -47.5t-129.5 -17.5q-47 0 -90 16.5t-75.5 45.5t-51 69t-18.5 87zM512 1214l260 357q16 2 43 -1t55.5 -9.5t53 -15.5t36.5 -19v-39l-403 -309z" />
<glyph unicode="&#x454;" horiz-adv-x="897" d="M82 336q0 145 41 267t112.5 213t168 148.5t206.5 75.5q47 8 101 9q78 -2 124 -13.5t70 -34.5q2 -23 -3 -50t-17.5 -54t-28.5 -49.5t-35 -30.5l-139 144q-59 0 -119.5 -26t-114 -75t-94.5 -123.5t-61 -177.5l381 29q4 -27 -1 -55.5t-22 -55.5h-368q-2 -25 -3 -49.5 t-1 -52.5q-2 -141 67.5 -207t169.5 -66q43 0 81 12.5t70.5 31t59.5 39t47 36.5l31 -39q-23 -39 -57.5 -75.5t-83 -66.5t-106.5 -47.5t-128 -17.5q-74 0 -138.5 25t-110.5 72t-72.5 113.5t-26.5 150.5z" />
<glyph unicode="&#x455;" horiz-adv-x="856" d="M14 37q10 53 24.5 103t59.5 93l185 -170q43 0 85 10.5t75.5 33t55 55.5t23.5 80q-2 49 -27.5 84.5t-65.5 68.5t-85 66t-85 72.5t-65.5 92t-25.5 126.5t28.5 129t79 92t121 56.5t154.5 19.5q53 0 119.5 -9.5t126.5 -44.5q0 -23 -8.5 -52.5t-21.5 -57t-29.5 -51 t-35.5 -31.5l-151 158q-43 -2 -80 -10.5t-64.5 -27t-43 -48t-15.5 -74.5q0 -53 26.5 -91t66.5 -72t86 -65.5t86 -71.5t67 -92.5t27 -123.5q0 -74 -34 -131.5t-92.5 -97.5t-135 -60.5t-162.5 -20.5t-157 17.5t-112 44.5z" />
<glyph unicode="&#x456;" horiz-adv-x="567" d="M111 76q0 41 6 80t16 86l143 661l-131 21v51q31 12 70 25.5t80 23.5t78 17.5t65 7.5l37 -25l-192 -909h151v-54q-43 -33 -100.5 -53t-112.5 -20q-59 0 -84.5 26.5t-25.5 61.5zM309 1378q0 53 33 84t86 31q57 0 90 -30.5t33 -84.5q0 -51 -33 -79.5t-90 -28.5 q-53 0 -86 28.5t-33 79.5z" />
<glyph unicode="&#x457;" horiz-adv-x="632" d="M129 76q0 41 6 80t17 86l145 661l-133 21v51q31 12 69.5 25.5t79.5 23.5t78 17.5t66 7.5l37 -25l-191 -909h150v-54q-41 -33 -99.5 -53t-111.5 -20q-59 0 -86 26.5t-27 61.5zM143 1384q0 49 31 79t78 30q51 0 80.5 -29.5t29.5 -79.5q0 -47 -30.5 -75.5t-79.5 -28.5 t-79 28.5t-30 75.5zM475 1384q0 49 30 79t79 30t79.5 -29.5t30.5 -79.5q0 -47 -30.5 -75.5t-79.5 -28.5t-79 28.5t-30 75.5z" />
<glyph unicode="&#x458;" horiz-adv-x="563" d="M-150 -389q25 12 58 42t65.5 82t64.5 130t54 184l180 856l-122 19v51q63 29 141 51.5t141 22.5l41 -25l-199 -936q-31 -145 -85 -241.5t-113.5 -156t-113.5 -88t-87 -36.5zM299 1378q0 53 33 84t86 31q57 0 90 -30.5t33 -84.5q0 -51 -33 -79.5t-90 -28.5q-53 0 -86 28.5 t-33 79.5z" />
<glyph unicode="&#x459;" horiz-adv-x="1435" d="M-59 102q0 33 8 64t28 57l168 -69q39 49 81 135t80 189.5t71 214t53 208.5q-43 10 -90 29.5t-70 40.5v53h721q-37 -125 -69.5 -248t-65.5 -270h8q55 68 144.5 116t187.5 48q31 0 65.5 -10.5t62.5 -34t46.5 -61.5t18.5 -93q0 -92 -43 -181t-114 -159t-164 -113t-194 -43 q-111 0 -176 54.5t-65 171.5q0 66 15.5 157t39 190t51 199.5t52.5 188.5h-254q-25 -111 -59 -232.5t-76 -238.5t-92 -218.5t-109 -170.5q-49 -59 -104.5 -81t-121.5 -20q-16 20 -26 54t-8 73zM809 215q0 -72 34 -112t97 -40q57 0 106.5 33t86 83t57 112.5t22.5 124.5 q-2 37 -14 60.5t-31.5 38.5t-41 21.5t-40.5 6.5q-72 0 -139 -38t-100 -85q-18 -55 -27.5 -103.5t-9.5 -101.5z" />
<glyph unicode="&#x45a;" horiz-adv-x="1517" d="M88 0l180 905l-125 19l-2 51q29 14 67 27.5t78 23.5t77.5 16.5t66.5 6.5l41 -25l-96 -461h397l92 461h183q-27 -123 -54.5 -247t-52.5 -271h8q53 68 143.5 116t188.5 48q31 0 64.5 -10.5t61.5 -34t46 -61.5t18 -93q0 -92 -43 -181t-113.5 -159t-163.5 -113t-194 -43 q-111 0 -176 54.5t-65 171.5q0 12 6 48l13 78t15.5 83t14.5 65h-406l-98 -475h-172zM891 215q0 -72 33.5 -112t97.5 -40q57 0 106.5 33t86 83t57 112.5t22.5 124.5q-2 37 -14 60.5t-30.5 38.5t-40 21.5t-40.5 6.5q-37 0 -72.5 -10.5t-68.5 -28t-58.5 -39.5t-41.5 -45 q-18 -55 -27.5 -103.5t-9.5 -101.5z" />
<glyph unicode="&#x45b;" horiz-adv-x="1112" d="M70 0l223 1108h-168l25 106h163l37 183l-139 18v47q31 12 68.5 25.5t78.5 25t80 18.5t74 9l43 -18l-66 -308h349l-27 -106h-344l-96 -446h10q80 164 184.5 244.5t227.5 80.5q94 0 137 -54t43 -134q0 -37 -4 -80t-19 -101l-116 -503h151v-54q-41 -33 -98.5 -53t-114.5 -20 q-59 0 -81.5 24.5t-22.5 53.5q0 37 10 83t20 93l74 342q14 61 19.5 94t5.5 70q0 47 -20.5 79.5t-57.5 32.5q-63 0 -120.5 -36t-106 -88t-85 -110.5t-57.5 -103.5l-108 -522h-172z" />
<glyph unicode="&#x45c;" horiz-adv-x="1046" d="M88 0l178 905l-143 19v51q59 27 144 48t157 26l43 -23l-92 -465h59q43 27 92 66t94.5 80t82 78.5t55.5 64.5q2 14 3 38.5t0 50.5t-2 49.5t-3 35.5q76 27 147 27q72 0 121 -27q-29 -63 -87 -130t-125 -127t-130.5 -109.5t-99.5 -75.5q14 -39 48 -101.5t73.5 -130 t80.5 -131t70 -106.5h129v-52q-41 -33 -89 -53t-101 -20q-49 0 -85 24.5t-73 83.5q-66 111 -113 208t-88 183l-74 21l-96 -508h-176zM561 1214l260 357q16 2 43 -1t55.5 -9.5t53 -15.5t36.5 -19v-39l-403 -309z" />
<glyph unicode="&#x45e;" horiz-adv-x="931" d="M-31 -395q-2 23 4.5 51.5t19.5 57t34.5 53t48.5 38.5l166 -86q14 10 36.5 30t47 53.5t49 81.5t47.5 116l-242 905l-131 17v51q10 8 33.5 20.5t54.5 24.5t63.5 21.5t61.5 9.5q43 0 62.5 -21.5t29.5 -56.5l170 -717l6 -123h5l47 121q27 57 54.5 125.5t54 138.5t49 137.5 t38.5 124.5q0 23 -5 59.5t-11 73.5t-12.5 69t-10.5 44q29 12 62 18.5t63 6.5q61 0 109 -25q-63 -254 -173 -508t-243 -516q-111 -215 -221.5 -321.5t-249.5 -106.5q-31 0 -58.5 8t-58.5 25zM320 1399q33 25 72 39t82 18l51 -26v-158q12 -10 31.5 -18.5t52.5 -8.5 q90 0 157.5 56.5t94.5 134.5q18 0 39.5 -9.5t31.5 -23.5q-12 -43 -39.5 -88t-70.5 -82t-100.5 -61.5t-131.5 -24.5q-92 0 -147 27.5t-84 66.5t-36 82t-3 76z" />
<glyph unicode="&#x45f;" horiz-adv-x="1110" d="M109 168q0 45 14 133t34.5 192.5t44 214t42.5 197.5l-125 19v51q33 12 70.5 24.5t75.5 22.5t73 17.5t63 9.5l45 -25q-33 -154 -66.5 -292t-62.5 -292q-10 -49 -21 -109.5t-11 -131.5q0 -43 23.5 -70t53.5 -27q45 0 90.5 27t85.5 70t75.5 95t64.5 103.5t48 95.5t30 70 l90 461h170l-168 -909h151v-54q-41 -33 -99 -53t-114 -20q-59 0 -84.5 24.5t-25.5 53.5q0 37 10 123.5t45 211.5h-8q-27 -57 -67 -130.5t-95 -139t-125.5 -111t-156.5 -45.5q-72 0 -121 50.5t-49 142.5zM373 -428q37 18 47 45t7 58.5t-11 68.5t-8 74q-2 72 33.5 117 t129.5 83l29 -30q-33 -25 -40 -56.5t-2 -66.5t14.5 -72t11.5 -72q-2 -84 -57.5 -127t-139.5 -59z" />
<glyph unicode="&#x462;" horiz-adv-x="1462" d="M162 866q2 41 8 93.5t14.5 105.5t17.5 104.5t19 92.5h447l22 106q-41 8 -81 20.5t-74 30.5l12 58h545l-13 -58q-88 -35 -192 -51l-23 -106h522q-16 -80 -41.5 -173.5t-54.5 -177.5h-53l-53 244h-340l-70 -324q39 6 92.5 10.5t94.5 4.5q100 0 183 -18.5t142.5 -58.5 t91 -104.5t31.5 -156.5q0 -123 -48 -219t-134 -162t-208 -99.5t-269 -33.5q-10 0 -39 1t-67 2t-78 2t-70 1h-263l11 59q88 37 180 50l223 1046h-264l-168 -289h-53zM621 111q8 -4 27.5 -5.5t41 -3.5t42 -2h32.5q72 0 147.5 18.5t138 65.5t102.5 128t38 204q2 49 -13.5 90 t-50 71t-92 46t-139.5 16q-49 0 -82 -3t-61 -9z" />
<glyph unicode="&#x463;" horiz-adv-x="1394" d="M88 0l191 905l-125 19v51q68 35 146.5 54.5t135.5 19.5l43 -25l-90 -362h8q25 57 63 124.5t88 126t109.5 97.5t124.5 39q25 0 49.5 -8.5t43 -28t31 -51t12.5 -78.5q0 -33 -11.5 -79t-27 -97.5t-34 -103.5t-30.5 -97h8q55 68 145.5 116t188.5 48q31 0 64.5 -10.5t61.5 -34 t46.5 -61.5t18.5 -93q0 -92 -43 -181t-114 -159t-164 -113t-193 -43q-111 0 -176.5 52.5t-65.5 150.5q0 61 23.5 157.5t53 194t53 180.5t23.5 117q0 49 -16 72t-57 23q-35 0 -77 -39t-84 -98.5t-78 -129t-60 -133.5l-109 -522h-176zM758 188q0 -51 39 -88t102 -37 q55 0 104.5 33t86 83t58 112.5t23.5 124.5q-2 37 -14 60.5t-30.5 38.5t-41 21.5t-41.5 6.5q-72 0 -139 -38t-100 -85q-18 -55 -32.5 -106.5t-14.5 -125.5z" />
<glyph unicode="&#x472;" horiz-adv-x="1495" d="M135 569q0 186 56.5 348t163 282t256 189.5t337.5 69.5q150 0 252.5 -49t164.5 -129t90 -183.5t28 -213.5q0 -164 -46 -327t-142.5 -292t-243 -209t-346.5 -80q-147 0 -255 48.5t-177.5 129t-103.5 188t-34 228.5zM354 567q0 -113 30 -203t82 -153.5t122.5 -97 t154.5 -31.5q121 -2 210 49t149.5 134t95.5 190.5t49 222.5q-68 -61 -143.5 -84t-122.5 -23q-55 0 -102.5 22.5t-93.5 48.5t-92 48.5t-99 22.5q-43 0 -110.5 -13.5t-127.5 -62.5q-2 -16 -2 -35v-35zM365 711q61 53 124.5 85.5t110.5 49.5q25 8 47.5 11t40.5 3 q55 0 100.5 -22.5t89.5 -48t89 -47t98 -21.5q33 0 89 5t103 28q6 68 7 131q0 104 -23.5 190t-71 147.5t-116 95.5t-158.5 34q-123 0 -216 -56.5t-158.5 -147.5t-103.5 -206t-52 -231z" />
<glyph unicode="&#x473;" horiz-adv-x="1042" d="M84 381q0 109 34 226.5t103.5 216t174 162t243.5 63.5q160 0 241 -98.5t81 -291.5q0 -135 -39 -259t-109 -218t-168 -150.5t-217 -56.5q-158 0 -251 101.5t-93 304.5zM268 336q0 -121 53.5 -197t143.5 -76q57 0 104 35t84 94.5t62.5 138.5t40.5 167q-53 -35 -96.5 -48.5 t-79.5 -13.5q-33 0 -59.5 11.5t-51.5 24.5t-49 24.5t-51 11.5q-39 0 -95 -31q-6 -74 -6 -141zM287 557q57 35 103 48t79 13t58.5 -10t49 -23.5t47 -23.5t52.5 -10q16 0 40.5 5t49.5 19q6 55 6 115q0 121 -42 195t-132 76q-74 -2 -127 -37t-90 -91.5t-59.5 -128t-34.5 -147.5 z" />
<glyph unicode="&#x474;" horiz-adv-x="1409" d="M195 1374l12 60h545l-13 -60q-41 -16 -86 -28.5t-94 -22.5l131 -881l10 -163h5l59 163q70 145 155 290t171 270.5t130 179t48 59.5q76 92 135 145q45 39 85 53.5t79 18.5q16 -6 28.5 -27.5t21.5 -49t14 -58.5t5 -59q0 -12 -1 -25.5t-3 -24.5l-43 -49l-184 56 q-84 -94 -187.5 -236.5t-207 -309.5t-197.5 -348.5t-162 -351.5h-80l-231 1348q-37 10 -74 21.5t-71 29.5z" />
<glyph unicode="&#x475;" horiz-adv-x="987" d="M31 922v51q12 8 36.5 21.5t54.5 25.5t61.5 20.5t60.5 8.5q45 0 64.5 -22.5t25.5 -55.5l94 -666l10 -129h4l60 141q37 80 75.5 164t83 166t94.5 157t107 140q45 51 100.5 74.5t96.5 25.5q16 0 22 -2q25 -23 38.5 -68.5t13.5 -92.5v-16.5t-3 -16.5l-38 -53l-185 43 q-74 -92 -140.5 -204t-125.5 -225.5t-109.5 -221t-89.5 -187.5l-129 -25l-151 930z" />
<glyph unicode="&#x48a;" horiz-adv-x="1531" d="M-41 0l10 59q90 37 181 50l256 1214q-39 10 -80 21.5t-78 29.5l14 60h518l-12 -60q-35 -16 -77 -28.5t-89 -22.5l-188 -889l-54 -153l125 165l783 828l10 49q-45 10 -84 22.5t-70 28.5l13 60h518l-13 -60q-41 -16 -86 -28.5t-92 -22.5l-258 -1217h221l19 -14 q-8 -41 -41 -98t-79 -116.5t-101.5 -111t-106.5 -75.5h-55l162 309h-391l10 59q35 14 78 27.5t90 22.5l188 886l53 154l-114 -156l-797 -839l-8 -45q45 -8 84 -20.5t69 -29.5l-10 -59h-518zM674 1726q33 27 91 40.5t101 17.5l52 -27v-135q14 -10 32.5 -18.5t50.5 -8.5 q45 0 92.5 12.5t87.5 34t70.5 52t42.5 69.5q20 0 42 -8t32 -22q-14 -43 -49 -85t-87 -76t-120.5 -54.5t-150.5 -20.5q-84 0 -141.5 23.5t-91.5 59.5t-46 76t-8 70z" />
<glyph unicode="&#x48b;" horiz-adv-x="1112" d="M109 168q0 45 14 133t34.5 192.5t44 214t42.5 197.5l-125 19v51q33 12 70.5 24.5t75.5 22.5t73 17.5t63 9.5l45 -25q-33 -154 -66.5 -292t-62.5 -292q-10 -49 -21 -109.5t-11 -131.5q0 -43 23.5 -70t53.5 -27q45 0 90.5 27t85.5 70t75.5 95t64.5 103.5t48 95.5t30 70 l90 461h170l-168 -911h151v-64q-25 -23 -38 -51.5t-19 -62t-7 -69.5t-3 -71q-2 -55 -23.5 -91t-55.5 -59.5t-77 -35.5t-86 -21l-14 41q37 10 58.5 31t32.5 44.5t13 49t2 45.5q-2 72 38 126.5t100 107.5l-7 6q-25 -18 -67.5 -34.5t-79.5 -16.5q-45 0 -67.5 24.5t-22.5 53.5 q0 37 10 123.5t45 211.5h-8q-27 -57 -67 -130.5t-95 -139t-125.5 -111t-156.5 -45.5q-72 0 -121 50.5t-49 142.5zM426 1399q33 25 72 39t82 18l51 -26v-158q12 -10 31.5 -18.5t52.5 -8.5q90 0 157.5 56.5t94.5 134.5q18 0 39.5 -9.5t31.5 -23.5q-12 -43 -39.5 -88t-70.5 -82 t-100.5 -61.5t-131.5 -24.5q-92 0 -147 27.5t-84 66.5t-36 82t-3 76z" />
<glyph unicode="&#x48c;" horiz-adv-x="1263" d="M35 0l10 59q88 37 180 50l199 948h-260l20 106h265l32 160q-41 8 -80 21.5t-77 29.5l14 60h545l-13 -60q-41 -16 -90 -30.5t-102 -20.5l-33 -160h397l-20 -106h-401l-41 -203q39 8 93 11t95 3q205 0 323.5 -84t118.5 -239q0 -147 -52 -252t-141 -171.5t-209 -97 t-257 -30.5q-10 0 -39 1t-66.5 2t-77.5 2t-71 1h-262zM422 111q8 -4 27.5 -5.5t41 -3.5t42 -2h30.5q94 -2 173 25t136.5 82t89 140t29.5 202q2 43 -12 82t-47 68.5t-89 46t-138 16.5q-49 0 -84 -3t-64 -9z" />
<glyph unicode="&#x48d;" horiz-adv-x="911" d="M72 920l26 106h172q29 123 54.5 227.5t37.5 163.5l-124 19v51q31 14 69.5 26.5t78.5 22.5t78 16.5t68 8.5l41 -25q-10 -33 -24 -86t-30.5 -120.5t-35 -145.5t-37.5 -158h340l-24 -106h-340q-29 -129 -52.5 -242t-35.5 -172h8q55 68 144 116t188 48q31 0 64.5 -10.5 t61 -34t46 -61.5t18.5 -93q0 -92 -43 -181t-113.5 -159t-163.5 -113t-194 -43q-111 0 -176 54.5t-65 171.5q0 39 12 114.5t31.5 174t44 210t49.5 220.5h-174zM285 215q0 -72 33.5 -112t97.5 -40q57 0 106 33t86 83t57.5 112.5t22.5 124.5q-2 37 -14 60.5t-30.5 38.5 t-40 21.5t-40.5 6.5q-37 0 -72.5 -10.5t-68.5 -28t-58.5 -39.5t-41.5 -45q-18 -55 -27.5 -103.5t-9.5 -101.5z" />
<glyph unicode="&#x48e;" horiz-adv-x="1198" d="M-41 0l10 59q47 20 91 30.5t90 19.5l256 1214q-45 8 -84 21.5t-74 29.5l14 60h184q82 0 179.5 8t185.5 8q98 0 181 -19.5t141.5 -61.5t91 -104.5t32.5 -148.5q0 -180 -95 -316t-267 -200l70 -166l-115 -47l-76 180q-35 -8 -72.5 -11t-78.5 -3h-33t-50.5 1t-54 3t-45.5 4 l-94 -452q53 -6 99.5 -19.5t84.5 -30.5l-10 -59h-561zM465 670q10 -2 29.5 -4t41 -3t41 -2.5t31.5 -1.5q68 0 127 13l-106 264l104 43l109 -266q98 53 147 156.5t49 244.5q0 51 -11 93t-43 73t-86 47t-140 16q-49 0 -87 -3t-67 -7z" />
<glyph unicode="&#x48f;" horiz-adv-x="1110" d="M2 -391l88 407l191 889l-125 19v51q68 29 142.5 51.5t139.5 22.5l41 -25l-84 -360h8q37 82 81 151.5t95.5 121.5t111 82t126.5 30q45 0 86 -17.5t72 -53.5t48 -89t17 -123q0 -102 -20.5 -198.5t-57 -182.5t-88 -158.5t-114.5 -126.5l135 -190l-88 -60l-135 191 q-106 -66 -230 -66q-35 0 -59.5 2.5t-42.5 7.5t-35.5 13t-38.5 18l-67 -315q72 -12 143 -51v-60h-322zM287 111q29 -25 60.5 -36.5t101.5 -11.5q82 0 161 68l-133 191l82 61l123 -176q37 49 67.5 109.5t52 127t34 136t12.5 137.5q0 98 -34 151.5t-93 53.5t-112.5 -46.5 t-99.5 -112t-83 -138t-59 -127.5z" />
<glyph unicode="&#x490;" horiz-adv-x="1017" d="M-41 0l10 59q47 23 91 34t90 16l256 1214q-41 10 -82 20.5t-76 30.5l14 60h778l168 278h54q-4 -43 -10.5 -93t-15.5 -102.5t-18.5 -101.5t-19.5 -88h-594l-258 -1218q47 -4 94 -17.5t90 -32.5l-10 -59h-561z" />
<glyph unicode="&#x491;" horiz-adv-x="845" d="M90 0l197 924q-70 12 -123 47v53h586l143 248h53q-6 -86 -20.5 -181.5t-32.5 -168.5h-418l-201 -922h-184z" />
<glyph unicode="&#x492;" horiz-adv-x="1038" d="M-61 0l10 59q92 35 180 50l121 567h-182l22 106h180l117 541q-41 8 -80 21.5t-78 29.5l13 60h958q-8 -41 -20.5 -94.5t-27.5 -111t-31.5 -111.5t-30.5 -97h-52l-41 307h-413l-117 -545h309l-22 -106h-308l-120 -567q47 -8 95 -20.5t89 -29.5l-10 -59h-561z" />
<glyph unicode="&#x493;" horiz-adv-x="960" d="M47 412l27 106h168l82 387q-35 6 -73 26.5t-54 39.5v53h766q-18 -80 -42 -163t-53 -167h-53l-39 242h-278l-88 -418h292l-26 -106h-287l-88 -412h-170l86 412h-170z" />
<glyph unicode="&#x494;" horiz-adv-x="1249" d="M-41 0l10 59q92 35 181 50l256 1214q-41 8 -80 21.5t-78 29.5l14 60h959q-10 -41 -22.5 -94.5t-27 -108.5t-31 -110.5t-30.5 -98.5h-53l-41 305h-414l-121 -573q61 31 149.5 61.5t205.5 30.5q94 0 157.5 -21.5t103.5 -61.5t57 -96.5t17 -123.5q0 -147 -42 -281.5 t-120.5 -238t-190 -170t-253.5 -78.5v55q104 37 181 105.5t128.5 157.5t76 195.5t24.5 223.5q0 111 -42 169t-163 58q-86 0 -165 -24.5t-144 -59.5l-115 -546q47 -8 93 -20.5t87 -29.5l-12 -59h-555z" />
<glyph unicode="&#x495;" horiz-adv-x="997" d="M88 0l193 903q-35 6 -70 27.5t-51 40.5v53h774q-16 -80 -40 -163t-52 -167h-51l-43 242h-277l-123 -567q68 84 145.5 136t184.5 52q98 0 152.5 -57.5t54.5 -155.5q0 -109 -34 -231.5t-100.5 -233t-166 -195.5t-228.5 -118l-24 45q82 43 151.5 122t119.5 174t78 196.5 t28 191.5q0 59 -28 97t-81 38q-76 0 -147.5 -38t-120.5 -107l-60 -285h-184z" />
<glyph unicode="&#x496;" horiz-adv-x="1994" d="M-74 0l11 51l106 49q92 82 178 171t165 178.5t149.5 171t130.5 149.5l-263 553q-82 23 -133 51l13 60h436l-12 -60q-63 -31 -150 -51l234 -551h141l117 551q-41 12 -74 24.5t-62 26.5l13 60h473l-13 -60q-27 -12 -62.5 -25.5t-80.5 -25.5l-121 -567l138 28l456 539 q-37 10 -69.5 22.5t-67.5 28.5l12 60h465l-12 -60q-41 -16 -83 -28.5t-83 -22.5l-498 -555q33 -63 73 -145t87 -170t100.5 -178.5t110.5 -170.5h162q-8 -41 -23.5 -95t-34 -110.5t-37 -110.5t-34.5 -97h-53l-13 309h-131l-57 51q-47 70 -86 147.5t-75 158.5t-68.5 164 t-69.5 165h-123l-123 -577q33 -10 63.5 -21.5t59.5 -28.5l-10 -59h-475l10 59q72 35 160 50l125 593l-142 -28q-49 -70 -105.5 -149t-120 -160.5t-132 -162.5t-144.5 -151l-79 -51h-269z" />
<glyph unicode="&#x497;" horiz-adv-x="1609" d="M-45 14q-4 27 2 57.5t20.5 58.5t37 51.5t51.5 35.5l88 -121q45 12 89 56.5t76.5 119t53 179t18.5 237.5q2 117 -24.5 169t-87.5 52q-76 0 -138 -57l-22 29q53 74 116.5 114.5t147.5 40.5q43 0 77 -21.5t58.5 -58t36.5 -85t12 -99.5q0 -111 -18 -211h188l94 463h166 l-96 -463h189q27 104 71.5 191.5t101 151t125 98t142.5 34.5q55 0 77.5 -7t49.5 -19q2 -23 -3 -50.5t-19.5 -55t-36 -53.5t-52.5 -42l-88 119q-37 -10 -78 -53.5t-75.5 -118t-57 -180t-20.5 -240.5q-2 -117 33.5 -169t99.5 -52q35 0 62.5 14t56.5 43l22 -29l-24 -37 q-29 -45 -38 -85.5t-9 -79.5t3 -76t1 -70q-2 -55 -23.5 -91t-55.5 -59.5t-76 -35.5t-85 -21l-14 41q37 10 58.5 31t31.5 44.5t12 49t2 45.5q0 72 27.5 124t91.5 110l-4 4q-72 -49 -148 -49q-53 0 -91 21.5t-62.5 58t-35.5 85t-11 101.5q0 57 4 111.5t12 107.5h-184l-97 -473 h-163l96 473h-189q-29 -106 -73.5 -195.5t-103 -154t-127 -100t-142.5 -35.5q-57 0 -80.5 8t-48.5 18z" />
<glyph unicode="&#x498;" horiz-adv-x="1146" d="M20 57q6 33 19.5 76t31 89t36 92t36.5 83h52l26 -284q12 -6 36 -12.5t53.5 -11.5t60 -7t57.5 -2q88 0 163 24.5t130 74.5t86 127t33 181q-2 104 -75 151.5t-194 47.5l-161 -22q0 29 4 59.5t18 58.5h66q35 0 86 3t86 8q57 20 106 55t84 81t55.5 99t22.5 113 q-2 117 -57.5 164t-190.5 47q-61 0 -103 -12.5t-67 -26.5l-160 -250h-53q2 39 4 76t6.5 73.5t12.5 75.5t20 86q82 47 184.5 65.5t190.5 18.5q82 0 156.5 -16.5t131 -52t89.5 -90t33 -130.5q0 -53 -14.5 -109t-52.5 -109.5t-103.5 -101.5t-167.5 -83v-8q41 -6 84 -24.5 t77.5 -52.5t56 -81t21.5 -108q0 -219 -139 -353.5t-389 -158.5q-29 -86 -64.5 -179.5t-83.5 -191.5h-53q0 94 2 186t10 185q-92 8 -169.5 28.5t-129.5 48.5z" />
<glyph unicode="&#x499;" horiz-adv-x="899" d="M-25 74q2 27 12.5 54.5t27 54t37 49t44.5 36.5l140 -194q16 -4 42.5 -7.5t43.5 -3.5q47 0 96 18.5t89 52.5t65.5 84t27.5 112q-2 82 -45 118.5t-145 53.5l-144 -37q-10 27 -9 55.5t9 54.5h146q111 35 166 106t53 136q2 61 -37 101t-127 43q-16 0 -45 -3.5t-49 -7.5 q-29 -35 -65 -87t-66 -93q-18 8 -36 28.5t-30 47t-16 57.5t4 60q18 12 49 26.5t77 27.5t105.5 22.5t136.5 9.5q57 0 108.5 -12.5t90.5 -37t61.5 -61.5t22.5 -86q0 -195 -274 -295q63 0 109 -18.5t76 -47t44 -66.5t14 -75q0 -68 -25.5 -129t-74.5 -110.5t-119.5 -83 t-158.5 -45.5q-29 -25 -33 -55.5t0 -64.5t13 -70t9 -71q0 -84 -55 -127t-139 -59l-15 37q37 18 47.5 45t8.5 58.5t-10.5 68.5t-8.5 74q-2 53 15.5 90t62.5 67q-111 2 -195 27t-131 72z" />
<glyph unicode="&#x49a;" horiz-adv-x="1363" d="M-41 0l10 59q92 37 181 50l256 1214q-45 8 -85 20.5t-73 30.5l14 60h518l-12 -60q-70 -33 -166 -51l-119 -567l123 28l492 539q-41 10 -74 21.5t-63 29.5l14 60h465l-15 -60q-37 -18 -82 -30.5t-83 -20.5l-531 -553q37 -68 84 -149.5t101.5 -168.5t111.5 -176.5 t115 -171.5h153q-8 -41 -23.5 -95t-33.5 -110.5t-36.5 -110.5t-35.5 -97h-53l-12 309h-125l-60 49q-92 141 -178 305t-162 332h-108l-121 -577q84 -16 141 -50l-10 -59h-518z" />
<glyph unicode="&#x49b;" d="M88 0l178 905l-143 19v51q59 27 144 48t157 26l43 -23l-92 -465h59q43 27 92 66t94.5 80t82 78.5t55.5 64.5q2 14 3 38.5t0 50.5t-2 49.5t-3 35.5q76 27 147 27q72 0 121 -27q-29 -63 -87 -130t-125 -127t-130.5 -109.5t-99.5 -75.5q14 -39 48 -101.5t73.5 -130 t80.5 -131t70 -106.5h154v-64q-25 -23 -38.5 -51.5t-19.5 -62t-8 -69.5t-4 -71q-2 -55 -23.5 -91t-55.5 -59.5t-76 -35.5t-85 -21l-14 41q37 10 57.5 31t31.5 44.5t13 49t2 45.5q0 72 39 126.5t97 107.5l-6 6q-25 -18 -66 -34.5t-76 -16.5h-2q-39 0 -70.5 24.5t-68.5 83.5 q-66 111 -113 208t-88 183l-74 21l-96 -508h-176z" />
<glyph unicode="&#x49c;" horiz-adv-x="1443" d="M-41 0l10 59q92 35 181 50l256 1214q-88 12 -158 51l14 60h518l-12 -60q-70 -33 -166 -51l-119 -569l99 10l67 330h107l-68 -320l60 10l491 539q-41 10 -77 22.5t-60 28.5l12 60h465l-12 -60q-43 -18 -86 -30.5t-82 -20.5l-529 -551q37 -68 85.5 -150.5t101.5 -171 t110.5 -178.5t116.5 -172l86 -49l-10 -51h-244l-61 49q-92 141 -178 307t-162 334h-45l-68 -317h-104l65 317h-96l-121 -581q88 -16 141 -50l-10 -59h-518z" />
<glyph unicode="&#x49d;" horiz-adv-x="1165" d="M88 0l178 905l-143 19v51q59 27 144 48t157 26l43 -23l-92 -465h98l59 270h97l-58 -270h47q43 27 83 66t75 80t61.5 78.5t45.5 64.5q2 14 3 38.5t0 50.5t-2 49.5t-3 35.5q76 27 147 27q74 0 123 -27q-29 -63 -80 -131t-108.5 -128t-113.5 -109.5t-93 -75.5 q14 -39 39.5 -101.5t57.5 -129t64.5 -130t63.5 -106.5h129v-52q-41 -33 -89 -53t-103 -20q-49 0 -85 24.5t-71 83.5q-33 55 -56.5 113.5t-41 112t-27.5 96.5t-19 69l-63 5l-55 -263h-97l58 271l-101 8l-96 -508h-176z" />
<glyph unicode="&#x49e;" horiz-adv-x="1349" d="M-2 0l10 59q47 18 91 29.5t89 20.5l209 983h-254l21 98h254l28 133q-88 12 -157 51l12 60h520l-14 -60q-35 -16 -76 -28.5t-88 -22.5l-29 -133h226l-23 -98h-223l-72 -336l131 28l494 539q-41 10 -75 22.5t-62 28.5l12 60h463l-12 -60q-43 -18 -86.5 -30.5t-81.5 -20.5 l-527 -551q37 -68 85 -149.5t101.5 -171t111 -179.5t116.5 -172l88 -49l-10 -51h-250l-57 49q-92 141 -177.5 305t-162.5 332h-115l-123 -577q41 -8 78 -20.5t65 -29.5l-10 -59h-520z" />
<glyph unicode="&#x49f;" horiz-adv-x="985" d="M70 0l227 1147h-172l25 106h167l31 144l-143 18v51q59 27 144 48.5t157 25.5l43 -22l-55 -265h344l-27 -106h-338l-117 -586h60q43 27 89 66t88 80t74.5 78.5t51.5 64.5q2 14 3 38.5t0 50.5t-2 49.5t-3 35.5q76 27 147 27q74 0 123 -27q-27 -68 -82 -135.5t-118.5 -125.5 t-125 -106.5t-98.5 -74.5q14 -39 46 -101.5t70 -130t80 -131t77 -104.5h129v-54q-41 -33 -89.5 -53t-101.5 -20q-49 0 -88 22.5t-74 81.5q-66 111 -110.5 210t-85.5 185l-74 21l-96 -508h-176z" />
<glyph unicode="&#x4a0;" horiz-adv-x="1558" d="M180 1038q2 43 9.5 95.5t16.5 105.5t18 103.5t18 91.5h796l-14 -60q-35 -16 -76 -28.5t-88 -22.5l-121 -567l123 28l494 539q-41 10 -76 22.5t-61 28.5l12 60h463l-13 -60q-43 -18 -85 -30.5t-80 -20.5l-529 -551q37 -68 85 -150.5t101.5 -171t110.5 -178.5t117 -172 l88 -49l-12 -51h-246l-60 49q-92 141 -177 305t-163 332h-106l-123 -577q41 -8 78 -20.5t65 -29.5l-10 -59h-520l10 59q92 37 181 50l258 1218h-265l-166 -289h-53z" />
<glyph unicode="&#x4a1;" horiz-adv-x="1153" d="M25 709q6 78 16 157.5t27 157.5h505l-94 -463h62q43 27 91 66t94 80t83 78.5t55 64.5q2 14 3 38.5t0 50.5t-2 49.5t-3 35.5q76 27 146 27q74 0 122 -27q-29 -63 -87 -130t-124.5 -127t-130 -109.5t-100.5 -75.5q14 -39 48 -101.5t74 -130t81 -131t70 -104.5h129v-54 q-41 -33 -89.5 -53t-101.5 -20q-49 0 -86 24.5t-72 83.5q-66 111 -112.5 208t-87.5 183l-74 21l-96 -508h-176l186 936h-166l-139 -227h-51z" />
<glyph unicode="&#x4a2;" horiz-adv-x="1501" d="M-41 0l10 59q45 20 90 31.5t91 18.5l256 1214q-92 18 -158 51l14 60h518l-12 -60q-35 -18 -80 -30.5t-86 -20.5l-113 -535h644l114 535q-41 10 -76.5 21.5t-68.5 29.5l14 60h518l-12 -60q-41 -20 -87 -31.5t-91 -19.5l-258 -1217h223q-8 -41 -23.5 -96t-33 -111.5 t-37 -110.5t-35.5 -97h-51l-12 309h-404l10 59q39 16 81 28.5t85 21.5l121 573h-645l-119 -573q37 -8 74 -20.5t67 -29.5l-10 -59h-518z" />
<glyph unicode="&#x4a3;" horiz-adv-x="1130" d="M88 0l180 905l-125 19l-2 51q29 14 67 27.5t78 23.5t77.5 16.5t66.5 6.5l41 -25l-96 -461h397l90 461h172l-180 -909h152v-66q-25 -23 -38.5 -51.5t-19.5 -62t-8 -69.5t-4 -71q-2 -55 -23.5 -91t-55.5 -59.5t-76 -35.5t-85 -21l-14 41q37 10 58.5 31t31.5 44.5t12 49 t2 45.5q0 72 40 126.5t100 107.5l-6 6q-27 -18 -70 -34.5t-80 -16.5q-45 0 -68.5 24.5t-23.5 53.5q0 37 11 84l22 94l45 231h-398l-98 -475h-172z" />
<glyph unicode="&#x4a4;" horiz-adv-x="1859" d="M-41 0l10 59q88 33 181 50l256 1214q-92 14 -158 51l14 60h518l-12 -60q-41 -18 -83 -30.5t-83 -20.5l-113 -535h644l114 535q-33 6 -78 20.5t-67 30.5l14 60h944q-8 -41 -20 -94.5t-27.5 -111t-32 -111.5t-30.5 -97h-52l-40 307h-414l-258 -1218q47 -6 95 -19.5 t89 -30.5l-10 -59h-547l10 59q82 39 166 50l123 573h-647l-119 -573q37 -8 74 -20.5t67 -29.5l-10 -59h-518z" />
<glyph unicode="&#x4a5;" horiz-adv-x="1417" d="M88 0l180 905l-125 19l-2 51q29 14 67 27.5t78 23.5t77.5 16.5t66.5 6.5l41 -25l-96 -461h397l90 461h559q-18 -80 -42.5 -166t-53.5 -170h-51l-39 248h-219l-162 -821h150v-54q-41 -33 -99.5 -53t-113.5 -20q-59 0 -86 24.5t-27 53.5q0 37 11 84l22 94l45 231h-398 l-98 -475h-172z" />
<glyph unicode="&#x4a6;" horiz-adv-x="2068" d="M-43 0l12 59q35 16 78 28.5t103 21.5l256 1214q-41 8 -80 21.5t-78 29.5l12 60h1354l-12 -60q-41 -20 -87.5 -31.5t-91.5 -19.5l-120 -569q61 31 148 61.5t204 30.5q94 0 157.5 -21.5t103.5 -61.5t57.5 -96t17.5 -126q0 -147 -42 -280.5t-121 -237t-190.5 -170 t-251.5 -78.5l-2 55q104 37 182.5 105.5t128.5 157.5t74.5 195.5t24.5 223.5q0 109 -42 168t-163 59q-86 0 -164.5 -24.5t-144.5 -59.5l-115 -546q39 -4 77 -15.5t77 -34.5l-12 -59h-514l10 59q51 29 166 50l260 1218h-625l-258 -1218q78 -16 141 -50l-10 -59h-520z" />
<glyph unicode="&#x4a7;" horiz-adv-x="1490" d="M88 0l180 905l-125 19l4 51q29 14 65 27.5t74 23.5t73.5 16.5t66.5 6.5l41 -25l-78 -362h10q39 82 89.5 152.5t106.5 122.5t117.5 82t125.5 30q86 0 126 -54.5t40 -136.5q0 -45 -10.5 -112.5t-24.5 -127.5l-62 -249q66 84 144.5 136t183.5 52q100 0 154.5 -57.5 t54.5 -155.5q0 -109 -34 -231.5t-101.5 -233t-167 -195.5t-228.5 -118l-22 45q82 43 150.5 122t118.5 174t79 196.5t29 191.5q0 59 -28 97t-81 38q-76 0 -147.5 -38t-120.5 -107l-60 -285h-167l127 584q14 63 25 117.5t11 107.5q0 47 -21.5 80t-68.5 33q-55 0 -112.5 -45.5 t-106.5 -108.5t-89 -132t-60 -114l-109 -522h-172z" />
<glyph unicode="&#x4a8;" horiz-adv-x="1714" d="M135 541q0 221 67.5 392t175 287.5t243 177t272.5 60.5q66 0 120 -20.5t83 -63.5l-23 -37q-16 8 -50 11.5t-50 3.5q-133 0 -246 -58.5t-195.5 -164t-130 -253t-47.5 -325.5q0 -123 34 -212t91.5 -146.5t133 -85t159.5 -25.5q41 -2 74 4t65 16q-39 25 -81 74t-77.5 114.5 t-58 146.5t-22.5 169q0 154 47 288t130 234.5t197.5 159t249.5 58.5q90 0 165 -28t128 -80t83 -125t30 -165q0 -123 -37 -250t-107.5 -240.5t-176 -205.5t-240.5 -143q16 -10 49 -19.5t65 -7.5q72 -2 129.5 15.5t110.5 60.5l18 -29q-39 -68 -113.5 -111t-176.5 -43 q-72 0 -133.5 24t-96.5 52q-49 -35 -139 -55.5t-180 -20.5q-96 0 -191.5 31t-173.5 98.5t-126 175t-48 261.5zM887 612q0 -86 14 -157.5t37 -130t49.5 -100.5t50.5 -66q84 43 164 118.5t142.5 182t100.5 238.5t38 290q0 121 -52.5 186.5t-150.5 65.5q-82 0 -153.5 -51 t-125 -137t-84 -200t-30.5 -239z" />
<glyph unicode="&#x4a9;" horiz-adv-x="1347" d="M82 403q0 145 53 264t138 204t188.5 131.5t206.5 46.5q61 0 101 -20.5t30 -67.5l-15 -13q-23 6 -51 9.5t-49 3.5q-74 -4 -148.5 -42t-134 -110t-97.5 -174.5t-38 -231.5q0 -59 17.5 -119.5t55.5 -109.5t99.5 -80t149.5 -31q29 0 66.5 4.5t54.5 10.5q-102 33 -163 125 t-61 209q0 121 47.5 217t120 163.5t162.5 104.5t176 37q121 0 198 -73t77 -228q0 -106 -41 -200.5t-100.5 -167t-127 -122t-123.5 -67.5q55 -20 127 -17q53 4 94.5 17.5t75.5 34.5l9 -25q-20 -53 -73.5 -82t-113.5 -29q-59 0 -119.5 11.5t-89.5 38.5q-57 -25 -122.5 -37.5 t-102.5 -12.5q-119 0 -208 32t-149.5 89.5t-90 136t-29.5 170.5zM662 381q2 -92 36.5 -165t94.5 -101q41 20 91 69t94 121t73.5 165t29.5 204q0 84 -31.5 128t-103.5 44q-49 0 -99 -37t-91 -99.5t-66.5 -147.5t-27.5 -181z" />
<glyph unicode="&#x4aa;" horiz-adv-x="1300" d="M135 528q0 209 59.5 380t169 293t266 189.5t353.5 67.5q135 0 229.5 -18.5t157.5 -50.5q-6 -33 -17.5 -77t-26.5 -93.5t-31.5 -96.5t-30.5 -86h-54l-43 295q-27 10 -81 15.5t-105 5.5q-135 0 -250 -52.5t-198.5 -155t-131 -256t-47.5 -356.5q0 -127 44 -214t110.5 -140 t144.5 -74.5t148 -21.5t118 12t70 27l152 252h51q0 -57 -11.5 -144.5t-33.5 -169.5q-72 -41 -163 -60t-175 -24q-53 -174 -145 -366h-54q0 96 2 190.5t11 186.5q-133 20 -225.5 75.5t-151 130t-85 162.5t-26.5 174z" />
<glyph unicode="&#x4ab;" horiz-adv-x="876" d="M82 334q0 147 47 277t128 227.5t190.5 154t234.5 56.5q78 0 127 -12.5t74 -35.5q2 -23 -3.5 -50t-16.5 -54t-28.5 -49.5t-35.5 -30.5l-140 144q-70 -2 -138 -43t-122.5 -117t-88.5 -183.5t-31 -242.5q-2 -141 56 -207t159 -66q43 0 80.5 12.5t70.5 31t59.5 39t47.5 36.5 l30 -39q-41 -72 -122.5 -131t-200.5 -71q-27 -25 -31 -55.5t1 -64.5t14.5 -70t9.5 -69q0 -84 -55.5 -127t-139.5 -59l-14 37q37 18 47 45t8 58.5t-10 68.5t-8 74q-2 53 16 91t65 66q-129 18 -204.5 111.5t-75.5 247.5z" />
<glyph unicode="&#x4ac;" horiz-adv-x="1249" d="M180 1034q2 41 9.5 93.5t15.5 106.5t17 106.5t20 93.5h1188q-8 -41 -20.5 -92.5t-27 -105.5t-30 -106.5t-29.5 -95.5h-53l-43 293h-314l-260 -1221h109h119q-8 -43 -23.5 -97t-34 -110.5t-37 -110.5t-34.5 -97h-54l-12 309h-440l10 59q49 18 97 29.5t106 20.5l258 1218 h-314l-170 -293h-53z" />
<glyph unicode="&#x4ad;" horiz-adv-x="1638" d="M88 0l191 905l-125 19v51q68 35 146.5 54.5t135.5 19.5l43 -25l-90 -362h8q25 57 69 124.5t101.5 126t123 97.5t130.5 39q25 0 49.5 -8.5t43 -30t30.5 -58.5t12 -94q0 -45 -9 -96t-21 -100q31 70 78 138t102 123.5t117.5 90.5t128.5 35q78 0 117.5 -49.5t39.5 -135.5 q0 -66 -12 -124t-27 -126l-133 -501h154v-64q-25 -23 -38 -51.5t-19.5 -62t-7.5 -69.5t-3 -71q-2 -55 -23.5 -91t-55 -59.5t-76.5 -35.5t-86 -21l-15 41q37 10 58.5 31t33 44.5t13.5 49t2 45.5q0 72 39 126.5t98 107.5l-6 6q-25 -18 -60.5 -34.5t-76.5 -16.5q-53 0 -75 26.5 t-22 63.5q0 59 29 164l96 372q12 49 24.5 102.5t12.5 88.5q0 53 -16.5 85t-63.5 32q-49 0 -100 -39t-97 -98.5t-84 -129t-63 -131.5l-125 -524h-163l129 575q14 63 24 122t10 122q0 47 -16 75t-57 28t-90.5 -39t-96.5 -98.5t-87 -129t-64 -133.5l-109 -522h-176z" />
<glyph unicode="&#x4ae;" horiz-adv-x="1300" d="M188 1374l15 60h540l-12 -60q-33 -12 -74 -26.5t-94 -24.5l207 -602l434 602q-43 10 -81 22.5t-70 28.5l12 60h457l-15 -60q-41 -20 -82 -31.5t-82 -19.5l-538 -713l-107 -501q76 -10 144 -50l-11 -59h-520l11 59q82 37 180 50l106 499l-264 715q-45 8 -83 21.5t-73 29.5 z" />
<glyph unicode="&#x4af;" horiz-adv-x="915" d="M31 922v51q12 8 36.5 21.5t54.5 25.5t61.5 20.5t60.5 8.5q45 0 64.5 -22.5t25.5 -55.5l108 -735l11 -130h4l67 134q31 57 62.5 126.5t60.5 141.5t52.5 142.5t39.5 129.5q0 23 -5 58.5t-10 72.5t-11 69t-11 44q29 12 62 18.5t61 6.5q61 0 109 -25q-31 -127 -75 -260 t-99 -265t-124 -259t-151 -240l-63 -299q68 -12 143 -51v-60h-321l-19 19l90 391l-153 905z" />
<glyph unicode="&#x4b0;" horiz-adv-x="1300" d="M188 1374l15 60h540l-12 -60q-33 -12 -74 -26.5t-94 -24.5l207 -602l434 602q-43 10 -81 22.5t-70 28.5l12 60h457l-15 -60q-41 -20 -82 -31.5t-82 -19.5l-538 -713h297l-23 -106h-299l-82 -395q76 -10 144 -50l-11 -59h-520l11 59q82 37 180 50l82 395h-297l22 106h297 l-262 713q-45 8 -83 21.5t-73 29.5z" />
<glyph unicode="&#x4b1;" horiz-adv-x="915" d="M31 922v51q12 8 36.5 21.5t54.5 25.5t61.5 20.5t60.5 8.5q45 0 64.5 -22.5t25.5 -55.5l108 -735l11 -127h4l67 131q31 57 62.5 126.5t60.5 141.5t52.5 142.5t39.5 129.5q0 23 -5 58.5t-10 72.5t-11 69t-11 44q29 12 62 18.5t61 6.5q61 0 109 -25q-57 -225 -150.5 -465 t-226.5 -453h209l-25 -106h-256l-63 -299q68 -12 143 -51v-60h-321l-19 19l90 391h-262l25 106h219l-135 799z" />
<glyph unicode="&#x4b2;" horiz-adv-x="1394" d="M-82 0l12 59q41 20 82 30.5t82 19.5l537 612l-254 602q-41 10 -78 21.5t-74 29.5l13 60h544l-12 -60q-63 -29 -168 -51l182 -463l383 463q-39 10 -77.5 20.5t-79.5 30.5l12 60h471l-14 -60q-37 -16 -79 -28.5t-85 -22.5l-488 -555l283 -662h207q-8 -43 -23.5 -97 t-33 -110.5t-37 -110.5t-35.5 -97h-53l-13 309h-415l10 59q78 37 166 50l-207 514l-430 -517q41 -6 81 -15t74 -32l-12 -59h-471z" />
<glyph unicode="&#x4b3;" horiz-adv-x="929" d="M-49 14q18 61 75.5 137t127 148t135 130t98.5 87l-139 377l-131 16v52q12 8 35.5 21t53.5 25.5t60.5 20.5t59.5 8q45 0 65.5 -23.5t32.5 -54.5l100 -356q47 47 103.5 106.5t85.5 112.5q2 14 2 41t-2 56.5t-4 55t-4 38.5q35 12 68.5 19t68.5 7q66 0 114 -26 q-12 -41 -40.5 -88t-67.5 -94.5t-83 -93.5t-85 -86t-77 -71.5t-56 -50.5l147 -399l148 -16v-64q-25 -23 -38 -51.5t-19.5 -62t-7.5 -69.5t-3 -71q-2 -55 -23.5 -91t-55 -59.5t-77 -35.5t-86.5 -21l-14 41q37 10 58.5 31t33 44.5t13.5 49t2 45.5q0 72 38.5 126.5t98.5 107.5 l-6 6q-25 -18 -66 -34.5t-67 -16.5q-43 0 -65.5 22.5t-33.5 55.5l-112 370q-23 -25 -52.5 -53.5t-58.5 -59t-53.5 -61.5t-38.5 -57q-4 -14 -5 -41t-2 -56.5t-1 -55t2 -38.5q-35 -14 -71 -20t-69 -6q-68 0 -112 26z" />
<glyph unicode="&#x4b4;" horiz-adv-x="1792" d="M180 1034q2 41 9.5 93.5t16.5 106.5t18 106.5t18 93.5h1081q-10 -41 -22.5 -92.5t-26.5 -105.5t-28.5 -106.5t-28.5 -95.5h-54l-43 293h-207l-260 -1221h619l258 1217q-70 16 -123 51l12 60h498l-12 -60q-43 -16 -88 -29.5t-91 -21.5l-260 -1217h236q-10 -43 -24.5 -97 t-33 -111.5t-37 -111.5t-36.5 -95h-51l-21 309h-1253l10 59q49 16 97 28.5t106 21.5l258 1218h-314l-170 -293h-53z" />
<glyph unicode="&#x4b5;" horiz-adv-x="1112" d="M109 168q0 45 14 133t34.5 192.5t44 214t42.5 197.5l-125 19v51q33 12 70.5 24.5t75.5 22.5t73 17.5t63 9.5l45 -25q-33 -154 -66.5 -292t-62.5 -292q-10 -49 -21 -109.5t-11 -131.5q0 -43 23.5 -70t53.5 -27q45 0 90.5 27t85.5 70t75.5 95t64.5 103.5t48 95.5t30 70 l90 461h170l-168 -911h151v-64q-25 -23 -38 -51.5t-19 -62t-7 -69.5t-3 -71q-2 -55 -23.5 -91t-55.5 -59.5t-77 -35.5t-86 -21l-14 41q37 10 58.5 31t32.5 44.5t13 49t2 45.5q-2 72 38 126.5t100 107.5l-7 6q-25 -18 -67.5 -34.5t-79.5 -16.5q-45 0 -67.5 24.5t-22.5 53.5 q0 37 10 123.5t45 211.5h-8q-27 -57 -67 -130.5t-95 -139t-125.5 -111t-156.5 -45.5q-72 0 -121 50.5t-49 142.5zM424 1305l20 106h521l-23 -106h-518z" />
<glyph unicode="&#x4b6;" horiz-adv-x="1323" d="M209 1374l12 60h479l-14 -60q-29 -14 -63.5 -27.5t-79.5 -23.5l-72 -336q-16 -80 -17 -142.5t18.5 -105.5t63.5 -66.5t115 -23.5q86 0 166 24.5t150 59.5l125 590q-74 18 -136 51l13 60h477l-12 -60q-31 -16 -68 -28.5t-78 -22.5l-258 -1217h225q-8 -43 -23 -97 t-33.5 -110.5t-37 -110.5t-35.5 -97h-53l-12 309h-438l10 59q53 23 103 34t98 16l112 526q-63 -31 -162.5 -61.5t-222.5 -30.5q-86 0 -151.5 24.5t-104.5 77.5t-48 135t15 199l74 344q-35 8 -71.5 20.5t-65.5 30.5z" />
<glyph unicode="&#x4b7;" horiz-adv-x="1011" d="M59 924v51q33 12 71 24.5t76 22.5t72.5 17.5t63.5 9.5l45 -25q-41 -174 -71.5 -292t-30.5 -197q0 -43 24.5 -71t71.5 -28q33 0 72 13.5t77.5 36t72.5 53t59 65.5l83 420h170l-165 -909h151v-66q-25 -23 -39 -51.5t-20 -62t-8.5 -69.5t-2.5 -71q0 -55 -21.5 -91t-55 -59.5 t-76.5 -35.5t-86 -21l-14 41q37 10 58 31t31.5 44.5t12.5 49t2 45.5q0 72 40 126.5t99 107.5l-6 6q-27 -18 -70 -34.5t-77 -16.5q-49 0 -71 26.5t-22 61.5q0 25 3.5 47t9.5 51l67 346h-8q-33 -43 -76 -81t-91 -66.5t-100 -46t-104 -17.5q-70 0 -118.5 44t-48.5 132 q0 37 5 75t14 86t23.5 110.5t32.5 148.5z" />
<glyph unicode="&#x4b8;" horiz-adv-x="1341" d="M209 1374l12 60h498l-12 -60q-33 -14 -76 -27.5t-88 -23.5l-78 -360q-14 -72 -13 -129.5t22.5 -98.5t66.5 -63.5t118 -22.5l66 314h104l-63 -308q72 10 140.5 32t117.5 46l125 590q-35 10 -70 22.5t-65 28.5l12 60h477l-12 -60q-33 -14 -69 -27.5t-76 -23.5l-259 -1214 q37 -8 69 -20.5t54 -29.5l-10 -59h-520l10 59q53 23 103.5 34t97.5 16l113 526q-43 -23 -113 -43.5t-148 -34.5l-63 -295h-105l62 283l-82 -2q-141 0 -221 68.5t-80 217.5q0 68 18 154l74 340q-68 12 -137 51z" />
<glyph unicode="&#x4b9;" horiz-adv-x="1095" d="M59 924v51q33 12 71 24.5t76 22.5t72.5 17.5t63.5 9.5l45 -25q-41 -174 -71.5 -292t-30.5 -197q0 -43 24.5 -71t71.5 -28q43 0 86 6l63 308h99l-62 -281q59 23 104.5 58.5t76.5 76.5l83 420h170l-165 -909h149v-54q-41 -33 -98.5 -53t-114.5 -20q-59 0 -84.5 26.5 t-25.5 61.5q0 25 3 47t9 51l67 346h-8q-31 -39 -78 -76.5t-108 -70.5l-47 -226h-99l39 185q-80 -23 -164 -23q-70 0 -118.5 44t-48.5 132q0 37 5 75t14 86t23.5 110.5t32.5 148.5z" />
<glyph unicode="&#x4ba;" horiz-adv-x="1284" d="M-41 0l12 60q31 16 68 28.5t78 22.5l258 1214q-37 8 -68.5 20.5t-54.5 29.5l10 59h520l-10 -59q-53 -23 -103 -34t-98 -16l-112 -526q63 31 162.5 61.5t222.5 30.5q86 0 151.5 -24.5t104.5 -77.5t48 -135t-15 -199l-74 -344q35 -8 71.5 -20.5t65.5 -30.5l-12 -60h-479 l14 60q29 14 63.5 27.5t79.5 23.5l72 336q16 80 17 142.5t-18.5 105.5t-63.5 66.5t-115 23.5q-86 0 -166 -24.5t-150 -59.5l-125 -590q74 -18 136 -51l-13 -60h-477z" />
<glyph unicode="&#x4bb;" horiz-adv-x="1112" d="M70 0l280 1397l-139 18v47q31 12 68.5 25.5t78.5 25t80 18.5t74 9l43 -18l-184 -860h10q39 82 88 152.5t103.5 122.5t113.5 82t121 30q94 0 136 -54.5t42 -134.5q0 -55 -10 -118.5t-25 -123.5l-116 -503h151v-54q-41 -33 -98.5 -53t-114.5 -20q-59 0 -81.5 24.5 t-22.5 53.5q0 37 10 83t20 93l74 342q14 63 25.5 118.5t11.5 106.5q0 47 -20.5 80t-55.5 33q-63 0 -122.5 -45.5t-110.5 -108.5t-90 -132t-60 -114l-108 -522h-172z" />
<glyph unicode="&#x4bc;" horiz-adv-x="1648" d="M100 942q0 90 39 152.5t80 93.5q49 2 102.5 -19.5t88.5 -48.5l10 -33l-203 -161q10 -66 65.5 -95.5t118.5 -31.5q41 180 116 306t175.5 205t220 113.5t252.5 34.5q111 0 202 -28.5t157.5 -84t103.5 -136.5t37 -185q0 -59 -7 -111.5t-18.5 -96.5t-21.5 -75.5t-16 -48.5 h-1012q-18 -141 6.5 -247.5t81.5 -179t141 -110.5t181.5 -41t203 28.5t205.5 99.5l14 -43q-51 -59 -113.5 -101.5t-128 -69t-132 -40t-125.5 -13.5q-131 0 -240 46.5t-182.5 136.5t-105 224t-9.5 310q-135 4 -211 66.5t-76 183.5zM608 799h819q14 47 24.5 111.5t10.5 142.5 q0 63 -18.5 118.5t-56 95.5t-96 62.5t-140.5 22.5q-96 0 -184 -34t-160 -102.5t-123 -173t-76 -243.5z" />
<glyph unicode="&#x4bd;" horiz-adv-x="1120" d="M49 702q0 29 6 60q18 100 99 170q47 4 84.5 -22.5t50.5 -59.5l6 -25l-148 -116q0 -55 45.5 -81t114.5 -28q29 98 79 180t117.5 142.5t152.5 93.5t184 33q100 0 170.5 -50.5t70.5 -148.5q0 -145 -144 -229t-466 -109q-8 -35 -11 -67.5t-3 -63.5q0 -123 61.5 -201 t181.5 -78q41 0 79 12.5t72 31t61.5 39t48.5 36.5l32 -39q-18 -39 -54 -75.5t-83 -66.5t-105.5 -47.5t-125.5 -17.5q-170 0 -261.5 97.5t-91.5 269.5q0 43 3.5 86t11.5 84q-125 4 -180.5 56.5t-57.5 133.5zM485 600q199 6 309.5 68.5t110.5 173.5q0 43 -25.5 80t-101.5 39 q-88 -2 -164.5 -83t-128.5 -278z" />
<glyph unicode="&#x4be;" horiz-adv-x="1648" d="M100 942q0 90 39 152.5t80 93.5q49 2 102.5 -19.5t88.5 -48.5l10 -33l-203 -161q10 -66 65.5 -95.5t118.5 -31.5q41 180 116 306t175.5 205t220 113.5t252.5 34.5q111 0 202 -28.5t157.5 -84t103.5 -136.5t37 -185q0 -59 -7 -111.5t-18.5 -96.5t-21.5 -75.5t-16 -48.5 h-1012q-18 -141 6.5 -247.5t81.5 -179t141 -110.5t181.5 -41t203 28.5t205.5 99.5l14 -43q-72 -84 -164 -134.5t-184 -70.5q-29 -90 -65.5 -185.5t-85.5 -199.5h-54q0 94 2 185t11 183q-123 6 -224.5 55.5t-169 139.5t-96 220t-6.5 300q-135 4 -211 66.5t-76 183.5zM608 799 h819q14 47 24.5 110.5t10.5 141.5q0 61 -16 116q-29 86 -100.5 135.5t-194.5 49.5q-96 0 -184 -34t-160 -102.5t-123 -173t-76 -243.5z" />
<glyph unicode="&#x4bf;" horiz-adv-x="1120" d="M49 702q0 29 6 60q18 100 99 170q47 4 84.5 -22.5t50.5 -59.5l6 -25l-148 -116q0 -55 45.5 -81t114.5 -28q29 98 79 180t117.5 142.5t152.5 93.5t184 33q100 0 170.5 -50.5t70.5 -148.5q0 -145 -144 -229t-466 -109q-8 -35 -11 -67.5t-3 -63.5q0 -123 61.5 -201 t181.5 -78q41 0 79 12.5t72 31t61.5 39t48.5 36.5l32 -39q-35 -68 -114.5 -127t-192.5 -75q-27 -25 -32 -55.5t0 -64.5t14.5 -70t9.5 -69q0 -84 -54.5 -127t-140.5 -59l-14 37q37 18 47 45t8 58.5t-10 68.5t-8 74q-2 53 16.5 91t65.5 68q-154 10 -235 106.5t-81 258.5 q0 43 3.5 86t11.5 84q-125 4 -180.5 56.5t-57.5 133.5zM485 600q199 6 309.5 68.5t110.5 173.5q0 43 -25.5 80t-101.5 39q-88 -2 -164.5 -83t-128.5 -278z" />
<glyph unicode="&#x4c0;" horiz-adv-x="702" d="M-2 0l10 59q90 37 176 50l256 1214q-41 8 -77.5 21.5t-75.5 29.5l14 60h524l-12 -60q-41 -16 -88 -29.5t-88 -21.5l-256 -1214q41 -8 81 -20.5t70 -29.5l-10 -59h-524z" />
<glyph unicode="&#x4c3;" horiz-adv-x="1304" d="M-41 0l10 59q92 35 181 50l256 1214q-88 12 -158 51l14 60h518l-12 -60q-37 -16 -78 -28.5t-88 -22.5l-119 -567l123 28l492 539q-41 10 -74 22.5t-63 28.5l14 60h463l-15 -60q-39 -20 -84 -31.5t-84 -19.5l-520 -545q76 -41 148.5 -107.5t130 -151.5t91.5 -186.5 t34 -213.5q0 -115 -41 -214.5t-116 -173t-181.5 -116.5t-235.5 -47l-2 55q170 33 273.5 148.5t105.5 308.5q-2 131 -37 230.5t-86 172t-110.5 122.5t-110.5 81h-131l-121 -577q41 -8 78 -20.5t63 -29.5l-10 -59h-518z" />
<glyph unicode="&#x4c4;" horiz-adv-x="1046" d="M88 0l178 905l-143 19v51q59 27 144 48t157 26l43 -23l-92 -465h59q43 27 92 66t94.5 80t82 78.5t55.5 64.5q2 14 3 38.5t0 50.5t-2 49.5t-3 35.5q76 27 147 27q72 0 121 -27q-29 -63 -87 -130t-127 -128t-136.5 -112.5t-112.5 -82.5q45 -23 105.5 -76t115 -124.5 t91 -154.5t36.5 -165q0 -94 -39 -178t-106.5 -148.5t-158.5 -106.5t-195 -52l2 57q66 18 121 56t96 88.5t63.5 113t20.5 131.5q2 82 -29 161t-74 143.5t-90 111.5t-80 68l-80 12l-96 -508h-176z" />
<glyph unicode="&#x4c5;" horiz-adv-x="1359" d="M-81 152.5q-1 33.5 3 60.5l41 51l227 -43q41 51 89.5 135t99.5 214t104.5 312.5t106.5 430.5q-121 23 -195 61l13 60h1075l-13 -60q-37 -16 -82 -29.5t-96 -21.5l-256 -1217h219l17 -14q-8 -41 -41 -98t-79 -116.5t-100.5 -111t-105.5 -75.5h-55l162 309h-394l13 59 q41 16 83 27.5t85 22.5l256 1218h-381q-51 -215 -98.5 -379t-90.5 -288.5t-84 -216t-80.5 -159t-79.5 -116.5t-81 -90q-53 -53 -119 -78t-119 -25q-12 16 -21.5 46t-15.5 64t-7 67.5z" />
<glyph unicode="&#x4c6;" horiz-adv-x="1067" d="M-59 102q0 33 8 64t28 57l168 -69q39 49 81 135t80 189.5t71 214t53 208.5q-43 10 -90 29.5t-70 40.5v53h686l-180 -909h215l17 -15q-25 -94 -68 -176t-103.5 -149.5t-136 -115.5t-168.5 -69l-18 35q104 53 183 156.5t122 228.5q-18 -8 -42.5 -15t-61.5 -7h-2 q-59 0 -85 24.5t-26 53.5q0 39 8 85t19 93l147 692h-239q-25 -111 -59 -232.5t-76 -238.5t-92 -218.5t-109 -170.5q-49 -59 -104.5 -81t-121.5 -20q-16 20 -26 54t-8 73z" />
<glyph unicode="&#x4c7;" horiz-adv-x="1492" d="M-41 0l10 59q88 33 181 50l256 1214q-92 14 -158 51l14 60h518l-12 -60q-41 -18 -83 -30.5t-83 -20.5l-113 -535h644l114 535q-41 10 -76.5 22.5t-68.5 28.5l14 60h518l-12 -60q-41 -20 -87 -31.5t-91 -19.5l-281 -1323q-31 -139 -76 -224t-104 -131t-137 -61.5 t-172 -15.5l-2 55q55 12 100 33.5t81 63.5t63.5 110t50.5 170l143 682h-645l-119 -573q37 -8 74 -20.5t67 -29.5l-10 -59h-518z" />
<glyph unicode="&#x4c8;" horiz-adv-x="1105" d="M88 0l180 905l-125 19l-2 51q29 14 67 27.5t78 23.5t77.5 16.5t66.5 6.5l41 -25l-96 -461h397l90 461h172l-196 -1001q-23 -115 -73 -197t-108.5 -136.5t-114 -85t-87.5 -38.5l-25 45q25 12 58.5 43t66.5 79t61.5 114.5t45.5 152.5l94 473h-398l-98 -473h-172z" />
<glyph unicode="&#x4c9;" horiz-adv-x="1511" d="M-41 0l10 59q45 20 90 31.5t91 18.5l256 1214q-92 18 -158 51l14 60h518l-12 -60q-35 -18 -80 -30.5t-86 -20.5l-113 -535h644l114 535q-41 10 -76.5 21.5t-68.5 29.5l14 60h518l-12 -60q-41 -20 -87 -31.5t-91 -19.5l-258 -1217h221l16 -14q-8 -41 -40.5 -98t-79 -116.5 t-100.5 -111t-105 -75.5h-56l162 309h-391l10 59q39 16 81 28.5t85 21.5l121 573h-645l-119 -573q37 -8 74 -20.5t67 -29.5l-10 -59h-518z" />
<glyph unicode="&#x4ca;" horiz-adv-x="1142" d="M88 0l180 905l-125 19l-2 51q29 14 67 27.5t78 23.5t77.5 16.5t66.5 6.5l41 -25l-96 -461h397l90 461h172l-180 -909h213l18 -15q-25 -94 -68.5 -176t-103 -149.5t-135.5 -115.5t-168 -69l-20 35q106 53 184 156.5t121 228.5q-18 -8 -42 -15t-60 -7h-2q-59 0 -86 24.5 t-27 53.5q0 37 11 84l22 94l45 231h-398l-98 -475h-172z" />
<glyph unicode="&#x4cb;" horiz-adv-x="1284" d="M209 1374l12 60h479l-14 -60q-29 -14 -63.5 -27.5t-79.5 -23.5l-72 -336q-16 -80 -17 -142.5t18.5 -105.5t63.5 -66.5t115 -23.5q86 0 166 24.5t150 59.5l125 590q-74 18 -136 51l13 60h477l-12 -60q-31 -16 -68 -28.5t-78 -22.5l-258 -1214q37 -8 68.5 -20.5t54.5 -29.5 l-10 -59h-385l-146 -309h-51q2 41 6 96t10.5 111.5t13.5 110.5t15 97h225h3l112 529q-63 -31 -162.5 -61.5t-222.5 -30.5q-86 0 -151.5 24.5t-104.5 77.5t-48 135t15 199l74 344q-35 8 -71.5 20.5t-65.5 30.5z" />
<glyph unicode="&#x4cc;" horiz-adv-x="1009" d="M59 924v51q33 12 71 24.5t76 22.5t72.5 17.5t63.5 9.5l45 -25q-41 -174 -71.5 -292t-30.5 -197q0 -43 24.5 -71t71.5 -28q33 0 72 13.5t77.5 36t72.5 53t59 65.5l90 420h170l-193 -909h150v-54q-41 -33 -98.5 -53t-114.5 -20q-59 0 -85 26.5t-26 61.5q0 25 3 47t9 51 l82 346h-8q-33 -43 -75 -81t-89 -66.5t-98 -46t-103 -17.5q-70 0 -118.5 44t-48.5 132q0 37 5 75t14 86t23.5 110.5t32.5 148.5zM276 -428q37 18 47.5 45t7.5 58.5t-11.5 68.5t-8.5 74q-2 72 34 117t130 83l29 -30q-33 -25 -39 -56.5t-1 -66.5t14 -72t9 -72q0 -84 -56 -127 t-140 -59z" />
<glyph unicode="&#x4cd;" horiz-adv-x="1792" d="M-41 0l10 59q82 35 178 52l256 1212q-41 8 -81.5 21.5t-75.5 29.5l12 60h426l145 -936l25 -211h2l107 215l577 932h377l-14 -60q-80 -35 -166 -51l-258 -1217h221l16 -14q-8 -41 -41 -98t-79 -116.5t-101 -111t-106 -75.5h-56l164 309h-393l10 59q45 16 88 27.5t90 22.5 l193 921l61 240h-16l-111 -219l-647 -1051h-53l-178 1051l-23 239h-18l-54 -260l-194 -921q37 -8 73.5 -20.5t71.5 -29.5l-12 -59h-426z" />
<glyph unicode="&#x4ce;" horiz-adv-x="1460" d="M-59 104q0 57 28 103l160 -53q39 49 76 134t70.5 188.5t61.5 215t50 211.5q-41 16 -76 32.5t-51 37.5v51h350l78 -614l6 -142h6l82 148l385 608h185l-183 -911h215l19 -15q-25 -92 -69 -174t-103.5 -149.5t-136 -115.5t-168.5 -69l-19 35q106 53 184 156.5t121 228.5 q-18 -8 -42.5 -15t-61.5 -7q-59 0 -86 24.5t-27 53.5q0 39 10.5 86t20.5 94l100 456q4 18 11.5 43t15.5 51.5t17.5 51t15.5 41.5h-6l-555 -889h-56l-41 399l-34 328l-11 162h-8q-23 -92 -48.5 -205t-60 -225.5t-79.5 -214t-105 -170.5q-49 -59 -98 -79t-113 -20 q-14 23 -23 57t-7 72z" />
<glyph unicode="&#x4cf;" horiz-adv-x="567" d="M76 16l280 1381l-145 18v51q29 12 66.5 24.5t79.5 24t83 18.5t74 7l41 -22l-283 -1407q70 -12 142 -52v-59h-320z" />
<glyph unicode="&#x4d0;" horiz-adv-x="1380" d="M-100 0l12 59q80 33 160 50l809 1349h53l231 -1349q37 -8 75 -19.5t69 -30.5l-11 -59h-520l10 59q92 35 181 50l-62 374h-481l-219 -374q88 -12 164 -50l-11 -59h-460zM485 590h406l-66 434l-4 176h-4l-82 -180zM608 1726q33 27 92.5 40.5t102.5 17.5l51 -27v-135 q12 -10 31.5 -18.5t52.5 -8.5q45 0 92 12.5t87 34t70.5 52t43.5 69.5q20 0 40.5 -8t30.5 -22q-12 -43 -47 -85t-87 -76t-120.5 -54.5t-150.5 -20.5q-84 0 -141.5 23.5t-91 59.5t-47 76t-9.5 70z" />
<glyph unicode="&#x4d1;" horiz-adv-x="1095" d="M88 285q0 143 41 279t119 242.5t189.5 171t252.5 64.5q51 0 82 -9t74 -27q82 43 172 43l-184 -936h149v-52q-41 -33 -98.5 -53t-112.5 -20q-59 0 -84.5 25.5t-25.5 54.5q0 37 14 120.5t43 212.5h-8q-27 -74 -67 -149.5t-92 -137t-115.5 -100.5t-135.5 -39 q-213 0 -213 310zM272 319q0 -104 26 -160.5t89 -56.5q55 0 110.5 52.5t104.5 126t88 153.5t62 133l65 351q-29 20 -55.5 28t-73.5 8q-94 0 -171 -58t-131 -150.5t-84 -205t-30 -221.5zM444 1399q33 25 72 39t82 18l51 -26v-158q12 -10 31.5 -18.5t52.5 -8.5 q90 0 157.5 56.5t94.5 134.5q18 0 39.5 -9.5t31.5 -23.5q-12 -43 -39.5 -88t-70.5 -82t-100.5 -61.5t-131.5 -24.5q-92 0 -147 27.5t-84 66.5t-36 82t-3 76z" />
<glyph unicode="&#x4d2;" horiz-adv-x="1380" d="M-100 0l12 59q80 33 160 50l809 1349h53l231 -1349q37 -8 75 -19.5t69 -30.5l-11 -59h-520l10 59q92 35 181 50l-62 374h-481l-219 -374q88 -12 164 -50l-11 -59h-460zM485 590h406l-66 434l-4 176h-4l-82 -180zM578 1616q0 49 33.5 73.5t82.5 24.5q51 0 84 -24.5 t33 -73.5q0 -47 -33 -71.5t-84 -24.5q-49 0 -82.5 24.5t-33.5 71.5zM1034 1616q0 49 33 73.5t84 24.5q49 0 82 -24.5t35 -73.5q-2 -47 -35 -71.5t-82 -24.5q-51 0 -84 24.5t-33 71.5z" />
<glyph unicode="&#x4d3;" horiz-adv-x="1095" d="M88 285q0 143 41 279t119 242.5t189.5 171t252.5 64.5q51 0 82 -9t74 -27q82 43 172 43l-184 -936h149v-52q-41 -33 -98.5 -53t-112.5 -20q-59 0 -84.5 25.5t-25.5 54.5q0 37 14 120.5t43 212.5h-8q-27 -74 -67 -149.5t-92 -137t-115.5 -100.5t-135.5 -39 q-213 0 -213 310zM272 319q0 -104 26 -160.5t89 -56.5q55 0 110.5 52.5t104.5 126t88 153.5t62 133l65 351q-29 20 -55.5 28t-73.5 8q-94 0 -171 -58t-131 -150.5t-84 -205t-30 -221.5zM412 1356q0 49 30.5 78.5t81.5 29.5q49 0 80 -29.5t31 -78.5q0 -47 -31 -76t-80 -29 q-51 0 -81.5 29t-30.5 76zM825 1356q0 49 31 78.5t80 29.5q51 0 82 -29.5t31 -78.5q0 -47 -31 -76t-82 -29q-49 0 -80 29t-31 76z" />
<glyph unicode="&#x4d4;" horiz-adv-x="1869" d="M-100 0l12 59q80 33 160 50l981 1226q-59 12 -111 39l14 60h975q-31 -158 -94 -332h-53l-35 225h-449l-112 -543h332l112 152h51q-14 -102 -34.5 -208.5t-53.5 -205.5h-49l-49 156h-332l-123 -574h471l154 248h51q-4 -84 -16 -173t-35 -179h-1010l11 59q84 35 180 50 l88 415h-395l-322 -415q43 -6 82 -18.5t80 -31.5l-10 -59h-471zM623 629h335l134 622h-5l-120 -190z" />
<glyph unicode="&#x4d5;" horiz-adv-x="1513" d="M59 248q0 78 44 142.5t127 109.5t200 64.5t262 6.5q25 86 37 158t3 123t-41 80t-93 29q-29 0 -64.5 -3.5t-72.5 -17.5l-109 -225h-53q-39 113 -41 233q88 47 187.5 74t216.5 27q115 0 171 -35t68 -86q66 55 150 88t182 33t169 -50.5t71 -148.5q0 -145 -144.5 -229 t-466.5 -109q-8 -35 -11 -67.5t-3 -63.5q0 -123 62.5 -201t183.5 -78q39 0 76.5 12.5t71.5 31t61.5 39t48.5 36.5l32 -39q-18 -39 -53 -75.5t-82 -66.5t-106.5 -47.5t-126.5 -17.5q-131 0 -217 60.5t-119 181.5q-57 -109 -145.5 -175.5t-208.5 -66.5q-55 0 -103.5 19.5 t-84.5 54.5t-57.5 86t-21.5 113zM262 266q0 -90 43 -127t98 -37q45 0 87 21.5t76 55.5t59.5 76t40.5 83q-2 33 1 78t7 78q-104 12 -182 -4.5t-129.5 -50t-76 -80t-24.5 -93.5zM877 600q199 6 309 68.5t110 173.5q0 43 -25.5 81t-101.5 38q-88 0 -163.5 -82t-128.5 -279z" />
<glyph unicode="&#x4d6;" horiz-adv-x="1171" d="M-41 0l10 59q84 35 181 50l256 1214q-41 10 -80 22.5t-78 28.5l14 60h969q-16 -82 -39 -166t-53 -166h-54l-34 225h-449l-113 -543h332l113 152h51q-16 -102 -37.5 -205.5t-50.5 -208.5h-51l-47 156h-334l-119 -572h469l154 246h51q-4 -80 -16.5 -171t-34.5 -181h-1010z M508 1726q33 27 92.5 40.5t102.5 17.5l51 -27v-135q12 -10 31.5 -18.5t52.5 -8.5q45 0 92 12.5t87 34t70.5 52t43.5 69.5q20 0 40.5 -8t30.5 -22q-12 -43 -47 -85t-87 -76t-120.5 -54.5t-150.5 -20.5q-84 0 -141.5 23.5t-91 59.5t-47 76t-9.5 70z" />
<glyph unicode="&#x4d7;" horiz-adv-x="929" d="M82 342q0 145 41 274t114.5 225.5t179 152t234.5 55.5q98 0 169 -50.5t71 -148.5q0 -145 -144.5 -229t-465.5 -109q-8 -35 -11.5 -67.5t-3.5 -63.5q0 -123 62.5 -201t183.5 -78q39 0 77 12.5t71.5 31t61.5 39t48 36.5l33 -39q-18 -39 -53 -75.5t-82 -66.5t-106.5 -47.5 t-127.5 -17.5q-170 0 -261 97.5t-91 269.5zM295 600q199 6 309.5 68.5t110.5 173.5q0 43 -25.5 80t-101.5 39q-88 -2 -164 -83t-129 -278zM350 1399q33 25 72 39t82 18l51 -26v-158q12 -10 31.5 -18.5t52.5 -8.5q90 0 157.5 56.5t94.5 134.5q18 0 39.5 -9.5t31.5 -23.5 q-12 -43 -39.5 -88t-70.5 -82t-100.5 -61.5t-131.5 -24.5q-92 0 -147 27.5t-84 66.5t-36 82t-3 76z" />
<glyph unicode="&#x4d8;" horiz-adv-x="1431" d="M135 508q0 45 8.5 118.5t24.5 135.5h1044q20 135 8 243.5t-60 185.5t-134 119t-215 42q-25 0 -58.5 -2t-66.5 -5.5t-60.5 -9.5t-39.5 -12l-170 -297h-54q0 41 5.5 89t11.5 96.5t13 90t16 72.5q39 18 89 33.5t107.5 27t117.5 17.5t120 6q174 0 286.5 -46t177 -119.5 t89 -167t24.5 -185.5q0 -184 -44 -358t-139 -309.5t-242.5 -216.5t-352.5 -81q-94 0 -185 27t-162 89.5t-115 163.5t-44 253zM346 487q0 -221 87 -314t249 -91q106 0 192.5 45t151 124t107.5 183.5t63 220.5h-831q-4 -12 -7.5 -34.5t-5.5 -48t-4 -49t-2 -36.5z" />
<glyph unicode="&#x4d9;" horiz-adv-x="985" d="M72 223q0 55 29.5 124t103.5 126t196.5 89t309.5 18q4 10 5 31.5t1 31.5q0 61 -9.5 112.5t-31 88.5t-57 57.5t-89.5 20.5q-55 0 -99 -18.5t-79 -44t-61.5 -55.5t-46.5 -52l-45 30q12 43 46 89.5t85 86t118.5 65.5t149.5 26q141 0 222 -91.5t81 -275.5q0 -145 -40 -274 t-113.5 -225.5t-179 -152t-234.5 -55.5q-49 0 -96.5 13.5t-84 43t-59 77t-22.5 114.5zM252 213q0 -66 34.5 -108t110.5 -42q88 0 173 105.5t126 323.5q-117 18 -201.5 -0.5t-138 -60.5t-79 -100.5t-25.5 -117.5z" />
<glyph unicode="&#x4da;" horiz-adv-x="1431" d="M135 508q0 45 8.5 118.5t24.5 135.5h1044q20 135 8 243.5t-60 185.5t-134 119t-215 42q-25 0 -58.5 -2t-66.5 -5.5t-60.5 -9.5t-39.5 -12l-170 -297h-54q0 41 5.5 89t11.5 96.5t13 90t16 72.5q39 18 89 33.5t107.5 27t117.5 17.5t120 6q174 0 286.5 -46t177 -119.5 t89 -167t24.5 -185.5q0 -184 -44 -358t-139 -309.5t-242.5 -216.5t-352.5 -81q-94 0 -185 27t-162 89.5t-115 163.5t-44 253zM346 487q0 -221 87 -314t249 -91q106 0 192.5 45t151 124t107.5 183.5t63 220.5h-831q-4 -12 -7.5 -34.5t-5.5 -48t-4 -49t-2 -36.5zM525 1616 q0 49 33.5 73.5t82.5 24.5q51 0 84 -24.5t33 -73.5q0 -47 -33 -71.5t-84 -24.5q-49 0 -82.5 24.5t-33.5 71.5zM981 1616q0 49 33 73.5t84 24.5q49 0 82 -24.5t35 -73.5q-2 -47 -35 -71.5t-82 -24.5q-51 0 -84 24.5t-33 71.5z" />
<glyph unicode="&#x4db;" horiz-adv-x="985" d="M72 223q0 55 29.5 124t103.5 126t196.5 89t309.5 18q4 10 5 31.5t1 31.5q0 61 -9.5 112.5t-31 88.5t-57 57.5t-89.5 20.5q-55 0 -99 -18.5t-79 -44t-61.5 -55.5t-46.5 -52l-45 30q12 43 46 89.5t85 86t118.5 65.5t149.5 26q141 0 222 -91.5t81 -275.5q0 -145 -40 -274 t-113.5 -225.5t-179 -152t-234.5 -55.5q-49 0 -96.5 13.5t-84 43t-59 77t-22.5 114.5zM252 213q0 -66 34.5 -108t110.5 -42q88 0 173 105.5t126 323.5q-117 18 -201.5 -0.5t-138 -60.5t-79 -100.5t-25.5 -117.5zM285 1356q0 49 30.5 78.5t81.5 29.5q49 0 80 -29.5t31 -78.5 q0 -47 -31 -76t-80 -29q-51 0 -81.5 29t-30.5 76zM698 1356q0 49 31 78.5t80 29.5q51 0 82 -29.5t31 -78.5q0 -47 -31 -76t-82 -29q-49 0 -80 29t-31 76z" />
<glyph unicode="&#x4dc;" horiz-adv-x="1921" d="M-74 0l11 51l106 49q92 82 178 171t165 178.5t149.5 171t130.5 149.5l-263 553q-82 23 -133 51l13 60h436l-12 -60q-63 -31 -150 -51l234 -551h141l117 551q-41 12 -74 24.5t-62 26.5l13 60h473l-13 -60q-27 -12 -62.5 -25.5t-80.5 -25.5l-121 -567l138 28l456 539 q-37 10 -69.5 22.5t-67.5 28.5l12 60h465l-12 -60q-41 -16 -83 -28.5t-83 -22.5l-498 -555q33 -63 74 -145t88 -171.5t100.5 -179.5t112.5 -172l86 -49l-10 -51h-244l-57 51q-47 70 -86 147.5t-75 158.5t-68.5 164t-69.5 165h-123l-123 -577q33 -10 63.5 -21.5t59.5 -28.5 l-10 -59h-475l10 59q72 35 160 50l125 593l-142 -28q-49 -70 -105.5 -149t-120 -160.5t-132 -162.5t-144.5 -151l-79 -51h-269zM852 1616q0 49 33.5 73.5t82.5 24.5q51 0 84 -24.5t33 -73.5q0 -47 -33 -71.5t-84 -24.5q-49 0 -82.5 24.5t-33.5 71.5zM1308 1616q0 49 33 73.5 t84 24.5q49 0 82 -24.5t35 -73.5q-2 -47 -35 -71.5t-82 -24.5q-51 0 -84 24.5t-33 71.5z" />
<glyph unicode="&#x4dd;" horiz-adv-x="1609" d="M-45 14q-4 27 2 57.5t20.5 58.5t37 51.5t51.5 35.5l88 -121q45 12 89 56.5t76.5 119t53 179t18.5 237.5q2 117 -24.5 169t-87.5 52q-76 0 -138 -57l-22 29q53 74 116.5 114.5t147.5 40.5q43 0 77 -21.5t58.5 -58t36.5 -85t12 -99.5q0 -111 -18 -211h188l94 463h166 l-96 -463h189q27 104 71.5 191.5t101 151t125 98t142.5 34.5q55 0 77.5 -7t49.5 -19q2 -23 -3 -50.5t-19.5 -55t-36 -53.5t-52.5 -42l-88 119q-37 -10 -78 -53.5t-75.5 -118t-57 -180t-20.5 -240.5q-2 -117 33.5 -169t99.5 -52q35 0 62.5 14t56.5 43l22 -29 q-41 -63 -108.5 -109t-141.5 -46q-53 0 -91 21.5t-62.5 58t-35.5 85t-11 101.5q0 57 4 111.5t12 107.5h-184l-97 -473h-163l96 473h-189q-29 -106 -73.5 -195.5t-103 -154t-127 -100t-142.5 -35.5q-57 0 -80.5 8t-48.5 18zM639 1356q0 49 30.5 78.5t81.5 29.5q49 0 80 -29.5 t31 -78.5q0 -47 -31 -76t-80 -29q-51 0 -81.5 29t-30.5 76zM1052 1356q0 49 31 78.5t80 29.5q51 0 82 -29.5t31 -78.5q0 -47 -31 -76t-82 -29q-49 0 -80 29t-31 76z" />
<glyph unicode="&#x4de;" horiz-adv-x="1146" d="M20 57q6 33 19.5 76t31 89t36 92t36.5 83h52l26 -282q12 -6 36 -12.5t53.5 -11.5t60 -7t57.5 -2q88 0 163 23.5t130 73.5t86 127t33 181q-2 104 -75 151.5t-194 47.5l-161 -22q0 29 4 59.5t18 58.5h66q35 0 86 3t86 8q57 20 106 55t84 81t55.5 99t22.5 113 q-2 117 -57.5 164t-190.5 47q-61 0 -103 -12.5t-67 -26.5l-160 -250h-53q2 39 4 76t6.5 73.5t12.5 75.5t20 86q82 47 184.5 65.5t190.5 18.5q82 0 156.5 -16.5t131 -52t89.5 -90t33 -130.5q0 -53 -14.5 -109t-52.5 -109.5t-103.5 -101.5t-167.5 -83v-8q41 -6 84 -24.5 t77.5 -52.5t56 -81t21.5 -108q0 -119 -44 -214.5t-125 -163t-199 -103.5t-265 -36q-117 0 -219 24t-164 58zM422 1616q0 49 33.5 73.5t82.5 24.5q51 0 84 -24.5t33 -73.5q0 -47 -33 -71.5t-84 -24.5q-49 0 -82.5 24.5t-33.5 71.5zM878 1616q0 49 33 73.5t84 24.5 q49 0 82 -24.5t35 -73.5q-2 -47 -35 -71.5t-82 -24.5q-51 0 -84 24.5t-33 71.5z" />
<glyph unicode="&#x4df;" horiz-adv-x="899" d="M-25 74q2 27 12.5 54.5t27 54t37 49t44.5 36.5l140 -194q16 -4 42.5 -7.5t43.5 -3.5q47 0 96 18.5t89 52.5t65.5 84t27.5 112q-2 82 -45 118.5t-145 53.5l-144 -37q-10 27 -9 55.5t9 54.5h146q111 35 166 106t53 136q2 61 -37 102.5t-127 41.5q-16 0 -45 -3.5t-49 -7.5 q-29 -33 -65 -86t-66 -94q-18 8 -36 28.5t-30 47t-16 57.5t4 60q18 12 49 26.5t77 27.5t105.5 22.5t136.5 9.5q57 0 108.5 -12.5t90.5 -37t61.5 -61.5t22.5 -86q0 -195 -274 -295q63 0 109 -18.5t76 -47t44 -66.5t14 -75q0 -74 -32.5 -142.5t-93 -119.5t-147.5 -82t-196 -31 q-115 0 -203 26t-137 73zM217 1356q0 49 30.5 78.5t81.5 29.5q49 0 80 -29.5t31 -78.5q0 -47 -31 -76t-80 -29q-51 0 -81.5 29t-30.5 76zM630 1356q0 49 31 78.5t80 29.5q51 0 82 -29.5t31 -78.5q0 -47 -31 -76t-82 -29q-49 0 -80 29t-31 76z" />
<glyph unicode="&#x4e0;" horiz-adv-x="1118" d="M25 55q6 33 19 76t30.5 89t37 92t38.5 85h53l24 -284q10 -6 32 -11.5t49.5 -10.5t57 -7t56.5 -2q117 0 196.5 35t129 92t70 127t22.5 137q-2 115 -81 169t-200 54l-160 -22q0 29 4.5 59.5t18.5 61.5l125 2l352 428l78 71v9l-117 -13h-393l-127 -221h-51q2 86 10 187.5 t25 175.5h862l-15 -64l-409 -475l-105 -102q104 0 176 -27t117 -70t65.5 -97t20.5 -110q0 -115 -42 -210t-124 -162.5t-199.5 -104.5t-269.5 -37q-115 0 -214 22.5t-162 57.5z" />
<glyph unicode="&#x4e1;" horiz-adv-x="901" d="M-133 -311l65 137h41q29 -29 57.5 -70t55.5 -78q18 -8 38.5 -12t61.5 -4q82 0 152 35t120 90t77.5 125t27.5 139q0 113 -61.5 177.5t-179.5 64.5l-134 -23q-2 57 21 113h98l326 426l72 88l2 8l-113 -12h-305l-121 -205h-51q-4 86 3 172t23 164h742v-63l-365 -476 l-104 -104q94 -2 159.5 -26.5t104.5 -66.5t56.5 -96.5t17.5 -117.5q0 -117 -49.5 -210t-129 -159.5t-184 -102.5t-215.5 -36q-94 0 -178 34.5t-131 88.5z" />
<glyph unicode="&#x4e2;" horiz-adv-x="1492" d="M-41 0l10 59q90 37 181 50l256 1214q-39 10 -80 21.5t-78 29.5l14 60h518l-12 -60q-35 -16 -77 -28.5t-89 -22.5l-188 -889l-54 -153l125 165l783 828l10 49q-45 10 -84 22.5t-70 28.5l13 60h518l-13 -60q-41 -16 -86 -28.5t-92 -22.5l-258 -1214q43 -8 83 -20.5 t73 -29.5l-10 -59h-518l10 59q35 14 78 27.5t90 22.5l188 886l53 154l-114 -156l-797 -839l-8 -45q45 -8 84 -20.5t69 -29.5l-10 -59h-518zM678 1614l21 106h618l-22 -106h-617z" />
<glyph unicode="&#x4e3;" horiz-adv-x="1110" d="M109 168q0 45 14 133t34.5 192.5t44 214t42.5 197.5l-125 19v51q33 12 70.5 24.5t75.5 22.5t73 17.5t63 9.5l45 -25q-33 -154 -66.5 -292t-62.5 -292q-10 -49 -21 -109.5t-11 -131.5q0 -43 23.5 -70t53.5 -27q45 0 90.5 27t85.5 70t75.5 95t64.5 103.5t48 95.5t30 70 l90 461h170l-168 -911h151v-52q-41 -33 -99 -53t-114 -20q-59 0 -84.5 24.5t-25.5 53.5q0 37 10 123.5t45 211.5h-8q-27 -57 -67 -130.5t-95 -139t-125.5 -111t-156.5 -45.5q-72 0 -121 50.5t-49 142.5zM404 1305l20 106h521l-23 -106h-518z" />
<glyph unicode="&#x4e4;" horiz-adv-x="1492" d="M-41 0l10 59q90 37 181 50l256 1214q-39 10 -80 21.5t-78 29.5l14 60h518l-12 -60q-35 -16 -77 -28.5t-89 -22.5l-188 -889l-54 -153l125 165l783 828l10 49q-45 10 -84 22.5t-70 28.5l13 60h518l-13 -60q-41 -16 -86 -28.5t-92 -22.5l-258 -1214q43 -8 83 -20.5 t73 -29.5l-10 -59h-518l10 59q35 14 78 27.5t90 22.5l188 886l53 154l-114 -156l-797 -839l-8 -45q45 -8 84 -20.5t69 -29.5l-10 -59h-518zM639 1616q0 49 33.5 73.5t82.5 24.5q51 0 84 -24.5t33 -73.5q0 -47 -33 -71.5t-84 -24.5q-49 0 -82.5 24.5t-33.5 71.5zM1095 1616 q0 49 33 73.5t84 24.5q49 0 82 -24.5t35 -73.5q-2 -47 -35 -71.5t-82 -24.5q-51 0 -84 24.5t-33 71.5z" />
<glyph unicode="&#x4e5;" horiz-adv-x="1110" d="M109 168q0 45 14 133t34.5 192.5t44 214t42.5 197.5l-125 19v51q33 12 70.5 24.5t75.5 22.5t73 17.5t63 9.5l45 -25q-33 -154 -66.5 -292t-62.5 -292q-10 -49 -21 -109.5t-11 -131.5q0 -43 23.5 -70t53.5 -27q45 0 90.5 27t85.5 70t75.5 95t64.5 103.5t48 95.5t30 70 l90 461h170l-168 -911h151v-52q-41 -33 -99 -53t-114 -20q-59 0 -84.5 24.5t-25.5 53.5q0 37 10 123.5t45 211.5h-8q-27 -57 -67 -130.5t-95 -139t-125.5 -111t-156.5 -45.5q-72 0 -121 50.5t-49 142.5zM349 1356q0 49 30.5 78.5t81.5 29.5q49 0 80 -29.5t31 -78.5 q0 -47 -31 -76t-80 -29q-51 0 -81.5 29t-30.5 76zM762 1356q0 49 31 78.5t80 29.5q51 0 82 -29.5t31 -78.5q0 -47 -31 -76t-82 -29q-49 0 -80 29t-31 76z" />
<glyph unicode="&#x4e6;" horiz-adv-x="1495" d="M135 569q0 186 56.5 348t163 282t256 189.5t337.5 69.5q150 0 252.5 -49t164.5 -129t90 -183.5t28 -213.5q0 -164 -46 -327t-142.5 -292t-243 -209t-346.5 -80q-147 0 -255 48.5t-177.5 129t-103.5 188t-34 228.5zM354 567q0 -113 30 -203t82 -153.5t122.5 -97 t154.5 -31.5q150 -2 249.5 72.5t159.5 192.5t86 260.5t26 277.5q0 104 -23.5 190t-71 147.5t-116 95.5t-158.5 34q-141 0 -243.5 -74t-169 -188.5t-97.5 -254t-31 -268.5zM601 1616q0 49 33.5 73.5t82.5 24.5q51 0 84 -24.5t33 -73.5q0 -47 -33 -71.5t-84 -24.5 q-49 0 -82.5 24.5t-33.5 71.5zM1057 1616q0 49 33 73.5t84 24.5q49 0 82 -24.5t35 -73.5q-2 -47 -35 -71.5t-82 -24.5q-51 0 -84 24.5t-33 71.5z" />
<glyph unicode="&#x4e7;" horiz-adv-x="1042" d="M84 381q0 109 34 226.5t103.5 216t174 162t243.5 63.5q160 0 241 -98.5t81 -291.5q0 -135 -39 -259t-109 -218t-168 -150.5t-217 -56.5q-158 0 -251 101.5t-93 304.5zM268 336q0 -121 53.5 -197t143.5 -76q72 0 128 54.5t96 143.5t61.5 201.5t21.5 227.5q0 121 -42 195 t-132 76q-100 -2 -163.5 -66t-100.5 -158t-51.5 -202.5t-14.5 -198.5zM324 1356q0 49 30.5 78.5t81.5 29.5q49 0 80 -29.5t31 -78.5q0 -47 -31 -76t-80 -29q-51 0 -81.5 29t-30.5 76zM737 1356q0 49 31 78.5t80 29.5q51 0 82 -29.5t31 -78.5q0 -47 -31 -76t-82 -29 q-49 0 -80 29t-31 76z" />
<glyph unicode="&#x4e8;" horiz-adv-x="1495" d="M135 569q0 186 56.5 348t163 282t256 189.5t337.5 69.5q150 0 252.5 -49t164.5 -129t90 -183.5t28 -213.5q0 -164 -46 -327t-142.5 -292t-243 -209t-346.5 -80q-147 0 -255 48.5t-177.5 129t-103.5 188t-34 228.5zM354 567q0 -113 30 -203t82 -153.5t122.5 -96 t154.5 -32.5q119 0 207 49t148.5 131t96.5 188.5t52 219.5h-889q-4 -27 -4 -52.5v-50.5zM377 793h880q2 23 3.5 44t3.5 44q0 41 -4.5 78.5t-12.5 74.5q-29 145 -117 231.5t-235 86.5q-113 0 -201 -47.5t-151.5 -126t-104.5 -179t-61 -206.5z" />
<glyph unicode="&#x4e9;" horiz-adv-x="1042" d="M84 381q0 109 34 226.5t103.5 216t174 162t243.5 63.5q160 0 241 -98.5t81 -291.5q0 -135 -39 -259t-109 -218t-168 -150.5t-217 -56.5q-158 0 -251 101.5t-93 304.5zM268 336q0 -121 53.5 -197t143.5 -76q53 0 98 31t82 85t62.5 126t42.5 152h-478q-4 -31 -4 -61.5 v-59.5zM289 563h477q6 61 6 127q0 121 -42 195t-132 76q-72 -2 -125 -36t-90 -89.5t-59.5 -126t-34.5 -146.5z" />
<glyph unicode="&#x4ea;" horiz-adv-x="1495" d="M135 569q0 186 56.5 348t163 282t256 189.5t337.5 69.5q150 0 252.5 -49t164.5 -129t90 -183.5t28 -213.5q0 -164 -46 -327t-142.5 -292t-243 -209t-346.5 -80q-147 0 -255 48.5t-177.5 129t-103.5 188t-34 228.5zM354 567q0 -113 30 -203t82 -153.5t122.5 -96 t154.5 -32.5q119 0 207 49t148.5 131t96.5 188.5t52 219.5h-889q-4 -27 -4 -52.5v-50.5zM377 793h880q2 23 3.5 44t3.5 44q0 41 -4.5 78.5t-12.5 74.5q-29 145 -117 231.5t-235 86.5q-113 0 -201 -47.5t-151.5 -126t-104.5 -179t-61 -206.5zM619 1616q0 49 33.5 73.5 t82.5 24.5q51 0 84 -24.5t33 -73.5q0 -47 -33 -71.5t-84 -24.5q-49 0 -82.5 24.5t-33.5 71.5zM1075 1616q0 49 33 73.5t84 24.5q49 0 82 -24.5t35 -73.5q-2 -47 -35 -71.5t-82 -24.5q-51 0 -84 24.5t-33 71.5z" />
<glyph unicode="&#x4eb;" horiz-adv-x="1042" d="M84 381q0 109 34 226.5t103.5 216t174 162t243.5 63.5q160 0 241 -98.5t81 -291.5q0 -135 -39 -259t-109 -218t-168 -150.5t-217 -56.5q-158 0 -251 101.5t-93 304.5zM268 336q0 -121 53.5 -197t143.5 -76q53 0 98 31t82 85t62.5 126t42.5 152h-478q-4 -31 -4 -61.5 v-59.5zM289 563h477q6 61 6 127q0 121 -42 195t-132 76q-72 -2 -125 -36t-90 -89.5t-59.5 -126t-34.5 -146.5zM347 1356q0 49 30.5 78.5t81.5 29.5q49 0 80 -29.5t31 -78.5q0 -47 -31 -76t-80 -29q-51 0 -81.5 29t-30.5 76zM760 1356q0 49 31 78.5t80 29.5q51 0 82 -29.5 t31 -78.5q0 -47 -31 -76t-82 -29q-49 0 -80 29t-31 76z" />
<glyph unicode="&#x4ec;" horiz-adv-x="1273" d="M41 49q14 88 44 183.5t60 166.5h52l45 -295q29 -10 72.5 -16t97.5 -6q113 0 216 38t186 116.5t141.5 195.5t80.5 273l-608 -62q-2 41 5 81t28 79l590 -2q8 123 -18.5 225t-82 174t-136.5 112t-179 40q-51 0 -108.5 -11.5t-84.5 -27.5l-159 -250h-54q2 27 5.5 63.5 t8.5 77.5t13 85t18 85q39 23 89.5 39.5t103.5 26.5t105.5 14t95.5 4q287 0 439.5 -153.5t152.5 -430.5q0 -190 -59.5 -355t-171 -285.5t-271.5 -189.5t-363 -69q-135 0 -214 19.5t-140 54.5zM383 1616q0 49 33.5 73.5t82.5 24.5q51 0 84 -24.5t33 -73.5q0 -47 -33 -71.5 t-84 -24.5q-49 0 -82.5 24.5t-33.5 71.5zM839 1616q0 49 33 73.5t84 24.5q49 0 82 -24.5t35 -73.5q-2 -47 -35 -71.5t-82 -24.5q-51 0 -84 24.5t-33 71.5z" />
<glyph unicode="&#x4ed;" horiz-adv-x="952" d="M-25 74q2 27 12.5 54.5t27 54t37 49t44.5 36.5l140 -194q16 -4 37.5 -7.5t35.5 -3.5q57 0 115.5 30t108 85t87 135t56.5 181l-387 -50q-10 27 -10 66t10 65h395q2 16 3 36t1 38q0 143 -58.5 227.5t-162.5 84.5q-16 0 -44 -3.5t-48 -7.5q-29 -33 -66 -86t-67 -94 q-18 8 -36 28.5t-30 47t-16 57.5t4 60q39 25 126 55.5t228 30.5q162 0 262.5 -96.5t100.5 -264.5q0 -158 -44 -289t-121 -225t-180.5 -146.5t-220.5 -52.5q-115 0 -202.5 26t-137.5 73zM242 1356q0 49 30.5 78.5t81.5 29.5q49 0 80 -29.5t31 -78.5q0 -47 -31 -76t-80 -29 q-51 0 -81.5 29t-30.5 76zM655 1356q0 49 31 78.5t80 29.5q51 0 82 -29.5t31 -78.5q0 -47 -31 -76t-82 -29q-49 0 -80 29t-31 76z" />
<glyph unicode="&#x4ee;" horiz-adv-x="1331" d="M190 1374l13 60h538l-12 -60q-35 -16 -81 -28.5t-97 -22.5l217 -678l16 -131h4l70 135l389 674q-94 18 -164 51l13 60h456l-12 -60q-29 -14 -67.5 -27.5t-90.5 -23.5l-606 -971q-127 -195 -234.5 -290t-224.5 -72q-10 18 -17 47t-13 59.5t-8.5 61t2.5 55.5l59 49l215 -55 q10 8 24.5 24.5t29 37t27.5 41t21 36.5l-323 977q-35 10 -72 21.5t-72 29.5zM616 1614l21 106h618l-22 -106h-617z" />
<glyph unicode="&#x4ef;" horiz-adv-x="931" d="M-31 -395q-2 23 4.5 51.5t19.5 57t34.5 53t48.5 38.5l166 -86q14 10 36.5 30t47 53.5t49 81.5t47.5 116l-242 905l-131 17v51q10 8 33.5 20.5t54.5 24.5t63.5 21.5t61.5 9.5q43 0 62.5 -21.5t29.5 -56.5l170 -717l6 -123h5l47 121q27 57 54.5 125.5t54 138.5t49 137.5 t38.5 124.5q0 23 -5 59.5t-11 73.5t-12.5 69t-10.5 44q29 12 62 18.5t63 6.5q61 0 109 -25q-63 -254 -173 -508t-243 -516q-111 -215 -221.5 -321.5t-249.5 -106.5q-31 0 -58.5 8t-58.5 25zM330 1305l20 106h521l-23 -106h-518z" />
<glyph unicode="&#x4f0;" horiz-adv-x="1331" d="M190 1374l13 60h538l-12 -60q-35 -16 -81 -28.5t-97 -22.5l217 -678l16 -131h4l70 135l389 674q-94 18 -164 51l13 60h456l-12 -60q-29 -14 -67.5 -27.5t-90.5 -23.5l-606 -971q-127 -195 -234.5 -290t-224.5 -72q-10 18 -17 47t-13 59.5t-8.5 61t2.5 55.5l59 49l215 -55 q10 8 24.5 24.5t29 37t27.5 41t21 36.5l-323 977q-35 10 -72 21.5t-72 29.5zM576 1616q0 49 33.5 73.5t82.5 24.5q51 0 84 -24.5t33 -73.5q0 -47 -33 -71.5t-84 -24.5q-49 0 -82.5 24.5t-33.5 71.5zM1032 1616q0 49 33 73.5t84 24.5q49 0 82 -24.5t35 -73.5 q-2 -47 -35 -71.5t-82 -24.5q-51 0 -84 24.5t-33 71.5z" />
<glyph unicode="&#x4f1;" horiz-adv-x="931" d="M-31 -395q-2 23 4.5 51.5t19.5 57t34.5 53t48.5 38.5l166 -86q14 10 36.5 30t47 53.5t49 81.5t47.5 116l-242 905l-131 17v51q10 8 33.5 20.5t54.5 24.5t63.5 21.5t61.5 9.5q43 0 62.5 -21.5t29.5 -56.5l170 -717l6 -123h5l47 121q27 57 54.5 125.5t54 138.5t49 137.5 t38.5 124.5q0 23 -5 59.5t-11 73.5t-12.5 69t-10.5 44q29 12 62 18.5t63 6.5q61 0 109 -25q-63 -254 -173 -508t-243 -516q-111 -215 -221.5 -321.5t-249.5 -106.5q-31 0 -58.5 8t-58.5 25zM265 1356q0 49 30.5 78.5t81.5 29.5q49 0 80 -29.5t31 -78.5q0 -47 -31 -76 t-80 -29q-51 0 -81.5 29t-30.5 76zM678 1356q0 49 31 78.5t80 29.5q51 0 82 -29.5t31 -78.5q0 -47 -31 -76t-82 -29q-49 0 -80 29t-31 76z" />
<glyph unicode="&#x4f2;" horiz-adv-x="1331" d="M190 1374l13 60h538l-12 -60q-35 -16 -81 -28.5t-97 -22.5l217 -678l16 -131h4l70 135l389 674q-94 18 -164 51l13 60h456l-12 -60q-29 -14 -67.5 -27.5t-90.5 -23.5l-606 -971q-127 -195 -234.5 -290t-224.5 -72q-10 18 -17 47t-13 59.5t-8.5 61t2.5 55.5l59 49l215 -55 q10 8 24.5 24.5t29 37t27.5 41t21 36.5l-323 977q-35 10 -72 21.5t-72 29.5zM686 1589l143 230q12 2 36.5 -2.5t51.5 -10.5t48.5 -16t27.5 -21v-28l-268 -189zM950 1585l235 234q14 2 39 -2.5t51.5 -12.5t49 -18t32.5 -23l-2 -20l-362 -195z" />
<glyph unicode="&#x4f3;" horiz-adv-x="931" d="M-31 -395q-2 23 4.5 51.5t19.5 57t34.5 53t48.5 38.5l166 -86q14 10 36.5 30t47 53.5t49 81.5t47.5 116l-242 905l-131 17v51q10 8 33.5 20.5t54.5 24.5t63.5 21.5t61.5 9.5q43 0 62.5 -21.5t29.5 -56.5l170 -717l6 -123h5l47 121q27 57 54.5 125.5t54 138.5t49 137.5 t38.5 124.5q0 23 -5 59.5t-11 73.5t-12.5 69t-10.5 44q29 12 62 18.5t63 6.5q61 0 109 -25q-63 -254 -173 -508t-243 -516q-111 -215 -221.5 -321.5t-249.5 -106.5q-31 0 -58.5 8t-58.5 25zM387 1257l158 316q12 2 38.5 -1t54 -9.5t50.5 -15.5t29 -17v-31l-283 -274z M627 1262l272 311q14 2 39.5 -1t51.5 -11.5t49.5 -19.5t33.5 -25v-27l-408 -264z" />
<glyph unicode="&#x4f4;" horiz-adv-x="1284" d="M209 1374l12 60h479l-14 -60q-29 -14 -63.5 -27.5t-79.5 -23.5l-72 -336q-16 -80 -17 -142.5t18.5 -105.5t63.5 -66.5t115 -23.5q86 0 166 24.5t150 59.5l125 590q-74 18 -136 51l13 60h477l-12 -60q-31 -16 -68 -28.5t-78 -22.5l-258 -1214q37 -8 68.5 -20.5t54.5 -29.5 l-10 -59h-520l10 59q53 23 103 34t98 16l112 526q-63 -31 -162.5 -61.5t-222.5 -30.5q-86 0 -151.5 24.5t-104.5 77.5t-48 135t15 199l74 344q-35 8 -71.5 20.5t-65.5 30.5zM510 1616q0 49 33.5 73.5t82.5 24.5q51 0 84 -24.5t33 -73.5q0 -47 -33 -71.5t-84 -24.5 q-49 0 -82.5 24.5t-33.5 71.5zM966 1616q0 49 33 73.5t84 24.5q49 0 82 -24.5t35 -73.5q-2 -47 -35 -71.5t-82 -24.5q-51 0 -84 24.5t-33 71.5z" />
<glyph unicode="&#x4f5;" horiz-adv-x="1009" d="M59 924v51q33 12 71 24.5t76 22.5t72.5 17.5t63.5 9.5l45 -25q-41 -174 -71.5 -292t-30.5 -197q0 -43 24.5 -71t71.5 -28q33 0 72 13.5t77.5 36t72.5 53t59 65.5l90 420h170l-193 -909h150v-54q-41 -33 -98.5 -53t-114.5 -20q-59 0 -85 26.5t-26 61.5q0 25 3 47t9 51 l82 346h-8q-33 -43 -75 -81t-89 -66.5t-98 -46t-103 -17.5q-70 0 -118.5 44t-48.5 132q0 37 5 75t14 86t23.5 110.5t32.5 148.5zM287 1356q0 49 30.5 78.5t81.5 29.5q49 0 80 -29.5t31 -78.5q0 -47 -31 -76t-80 -29q-51 0 -81.5 29t-30.5 76zM700 1356q0 49 31 78.5t80 29.5 q51 0 82 -29.5t31 -78.5q0 -47 -31 -76t-82 -29q-49 0 -80 29t-31 76z" />
<glyph unicode="&#x4f6;" horiz-adv-x="1017" d="M-41 0l10 59q92 35 181 50l256 1214q-41 8 -80 21.5t-78 29.5l14 60h959q-8 -41 -20.5 -94.5t-28 -111t-32 -111.5t-30.5 -97h-53l-41 307h-414l-256 -1221h205q-8 -43 -23.5 -97t-34 -110.5t-37 -110.5t-34.5 -97h-53l-13 309h-397z" />
<glyph unicode="&#x4f7;" horiz-adv-x="798" d="M33 193q0 70 39 127t97 107t125.5 94t126 87t97.5 88t39 95q0 53 -21.5 92t-93.5 39t-136 -38t-103 -77l-31 35q16 31 49 66.5t79 67.5t100.5 52.5t113.5 20.5q119 0 177.5 -58.5t58.5 -134.5t-39 -135t-97.5 -109.5t-126 -94.5t-126 -88t-97.5 -92t-39 -104 q0 -53 35 -92t121 -39q76 0 142.5 34t117.5 75l37 -49q-51 -55 -69.5 -105.5t-20.5 -96.5t4 -87t4 -78q-2 -55 -23.5 -91t-55.5 -59.5t-76 -35.5t-85 -21l-14 41q37 10 58.5 31t31.5 44.5t12 49t2 45.5q0 72 20.5 134.5t80.5 115.5l-6 6q-12 -10 -41 -23.5t-66 -25.5 t-80 -21.5t-86 -9.5q-47 0 -90 16.5t-75.5 45.5t-51 68.5t-18.5 87.5z" />
<glyph unicode="&#x4f8;" horiz-adv-x="1708" d="M-41 0l10 59q88 37 181 50l256 1214q-41 8 -80 21.5t-78 29.5l14 60h545l-14 -60q-41 -16 -89.5 -30.5t-101.5 -20.5l-98 -469q39 8 93 11t95 3q205 0 312.5 -88t107.5 -235q0 -141 -48 -244.5t-133 -172.5t-202 -101.5t-254 -32.5q-10 0 -38.5 1t-66.5 2t-78 2t-71 1 h-262zM346 111q8 -4 27.5 -5.5t41 -3.5t41 -2h31.5q188 0 298 113t108 336q2 43 -10.5 82t-42 67.5t-80.5 46t-131 17.5q-49 0 -84 -3t-64 -9zM752 1616q0 49 33.5 73.5t82.5 24.5q51 0 84 -24.5t33 -73.5q0 -47 -33 -71.5t-84 -24.5q-49 0 -82.5 24.5t-33.5 71.5zM1049 0 l10 59q43 20 85 30.5t87 19.5l256 1214q-37 10 -73 20.5t-77 30.5l13 60h520l-12 -60q-74 -35 -175 -51l-256 -1214q47 -8 84 -20.5t66 -29.5l-10 -59h-518zM1208 1616q0 49 33 73.5t84 24.5q49 0 82 -24.5t35 -73.5q-2 -47 -35 -71.5t-82 -24.5q-51 0 -84 24.5t-33 71.5z " />
<glyph unicode="&#x4f9;" horiz-adv-x="1376" d="M109 201q0 66 17 150.5t45 178t60.5 189.5t63.5 186l-123 19v51q31 14 71 26.5t81 22.5t80.5 16.5t70.5 8.5l45 -25q-49 -129 -95 -250t-93 -268h8q55 68 125 116t168 48q31 0 64.5 -10.5t61 -34t46 -61.5t18.5 -93q0 -92 -39 -180t-106.5 -159t-157.5 -114t-190 -43 q-45 0 -85 13.5t-71 41t-48 70.5t-17 101zM285 215q0 -72 24.5 -112t85.5 -40q57 0 103.5 33t79 83t50 112.5t19.5 124.5q-2 37 -14 60.5t-30.5 38.5t-40 21.5t-40.5 6.5q-72 0 -119.5 -38t-80.5 -85q-18 -55 -27.5 -103.5t-9.5 -101.5zM531 1356q0 49 30.5 78.5t81.5 29.5 q49 0 80 -29.5t31 -78.5q0 -47 -31 -76t-80 -29q-51 0 -81.5 29t-30.5 76zM911 76q0 41 6.5 80t16.5 86l172 782h174l-195 -909h150v-54q-41 -33 -99.5 -53t-111.5 -20q-59 0 -86 26.5t-27 61.5zM944 1356q0 49 31 78.5t80 29.5q51 0 82 -29.5t31 -78.5q0 -47 -31 -76 t-82 -29q-49 0 -80 29t-31 76z" />
<glyph unicode="&#x4fc;" horiz-adv-x="1353" d="M-78 0l10 59q43 20 84 30.5t82 19.5l537 612l-256 602q-39 10 -76 22.5t-76 28.5l15 60h540l-12 -60q-63 -25 -166 -51l184 -461l381 461q-39 10 -78.5 22.5t-80.5 28.5l14 60h471l-12 -60q-41 -16 -82 -28.5t-84 -22.5l-486 -555q86 -184 141.5 -300t87.5 -195.5 t44 -140t12 -132.5q0 -90 -40 -169t-105.5 -138.5t-149.5 -93t-172 -31.5l-2 55q123 41 198 134t75 223q0 45 -6.5 89t-31 111.5t-72.5 172t-132 272.5l-428 -519q41 -6 81 -17t72 -30l-10 -59h-471z" />
<glyph unicode="&#x4fd;" horiz-adv-x="929" d="M-49 14q18 61 75.5 137t127 148t135 130t98.5 87l-139 377l-131 16v52q12 8 35.5 21t53.5 25.5t60.5 20.5t59.5 8q45 0 65.5 -23.5t32.5 -54.5l100 -356q47 47 103.5 106.5t85.5 112.5q2 14 2 41t-2 56.5t-4 55t-4 38.5q35 12 68.5 19t68.5 7q66 0 114 -26 q-18 -61 -72.5 -134t-118 -143.5t-123.5 -130t-89 -94.5q20 -51 51 -127t60.5 -160t51 -166t21.5 -145q0 -84 -33.5 -145.5t-85 -101.5t-114 -61.5t-119.5 -27.5l-14 45q88 25 135 96.5t47 165.5q0 59 -13.5 129t-34 142.5t-45.5 144t-48 137.5q-23 -25 -52.5 -53.5 t-58.5 -59t-53.5 -61.5t-38.5 -57q-4 -14 -5 -41t-2 -56.5t-1 -55t2 -38.5q-35 -14 -71 -20t-69 -6q-68 0 -112 26z" />
<glyph unicode="&#x2000;" horiz-adv-x="914" />
<glyph unicode="&#x2001;" horiz-adv-x="1829" />
<glyph unicode="&#x2002;" horiz-adv-x="914" />
<glyph unicode="&#x2003;" horiz-adv-x="1829" />
<glyph unicode="&#x2004;" horiz-adv-x="609" />
<glyph unicode="&#x2005;" horiz-adv-x="457" />
<glyph unicode="&#x2006;" horiz-adv-x="304" />
<glyph unicode="&#x2007;" horiz-adv-x="304" />
<glyph unicode="&#x2008;" horiz-adv-x="228" />
<glyph unicode="&#x2009;" horiz-adv-x="365" />
<glyph unicode="&#x200a;" horiz-adv-x="101" />
<glyph unicode="&#x2010;" horiz-adv-x="870" d="M145 512l29 129h578l-27 -129h-580z" />
<glyph unicode="&#x2011;" horiz-adv-x="870" d="M145 512l29 129h578l-27 -129h-580z" />
<glyph unicode="&#x2012;" horiz-adv-x="870" d="M145 512l29 129h578l-27 -129h-580z" />
<glyph unicode="&#x2013;" horiz-adv-x="1261" d="M133 512l31 129h987l-31 -129h-987z" />
<glyph unicode="&#x2014;" horiz-adv-x="1794" d="M133 512l31 129h1519l-30 -129h-1520z" />
<glyph unicode="&#x2018;" horiz-adv-x="577" d="M287 1317q0 66 29.5 129t77.5 115.5t109.5 90.5t125.5 56l26 -61q-72 -27 -126 -90.5t-64 -139.5q16 -20 52 -37.5t58 -27.5q2 -33 -14 -64t-40.5 -55.5t-52.5 -39.5t-46 -15q-57 6 -96 39.5t-39 99.5z" />
<glyph unicode="&#x2019;" horiz-adv-x="577" d="M246 962q74 27 127 90.5t63 139.5q-16 20 -52 37.5t-58 27.5q-2 33 14.5 64t41 55.5t52 39.5t45.5 15q59 -6 97.5 -39.5t38.5 -99.5t-30 -129t-78 -115.5t-109.5 -90.5t-122.5 -56z" />
<glyph unicode="&#x201a;" horiz-adv-x="598" d="M0 -236q74 27 127 90.5t63 139.5q-16 20 -52 37.5t-58 27.5q-2 33 14.5 64t41 55.5t52 39.5t45.5 15q59 -6 97.5 -39.5t38.5 -99.5t-30 -129t-78 -115.5t-109.5 -90.5t-122.5 -56z" />
<glyph unicode="&#x201c;" horiz-adv-x="952" d="M289 1317q0 66 29.5 129t77.5 115.5t109.5 90.5t125.5 56l26 -61q-72 -27 -126 -90.5t-64 -139.5q16 -20 52 -37.5t58 -27.5q2 -33 -14 -64t-40.5 -55.5t-52.5 -39.5t-46 -15q-57 6 -96 39.5t-39 99.5zM662 1317q0 66 29.5 129t77.5 115.5t109.5 90.5t125.5 56l26 -61 q-72 -27 -126 -90.5t-64 -139.5q16 -20 52 -37.5t58 -27.5q2 -33 -14 -64t-40.5 -55.5t-52.5 -39.5t-46 -15q-57 6 -96 39.5t-39 99.5z" />
<glyph unicode="&#x201d;" horiz-adv-x="952" d="M246 962q74 27 127 90.5t63 139.5q-16 20 -52 37.5t-58 27.5q-2 33 14.5 64t41 55.5t52 39.5t45.5 15q59 -6 97.5 -39.5t38.5 -99.5t-30 -129t-78 -115.5t-109.5 -90.5t-122.5 -56zM618 962q74 27 127 90.5t63 139.5q-16 20 -52 37.5t-58 27.5q-2 33 14.5 64t41 55.5 t52 39.5t45.5 15q59 -6 97.5 -39.5t38.5 -99.5t-30 -129t-78 -115.5t-109.5 -90.5t-122.5 -56z" />
<glyph unicode="&#x201e;" horiz-adv-x="970" d="M0 -236q74 27 127 90.5t63 139.5q-16 20 -52 37.5t-58 27.5q-2 33 14.5 64t41 55.5t52 39.5t45.5 15q59 -6 97.5 -39.5t38.5 -99.5t-30 -129t-78 -115.5t-109.5 -90.5t-122.5 -56zM373 -236q74 27 127 90.5t63 139.5q-16 20 -52 37.5t-58 27.5q-2 33 14.5 64t41 55.5 t52 39.5t45.5 15q59 -6 97.5 -39.5t38.5 -99.5t-30 -129t-78 -115.5t-109.5 -90.5t-122.5 -56z" />
<glyph unicode="&#x2026;" horiz-adv-x="1794" d="M59 117q0 61 39 98t101 37q63 0 102 -37t39 -98q0 -59 -39 -96t-102 -37q-61 0 -100.5 37t-39.5 96zM677 117q0 61 39 98t101 37q63 0 102 -37t39 -98q0 -59 -39 -96t-102 -37q-61 0 -100.5 37t-39.5 96zM1298 117q0 61 39 98t101 37q63 0 102 -37t39 -98q0 -59 -39 -96 t-102 -37q-61 0 -100.5 37t-39.5 96z" />
<glyph unicode="&#x202f;" horiz-adv-x="365" />
<glyph unicode="&#x2039;" horiz-adv-x="552" d="M94 530l441 420l40 -39l-294 -383l147 -370l-57 -41z" />
<glyph unicode="&#x203a;" horiz-adv-x="552" d="M57 158l310 393l-140 360l60 39l264 -418l-455 -413z" />
<glyph unicode="&#x205f;" horiz-adv-x="457" />
<glyph unicode="&#x20ac;" d="M-100 528l55 115h156q4 35 8 71t12 70h-178l57 115h148q39 129 106.5 232.5t157.5 176t199.5 111.5t236.5 39q135 0 225.5 -18.5t153.5 -50.5q-6 -33 -17.5 -77t-26.5 -93.5t-31.5 -96.5t-31.5 -86h-53l-43 295q-25 10 -75 15.5t-101 5.5q-166 0 -298 -113t-195 -340h606 l-58 -115h-573q-4 -35 -8 -70.5t-8 -70.5h522l-58 -115h-466q0 -129 29.5 -214t79.5 -137t114.5 -73.5t132.5 -21.5q70 0 114 12t64 27l152 252h53q-2 -57 -13.5 -144.5t-31.5 -169.5q-80 -47 -182.5 -65.5t-188.5 -18.5q-162 0 -266.5 49.5t-164.5 128t-84 177t-24 198.5 h-206z" />
<glyph unicode="&#x2122;" horiz-adv-x="2015" d="M248 1434h725q-2 -55 -9.5 -131t-19.5 -142h-51l-68 197h-127v-608q35 -10 61.5 -18.5t41.5 -18.5v-47h-385v47q25 14 52.5 23t53.5 14v608h-129l-67 -197h-50q-12 66 -19 140.5t-9 132.5zM1028 666v47q47 27 100 37l27 583q-33 12 -56.5 25.5t-41.5 25.5v50h334 l145 -424l29 -109h6l31 111l153 422h334v-50q-20 -10 -44 -20t-56 -16l30 -598q51 -10 101 -37v-47h-363v47q16 10 37 18t55 19l-30 591h-13l-239 -675h-72l-238 675h-12l-22 -591q55 -16 92 -37v-47h-287z" />
<glyph unicode="&#x25fc;" horiz-adv-x="1034" d="M0 0v1034h1034v-1034h-1034z" />
</font>
</defs>
</svg>
