<?xml version="1.0" standalone="no"?>
<!DOCTYPE svg PUBLIC "-//W3C//DTD SVG 1.1//EN" "http://www.w3.org/Graphics/SVG/1.1/DTD/svg11.dtd" >
<svg>
<metadata>
Created by FontForge 20090914 at Mon Jul  1 10:40:30 2013
 By www-data
&#194;&#169; 2006 The Monotype Corporation. All Rights Reserved.
</metadata>
<defs>
<font id="ArialNarrow-Bold" horiz-adv-x="934" >
  <font-face 
    font-family="Arial Narrow"
    font-weight="700"
    font-stretch="condensed"
    units-per-em="2048"
    panose-1="2 11 7 6 2 2 2 3 2 4"
    ascent="1638"
    descent="-410"
    x-height="1062"
    cap-height="1466"
    bbox="-281 -628 2047 2271"
    underline-thickness="150"
    underline-position="-142"
    unicode-range="U+0020-U+FB02"
  />
<missing-glyph horiz-adv-x="467" 
d="M44 0v1280h389v-1280h-389zM91 53h296v1184h-296v-1184z" />
    <glyph glyph-name=".notdef" horiz-adv-x="467" 
d="M44 0v1280h389v-1280h-389zM91 53h296v1184h-296v-1184z" />
    <glyph glyph-name="space" unicode=" " horiz-adv-x="467" 
 />
    <glyph glyph-name="exclam" unicode="!" horiz-adv-x="559" 
d="M210 378l-60 744v344h249v-344l-59 -744h-130zM160 0v281h230v-281h-230z" />
    <glyph glyph-name="quotedbl" unicode="&#x22;" horiz-adv-x="797" 
d="M135 945l-43 273v248h251v-248l-38 -273h-170zM506 945l-44 273v248h251v-248l-38 -273h-169z" />
    <glyph glyph-name="numbersign" unicode="#" 
d="M126 365h-111v220h148l49 295h-197v221h234l64 390h184l-64 -390h180l64 390h190l-66 -390h114v-221h-150l-50 -295h200v-220h-236l-66 -390h-183l64 390h-182l-65 -390h-185zM396 880l-48 -295h182l48 295h-182z" />
    <glyph glyph-name="dollar" unicode="$" 
d="M402 217l0.000976562 419c-207.333 72 -311 220.333 -311 445c0 114.667 29.167 208 87.5 280s132.833 113.333 223.5 124v99h118v-99c84.667 -12.667 153.334 -48.167 206.001 -106.5s86 -138.833 100 -241.5l-207 -33c-12.667 79.333 -45.667 132.666 -99 159.999v-391
c127.333 -42 213.666 -93.667 258.999 -155c54 -73.333 81 -166.333 81 -279c0 -125.333 -30.667 -228.333 -92 -309s-144 -130 -248 -148v-187h-118v182c-196.667 28.667 -311.334 173.334 -344.001 434.001l214 28c8.66699 -52.667 25 -98.5 49 -137.5
s51 -67.167 81 -84.5zM402.001 1267c-30.667 -12.667 -56 -34.667 -76 -66s-30 -66 -30 -104c0 -80 35.333 -138.667 106 -176v346zM520.001 203c40 8.66699 73.167 31.167 99.5 67.5s39.5 80.166 39.5 131.499c0 94.667 -46.333 158.334 -139 191.001v-390z" />
    <glyph glyph-name="percent" unicode="%" horiz-adv-x="1493" 
d="M73 1104c0 134 23.999 231.999 71.999 293.999s111.667 93 191 93c82 0 147 -31 195 -93s72 -160 72 -294s-24 -232 -72 -294s-111.667 -93 -191 -93c-81.333 0 -146.166 30.833 -194.499 92.5s-72.5 159.834 -72.5 294.501zM252.999 1106
c0 -93.333 7.66699 -154.666 23 -183.999s35.333 -44 60 -44c25.333 0 45.666 14.667 60.999 44s23 90.666 23 183.999s-7.66699 154.666 -23 183.999s-35.333 44 -60 44c-25.333 0 -45.666 -14.667 -60.999 -44s-23 -90.666 -23 -183.999zM511.999 -56.001h-171l641 1547
h165zM883.999 328.999c0 134 24.166 232 72.499 294s112.5 93 192.5 93c80.667 0 145 -31 193 -93s72 -160 72 -294s-24 -232.167 -72 -294.5s-111.667 -93.5 -191 -93.5c-81.333 0 -146.166 31 -194.499 93s-72.5 160.333 -72.5 295zM1064 329.999
c0 -93.333 7.50098 -154.666 22.501 -183.999s35.167 -44 60.5 -44s45.666 14.667 60.999 44s23 90.666 23 183.999s-7.66699 154.666 -23 183.999s-35.333 44 -60 44c-26 0 -46.5 -14.667 -61.5 -44s-22.5 -90.666 -22.5 -183.999z" />
    <glyph glyph-name="ampersand" unicode="&#x26;" horiz-adv-x="1212" 
d="M1186 179l-139.998 -217c-68 40 -133.667 96 -197 168c-50 -55.333 -102.5 -95.166 -157.5 -119.499s-118.833 -36.5 -191.5 -36.5c-144.667 0 -251.834 44 -321.501 132s-104.5 186.667 -104.5 296c0 188.667 91.333 338.334 274 449.001
c-82 117.333 -123 224.666 -123 321.999c0 94 30.667 170.5 92 229.5s142.666 88.5 243.999 88.5c98 0 177.833 -30.833 239.5 -92.5s92.5 -141.834 92.5 -240.501c0 -63.333 -15.5 -121.5 -46.5 -174.5s-88.5 -111.833 -172.5 -176.5l167 -269
c18.667 41.333 35.667 97 51 167l208 -58c-32 -142.667 -66.667 -243.334 -104 -302.001c25.333 -28.667 58.5 -60.667 99.5 -96s71.167 -58.666 90.5 -69.999zM559.002 976l62 57.999c46 43.333 69 86 69 128c0 38.667 -11.667 70.167 -35 94.5s-52.666 36.5 -87.999 36.5
c-34.667 0 -62.834 -10.667 -84.501 -32s-32.5 -47.333 -32.5 -78c0 -35.333 17.333 -77.666 52 -126.999zM468.002 670.999c-51.333 -32 -90.501 -70.833 -117.501 -116.5s-40.5 -93.5 -40.5 -143.5c0 -62.667 16.833 -112.5 50.5 -149.5s76.834 -55.5 129.501 -55.5
c68.667 0 139.667 37.333 213 112z" />
    <glyph glyph-name="quotesingle" unicode="'" horiz-adv-x="399" 
d="M118 945l-43 273v248h251v-248l-38 -273h-170z" />
    <glyph glyph-name="parenleft" unicode="(" horiz-adv-x="559" 
d="M502 -431h-158.001c-82.667 150 -146.167 308.833 -190.5 476.5s-66.5 330.167 -66.5 487.5c0 170 22.333 335.833 67 497.5s109 315.167 193 460.5h157c-76.667 -208 -128.5 -382 -155.5 -522s-40.5 -288 -40.5 -444c0 -161.333 19 -332 57 -512
c26.667 -126.667 72.334 -274.667 137.001 -444z" />
    <glyph glyph-name="parenright" unicode=")" horiz-adv-x="559" 
d="M57 -431c64.667 168 110 314.334 136 439.001c38.667 181.333 58 353.666 58 516.999c0 156 -13.5 304 -40.5 444s-78.833 314 -155.5 522h157c86 -150.667 150.833 -306 194.5 -466s65.5 -319.667 65.5 -479c0 -160 -21.667 -324.5 -65 -493.5
s-107.333 -330.167 -192 -483.5h-158z" />
    <glyph glyph-name="asterisk" unicode="*" horiz-adv-x="653" 
d="M201 792l-124.004 117.001c26 36 51.333 69 76 99l79 94c-13.333 2.66699 -52.666 13.667 -117.999 33c-45.333 14 -75.666 24.333 -90.999 31l48 176c69.333 -34.667 133.333 -73.667 192 -117c-13.333 107.333 -19.666 196 -18.999 266h145
c0 -47.333 -7.33301 -136.666 -22 -267.999l71 39c50 27.333 95.333 50.666 136 69.999l44 -181c-61.333 -16.667 -131.666 -33 -210.999 -49l145 -202l-125 -101l-112 223c-30.667 -68.667 -68.667 -145.334 -114 -230.001z" />
    <glyph glyph-name="plus" unicode="+" horiz-adv-x="981" 
d="M384 211v381h-315v263h315v381h210v-381h316v-263h-316v-381h-210z" />
    <glyph glyph-name="comma" unicode="," horiz-adv-x="467" 
d="M115 281l230.001 -0.00195312v-201c0 -114 -13.333 -198.667 -40 -254c-32.667 -68.667 -87.334 -119.667 -164.001 -153l-45 116c45.333 18.667 78 43.834 98 75.501s30.667 76.834 32 135.501h-111v281z" />
    <glyph glyph-name="hyphen" unicode="-" horiz-adv-x="559" 
d="M53 391v281h453v-281h-453z" />
    <glyph glyph-name="hyphen" unicode="&#xad;" horiz-adv-x="559" 
d="M53 391v281h453v-281h-453z" />
    <glyph glyph-name="period" unicode="." horiz-adv-x="467" 
d="M121 0v281h231v-281h-231z" />
    <glyph glyph-name="slash" unicode="/" horiz-adv-x="467" 
d="M-2 -25l298 1516h173l-301 -1516h-170z" />
    <glyph glyph-name="zero" unicode="0" 
d="M461 1472c116.667 0 211 -55.5 283 -166.5s108 -305.167 108 -582.5c0 -276.667 -36 -470.5 -108 -581.5s-166 -166.5 -282 -166.5c-116.667 0 -211 55 -283 165s-108 305.333 -108 586c0 275.333 36 468.5 108 579.5s166 166.5 282 166.5zM461 1239
c-45.333 0 -81.5 -30 -108.5 -90s-40.5 -202 -40.5 -426s13.5 -365.833 40.5 -425.5s63.167 -89.5 108.5 -89.5c46 0 82.333 30 109 90s40 201.667 40 425c0 224 -13.333 366 -40 426s-63 90 -109 90z" />
    <glyph glyph-name="one" unicode="1" 
d="M661 0h-230.001v1059c-86 -96.667 -185.333 -167.667 -298 -213v255c64 26 130.333 72.5 199 139.5s116.334 144.167 143.001 231.5h186v-1472z" />
    <glyph glyph-name="two" unicode="2" 
d="M850 261l0.00195312 -261h-808c8.66699 98.667 35.167 192.5 79.5 281.5s130.5 205.833 258.5 350.5c101.333 115.333 163.666 193.333 186.999 234c34.667 59.333 52 119 52 179c0 64 -14.333 112.333 -43 145s-66.334 49 -113.001 49c-102 0 -157 -76.333 -165 -229
l-229 28c14 149.333 55.5 259 124.5 329s160.833 105 275.5 105c126 0 221 -41 285 -123s96 -176 96 -282c0 -60 -8.16699 -118.167 -24.5 -174.5s-41.5 -113 -75.5 -170s-90.667 -129.833 -170 -218.5c-74 -83.333 -120.833 -138.333 -140.5 -165s-35.5 -52.667 -47.5 -78
h458z" />
    <glyph glyph-name="three" unicode="3" 
d="M63 389l223.002 32.999c6 -69.333 25 -122.333 57 -159s69.667 -55 113 -55c47.333 0 87.333 21.667 120 65s49 103.333 49 180c0 71.333 -15.667 127.333 -47 168s-69.333 61 -114 61c-29.333 0 -64.333 -7 -105 -21l25 229c59.333 -1.33301 106.333 14.667 141 48
c34 33.333 51 80.333 51 141c0 50.667 -12.333 90.334 -37 119.001s-56.334 43 -95.001 43s-72.167 -16.5 -100.5 -49.5s-45.166 -81.833 -50.499 -146.5l-213 44c22 134 65 231.333 129 292s144.667 91 242 91c109.333 0 196.166 -39 260.499 -117s96.5 -164.333 96.5 -259
c0 -64 -14.5 -121.667 -43.5 -173s-72.5 -96.333 -130.5 -135c67.333 -18 122.166 -57.667 164.499 -119s63.5 -138 63.5 -230c0 -134 -39.833 -244.833 -119.5 -332.5s-174.5 -131.5 -284.5 -131.5c-105.333 0 -194.5 37 -267.5 111s-115.5 175 -127.5 303z" />
    <glyph glyph-name="four" unicode="4" 
d="M523 0v295h-492v246l521 931h194v-930h149v-247h-149v-295h-223zM523 542v501l-276 -501h276z" />
    <glyph glyph-name="five" unicode="5" 
d="M75 377l230.002 28.999c6 -64 25.667 -114.333 59 -151s70 -55 110 -55c47.333 0 88 23.5 122 70.5s51 119.167 51 216.5c0 92 -16.833 160 -50.5 204s-76.5 66 -128.5 66c-66 0 -125.333 -35.667 -178 -107l-187 33l118 763h609v-263h-434l-37 -249
c52 31.333 104.667 47 158 47c94.667 0 175 -37.333 241 -112c83.333 -95.333 125 -221 125 -377c0 -128.667 -35.5 -247 -106.5 -355s-172.5 -162 -304.5 -162c-106.667 0 -195.834 34.833 -267.501 104.5s-114.834 168.834 -129.501 297.501z" />
    <glyph glyph-name="six" unicode="6" 
d="M852 1107l-222.999 -30c-10.667 109.333 -54.334 164 -131.001 164c-50 0 -91.5 -27.333 -124.5 -82s-53.833 -165 -62.5 -331c28.667 41.333 60.667 72.333 96 93s74.333 31 117 31c94 0 176 -43.833 246 -131.5s105 -204.167 105 -349.5c0 -154.667 -37 -276 -111 -364
s-165.667 -132 -275 -132c-120 0 -219.5 57.167 -298.5 171.5s-118.5 303.833 -118.5 568.5c0 268.667 41 462 123 580s187.333 177 316 177c88.667 0 163.5 -30.167 224.5 -90.5s99.833 -151.833 116.5 -274.5zM331.001 494c0 -92.667 17.167 -163.501 51.5 -212.501
s73.5 -73.5 117.5 -73.5c42.667 0 78.167 20.333 106.5 61s42.5 107.334 42.5 200.001c0 96 -15.333 166 -46 210s-68.667 66 -114 66c-44 0 -81.333 -21 -112 -63s-46 -104.667 -46 -188z" />
    <glyph glyph-name="seven" unicode="7" 
d="M71 1185l-0.000976562 261.001h788v-204c-64.667 -78 -130.167 -188.833 -196.5 -332.5s-117.666 -297.667 -153.999 -462s-54.5 -313.5 -54.5 -447.5h-222c5.33301 208 40 415.667 104 623s150.333 394.666 259 561.999h-524z" />
    <glyph glyph-name="eight" unicode="8" 
d="M270 791c-56.667 29.333 -99.333 69.332 -128 119.999s-43 111.667 -43 183c0 115.333 32.667 207.166 98 275.499s153.333 102.5 264 102.5c117.333 0 206.666 -36.5 267.999 -109.5s92 -161.833 92 -266.5c0 -71.333 -14.833 -133.166 -44.5 -185.499
s-70.167 -92.166 -121.5 -119.499c68.667 -33.333 120 -80.166 154 -140.499s51 -134.5 51 -222.5c0 -90.667 -16.833 -170.667 -50.5 -240s-80.167 -122.333 -139.5 -159s-126 -55 -200 -55c-116 0 -211.833 40.167 -287.5 120.5s-113.5 188.5 -113.5 324.5
c0 88 17.333 163.667 52 227s84.334 111.666 149.001 144.999zM317.001 1074c0 -57.333 13.5 -101.333 40.5 -132s61.167 -46 102.5 -46c42 0 76.667 15.333 104 46s41 74.667 41 132c0 55.333 -13.5 98.333 -40.5 129s-60.833 46 -101.5 46
c-42.667 0 -77.667 -15.5 -105 -46.5s-41 -73.833 -41 -128.5zM296.001 445.999c0 -78.667 16.665 -139.333 49.998 -182s73.333 -64 120 -64s85.834 20.333 117.501 61s47.5 101.667 47.5 183c0 70 -16.167 125.333 -48.5 166s-72.166 61 -119.499 61
c-46.667 0 -86.167 -20.5 -118.5 -61.5s-48.5 -95.5 -48.5 -163.5z" />
    <glyph glyph-name="nine" unicode="9" 
d="M76 339l222.999 30c10.667 -108.667 54 -163 130 -163c51.333 0 93.333 27.167 126 81.5s53.667 164.5 63 330.5c-28.667 -40.667 -61 -71.334 -97 -92.001s-76 -31 -120 -31c-91.333 0 -172.166 43.667 -242.499 131s-105.5 203.333 -105.5 348
c0 154.667 37 276.334 111 365.001s165.333 133 274 133c121.333 0 221.333 -57.167 300 -171.5s118 -303.833 118 -568.5c0 -269.333 -41 -463 -123 -581s-188.333 -177 -319 -177c-90.667 0 -165.5 29.833 -224.5 89.5s-96.833 151.5 -113.5 275.5zM597.999 953
c0 92 -17.333 162.668 -52 212.001s-74 74 -118 74c-42.667 0 -78.167 -20.333 -106.5 -61s-42.5 -108.334 -42.5 -203.001s15.5 -164 46.5 -208s69.167 -66 114.5 -66c43.333 0 80.5 21 111.5 63s46.5 105 46.5 189z" />
    <glyph glyph-name="colon" unicode=":" horiz-adv-x="559" 
d="M164 781v281h231v-281h-231zM164 0v281h231v-281h-231z" />
    <glyph glyph-name="semicolon" unicode=";" horiz-adv-x="559" 
d="M158 781v281h230v-281h-230zM158 281l230.001 0.000976562v-201c0 -114 -13.333 -198.667 -40 -254c-32.667 -68.667 -87.334 -119.667 -164.001 -153l-45 116c45.333 18.667 78 44.167 98 76.5s30.667 77.166 32 134.499h-111v281z" />
    <glyph glyph-name="semicolon" unicode="&#x37e;" horiz-adv-x="559" 
d="M158 781v281h230v-281h-230zM158 281l230.001 0.000976562v-201c0 -114 -13.333 -198.667 -40 -254c-32.667 -68.667 -87.334 -119.667 -164.001 -153l-45 116c45.333 18.667 78 44.167 98 76.5s30.667 77.166 32 134.499h-111v281z" />
    <glyph glyph-name="less" unicode="&#x3c;" horiz-adv-x="981" 
d="M902 167l-824 437v242l824 435v-285l-574 -268l574 -278v-283z" />
    <glyph glyph-name="equal" unicode="=" horiz-adv-x="981" 
d="M69 816v258h841v-258h-841zM69 372v259h841v-259h-841z" />
    <glyph glyph-name="greater" unicode="&#x3e;" horiz-adv-x="981" 
d="M77 166v283l576 276l-576 273v281l825 -435v-240z" />
    <glyph glyph-name="question" unicode="?" horiz-adv-x="1026" 
d="M616 378l-208.997 0.00195312l-1 64c0 86 11.333 155.667 34 209s66.667 112 132 176c72.667 72 116.334 121.333 131.001 148s22 57.667 22 93c0 58 -18.833 105.667 -56.5 143s-85.167 56 -142.5 56c-123.333 0 -199.333 -82.333 -228 -247l-211 32
c6 125.333 49.167 228.166 129.5 308.499s181.166 120.5 302.499 120.5c123.333 0 226 -40.333 308 -121s123 -181.334 123 -302.001c0 -61.333 -14.333 -119.5 -43 -174.5s-90.334 -130.167 -185.001 -225.5c-48.667 -49.333 -78.834 -89 -90.501 -119
s-16.834 -83.667 -15.501 -161zM407.003 0.00195312v281h231v-281h-231z" />
    <glyph glyph-name="at" unicode="@" horiz-adv-x="1638" 
d="M1457 19l174.002 -0.00292969c-58 -143.333 -148.333 -254.166 -271 -332.499s-273 -117.5 -451 -117.5c-181.333 0 -334.833 35.667 -460.5 107s-223.5 175.833 -293.5 313.5s-105 303.167 -105 496.5c0 198 38.333 376 115 534s177.167 276.167 301.5 354.5
s265.5 117.5 423.5 117.5c135.333 0 255.5 -31.5 360.5 -94.5s187.667 -153.667 248 -272s90.5 -253.166 90.5 -404.499c0 -174 -45.667 -332 -137 -474c-106 -164.667 -241.333 -247 -406 -247c-44 0 -77.667 9 -101 27s-39.333 47 -48 87c-64 -76 -138.333 -114 -223 -114
c-88 0 -162.667 37.333 -224 112s-92 176.334 -92 305.001c0 126.667 23.667 245 71 355s103 189.5 167 238.5s133 73.5 207 73.5c48.667 0 91 -11.333 127 -34s65.667 -56.667 89 -102l20 111h216l-123 -717c-8 -46 -12 -76 -12 -90c0 -15.333 3.16699 -27.166 9.5 -35.499
s13.833 -12.5 22.5 -12.5c25.333 0 58.666 18.667 99.999 56c55.333 49.333 100.666 117 135.999 203s53 175 53 267c0 112 -24.167 213.5 -72.5 304.5s-112.333 159.333 -192 205s-176.167 68.5 -289.5 68.5c-134.667 0 -252.167 -31.833 -352.5 -95.5
s-181.333 -161.167 -243 -292.5s-92.5 -281.666 -92.5 -450.999c0 -144.667 29 -272.334 87 -383.001s137.333 -193.834 238 -249.501s223.667 -83.5 369 -83.5c130.667 0 243 22.167 337 66.5s169.667 110.833 227 199.5zM571.002 429.997
c0 -86 14.332 -148.667 42.999 -188s64.334 -59 107.001 -59c37.333 0 71.666 14 102.999 42c40.667 36 75.834 97.333 105.501 184s44.5 174 44.5 262c0 75.333 -14.667 133 -44 173s-65 60 -107 60c-67.333 0 -122 -38 -164 -114c-58.667 -106.667 -88 -226.667 -88 -360z
" />
    <glyph glyph-name="A" unicode="A" horiz-adv-x="1212" 
d="M1206 0h-264l-105 333h-480l-99 -333h-258l468 1466h257zM759 580l-165 544l-163 -544h328z" />
    <glyph glyph-name="B" unicode="B" horiz-adv-x="1212" 
d="M122 1466l481.002 0.000976562c131.333 0 223.666 -12 276.999 -36s98.333 -66.333 135 -127s55 -129.334 55 -206.001c0 -70.667 -15.667 -134.5 -47 -191.5s-72 -99.167 -122 -126.5c71.333 -25.333 127.166 -68.666 167.499 -129.999s60.5 -136 60.5 -224
c0 -106.667 -25.667 -196.834 -77 -270.501s-112 -119.167 -182 -136.5c-48.667 -12 -161.667 -18 -339 -18h-409v1466zM364.002 1222l0.000976562 -339h160c96 0 155.333 1.66699 178 5c41.333 6.66699 73.666 24.167 96.999 52.5s35 66.833 35 115.5
c0 43.333 -9.5 78.5 -28.5 105.5s-42 43.833 -69 50.5s-104.5 10 -232.5 10h-140zM364.003 639.001v-391.999h225c98.667 0 162 5.16699 190 15.5s51.5 30.666 70.5 60.999s28.5 68.833 28.5 115.5c0 48 -10.167 87.5 -30.5 118.5s-47.333 52.333 -81 64
s-102.5 17.5 -206.5 17.5h-196z" />
    <glyph glyph-name="C" unicode="C" horiz-adv-x="1212" 
d="M892 539l234.998 -90.999c-36.667 -164 -97.667 -283.833 -183 -359.5s-190.333 -113.5 -315 -113.5c-156.667 0 -283.667 60.333 -381 181c-112 139.333 -168 327.333 -168 564c0 250 56.333 445.667 169 587c98 122.667 229.667 184 395 184
c134.667 0 247.334 -46 338.001 -138c64.667 -65.333 112 -162.333 142 -291l-240 -70c-15.333 79.333 -45.833 140.166 -91.5 182.499s-99.5 63.5 -161.5 63.5c-88.667 0 -161 -38.667 -217 -116s-84 -205 -84 -383c0 -184.667 27.333 -316 82 -394s125.667 -117 213 -117
c64 0 119.333 24.833 166 74.5s80.334 128.5 101.001 236.5z" />
    <glyph glyph-name="D" unicode="D" horiz-adv-x="1212" 
d="M121 1466l443 0.00390625c112 0 196.5 -12.5 253.5 -37.5s109.5 -67.167 157.5 -126.5s85.667 -136.333 113 -231s41 -212.334 41 -353.001c0 -126.667 -14.333 -236.834 -43 -330.501s-65 -167.834 -109 -222.501s-97.167 -95.834 -159.5 -123.501
s-142.5 -41.5 -240.5 -41.5h-456v1466zM363 1218v-971.002h182c78 0 134.5 7.33301 169.5 22s63.667 36.834 86 66.501s40.833 76.5 55.5 140.5s22 148.333 22 253c0 108.667 -7.5 194.334 -22.5 257.001s-38.333 112 -70 148s-70.167 59.667 -115.5 71
c-34 8.66699 -99.667 13 -197 13h-110z" />
    <glyph glyph-name="E" unicode="E" horiz-adv-x="1120" 
d="M123 0v1466h892v-248h-650v-325h604v-247h-604v-399h672v-247h-914z" />
    <glyph glyph-name="F" unicode="F" horiz-adv-x="1026" 
d="M124 0v1466h824v-248h-582v-347h503v-248h-503v-623h-242z" />
    <glyph glyph-name="G" unicode="G" horiz-adv-x="1307" 
d="M682 539l0.00292969 247.001h523v-584c-52.667 -62 -127.334 -115.333 -224.001 -160s-193.667 -67 -291 -67c-118.667 0 -223.334 29.167 -314.001 87.5s-162.5 145.666 -215.5 261.999s-79.5 253.166 -79.5 410.499c0 161.333 26.833 299.333 80.5 414
s123.334 200.334 209.001 257.001s188.167 85 307.5 85c143.333 0 258.166 -36.5 344.499 -109.5s141.833 -180.167 166.5 -321.5l-240 -55c-18 75.333 -51 133 -99 173s-105.333 60 -172 60c-103.333 0 -187 -40.167 -251 -120.5s-96 -202.833 -96 -367.5
c0 -176.667 34.667 -311 104 -403c59.333 -79.333 139.666 -119 240.999 -119c47.333 0 96.5 11.167 147.5 33.5s96.5 52.833 136.5 91.5v186h-278z" />
    <glyph glyph-name="H" unicode="H" horiz-adv-x="1212" 
d="M123 0v1466h242v-577h476v577h243v-1466h-243v641h-476v-641h-242z" />
    <glyph glyph-name="I" unicode="I" horiz-adv-x="467" 
d="M115 0v1466h242v-1466h-242z" />
    <glyph glyph-name="J" unicode="J" 
d="M556 1466l242.999 -0.00195312v-928c0 -150 -15 -261.667 -45 -335s-74.833 -129.666 -134.5 -168.999s-133.167 -59 -220.5 -59c-115.333 0 -205.666 39.667 -270.999 119s-98.333 199 -99 359l229 32c2.66699 -86 13.667 -147 33 -183c26 -49.333 65 -74 117 -74
c50.667 0 88 17.833 112 53.5s36 114.834 36 237.501v947z" />
    <glyph glyph-name="K" unicode="K" horiz-adv-x="1212" 
d="M125 0v1466h242v-651l491 651h327l-453 -571l477 -895h-314l-331 688l-197 -245v-443h-242z" />
    <glyph glyph-name="L" unicode="L" horiz-adv-x="1026" 
d="M129 0v1454h242v-1207h604v-247h-846z" />
    <glyph glyph-name="M" unicode="M" horiz-adv-x="1399" 
d="M119 0v1466h363l218 -1000l216 1000h364v-1466h-225v1154l-239 -1154h-234l-237 1154v-1154h-226z" />
    <glyph glyph-name="N" unicode="N" horiz-adv-x="1212" 
d="M125 0v1466h236l492 -979v979h226v-1466h-244l-484 956v-956h-226z" />
    <glyph glyph-name="O" unicode="O" horiz-adv-x="1307" 
d="M74 724c0 174.667 25.834 318.5 77.501 431.5s119.167 197.167 202.5 252.5s184.333 83 303 83c172 0 312.167 -65.667 420.5 -197s162.5 -318.333 162.5 -561c0 -245.333 -57.333 -437 -172 -575c-100.667 -122 -237.334 -183 -410.001 -183
c-174 0 -311.333 60.333 -412 181c-114.667 138 -172 327.333 -172 568zM324.001 734c0 -168.667 32 -295.167 96 -379.5s143.333 -126.5 238 -126.5c95.333 0 174.333 41.833 237 125.5s94 212.167 94 385.5c0 170 -30.5 295.667 -91.5 377s-140.833 122 -239.5 122
s-179 -41 -241 -123s-93 -209 -93 -381z" />
    <glyph glyph-name="P" unicode="P" horiz-adv-x="1120" 
d="M122 0l0.000976562 1466h390c145.333 0 240.333 -7 285 -21c71.333 -22.667 130.166 -71 176.499 -145s69.5 -169.333 69.5 -286c0 -106 -20 -194.833 -60 -266.5s-90 -122 -150 -151s-163.333 -43.5 -310 -43.5h-159v-553h-242zM364.001 1218l-0.00195312 -415.999h134
c90 0 151.167 6.33301 183.5 19s58.833 35.5 79.5 68.5s31 73.5 31 121.5c0 48.667 -10.667 89.667 -32 123s-47.666 55.666 -78.999 66.999s-97.666 17 -198.999 17h-118z" />
    <glyph glyph-name="Q" unicode="Q" horiz-adv-x="1307" 
d="M1090 186c59.333 -51.333 123.999 -92.668 193.999 -124.001l-89 -209c-36 13.333 -71.333 31.333 -106 54c-8 4.66699 -62.333 48.334 -163 131.001c-79.333 -42 -170 -63 -272 -63c-173.333 0 -313.5 64.833 -420.5 194.5s-160.5 317.5 -160.5 563.5
c0 246.667 53.833 434.667 161.5 564s248.834 194 423.501 194c172.667 0 312.5 -64.833 419.5 -194.5s160.5 -317.5 160.5 -563.5c0 -119.333 -11.833 -222 -35.5 -308s-61.167 -165.667 -112.5 -239zM894.999 352.998c62 86.667 92.999 213 92.999 379
c0 172 -31 299.333 -93 382s-141.667 124 -239 124s-177.166 -41.333 -239.499 -124s-93.5 -209.667 -93.5 -381c0 -174 31.167 -302.833 93.5 -386.5s139.833 -125.5 232.5 -125.5c34.667 0 67.667 7 99 21c-50.667 40 -100.667 70.667 -150 92l68 169
c80 -33.333 156.333 -83.333 229 -150z" />
    <glyph glyph-name="R" unicode="R" horiz-adv-x="1212" 
d="M123 0v1466h511c130.667 0 224 -13.167 280 -39.5s102 -72 138 -137s54 -142.833 54 -233.5c0 -114.667 -27.5 -207 -82.5 -277s-133.167 -114 -234.5 -132c52 -37.333 95 -78.166 129 -122.499s80.333 -123.833 139 -238.5l146 -286h-289l-176 319
c-63.333 115.333 -106.333 187.5 -129 216.5s-46.667 49 -72 60s-66 16.5 -122 16.5h-50v-612h-242zM365 845.999h180.001c110 0 180 4.83301 210 14.5s54.333 29.167 73 58.5s28 68.333 28 117c0 46.667 -9.33301 84.167 -28 112.5s-44 47.833 -76 58.5
c-22.667 7.33301 -88.334 11 -197.001 11h-190v-372z" />
    <glyph glyph-name="S" unicode="S" horiz-adv-x="1120" 
d="M61 477l236.999 28c26.667 -187.333 114 -281 262 -281c73.333 0 131 19.167 173 57.5s63 85.833 63 142.5c0 33.333 -7.33301 61.666 -22 84.999s-37 42.5 -67 57.5s-102.667 40.167 -218 75.5c-103.333 31.333 -179 65.333 -227 102s-86.167 84.834 -114.5 144.501
s-42.5 123.834 -42.5 192.501c0 80 18.167 152 54.5 216s86.5 112.333 150.5 145s143 49 237 49c141.333 0 251.666 -38.333 330.999 -115s121.333 -186.334 126 -329.001l-243 -13c-10.667 78.667 -33.667 133.667 -69 165s-85.666 47 -150.999 47
s-115.666 -13.667 -150.999 -41s-53 -61.333 -53 -102c0 -40 16 -73.667 48 -101s105.667 -57.333 221 -90c122 -35.333 210.167 -72.5 264.5 -111.5s95.833 -89.333 124.5 -151s43 -136.5 43 -224.5c0 -127.333 -39.167 -234.333 -117.5 -321s-200.833 -130 -367.5 -130
c-294.667 0 -458.667 167.667 -492 503z" />
    <glyph glyph-name="T" unicode="T" horiz-adv-x="1026" 
d="M393 0v1218h-357v248h955v-248h-356v-1218h-242z" />
    <glyph glyph-name="U" unicode="U" horiz-adv-x="1212" 
d="M120 1466h242v-794c0 -123.333 3 -203.666 9 -240.999c10.667 -64.667 36.167 -114.667 76.5 -150s93.5 -53 159.5 -53c56 0 101.667 12.5 137 37.5s59.5 59.667 72.5 104s19.5 139.5 19.5 285.5v811h243v-770c0 -196.667 -10.5 -338.834 -31.5 -426.501
s-68.333 -158.667 -142 -213s-170.834 -81.5 -291.501 -81.5c-125.333 0 -223.166 22.5 -293.499 67.5s-121.333 108.333 -153 190s-47.5 232.167 -47.5 451.5v782z" />
    <glyph glyph-name="V" unicode="V" horiz-adv-x="1120" 
d="M429 0l-429 1466h263l304 -1085l294 1085h258l-430 -1466h-260z" />
    <glyph glyph-name="W" unicode="W" horiz-adv-x="1585" 
d="M292 0l-287 1466h249l180 -1007l220 1007h289l211 -1024l185 1024h244l-292 -1466h-258l-240 1096l-238 -1096h-263z" />
    <glyph glyph-name="X" unicode="X" horiz-adv-x="1120" 
d="M1 0l411 765l-373 701h284l241 -471l236 471h281l-373 -712l411 -754h-293l-267 507l-267 -507h-291z" />
    <glyph glyph-name="Y" unicode="Y" horiz-adv-x="1120" 
d="M438 0v617l-440 849h284l283 -580l278 580h279l-442 -851v-615h-242z" />
    <glyph glyph-name="Z" unicode="Z" horiz-adv-x="1026" 
d="M18 0v267l632 951h-561v248h880v-230l-658 -989h684v-247h-977z" />
    <glyph glyph-name="bracketleft" unicode="[" horiz-adv-x="559" 
d="M119 -413v1879h408v-221h-189v-1437h189v-221h-408z" />
    <glyph glyph-name="backslash" unicode="\" horiz-adv-x="467" 
d="M-2 1491h170l301 -1516h-173z" />
    <glyph glyph-name="bracketright" unicode="]" horiz-adv-x="559" 
d="M439 1466v-1879h-408v221h189v1439h-189v219h408z" />
    <glyph glyph-name="asciicircum" unicode="^" horiz-adv-x="981" 
d="M95 692l308 799h183l301 -799h-234l-162 489l-161 -489h-235z" />
    <glyph glyph-name="underscore" unicode="_" 
d="M-12 -154h959v-102h-959v102z" />
    <glyph glyph-name="grave" unicode="`" horiz-adv-x="559" 
d="M407 1192h-146l-226 299h258z" />
    <glyph glyph-name="a" unicode="a" 
d="M293 738l-208.997 45.998c25.333 107.333 67.166 184.5 125.499 231.5s142.166 70.5 251.499 70.5c97.333 0 171.666 -13.667 222.999 -41s88 -64.5 110 -111.5s33 -132.5 33 -256.5l-2 -328c0 -92 3.66699 -160.5 11 -205.5s21 -92.833 41 -143.5h-228l-30 116
c-39.333 -46.667 -81.5 -81.667 -126.5 -105s-92.833 -35 -143.5 -35c-84.667 0 -154 28.5 -208 85.5s-81 132.833 -81 227.5c0 60 11 112.333 33 157s53 80.334 93 107.001s104 50.334 192 71.001c106.667 24.667 181 47.667 223 69c0 58.667 -4.16699 97.167 -12.5 115.5
s-23.666 33.333 -45.999 45s-53.833 17.5 -94.5 17.5c-41.333 0 -73.833 -9.33301 -97.5 -28s-42.834 -53.667 -57.501 -105zM601.003 509.998c-29.333 -12 -75 -25.999 -137 -41.999c-71.333 -18.667 -118 -39.334 -140 -62.001s-33 -52 -33 -88
c0 -40.667 12.167 -74.834 36.5 -102.501s54.833 -41.5 91.5 -41.5c32.667 0 65 11.167 97 33.5s54.167 48.833 66.5 79.5s18.5 86.334 18.5 167.001v56z" />
    <glyph glyph-name="b" unicode="b" horiz-adv-x="1026" 
d="M110 0l0.000976562 1466h231v-528c35.333 49.333 74.166 86.333 116.499 111s87.833 37 136.5 37c102.667 0 189.5 -46.333 260.5 -139s106.5 -229.334 106.5 -410.001c0 -180 -36.333 -318.5 -109 -415.5s-158 -145.5 -256 -145.5c-50 0 -99.333 15.333 -148 46
s-90 75.334 -124 134.001v-156h-214zM339.001 554c0 -91.333 8.66602 -161.001 25.999 -209.001s42 -84.5 74 -109.5s65.667 -37.5 101 -37.5c50.667 0 94 26.5 130 79.5s54 136.833 54 251.5c0 120.667 -18.167 207.834 -54.5 261.501s-82.5 80.5 -138.5 80.5
c-53.333 0 -98.666 -26 -135.999 -78s-56 -131.667 -56 -239z" />
    <glyph glyph-name="c" unicode="c" 
d="M880 748l-226.999 -50c-16.667 111.333 -69 167 -157 167c-56.667 0 -102.334 -24 -137.001 -72s-52 -129 -52 -243c0 -126 17.333 -215 52 -267s81 -78 139 -78c43.333 0 79 14.833 107 44.5s48 82.167 60 157.5l227 -47c-46.667 -256 -181 -384 -403 -384
c-142 0 -247.333 54 -316 162s-103 238 -103 390c0 182 38.833 320.5 116.5 415.5s179.5 142.5 305.5 142.5c102 0 185.167 -27 249.5 -81s110.5 -139.667 138.5 -257z" />
    <glyph glyph-name="d" unicode="d" horiz-adv-x="1026" 
d="M920 0l-215 0.000976562v156c-35.333 -60 -77 -105 -125 -135s-97.333 -45 -148 -45c-97.333 0 -182.166 48.5 -254.499 145.5s-108.5 235.5 -108.5 415.5c0 181.333 35.333 318.166 106 410.499s157.667 138.5 261 138.5c48.667 0 94.167 -12.333 136.5 -37
s81.166 -61.667 116.499 -111v528h231v-1466zM305 554.001c0 -96 8.16699 -167.5 24.5 -214.5s39.666 -82.333 69.999 -106s64.5 -35.5 102.5 -35.5c50.667 0 94.667 27.333 132 82s56 137 56 247c0 122 -18.167 209.833 -54.5 263.5s-82.5 80.5 -138.5 80.5
c-53.333 0 -98.666 -26.333 -135.999 -79s-56 -132 -56 -238z" />
    <glyph glyph-name="e" unicode="e" 
d="M626 338l229.003 -47c-30.667 -106.667 -78.334 -185.834 -143.001 -237.501s-143.334 -77.5 -236.001 -77.5c-128.667 0 -228 43 -298 129c-82.667 100 -124 240 -124 420c0 177.333 41.667 319.333 125 426c70.667 90 162 135 274 135
c124.667 0 222.334 -46 293.001 -138c81.333 -105.333 122 -260.666 122 -465.999l-1 -32h-577c1.33301 -84 20.166 -149 56.499 -195s80.166 -69 131.499 -69c74 0 123.333 50.667 148 152zM639.003 622c-2 82.667 -19.667 144.833 -53 186.5s-73 62.5 -119 62.5
c-48.667 0 -89.667 -21.667 -123 -65c-34 -44 -50.667 -105.333 -50 -184h345z" />
    <glyph glyph-name="f" unicode="f" horiz-adv-x="559" 
d="M20 1062l128.001 0.000976562v80c0 96.667 9.16699 166.667 27.5 210s48 77.333 89 102s91.5 37 151.5 37c65.333 0 129.333 -12 192 -36l-30 -196c-37.333 10.667 -73 16 -107 16c-32.667 0 -56.334 -9.33301 -71.001 -28s-22 -55.334 -22 -110.001v-75h172v-221h-172
v-841h-230v841h-128v221z" />
    <glyph glyph-name="g" unicode="g" horiz-adv-x="1026" 
d="M99 -70l263.997 -38.9971c4 -38.667 16.167 -66.167 36.5 -82.5s52.5 -24.5 96.5 -24.5c50.667 0 91.667 8.33301 123 25c22 12 39 32 51 60s18 77.333 18 148v155c-34.667 -57.333 -73.667 -100.333 -117 -129s-91.333 -43 -144 -43c-96.667 0 -178 43.667 -244 131
c-76 100 -114 235.333 -114 406c0 181.333 35.833 318.166 107.5 410.499s158.5 138.5 260.5 138.5c54 0 103.167 -14.333 147.5 -43s83.833 -72 118.5 -130v149h216v-953c0 -152.667 -14 -263.334 -42 -332.001s-71.167 -120.5 -129.5 -155.5
s-139.166 -52.5 -242.499 -52.5c-95.333 0 -171.666 12.667 -228.999 38s-101.166 63.166 -131.499 113.499s-45.5 108.5 -45.5 174.5v35zM304.997 553.003c0 -113.333 18.1689 -196 54.502 -248s80.166 -78 131.499 -78c55.333 0 102.666 26.333 141.999 79
s59 132.667 59 240c0 110.667 -18.833 192.5 -56.5 245.5s-84.167 79.5 -139.5 79.5c-54.667 0 -100.167 -26 -136.5 -78s-54.5 -132 -54.5 -240z" />
    <glyph glyph-name="h" unicode="h" horiz-adv-x="1026" 
d="M351 1466v-538.998c36.667 53.333 77.167 93.166 121.5 119.499s92.5 39.5 144.5 39.5c69.333 0 127.333 -18.333 174 -55s80 -88.667 100 -156c14.667 -49.333 22 -133.333 22 -252v-623h-230v561c0 130 -8.33301 211.333 -25 244c-23.333 44 -63 66 -119 66
c-59.333 0 -105.5 -23.833 -138.5 -71.5s-49.5 -136.834 -49.5 -267.501v-532h-231v1466h231z" />
    <glyph glyph-name="i" unicode="i" horiz-adv-x="467" 
d="M121 1206v260h231v-260h-231zM121 0v1062h231v-1062h-231z" />
    <glyph glyph-name="j" unicode="j" horiz-adv-x="467" 
d="M116 1206v260h231v-260h-231zM347 1062v-1029c0 -144.667 -8 -243.667 -24 -297s-44.667 -94.5 -86 -123.5s-92.333 -43.5 -153 -43.5c-46 0 -99.333 10 -160 30l40 240c22 -6 41 -9 57 -9c40 0 67.667 16 83 48c8 17.333 12 74.333 12 171v1013h231z" />
    <glyph glyph-name="k" unicode="k" 
d="M113 0v1466h231v-778l269 374h284l-298 -388l319 -674h-248l-220 477l-106 -137v-340h-231z" />
    <glyph glyph-name="l" unicode="l" horiz-adv-x="467" 
d="M121 0v1466h231v-1466h-231z" />
    <glyph glyph-name="m" unicode="m" horiz-adv-x="1493" 
d="M103 1062l212.001 0.00195312v-145c38 56.667 79.667 99 125 127s94.333 42 147 42c56 0 104.5 -14 145.5 -42s74.5 -70.333 100.5 -127c38.667 56.667 80.167 99 124.5 127s91.5 42 141.5 42c59.333 0 110.5 -14.167 153.5 -42.5s75.667 -68.833 98 -121.5
s33.5 -133.667 33.5 -243v-679h-231v607c0 106 -9.33301 176.5 -28 211.5s-50 52.5 -94 52.5c-51.333 0 -92.666 -24.5 -123.999 -73.5s-47 -144.833 -47 -287.5v-510h-231v582c0 115.333 -6.33301 189.666 -19 222.999c-16.667 44 -50.334 66 -101.001 66
c-34 0 -65.333 -11.333 -94 -34s-49.334 -55.834 -62.001 -99.501s-19 -117.5 -19 -221.5v-516h-231v1062z" />
    <glyph glyph-name="n" unicode="n" horiz-adv-x="1026" 
d="M913 0h-230.998v542c0 108.667 -4.33301 181 -13 217s-24.834 63.667 -48.501 83s-50.5 29 -80.5 29c-38.667 0 -73.667 -12.5 -105 -37.5s-53.333 -59.5 -66 -103.5s-19 -127 -19 -249v-481h-231v1062h214v-156c38 60 80.833 105 128.5 135s100.5 45 158.5 45
c67.333 0 124.166 -17.5 170.499 -52.5s78.333 -80 96 -135s26.5 -134.5 26.5 -238.5v-660z" />
    <glyph glyph-name="o" unicode="o" horiz-adv-x="1026" 
d="M67 546c0 104 20.668 198.667 62.001 284s95.333 149.333 162 192s141.667 64 225 64c140 0 250 -54.833 330 -164.5s120 -237.834 120 -384.501c0 -109.333 -20.833 -208 -62.5 -296s-96.334 -154.167 -164.001 -198.5s-141.834 -66.5 -222.501 -66.5
c-129.333 0 -236.666 49.333 -321.999 148s-128 239.334 -128 422.001zM303.001 531c0 -107.333 21 -188.499 63 -243.499s92.667 -82.5 152 -82.5c58 0 107.667 27.667 149 83s62 137 62 245c0 105.333 -21 185.666 -63 240.999s-92.333 83 -151 83
c-58 0 -107.833 -27.667 -149.5 -83s-62.5 -136.333 -62.5 -243z" />
    <glyph glyph-name="p" unicode="p" horiz-adv-x="1026" 
d="M114 1062h215v-156c29.333 56 68 100 116 132s99.667 48 155 48c99.333 0 184.833 -47.333 256.5 -142s107.5 -229 107.5 -403c0 -182.667 -36 -322.5 -108 -419.5s-157.667 -145.5 -257 -145.5c-46 0 -88.833 11.167 -128.5 33.5s-81.5 62.833 -125.5 121.5v-535h-231
v1466zM342 549c0 -120 19.5 -208.335 58.5 -265.002s86.167 -85 141.5 -85c52.667 0 97 26.167 133 78.5s54 137.833 54 256.5c0 112.667 -18.5 195.834 -55.5 249.501s-82.167 80.5 -135.5 80.5c-56 0 -102.667 -26.167 -140 -78.5s-56 -131.166 -56 -236.499z" />
    <glyph glyph-name="q" unicode="q" horiz-adv-x="1026" 
d="M690 -404l-0.00292969 534.002c-31.333 -49.333 -69.666 -87.333 -114.999 -114s-93 -40 -143 -40c-97.333 0 -181.166 48.667 -251.499 146s-105.5 237.666 -105.5 420.999c0 173.333 35.833 307.166 107.5 401.499s159.167 141.5 262.5 141.5
c55.333 0 104.833 -15 148.5 -45s81.834 -75.333 114.501 -136v157h212v-1466h-230zM697.997 544.002c0 110 -18.333 191.168 -55 243.501s-82.334 78.5 -137.001 78.5c-55.333 0 -101.666 -26.833 -138.999 -80.5s-56 -139.834 -56 -258.501
c0 -116.667 18.167 -200.667 54.5 -252s80.5 -77 132.5 -77c52.667 0 99.167 28.667 139.5 86s60.5 144 60.5 260z" />
    <glyph glyph-name="r" unicode="r" horiz-adv-x="653" 
d="M342 0h-231v1062h214v-151c36.667 70.667 69.5 117.5 98.5 140.5s62.5 34.5 100.5 34.5c52.667 0 103 -17.667 151 -53l-72 -245c-38 30.667 -74 46 -108 46c-32 0 -60.167 -11.833 -84.5 -35.5s-41.833 -66.5 -52.5 -128.5s-16 -176 -16 -342v-328z" />
    <glyph glyph-name="s" unicode="s" 
d="M40 303l231 42.998c20 -111.333 82 -167 186 -167c55.333 0 96.666 10.667 123.999 32s41 49 41 83c0 23.333 -6 41.666 -18 54.999c-12.667 13.333 -37.667 25 -75 35c-189.333 50 -309.666 97.667 -360.999 143c-64 56.667 -96 134.334 -96 233.001
s31.333 177.667 94 237s153.667 89 273 89c114 0 200.667 -22.167 260 -66.5s101 -115.833 125 -214.5l-217 -49c-19.333 85.333 -74 128 -164 128c-56.667 0 -97 -8.16699 -121 -24.5s-36 -37.5 -36 -63.5c0 -23.333 11 -42.666 33 -57.999c22 -16 90.333 -40 205 -72
c128.667 -36 216 -79.667 262 -131c45.333 -51.333 68 -119.666 68 -204.999c0 -102.667 -35.167 -187.334 -105.5 -254.001s-167.5 -100 -291.5 -100c-112.667 0 -204.667 27.833 -276 83.5s-118.333 136.834 -141 243.501z" />
    <glyph glyph-name="t" unicode="t" horiz-adv-x="559" 
d="M519 1062l-0.000976562 -224h-157v-428c0 -92.667 2.33301 -146.334 7 -161.001c9.33301 -26.667 28.333 -40 57 -40c21.333 0 52 9 92 27l20 -218c-53.333 -28 -113.666 -42 -180.999 -42c-58.667 0 -105.667 14 -141 42s-59 68.333 -71 121
c-9.33301 38.667 -14 117.334 -14 236.001v463h-106v224h106v211l231 164v-375h157z" />
    <glyph glyph-name="u" unicode="u" horiz-adv-x="1026" 
d="M693 0l-0.00292969 159.001c-32 -57.333 -74 -102.166 -126 -134.499s-106.333 -48.5 -163 -48.5c-57.333 0 -108.666 15 -153.999 45s-79.166 72.667 -101.499 128s-33.5 135.666 -33.5 240.999v672h231v-488c0 -139.333 3.5 -227.833 10.5 -265.5
s22.5 -66.834 46.5 -87.501s53 -31 87 -31c38.667 0 74.334 13.5 107.001 40.5s54.167 61.667 64.5 104s15.5 135.5 15.5 279.5v448h230v-1062h-214z" />
    <glyph glyph-name="v" unicode="v" 
d="M360 0l-351 1062h242l164 -542l47 -181l49 181l166 542h236l-346 -1062h-207z" />
    <glyph glyph-name="w" unicode="w" horiz-adv-x="1307" 
d="M284 0l-276 1062h224l163 -696l150 696h222l145 -696l167 696h227l-280 -1062h-221l-150 683l-148 -683h-223z" />
    <glyph glyph-name="x" unicode="x" 
d="M10 0l314 547l-301 515h282l154 -292l162 292h270l-295 -503l323 -559h-283l-177 329l-180 -329h-269z" />
    <glyph glyph-name="y" unicode="y" 
d="M11 1062l246.002 0.00292969l207 -754l204 754h238l-307 -1022l-59 -199c-26 -74.667 -51.833 -129.334 -77.5 -164.001s-58.334 -61.334 -98.001 -80.001s-88.5 -28 -146.5 -28c-44.667 0 -88.334 5.66699 -131.001 17l-20 220c36 -8.66699 68.333 -13 97 -13
c44 0 80.167 14.667 108.5 44s51.5 82.666 69.5 159.999z" />
    <glyph glyph-name="z" unicode="z" horiz-adv-x="840" 
d="M28 0l0.000976562 219l327 457c53.333 74.667 92.666 127.667 117.999 159c-26.667 -2 -62 -3.33301 -106 -4l-307 -2v233h720v-199l-333 -468l-117 -155c64 4.66699 103.667 7 119 7h357v-247h-778z" />
    <glyph glyph-name="braceleft" unicode="{" horiz-adv-x="653" 
d="M49 410l-0.00390625 239.996c46.667 2.66699 81.834 13.667 105.501 33s42 51.5 55 96.5s19.5 120.5 19.5 226.5c0 132 5 222.833 15 272.5s26.5 88.834 49.5 117.501s54.833 51.667 95.5 69s99.667 26 177 26h44v-239c-58 0 -96 -3.66699 -114 -11
s-31.5 -19.666 -40.5 -36.999s-13.5 -49.666 -13.5 -96.999c0 -80.667 -3 -173.334 -9 -278.001c-4 -71.333 -19.333 -133.666 -46 -186.999c-19.333 -38.667 -52.333 -76 -99 -112c41.333 -28.667 74.5 -67 99.5 -115s39.833 -108.333 44.5 -181
c6.66699 -98.667 10 -191.667 10 -279c0 -46 4.83301 -77.833 14.5 -95.5s23.5 -30.5 41.5 -38.5s55.333 -12 112 -12v-240h-44c-77.333 0 -134.666 7.5 -171.999 22.5s-68.666 37.5 -93.999 67.5s-43.666 69 -54.999 117s-17 129.333 -17 244
c0 126 -5.83301 211.5 -17.5 256.5s-29.5 77.833 -53.5 98.5s-60 32.334 -108 35.001z" />
    <glyph glyph-name="bar" unicode="|" horiz-adv-x="471" 
d="M145 -431v1922h183v-1922h-183z" />
    <glyph glyph-name="braceright" unicode="}" horiz-adv-x="653" 
d="M598 410c-46.667 -2.66699 -81.8301 -13.667 -105.497 -33s-42 -51.5 -55 -96.5s-19.5 -120.167 -19.5 -225.5c0 -132 -5 -222.833 -15 -272.5s-26.5 -89 -49.5 -118s-54.833 -52.167 -95.5 -69.5s-99.667 -26 -177 -26h-44v240c56 0 93.167 4 111.5 12
s32.333 20.833 42 38.5s14.5 48.834 14.5 93.501c0 76 3 167.333 9 274c4.66699 75.333 19.667 137.5 45 186.5s58.666 87.833 99.999 116.5c-46.667 36 -79.667 73.333 -99 112c-26 52 -41.333 114.667 -46 188c-6.66699 96 -10 188.333 -10 277
c0 47.333 -4.33301 79.5 -13 96.5s-22 29.333 -40 37s-56 11.5 -114 11.5v239h44c77.333 0 134.666 -7.33301 171.999 -22s68.666 -37 93.999 -67s43.5 -69 54.5 -117s16.5 -129.333 16.5 -244c0 -126.667 5.83301 -212.5 17.5 -257.5s29.667 -77.833 54 -98.5
s60.5 -32.334 108.5 -35.001v-240z" />
    <glyph glyph-name="asciitilde" unicode="~" horiz-adv-x="981" 
d="M55 519v258.998c69.333 92 150 138 242 138c34.667 0 66.5 -4.16699 95.5 -12.5s76.833 -28.833 143.5 -61.5c84 -41.333 139.333 -62 166 -62c31.333 0 67.333 11.833 108 35.5s79.334 59.834 116.001 108.501v-270c-30.667 -38.667 -73 -73 -127 -103
c-34.667 -19.333 -74 -29 -118 -29c-27.333 0 -54 3.83301 -80 11.5s-67.333 26.834 -124 57.501c-84 44.667 -150 67 -198 67c-76.667 0 -151.334 -46.333 -224.001 -139z" />
    <glyph glyph-name="nbspace" unicode="&#xa0;" 
 />
    <glyph glyph-name="exclamdown" unicode="&#xa1;" horiz-adv-x="559" 
d="M400 1062v-281h-231v281h231zM350 678l59 -741v-344h-249v344l59 741h131z" />
    <glyph glyph-name="cent" unicode="&#xa2;" 
d="M610 811l-149.001 -601.999c12 -2.66699 24.333 -4 37 -4c42.667 0 78 14.833 106 44.5s48 82.167 60 157.5l226 -47c-46 -256 -180 -384 -402 -384c-27.333 0 -55 2.33301 -83 7l-96 -386l-99 34l95 385c-71.333 38 -128.5 100.833 -171.5 188.5
s-64.5 197.5 -64.5 329.5c0 178.667 41.667 318.667 125 420c72 88 171 132 297 132c24.667 0 50.334 -2 77.001 -6l93 376l100 -35l-92 -371c104 -48.667 174 -149.334 210 -302.001l-227 -50c-6 47.333 -20 85 -42 113zM513.999 864.001l-19.001 0.999023
c-57.333 0 -103.166 -24 -137.499 -72s-51.5 -129.333 -51.5 -244c0 -129.333 20.333 -222.666 61 -279.999z" />
    <glyph glyph-name="sterling" unicode="&#xa3;" 
d="M820 285l87.998 -238.001c-68.667 -46.667 -144 -70 -226 -70c-49.333 0 -114 14 -194 42c-84 28.667 -145.667 43 -185 43c-66.667 0 -134.667 -29 -204 -87l-88 242c57.333 50 100.5 105.167 129.5 165.5s43.5 119.833 43.5 178.5c0 19.333 -0.666992 39.333 -2 60
h-171v221h129c-22.667 79.333 -34 159.666 -34 240.999c0 118.667 36.333 216.334 109 293.001s163.667 115 273 115c102.667 0 186.834 -31.667 252.501 -95s106.5 -160 122.5 -290l-222 -40c-19.333 134 -72.333 201 -159 201c-42 0 -78 -17.333 -108 -52
s-45 -79.667 -45 -135c0 -67.333 13.667 -146.666 41 -237.999h256v-221h-218c1.33301 -14.667 2 -29.667 2 -45c0 -51.333 -8.16699 -99.5 -24.5 -144.5s-50.166 -103.833 -101.499 -176.5c30.667 18.667 68.667 28 114 28c20 0 38.667 -1.66699 56 -5
c8.66699 -2 44.667 -12.667 108 -32c36 -11.333 66 -17 90 -17c42 0 98 18.667 168 56z" />
    <glyph glyph-name="currency" unicode="&#xa4;" 
d="M145 941l-107.999 130.999l136 178l112 -136c28.667 19.333 58 33.666 88 42.999s60.333 14 91 14c31.333 0 61.833 -4.66699 91.5 -14s58.834 -23.666 87.501 -42.999l110 134l137 -169l-109 -133c16 -35.333 27.833 -71.166 35.5 -107.499s11.5 -73.166 11.5 -110.499
c0 -36.667 -3.83301 -73.167 -11.5 -109.5s-19.5 -72.5 -35.5 -108.5l110 -133l-136 -171l-112 136c-27.333 -18.667 -55.833 -32.834 -85.5 -42.501s-60.834 -14.5 -93.501 -14.5c-30.667 0 -60.834 4.66699 -90.501 14s-58.5 23.333 -86.5 42l-106 -131l-140 168l107 132
c-15.333 34 -27 69.167 -35 105.5s-12 73.833 -12 112.5s3.66699 75.667 11 111s18.333 69.333 33 102zM298.001 727.999c0 -58 16.667 -106.167 50 -144.5s72 -57.5 116 -57.5s82.667 19.167 116 57.5s50 86.5 50 144.5s-16.667 106.167 -50 144.5s-72 57.5 -116 57.5
s-82.667 -19.167 -116 -57.5s-50 -86.5 -50 -144.5z" />
    <glyph glyph-name="yen" unicode="&#xa5;" 
d="M346 284h-304.002v186h304v144h-304v186h228l-269 666h253l164 -426c20.667 -54 35.334 -101 44.001 -141c10.667 44.667 25.334 91.667 44.001 141l167 426h253l-272 -666h231v-186h-308v-144h308v-186h-308v-284h-231v284z" />
    <glyph glyph-name="brokenbar" unicode="&#xa6;" horiz-adv-x="471" 
d="M145 701v790h183v-790h-183zM145 -431v791h183v-791h-183z" />
    <glyph glyph-name="section" unicode="&#xa7;" 
d="M809 1154l-224.998 -28.998c-4.66699 101.333 -46.667 152 -126 152c-33.333 0 -59.833 -9 -79.5 -27s-29.5 -40.333 -29.5 -67c0 -28.667 9.33301 -55.334 28 -80.001c18 -24.667 79.667 -78.334 185 -161.001c102.667 -80.667 172.167 -141.5 208.5 -182.5
s63 -83.833 80 -128.5s25.5 -93.334 25.5 -146.001c0 -124 -49.667 -228.667 -149 -314c33.333 -37.333 58.166 -77.166 74.499 -119.499s24.5 -86.833 24.5 -133.5c0 -105.333 -31.667 -189.833 -95 -253.5s-149 -95.5 -257 -95.5c-104 0 -190 31.5 -258 94.5
s-108.333 152.5 -121 268.5l225 33c18.667 -120.667 72 -181 160 -181c34.667 0 63.167 11 85.5 33s33.5 50.333 33.5 85c0 15.333 -2.5 29.833 -7.5 43.5s-12.5 26.834 -22.5 39.501c-20 25.333 -91 84.666 -213 177.999c-125.333 96.667 -207.833 177.5 -247.5 242.5
s-59.5 137.5 -59.5 217.5c0 144 50.667 251.333 152 322c-27.333 36 -48 72.667 -62 110s-21 75 -21 113c0 96 30.167 173.833 90.5 233.5s140.166 89.5 239.499 89.5c101.333 0 183.833 -29.667 247.5 -89s101.5 -142 113.5 -248zM603.002 293.002
c48 52.667 72 101.001 72 145.001c0 25.333 -7 49.666 -21 72.999s-48 59 -102 107l-223 198c-20 -14 -38 -35.333 -54 -64c-11.333 -21.333 -17 -45.333 -17 -72c0 -67.333 37 -131.333 111 -192z" />
    <glyph glyph-name="dieresis" unicode="&#xa8;" horiz-adv-x="559" 
d="M4 1250v241h198v-241h-198zM357 1250v241h198v-241h-198z" />
    <glyph glyph-name="copyright" unicode="&#xa9;" horiz-adv-x="1237" 
d="M620 1496c106.667 0 207.833 -31.667 303.5 -95s173.667 -155.166 234 -275.499s90.5 -252.166 90.5 -395.499s-30.167 -275.166 -90.5 -395.499s-138.5 -212.166 -234.5 -275.499s-197 -95 -303 -95s-207 31.667 -303 95s-174.167 155.166 -234.5 275.499
s-90.5 252.166 -90.5 395.499s30.167 275.166 90.5 395.499s138.5 212.166 234.5 275.499s197 95 303 95zM619.999 1345c-85.333 0 -166.5 -25.333 -243.5 -76s-139.667 -124.334 -188 -221.001s-72.5 -202.667 -72.5 -318s24.167 -221.333 72.5 -318
s111 -170.334 188 -221.001s158.167 -76 243.5 -76s166.5 25.333 243.5 76s139.833 124.334 188.5 221.001s73 202.667 73 318s-24.333 221.333 -73 318s-111.5 170.334 -188.5 221.001s-158.167 76 -243.5 76zM772.999 616l132 -54
c-21.333 -86.667 -56.333 -151.667 -105 -195s-105.667 -65 -171 -65c-90 0 -165.333 36.5 -226 109.5s-91 177.167 -91 312.5c0 140 29.833 246.667 89.5 320s136.167 110 229.5 110c134 0 225.333 -81 274 -243l-133 -38c-28 92.667 -76.667 139 -146 139
c-48.667 0 -89.167 -22.667 -121.5 -68s-48.5 -116.333 -48.5 -213c0 -98 15.667 -170.167 47 -216.5s67.666 -69.5 108.999 -69.5c80.667 0 134.334 57 161.001 171z" />
    <glyph glyph-name="ordfeminine" unicode="&#xaa;" horiz-adv-x="621" 
d="M209 1252l-154.997 37.999c12.667 69.333 38.667 120.166 78 152.499s97 48.5 173 48.5c74 0 131 -11.333 171 -34c30.667 -17.333 52.667 -46 66 -86c10 -28.667 15 -82.667 15 -162v-239c0 -69.333 1.66699 -115.666 5 -138.999s9.66602 -46.666 18.999 -69.999h-155
c-8 17.333 -14.333 41 -19 71c-24 -29.333 -50.833 -51.5 -80.5 -66.5s-61.834 -22.5 -96.501 -22.5c-59.333 0 -107.333 19.333 -144 58s-55 91 -55 157c0 44.667 7.66699 82 23 112s37 53.333 65 70s84 35 168 55c43.333 10.667 77.666 21.667 102.999 33
c-2 44 -5.66699 70.333 -11 79c-12 18 -36 27 -72 27c-28.667 0 -50 -5.33301 -64 -16c-10.667 -8 -22 -30 -34 -66zM390.003 1095c-12 -8.66699 -37.668 -17.999 -77.001 -27.999c-47.333 -12 -76.666 -23.667 -87.999 -35c-16 -16.667 -24 -36 -24 -58s7.66699 -41 23 -57
s34 -24 56 -24c31.333 0 57.5 13.667 78.5 41s31.5 67.666 31.5 120.999v40z" />
    <glyph glyph-name="guillemotleft" unicode="&#xab;" 
d="M519 983l-212 -451l212 -462h-181l-259 462l259 451h181zM841 983l-213 -451l213 -462h-181l-259 462l259 451h181z" />
    <glyph glyph-name="logicalnot" unicode="&#xac;" horiz-adv-x="981" 
d="M699 376v441h-630v257h841v-698h-211z" />
    <glyph glyph-name="registered" unicode="&#xae;" horiz-adv-x="1237" 
d="M620 1496c106.667 0 207.833 -31.667 303.5 -95s173.667 -155.166 234 -275.499s90.5 -252.166 90.5 -395.499s-30.167 -275.166 -90.5 -395.499s-138.5 -212.166 -234.5 -275.499s-197 -95 -303 -95s-207 31.667 -303 95s-174.167 155.166 -234.5 275.499
s-90.5 252.166 -90.5 395.499s30.167 275.166 90.5 395.499s138.5 212.166 234.5 275.499s197 95 303 95zM620.999 1346c-85.333 0 -166.499 -25.333 -243.499 -76s-139.667 -124.5 -188 -221.5s-72.5 -203.167 -72.5 -318.5s24.167 -221.5 72.5 -318.5
s111.166 -171 188.499 -222s158.333 -76.5 243 -76.5c85.333 0 166.5 25.5 243.5 76.5s139.833 125 188.5 222s73 203.167 73 318.5s-24.333 221.5 -73 318.5s-111.5 170.833 -188.5 221.5s-158.167 76 -243.5 76zM336 320l-0.00195312 813h136
c135.333 0 215.333 -1.66699 240 -5c48.667 -8 88.334 -31.5 119.001 -70.5s46 -89.833 46 -152.5c0 -62 -16.333 -113.333 -49 -154s-76.334 -65.667 -131.001 -75c26.667 -12.667 48.834 -31.167 66.501 -55.5s42.834 -69.833 75.501 -136.5l78 -164h-167l-56 132
c-37.333 88.667 -68.333 144.5 -93 167.5s-56 34.5 -94 34.5h-35v-334h-136zM471.998 782l54 -0.000976562c74 0 119.333 2.66699 136 8c22 6 39.333 18.333 52 37s19 41 19 67s-6.5 47.833 -19.5 65.5s-30.5 29.834 -52.5 36.501c-17.333 5.33301 -62.333 8 -135 8h-54
v-222z" />
    <glyph glyph-name="overscore" unicode="&#xaf;" horiz-adv-x="1024" 
d="M-12 1722h1048v-103h-1048v103z" />
    <glyph glyph-name="degree" unicode="&#xb0;" horiz-adv-x="819" 
d="M86 1172c0 88.667 31.167 164 93.5 226s137.5 93 225.5 93s163.167 -31.167 225.5 -93.5s93.5 -137.5 93.5 -225.5s-31.167 -163.167 -93.5 -225.5s-137.5 -93.5 -225.5 -93.5s-163.167 31.167 -225.5 93.5s-93.5 137.5 -93.5 225.5zM252 1172c0 -42 15 -78 45 -108
s66 -45 108 -45s78 15 108 45s45 66 45 108s-15 78 -45 108s-66 45 -108 45s-78 -15 -108 -45s-45 -66 -45 -108z" />
    <glyph glyph-name="plusminus" unicode="&#xb1;" horiz-adv-x="1124" 
d="M434 356v381h-384v263h384v381h256v-381h385v-263h-385v-381h-256zM50 0v263h1025v-263h-1025z" />
    <glyph glyph-name="twosuperior" unicode="&#xb2;" horiz-adv-x="559" 
d="M518 885l-0.00195312 -157.994h-498c6 59.333 21.833 111.666 47.5 156.999s77.834 105.666 156.501 180.999c64.667 61.333 103.834 103.166 117.501 125.499s20.5 45.166 20.5 68.499c0 26.667 -7.33301 47 -22 61s-35 21 -61 21c-27.333 0 -48 -8 -62 -24
s-22.333 -46.333 -25 -91l-156 16c7.33301 61.333 20.166 107.666 38.499 138.999s45.5 56.333 81.5 75s78.333 28 127 28c72 0 129.167 -20.333 171.5 -61s63.5 -92.334 63.5 -155.001c0 -31.333 -5.16699 -62 -15.5 -92s-27.833 -61.667 -52.5 -95
c-16 -22.667 -56.667 -65 -122 -127c-31.333 -30 -53.666 -53 -66.999 -69h257z" />
    <glyph glyph-name="threesuperior" unicode="&#xb3;" horiz-adv-x="559" 
d="M32 946l151.003 20c8 -72 39 -108 93 -108c26 0 47.333 9.83301 64 29.5s25 45.834 25 78.501c0 30 -8 54 -24 72s-36.333 27 -61 27c-16 0 -40.667 -5 -74 -15l19 146c37.333 -0.666992 65.333 6.33301 84 21c18 14 27 33.333 27 58c0 20.667 -6 36.834 -18 48.501
s-28.667 17.5 -50 17.5c-46.667 0 -73.667 -32.667 -81 -98l-146 26c14.667 71.333 36.667 122 66 152c41.333 42 96.333 63 165 63c64 0 116.833 -19.833 158.5 -59.5s62.5 -87.834 62.5 -144.501c0 -28 -6.66699 -54 -20 -78s-33.333 -46 -60 -66
c37.333 -16 65.166 -38.833 83.499 -68.5s27.5 -66.167 27.5 -109.5c0 -68 -23.833 -125.5 -71.5 -172.5s-106.834 -70.5 -177.501 -70.5c-66.667 0 -121.834 20.167 -165.501 60.5s-69.5 97.166 -77.5 170.499z" />
    <glyph glyph-name="acute" unicode="&#xb4;" horiz-adv-x="559" 
d="M153 1192l113 299h259l-226 -299h-146z" />
    <glyph glyph-name="mu1" unicode="&#xb5;" horiz-adv-x="1180" 
d="M111 1062l279.001 0.000976562v-481c0 -138.667 14 -233 42 -283c35.333 -64.667 87.666 -97 156.999 -97c37.333 0 72.666 12 105.999 36s58 57.333 74 100s24 123 24 241v484h284v-1062h-262v128c-20 -37.333 -39 -65.333 -57 -84s-42.167 -35 -72.5 -49
s-58.166 -21 -83.499 -21c-47.333 0 -89.333 13 -126 39c-26 19.333 -54.667 57.666 -86 114.999v-535h-279v1469z" />
    <glyph glyph-name="paragraph" unicode="&#xb6;" 
d="M520 -403h-199.001v1047c-99.333 8.66699 -178 48 -236 118s-87 166.667 -87 290c0 77.333 12.833 145.666 38.5 204.999s57.5 103.833 95.5 133.5s79.667 50.834 125 63.501c30.667 8 90.334 12 179.001 12h490v-261h-93v-1608h-195v1608h-118v-1608z" />
    <glyph glyph-name="middot" unicode="&#xb7;" horiz-adv-x="559" 
d="M164 573v281h231v-281h-231z" />
    <glyph glyph-name="cedilla" unicode="&#xb8;" horiz-adv-x="559" 
d="M31 -403l-0.00195312 117.999c56 -7.33301 107.667 -11 155 -11c45.333 0 79.333 8.83301 102 26.5s34 40.167 34 67.5c0 24.667 -9.16699 44.834 -27.5 60.501s-44.166 23.5 -77.499 23.5c-34.667 0 -70.334 -6.66699 -107.001 -20l21 99
c42.667 18 89.334 27 140.001 27c62.667 0 112.834 -17.5 150.501 -52.5s56.5 -80.5 56.5 -136.5c0 -64 -25 -116.333 -75 -157s-120.667 -61 -212 -61c-70.667 0 -124 5.33301 -160 16z" />
    <glyph glyph-name="onesuperior" unicode="&#xb9;" horiz-adv-x="559" 
d="M406 727l-155 0.000976562v513c-51.333 -42.667 -110 -75.334 -176 -98.001v155c48 16 90.5 40.833 127.5 74.5s62.833 71.167 77.5 112.5h126v-757z" />
    <glyph glyph-name="ordmasculine" unicode="&#xba;" horiz-adv-x="612" 
d="M21 1115c0 122 26.499 215.167 79.499 279.5s121.5 96.5 205.5 96.5c82.667 0 150.667 -32.333 204 -97s80 -157.667 80 -279s-26.5 -214.166 -79.5 -278.499s-121.167 -96.5 -204.5 -96.5s-151.666 32.167 -204.999 96.5s-80 157.166 -80 278.499zM193.999 1113
c0 -73.333 10.1689 -125.5 30.502 -156.5s47.166 -46.5 80.499 -46.5c31.333 0 57.166 15.667 77.499 47s30.5 83.333 30.5 156c0 74 -10.333 126.333 -31 157s-47.334 46 -80.001 46c-31.333 0 -57.166 -15.5 -77.499 -46.5s-30.5 -83.167 -30.5 -156.5z" />
    <glyph glyph-name="guillemotright" unicode="&#xbb;" 
d="M409 70l212 452l-212 461h181l259 -461l-259 -452h-181zM87 70l213 452l-213 461h181l259 -461l-259 -452h-181z" />
    <glyph glyph-name="onequarter" unicode="&#xbc;" horiz-adv-x="1401" 
d="M406 727l-155 0.000976562v513c-51.333 -42.667 -110 -75.334 -176 -98.001v155c48 16 90.5 40.833 127.5 74.5s62.833 71.167 77.5 112.5h126v-757zM409 -53.999h-131l713 1538h130zM1149 -41.999v146h-295v141l313 470h128v-466h89v-145h-89v-146h-146zM1149 249.001
v225l-149 -225h149z" />
    <glyph glyph-name="onehalf" unicode="&#xbd;" horiz-adv-x="1401" 
d="M406 727l-155 0.000976562v513c-51.333 -42.667 -110 -75.334 -176 -98.001v155c48 16 90.5 40.833 127.5 74.5s62.833 71.167 77.5 112.5h126v-757zM409 -53.999h-131l713 1538h130zM1358 116.001l-0.00195312 -157.994h-498c6 59.333 21.833 111.666 47.5 156.999
s77.834 105.666 156.501 180.999c64.667 61.333 103.834 103.166 117.501 125.499s20.5 45.166 20.5 68.499c0 26.667 -7.33301 47 -22 61s-35 21 -61 21c-27.333 0 -48 -8 -62 -24s-22.333 -46.333 -25 -91l-156 16c7.33301 61.333 20.166 107.666 38.499 138.999
s45.5 56.333 81.5 75s78.333 28 127 28c72 0 129.167 -20.333 171.5 -61s63.5 -92.334 63.5 -155.001c0 -31.333 -5.16699 -62 -15.5 -92s-27.833 -61.667 -52.5 -95c-16 -22.667 -56.667 -65 -122 -127c-31.333 -30 -53.666 -53 -66.999 -69h257z" />
    <glyph glyph-name="threequarters" unicode="&#xbe;" horiz-adv-x="1401" 
d="M33 946l151.003 20c8 -72 39 -108 93 -108c26 0 47.333 9.83301 64 29.5s25 45.834 25 78.501c0 30 -8 54 -24 72s-36.333 27 -61 27c-16 0 -40.667 -5 -74 -15l19 146c37.333 -0.666992 65.333 6.33301 84 21c18 14 27 33.333 27 58c0 20.667 -6 36.834 -18 48.501
s-28.667 17.5 -50 17.5c-46.667 0 -73.667 -32.667 -81 -98l-146 26c14.667 71.333 36.667 122 66 152c41.333 42 96.333 63 165 63c64 0 116.833 -19.833 158.5 -59.5s62.5 -87.834 62.5 -144.501c0 -28 -6.66699 -54 -20 -78s-33.333 -46 -60 -66
c37.333 -16 65.166 -38.833 83.499 -68.5s27.5 -66.167 27.5 -109.5c0 -68 -23.833 -125.5 -71.5 -172.5s-106.834 -70.5 -177.501 -70.5c-66.667 0 -121.834 20.167 -165.501 60.5s-69.5 97.166 -77.5 170.499zM429.003 -54h-131l713 1538h130zM1150 -42v146h-295v141
l313 470h128v-466h89v-145h-89v-146h-146zM1150 249v225l-149 -225h149z" />
    <glyph glyph-name="questiondown" unicode="&#xbf;" horiz-adv-x="1026" 
d="M626 1062v-281h-231v281h231zM417 684l208.999 -0.00292969l1 -72c0 -78.667 -11.833 -145.5 -35.5 -200.5s-67.5 -114.167 -131.5 -177.5c-71.333 -71.333 -114.666 -120.666 -129.999 -147.999s-23 -60 -23 -98c0 -54 19.167 -99.667 57.5 -137s85.5 -56 141.5 -56
c122.667 0 199 82.333 229 247l212 -33c-14.667 -135.333 -61 -240.666 -139 -315.999s-176 -113 -294 -113c-123.333 0 -226 40.333 -308 121s-123 180.334 -123 299.001c0 66.667 16.333 128.667 49 186s92.667 130 180 218c47.333 47.333 77 86.5 89 117.5
s17.333 85.167 16 162.5z" />
    <glyph glyph-name="Agrave" unicode="&#xc0;" horiz-adv-x="1212" 
d="M1206 0h-264l-105 333h-480l-99 -333h-258l468 1466h257zM759 580l-165 544l-163 -544h328zM730 1564h-146l-226 299h258z" />
    <glyph glyph-name="Aacute" unicode="&#xc1;" horiz-adv-x="1212" 
d="M1206 0h-264l-105 333h-480l-99 -333h-258l468 1466h257zM759 580l-165 544l-163 -544h328zM477 1564l113 299h259l-226 -299h-146z" />
    <glyph glyph-name="Acircumflex" unicode="&#xc2;" horiz-adv-x="1212" 
d="M1206 0h-264l-105 333h-480l-99 -333h-258l468 1466h257zM759 580l-165 544l-163 -544h328zM326 1567l172 295h213l170 -295h-185l-95 149l-88 -149h-187z" />
    <glyph glyph-name="Atilde" unicode="&#xc3;" horiz-adv-x="1212" 
d="M1206 0h-264l-105 333h-480l-99 -333h-258l468 1466h257zM759 580l-165 544l-163 -544h328zM418 1577l-104.001 0.000976562l-1 33c0 73.333 14.167 128.5 42.5 165.5s64.166 55.5 107.499 55.5c18.667 0 36.334 -2.66699 53.001 -8s43.667 -18 81 -38
c49.333 -26.667 86 -40 110 -40c38 0 60.333 29 67 87h106c-0.666992 -90.667 -14.5 -155.167 -41.5 -193.5s-61.833 -57.5 -104.5 -57.5c-18 0 -35.667 2.33301 -53 7c-12.667 3.33301 -42 15.666 -88 36.999c-55.333 26 -94.666 39 -117.999 39
c-16.667 0 -30.167 -6.5 -40.5 -19.5s-15.833 -35.5 -16.5 -67.5z" />
    <glyph glyph-name="Adieresis" unicode="&#xc4;" horiz-adv-x="1212" 
d="M1206 0h-264l-105 333h-480l-99 -333h-258l468 1466h257zM759 580l-165 544l-163 -544h328zM328 1621v241h198v-241h-198zM681 1621v241h198v-241h-198z" />
    <glyph glyph-name="Aring" unicode="&#xc5;" horiz-adv-x="1212" 
d="M1206 0h-264l-105 333h-480l-99 -333h-258l468 1466h257zM759 580l-165 544l-163 -544h328zM765 1714c0 -56 -16.167 -102.667 -48.5 -140s-69.833 -56 -112.5 -56s-80.167 18.667 -112.5 56s-48.5 84 -48.5 140c0 56.667 16 103.5 48 140.5s69.667 55.5 113 55.5
c42.667 0 80.167 -18.5 112.5 -55.5s48.5 -83.833 48.5 -140.5zM677 1714c0 26 -7.33301 47.333 -22 64s-31.667 25 -51 25s-36.333 -8.33301 -51 -25s-22 -38 -22 -64c0 -25.333 7.33301 -46.5 22 -63.5s31.667 -25.5 51 -25.5s36.333 8.5 51 25.5s22 38.167 22 63.5z" />
    <glyph glyph-name="AE" unicode="&#xc6;" horiz-adv-x="1679" 
d="M-70 0l561 1466h1085v-248h-595v-326h549v-248h-549v-397h617v-247h-859v345h-417l-123 -345h-269zM411 601h330v643h-94z" />
    <glyph glyph-name="Ccedilla" unicode="&#xc7;" horiz-adv-x="1212" 
d="M892 539l234.998 -90.999c-36.667 -164 -97.667 -283.833 -183 -359.5s-190.333 -113.5 -315 -113.5c-156.667 0 -283.667 60.333 -381 181c-112 139.333 -168 327.333 -168 564c0 250 56.333 445.667 169 587c98 122.667 229.667 184 395 184
c134.667 0 247.334 -46 338.001 -138c64.667 -65.333 112 -162.333 142 -291l-240 -70c-15.333 79.333 -45.833 140.166 -91.5 182.499s-99.5 63.5 -161.5 63.5c-88.667 0 -161 -38.667 -217 -116s-84 -205 -84 -383c0 -184.667 27.333 -316 82 -394s125.667 -117 213 -117
c64 0 119.333 24.833 166 74.5s80.334 128.5 101.001 236.5zM387.998 -414.999l-0.00195312 117.999c56 -7.33301 107.667 -11 155 -11c45.333 0 79.333 8.83301 102 26.5s34 40.167 34 67.5c0 24.667 -9.16699 44.834 -27.5 60.501s-44.166 23.5 -77.499 23.5
c-34.667 0 -70.334 -6.66699 -107.001 -20l21 99c42.667 18 89.334 27 140.001 27c62.667 0 112.834 -17.5 150.501 -52.5s56.5 -80.5 56.5 -136.5c0 -64 -25 -116.333 -75 -157s-120.667 -61 -212 -61c-70.667 0 -124 5.33301 -160 16z" />
    <glyph glyph-name="Egrave" unicode="&#xc8;" horiz-adv-x="1120" 
d="M123 0v1466h892v-248h-650v-325h604v-247h-604v-399h672v-247h-914zM688 1564h-146l-226 299h258z" />
    <glyph glyph-name="Eacute" unicode="&#xc9;" horiz-adv-x="1120" 
d="M123 0v1466h892v-248h-650v-325h604v-247h-604v-399h672v-247h-914zM434 1564l113 299h259l-226 -299h-146z" />
    <glyph glyph-name="Ecircumflex" unicode="&#xca;" horiz-adv-x="1120" 
d="M123 0v1466h892v-248h-650v-325h604v-247h-604v-399h672v-247h-914zM283 1567l172 295h213l170 -295h-185l-95 149l-88 -149h-187z" />
    <glyph glyph-name="Edieresis" unicode="&#xcb;" horiz-adv-x="1120" 
d="M123 0v1466h892v-248h-650v-325h604v-247h-604v-399h672v-247h-914zM285 1621v241h198v-241h-198zM638 1621v241h198v-241h-198z" />
    <glyph glyph-name="Igrave" unicode="&#xcc;" horiz-adv-x="467" 
d="M115 0v1466h242v-1466h-242zM364 1564h-146l-226 299h258z" />
    <glyph glyph-name="Iacute" unicode="&#xcd;" horiz-adv-x="467" 
d="M115 0v1466h242v-1466h-242zM110 1564l113 299h259l-226 -299h-146z" />
    <glyph glyph-name="Icircumflex" unicode="&#xce;" horiz-adv-x="467" 
d="M115 0v1466h242v-1466h-242zM-41 1567l172 295h213l170 -295h-185l-95 149l-88 -149h-187z" />
    <glyph glyph-name="Idieresis" unicode="&#xcf;" horiz-adv-x="467" 
d="M115 0v1466h242v-1466h-242zM-39 1621v241h198v-241h-198zM314 1621v241h198v-241h-198z" />
    <glyph glyph-name="Eth" unicode="&#xd0;" horiz-adv-x="1212" 
d="M122 1466l443 0.000976562c111.333 0 195.666 -12.5 252.999 -37.5s109.833 -67 157.5 -126s85.167 -136.333 112.5 -232s41 -213.834 41 -354.501c0 -125.333 -14.333 -235 -43 -329s-65 -168.167 -109 -222.5s-97.167 -95.333 -159.5 -123
s-142.166 -41.5 -239.499 -41.5h-456v640h-125v186h125v640zM364 1218v-392.001h257v-186h-257v-393h182c77.333 0 133.666 7.33301 168.999 22s64 36.5 86 65.5s40.5 75.833 55.5 140.5s22.5 147.334 22.5 248.001c0 116.667 -8.16699 206.167 -24.5 268.5
s-40.333 111 -72 146s-70.5 57.833 -116.5 68.5c-33.333 8 -97.666 12 -192.999 12h-109z" />
    <glyph glyph-name="Ntilde" unicode="&#xd1;" horiz-adv-x="1212" 
d="M125 0v1466h236l492 -979v979h226v-1466h-244l-484 956v-956h-226zM418 1577l-104.001 0.000976562l-1 33c0 73.333 14.167 128.5 42.5 165.5s64.166 55.5 107.499 55.5c18.667 0 36.334 -2.66699 53.001 -8s43.667 -18 81 -38c49.333 -26.667 86 -40 110 -40
c38 0 60.333 29 67 87h106c-0.666992 -90.667 -14.5 -155.167 -41.5 -193.5s-61.833 -57.5 -104.5 -57.5c-18 0 -35.667 2.33301 -53 7c-12.667 3.33301 -42 15.666 -88 36.999c-55.333 26 -94.666 39 -117.999 39c-16.667 0 -30.167 -6.5 -40.5 -19.5
s-15.833 -35.5 -16.5 -67.5z" />
    <glyph glyph-name="Ograve" unicode="&#xd2;" horiz-adv-x="1307" 
d="M74 724c0 174.667 25.834 318.5 77.501 431.5s119.167 197.167 202.5 252.5s184.333 83 303 83c172 0 312.167 -65.667 420.5 -197s162.5 -318.333 162.5 -561c0 -245.333 -57.333 -437 -172 -575c-100.667 -122 -237.334 -183 -410.001 -183
c-174 0 -311.333 60.333 -412 181c-114.667 138 -172 327.333 -172 568zM324.001 734c0 -168.667 32 -295.167 96 -379.5s143.333 -126.5 238 -126.5c95.333 0 174.333 41.833 237 125.5s94 212.167 94 385.5c0 170 -30.5 295.667 -91.5 377s-140.833 122 -239.5 122
s-179 -41 -241 -123s-93 -209 -93 -381zM784.001 1564h-146l-226 299h258z" />
    <glyph glyph-name="Oacute" unicode="&#xd3;" horiz-adv-x="1307" 
d="M74 724c0 174.667 25.834 318.5 77.501 431.5s119.167 197.167 202.5 252.5s184.333 83 303 83c172 0 312.167 -65.667 420.5 -197s162.5 -318.333 162.5 -561c0 -245.333 -57.333 -437 -172 -575c-100.667 -122 -237.334 -183 -410.001 -183
c-174 0 -311.333 60.333 -412 181c-114.667 138 -172 327.333 -172 568zM324.001 734c0 -168.667 32 -295.167 96 -379.5s143.333 -126.5 238 -126.5c95.333 0 174.333 41.833 237 125.5s94 212.167 94 385.5c0 170 -30.5 295.667 -91.5 377s-140.833 122 -239.5 122
s-179 -41 -241 -123s-93 -209 -93 -381zM530.001 1564l113 299h259l-226 -299h-146z" />
    <glyph glyph-name="Ocircumflex" unicode="&#xd4;" horiz-adv-x="1307" 
d="M74 724c0 174.667 25.834 318.5 77.501 431.5s119.167 197.167 202.5 252.5s184.333 83 303 83c172 0 312.167 -65.667 420.5 -197s162.5 -318.333 162.5 -561c0 -245.333 -57.333 -437 -172 -575c-100.667 -122 -237.334 -183 -410.001 -183
c-174 0 -311.333 60.333 -412 181c-114.667 138 -172 327.333 -172 568zM324.001 734c0 -168.667 32 -295.167 96 -379.5s143.333 -126.5 238 -126.5c95.333 0 174.333 41.833 237 125.5s94 212.167 94 385.5c0 170 -30.5 295.667 -91.5 377s-140.833 122 -239.5 122
s-179 -41 -241 -123s-93 -209 -93 -381zM379.001 1567l172 295h213l170 -295h-185l-95 149l-88 -149h-187z" />
    <glyph glyph-name="Otilde" unicode="&#xd5;" horiz-adv-x="1307" 
d="M74 724c0 174.667 25.834 318.5 77.501 431.5s119.167 197.167 202.5 252.5s184.333 83 303 83c172 0 312.167 -65.667 420.5 -197s162.5 -318.333 162.5 -561c0 -245.333 -57.333 -437 -172 -575c-100.667 -122 -237.334 -183 -410.001 -183
c-174 0 -311.333 60.333 -412 181c-114.667 138 -172 327.333 -172 568zM324.001 734c0 -168.667 32 -295.167 96 -379.5s143.333 -126.5 238 -126.5c95.333 0 174.333 41.833 237 125.5s94 212.167 94 385.5c0 170 -30.5 295.667 -91.5 377s-140.833 122 -239.5 122
s-179 -41 -241 -123s-93 -209 -93 -381zM471.001 1577l-104.001 0.000976562l-1 33c0 73.333 14.167 128.5 42.5 165.5s64.166 55.5 107.499 55.5c18.667 0 36.334 -2.66699 53.001 -8s43.667 -18 81 -38c49.333 -26.667 86 -40 110 -40c38 0 60.333 29 67 87h106
c-0.666992 -90.667 -14.5 -155.167 -41.5 -193.5s-61.833 -57.5 -104.5 -57.5c-18 0 -35.667 2.33301 -53 7c-12.667 3.33301 -42 15.666 -88 36.999c-55.333 26 -94.666 39 -117.999 39c-16.667 0 -30.167 -6.5 -40.5 -19.5s-15.833 -35.5 -16.5 -67.5z" />
    <glyph glyph-name="Odieresis" unicode="&#xd6;" horiz-adv-x="1307" 
d="M74 724c0 174.667 25.834 318.5 77.501 431.5s119.167 197.167 202.5 252.5s184.333 83 303 83c172 0 312.167 -65.667 420.5 -197s162.5 -318.333 162.5 -561c0 -245.333 -57.333 -437 -172 -575c-100.667 -122 -237.334 -183 -410.001 -183
c-174 0 -311.333 60.333 -412 181c-114.667 138 -172 327.333 -172 568zM324.001 734c0 -168.667 32 -295.167 96 -379.5s143.333 -126.5 238 -126.5c95.333 0 174.333 41.833 237 125.5s94 212.167 94 385.5c0 170 -30.5 295.667 -91.5 377s-140.833 122 -239.5 122
s-179 -41 -241 -123s-93 -209 -93 -381zM381.001 1621v241h198v-241h-198zM734.001 1621v241h198v-241h-198z" />
    <glyph glyph-name="multiply" unicode="&#xd7;" horiz-adv-x="981" 
d="M90 420l248 302l-249 303l152 186l249 -303l248 302l149 -182l-248 -302l250 -305l-152 -186l-250 305l-248 -302z" />
    <glyph glyph-name="Oslash" unicode="&#xd8;" horiz-adv-x="1307" 
d="M1016 1359l129.002 177l115 -122l-137 -188c76.667 -128 115 -296 115 -504c0 -205.333 -45.333 -377.333 -136 -516c-100.667 -154 -247.334 -231 -440.001 -231c-148.667 0 -269 41.667 -361 125l-132 -182l-117 124l140 192c-40.667 68 -69.334 137.333 -86.001 208
c-22.667 93.333 -34 194 -34 302c0 237.333 58.333 426 175 566c100 120.667 236 181 408 181c144 0 264.333 -44 361 -132zM865.002 1153c-54.667 57.333 -124.333 85.999 -209 85.999c-98 0 -178 -41.167 -240 -123.5s-93 -209.166 -93 -380.499
c0 -108 12.333 -198.667 37 -272zM955.003 995.999l-504 -691c55.333 -60 123 -90 203 -90c96.667 0 176.5 42.5 239.5 127.5s94.5 215.167 94.5 390.5c0 101.333 -11 189 -33 263z" />
    <glyph glyph-name="Ugrave" unicode="&#xd9;" horiz-adv-x="1212" 
d="M120 1466h242v-794c0 -123.333 3 -203.666 9 -240.999c10.667 -64.667 36.167 -114.667 76.5 -150s93.5 -53 159.5 -53c56 0 101.667 12.5 137 37.5s59.5 59.667 72.5 104s19.5 139.5 19.5 285.5v811h243v-770c0 -196.667 -10.5 -338.834 -31.5 -426.501
s-68.333 -158.667 -142 -213s-170.834 -81.5 -291.501 -81.5c-125.333 0 -223.166 22.5 -293.499 67.5s-121.333 108.333 -153 190s-47.5 232.167 -47.5 451.5v782zM730 1564h-146l-226 299h258z" />
    <glyph glyph-name="Uacute" unicode="&#xda;" horiz-adv-x="1212" 
d="M120 1466h242v-794c0 -123.333 3 -203.666 9 -240.999c10.667 -64.667 36.167 -114.667 76.5 -150s93.5 -53 159.5 -53c56 0 101.667 12.5 137 37.5s59.5 59.667 72.5 104s19.5 139.5 19.5 285.5v811h243v-770c0 -196.667 -10.5 -338.834 -31.5 -426.501
s-68.333 -158.667 -142 -213s-170.834 -81.5 -291.501 -81.5c-125.333 0 -223.166 22.5 -293.499 67.5s-121.333 108.333 -153 190s-47.5 232.167 -47.5 451.5v782zM476 1564l113 299h259l-226 -299h-146z" />
    <glyph glyph-name="Ucircumflex" unicode="&#xdb;" horiz-adv-x="1212" 
d="M120 1466h242v-794c0 -123.333 3 -203.666 9 -240.999c10.667 -64.667 36.167 -114.667 76.5 -150s93.5 -53 159.5 -53c56 0 101.667 12.5 137 37.5s59.5 59.667 72.5 104s19.5 139.5 19.5 285.5v811h243v-770c0 -196.667 -10.5 -338.834 -31.5 -426.501
s-68.333 -158.667 -142 -213s-170.834 -81.5 -291.501 -81.5c-125.333 0 -223.166 22.5 -293.499 67.5s-121.333 108.333 -153 190s-47.5 232.167 -47.5 451.5v782zM325 1567l172 295h213l170 -295h-185l-95 149l-88 -149h-187z" />
    <glyph glyph-name="Udieresis" unicode="&#xdc;" horiz-adv-x="1212" 
d="M120 1466h242v-794c0 -123.333 3 -203.666 9 -240.999c10.667 -64.667 36.167 -114.667 76.5 -150s93.5 -53 159.5 -53c56 0 101.667 12.5 137 37.5s59.5 59.667 72.5 104s19.5 139.5 19.5 285.5v811h243v-770c0 -196.667 -10.5 -338.834 -31.5 -426.501
s-68.333 -158.667 -142 -213s-170.834 -81.5 -291.501 -81.5c-125.333 0 -223.166 22.5 -293.499 67.5s-121.333 108.333 -153 190s-47.5 232.167 -47.5 451.5v782zM327 1621v241h198v-241h-198zM680 1621v241h198v-241h-198z" />
    <glyph glyph-name="Yacute" unicode="&#xdd;" horiz-adv-x="1120" 
d="M438 0v617l-440 849h284l283 -580l278 580h279l-442 -851v-615h-242zM434 1564l113 299h259l-226 -299h-146z" />
    <glyph glyph-name="Thorn" unicode="&#xde;" horiz-adv-x="1120" 
d="M122 0v1466h242v-276h148c146 0 241.333 -7.33301 286 -22c70.667 -22.667 129.167 -70.834 175.5 -144.501s69.5 -168.834 69.5 -285.501c0 -106 -20 -194.833 -60 -266.5s-90 -122.167 -150 -151.5s-163.333 -44 -310 -44h-159v-276h-242zM364 942.002
l0.000976562 -417h134c98 0 161.333 5.66699 190 17s53.167 34 73.5 68s30.5 75.333 30.5 124c0 51.333 -10.333 93.833 -31 127.5s-44.834 55.5 -72.501 65.5s-96.5 15 -206.5 15h-118z" />
    <glyph glyph-name="germandbls" unicode="&#xdf;" horiz-adv-x="1026" 
d="M114 0l0.00488281 952.002c0 130 8 224.333 24 283c23.333 86 63.666 150.167 120.999 192.5s128.666 63.5 213.999 63.5c106 0 188 -27.5 246 -82.5s87 -128.833 87 -221.5c0 -57.333 -16.667 -123.333 -50 -198c-35.333 -78.667 -53 -128 -53 -148
c0 -19.333 5.16699 -38.833 15.5 -58.5s45.166 -65.834 104.499 -138.501c55.333 -67.333 93.166 -125.5 113.499 -174.5s30.5 -99.833 30.5 -152.5c0 -102 -28.333 -184.333 -85 -247s-125.334 -94 -206.001 -94c-55.333 0 -107 17.167 -155 51.5s-85 80.166 -111 137.499
l161 115c22 -52.667 50.333 -79 85 -79c21.333 0 40 9.66699 56 29s24 44 24 74c0 25.333 -5.83301 49 -17.5 71s-51.5 72.333 -119.5 151c-92.667 108 -139 192.667 -139 254c0 40 18 105 54 195c27.333 69.333 43.5 113.333 48.5 132s7.5 38 7.5 58
c0 30.667 -9.5 56 -28.5 76s-42.5 30 -70.5 30c-27.333 0 -51.5 -9 -72.5 -27s-35.167 -44.333 -42.5 -79s-11 -105.667 -11 -213v-952h-231z" />
    <glyph glyph-name="agrave" unicode="&#xe0;" 
d="M293 738l-208.997 45.998c25.333 107.333 67.166 184.5 125.499 231.5s142.166 70.5 251.499 70.5c97.333 0 171.666 -13.667 222.999 -41s88 -64.5 110 -111.5s33 -132.5 33 -256.5l-2 -328c0 -92 3.66699 -160.5 11 -205.5s21 -92.833 41 -143.5h-228l-30 116
c-39.333 -46.667 -81.5 -81.667 -126.5 -105s-92.833 -35 -143.5 -35c-84.667 0 -154 28.5 -208 85.5s-81 132.833 -81 227.5c0 60 11 112.333 33 157s53 80.334 93 107.001s104 50.334 192 71.001c106.667 24.667 181 47.667 223 69c0 58.667 -4.16699 97.167 -12.5 115.5
s-23.666 33.333 -45.999 45s-53.833 17.5 -94.5 17.5c-41.333 0 -73.833 -9.33301 -97.5 -28s-42.834 -53.667 -57.501 -105zM601.003 509.998c-29.333 -12 -75 -25.999 -137 -41.999c-71.333 -18.667 -118 -39.334 -140 -62.001s-33 -52 -33 -88
c0 -40.667 12.167 -74.834 36.5 -102.501s54.833 -41.5 91.5 -41.5c32.667 0 65 11.167 97 33.5s54.167 48.833 66.5 79.5s18.5 86.334 18.5 167.001v56zM586.003 1192h-146l-226 299h258z" />
    <glyph glyph-name="aacute" unicode="&#xe1;" 
d="M293 738l-208.997 45.998c25.333 107.333 67.166 184.5 125.499 231.5s142.166 70.5 251.499 70.5c97.333 0 171.666 -13.667 222.999 -41s88 -64.5 110 -111.5s33 -132.5 33 -256.5l-2 -328c0 -92 3.66699 -160.5 11 -205.5s21 -92.833 41 -143.5h-228l-30 116
c-39.333 -46.667 -81.5 -81.667 -126.5 -105s-92.833 -35 -143.5 -35c-84.667 0 -154 28.5 -208 85.5s-81 132.833 -81 227.5c0 60 11 112.333 33 157s53 80.334 93 107.001s104 50.334 192 71.001c106.667 24.667 181 47.667 223 69c0 58.667 -4.16699 97.167 -12.5 115.5
s-23.666 33.333 -45.999 45s-53.833 17.5 -94.5 17.5c-41.333 0 -73.833 -9.33301 -97.5 -28s-42.834 -53.667 -57.501 -105zM601.003 509.998c-29.333 -12 -75 -25.999 -137 -41.999c-71.333 -18.667 -118 -39.334 -140 -62.001s-33 -52 -33 -88
c0 -40.667 12.167 -74.834 36.5 -102.501s54.833 -41.5 91.5 -41.5c32.667 0 65 11.167 97 33.5s54.167 48.833 66.5 79.5s18.5 86.334 18.5 167.001v56zM352.003 1192l113 299h259l-226 -299h-146z" />
    <glyph glyph-name="acircumflex" unicode="&#xe2;" 
d="M293 738l-208.997 45.998c25.333 107.333 67.166 184.5 125.499 231.5s142.166 70.5 251.499 70.5c97.333 0 171.666 -13.667 222.999 -41s88 -64.5 110 -111.5s33 -132.5 33 -256.5l-2 -328c0 -92 3.66699 -160.5 11 -205.5s21 -92.833 41 -143.5h-228l-30 116
c-39.333 -46.667 -81.5 -81.667 -126.5 -105s-92.833 -35 -143.5 -35c-84.667 0 -154 28.5 -208 85.5s-81 132.833 -81 227.5c0 60 11 112.333 33 157s53 80.334 93 107.001s104 50.334 192 71.001c106.667 24.667 181 47.667 223 69c0 58.667 -4.16699 97.167 -12.5 115.5
s-23.666 33.333 -45.999 45s-53.833 17.5 -94.5 17.5c-41.333 0 -73.833 -9.33301 -97.5 -28s-42.834 -53.667 -57.501 -105zM601.003 509.998c-29.333 -12 -75 -25.999 -137 -41.999c-71.333 -18.667 -118 -39.334 -140 -62.001s-33 -52 -33 -88
c0 -40.667 12.167 -74.834 36.5 -102.501s54.833 -41.5 91.5 -41.5c32.667 0 65 11.167 97 33.5s54.167 48.833 66.5 79.5s18.5 86.334 18.5 167.001v56zM191.003 1196l172 295h213l170 -295h-185l-95 149l-88 -149h-187z" />
    <glyph glyph-name="atilde" unicode="&#xe3;" 
d="M293 738l-208.997 45.998c25.333 107.333 67.166 184.5 125.499 231.5s142.166 70.5 251.499 70.5c97.333 0 171.666 -13.667 222.999 -41s88 -64.5 110 -111.5s33 -132.5 33 -256.5l-2 -328c0 -92 3.66699 -160.5 11 -205.5s21 -92.833 41 -143.5h-228l-30 116
c-39.333 -46.667 -81.5 -81.667 -126.5 -105s-92.833 -35 -143.5 -35c-84.667 0 -154 28.5 -208 85.5s-81 132.833 -81 227.5c0 60 11 112.333 33 157s53 80.334 93 107.001s104 50.334 192 71.001c106.667 24.667 181 47.667 223 69c0 58.667 -4.16699 97.167 -12.5 115.5
s-23.666 33.333 -45.999 45s-53.833 17.5 -94.5 17.5c-41.333 0 -73.833 -9.33301 -97.5 -28s-42.834 -53.667 -57.501 -105zM601.003 509.998c-29.333 -12 -75 -25.999 -137 -41.999c-71.333 -18.667 -118 -39.334 -140 -62.001s-33 -52 -33 -88
c0 -40.667 12.167 -74.834 36.5 -102.501s54.833 -41.5 91.5 -41.5c32.667 0 65 11.167 97 33.5s54.167 48.833 66.5 79.5s18.5 86.334 18.5 167.001v56zM290.003 1205l-104.001 0.000976562l-1 33c0 73.333 14.167 128.5 42.5 165.5s64.166 55.5 107.499 55.5
c18.667 0 36.334 -2.66699 53.001 -8s43.667 -18 81 -38c49.333 -26.667 86 -40 110 -40c38 0 60.333 29 67 87h106c-0.666992 -90.667 -14.5 -155.167 -41.5 -193.5s-61.833 -57.5 -104.5 -57.5c-18 0 -35.667 2.33301 -53 7c-12.667 3.33301 -42 15.666 -88 36.999
c-55.333 26 -94.666 39 -117.999 39c-16.667 0 -30.167 -6.5 -40.5 -19.5s-15.833 -35.5 -16.5 -67.5z" />
    <glyph glyph-name="adieresis" unicode="&#xe4;" 
d="M293 738l-208.997 45.998c25.333 107.333 67.166 184.5 125.499 231.5s142.166 70.5 251.499 70.5c97.333 0 171.666 -13.667 222.999 -41s88 -64.5 110 -111.5s33 -132.5 33 -256.5l-2 -328c0 -92 3.66699 -160.5 11 -205.5s21 -92.833 41 -143.5h-228l-30 116
c-39.333 -46.667 -81.5 -81.667 -126.5 -105s-92.833 -35 -143.5 -35c-84.667 0 -154 28.5 -208 85.5s-81 132.833 -81 227.5c0 60 11 112.333 33 157s53 80.334 93 107.001s104 50.334 192 71.001c106.667 24.667 181 47.667 223 69c0 58.667 -4.16699 97.167 -12.5 115.5
s-23.666 33.333 -45.999 45s-53.833 17.5 -94.5 17.5c-41.333 0 -73.833 -9.33301 -97.5 -28s-42.834 -53.667 -57.501 -105zM601.003 509.998c-29.333 -12 -75 -25.999 -137 -41.999c-71.333 -18.667 -118 -39.334 -140 -62.001s-33 -52 -33 -88
c0 -40.667 12.167 -74.834 36.5 -102.501s54.833 -41.5 91.5 -41.5c32.667 0 65 11.167 97 33.5s54.167 48.833 66.5 79.5s18.5 86.334 18.5 167.001v56zM193.003 1250v241h198v-241h-198zM546.003 1250v241h198v-241h-198z" />
    <glyph glyph-name="aring" unicode="&#xe5;" 
d="M293 738l-208.997 45.998c25.333 107.333 67.166 184.5 125.499 231.5s142.166 70.5 251.499 70.5c97.333 0 171.666 -13.667 222.999 -41s88 -64.5 110 -111.5s33 -132.5 33 -256.5l-2 -328c0 -92 3.66699 -160.5 11 -205.5s21 -92.833 41 -143.5h-228l-30 116
c-39.333 -46.667 -81.5 -81.667 -126.5 -105s-92.833 -35 -143.5 -35c-84.667 0 -154 28.5 -208 85.5s-81 132.833 -81 227.5c0 60 11 112.333 33 157s53 80.334 93 107.001s104 50.334 192 71.001c106.667 24.667 181 47.667 223 69c0 58.667 -4.16699 97.167 -12.5 115.5
s-23.666 33.333 -45.999 45s-53.833 17.5 -94.5 17.5c-41.333 0 -73.833 -9.33301 -97.5 -28s-42.834 -53.667 -57.501 -105zM601.003 509.998c-29.333 -12 -75 -25.999 -137 -41.999c-71.333 -18.667 -118 -39.334 -140 -62.001s-33 -52 -33 -88
c0 -40.667 12.167 -74.834 36.5 -102.501s54.833 -41.5 91.5 -41.5c32.667 0 65 11.167 97 33.5s54.167 48.833 66.5 79.5s18.5 86.334 18.5 167.001v56zM630.003 1342c0 -56 -16.167 -102.667 -48.5 -140s-69.833 -56 -112.5 -56s-80.167 18.667 -112.5 56
s-48.5 84 -48.5 140c0 56.667 16 103.5 48 140.5s69.667 55.5 113 55.5c42.667 0 80.167 -18.5 112.5 -55.5s48.5 -83.833 48.5 -140.5zM542.003 1342c0 26 -7.33301 47.333 -22 64s-31.667 25 -51 25s-36.333 -8.33301 -51 -25s-22 -38 -22 -64
c0 -25.333 7.33301 -46.5 22 -63.5s31.667 -25.5 51 -25.5s36.333 8.5 51 25.5s22 38.167 22 63.5z" />
    <glyph glyph-name="ae" unicode="&#xe6;" horiz-adv-x="1493" 
d="M1177 339l226.001 -49.001c-62.667 -209.333 -190.667 -314 -384 -314c-124 0 -228 48.667 -312 146c-40.667 -43.333 -91.834 -78.5 -153.501 -105.5s-123.167 -40.5 -184.5 -40.5c-90 0 -162 28.5 -216 85.5s-81 132.5 -81 226.5c0 71.333 16.667 134.333 50 189
c25.333 42 63.666 75 114.999 99c32.667 16 110.334 39.333 233.001 70c53.333 14 99.333 28.667 138 44c0 54 -4.5 91.333 -13.5 112s-24.5 37.334 -46.5 50.001s-49.667 19 -83 19c-42 0 -76.167 -10.333 -102.5 -31s-45.5 -54.667 -57.5 -102l-208 49
c28 107.333 72 184 132 230s148.333 69 265 69c114.667 0 203.334 -32.667 266.001 -98c67.333 65.333 146.666 98 237.999 98c84 0 156.833 -21.833 218.5 -65.5s110 -110 145 -199s52.5 -213.5 52.5 -373.5h-579c16.667 -172 77 -258 181 -258
c79.333 0 133 49.667 161 149zM1187 623.999c-4 65.333 -13.5 114.168 -28.5 146.501s-35.667 57.166 -62 74.499s-55.833 26 -88.5 26c-56 0 -98.833 -25.833 -128.5 -77.5s-43.5 -108.167 -41.5 -169.5h349zM606.001 508.001c-136 -44.667 -208.667 -69.3311 -218 -73.998
c-30 -12.667 -51.667 -29.167 -65 -49.5s-20 -43.833 -20 -70.5c0 -40.667 12.167 -74.167 36.5 -100.5s54.833 -39.5 91.5 -39.5c34.667 0 67.5 11.667 98.5 35s51.5 51.666 61.5 84.999s15 104.666 15 213.999z" />
    <glyph glyph-name="ccedilla" unicode="&#xe7;" 
d="M880 748l-226.999 -50c-16.667 111.333 -69 167 -157 167c-56.667 0 -102.334 -24 -137.001 -72s-52 -129 -52 -243c0 -126 17.333 -215 52 -267s81 -78 139 -78c43.333 0 79 14.833 107 44.5s48 82.167 60 157.5l227 -47c-46.667 -256 -181 -384 -403 -384
c-142 0 -247.333 54 -316 162s-103 238 -103 390c0 182 38.833 320.5 116.5 415.5s179.5 142.5 305.5 142.5c102 0 185.167 -27 249.5 -81s110.5 -139.667 138.5 -257zM251.001 -403l-0.00195312 117.999c56 -7.33301 107.667 -11 155 -11c45.333 0 79.333 8.83301 102 26.5
s34 40.167 34 67.5c0 24.667 -9.16699 44.834 -27.5 60.501s-44.166 23.5 -77.499 23.5c-34.667 0 -70.334 -6.66699 -107.001 -20l21 99c42.667 18 89.334 27 140.001 27c62.667 0 112.834 -17.5 150.501 -52.5s56.5 -80.5 56.5 -136.5c0 -64 -25 -116.333 -75 -157
s-120.667 -61 -212 -61c-70.667 0 -124 5.33301 -160 16z" />
    <glyph glyph-name="egrave" unicode="&#xe8;" 
d="M626 338l229.003 -47c-30.667 -106.667 -78.334 -185.834 -143.001 -237.501s-143.334 -77.5 -236.001 -77.5c-128.667 0 -228 43 -298 129c-82.667 100 -124 240 -124 420c0 177.333 41.667 319.333 125 426c70.667 90 162 135 274 135
c124.667 0 222.334 -46 293.001 -138c81.333 -105.333 122 -260.666 122 -465.999l-1 -32h-577c1.33301 -84 20.166 -149 56.499 -195s80.166 -69 131.499 -69c74 0 123.333 50.667 148 152zM639.003 622c-2 82.667 -19.667 144.833 -53 186.5s-73 62.5 -119 62.5
c-48.667 0 -89.667 -21.667 -123 -65c-34 -44 -50.667 -105.333 -50 -184h345zM578.003 1192h-146l-226 299h258z" />
    <glyph glyph-name="eacute" unicode="&#xe9;" 
d="M626 338l229.003 -47c-30.667 -106.667 -78.334 -185.834 -143.001 -237.501s-143.334 -77.5 -236.001 -77.5c-128.667 0 -228 43 -298 129c-82.667 100 -124 240 -124 420c0 177.333 41.667 319.333 125 426c70.667 90 162 135 274 135
c124.667 0 222.334 -46 293.001 -138c81.333 -105.333 122 -260.666 122 -465.999l-1 -32h-577c1.33301 -84 20.166 -149 56.499 -195s80.166 -69 131.499 -69c74 0 123.333 50.667 148 152zM639.003 622c-2 82.667 -19.667 144.833 -53 186.5s-73 62.5 -119 62.5
c-48.667 0 -89.667 -21.667 -123 -65c-34 -44 -50.667 -105.333 -50 -184h345zM344.003 1192l113 299h259l-226 -299h-146z" />
    <glyph glyph-name="ecircumflex" unicode="&#xea;" 
d="M626 338l229.003 -47c-30.667 -106.667 -78.334 -185.834 -143.001 -237.501s-143.334 -77.5 -236.001 -77.5c-128.667 0 -228 43 -298 129c-82.667 100 -124 240 -124 420c0 177.333 41.667 319.333 125 426c70.667 90 162 135 274 135
c124.667 0 222.334 -46 293.001 -138c81.333 -105.333 122 -260.666 122 -465.999l-1 -32h-577c1.33301 -84 20.166 -149 56.499 -195s80.166 -69 131.499 -69c74 0 123.333 50.667 148 152zM639.003 622c-2 82.667 -19.667 144.833 -53 186.5s-73 62.5 -119 62.5
c-48.667 0 -89.667 -21.667 -123 -65c-34 -44 -50.667 -105.333 -50 -184h345zM183.003 1196l172 295h213l170 -295h-185l-95 149l-88 -149h-187z" />
    <glyph glyph-name="edieresis" unicode="&#xeb;" 
d="M626 338l229.003 -47c-30.667 -106.667 -78.334 -185.834 -143.001 -237.501s-143.334 -77.5 -236.001 -77.5c-128.667 0 -228 43 -298 129c-82.667 100 -124 240 -124 420c0 177.333 41.667 319.333 125 426c70.667 90 162 135 274 135
c124.667 0 222.334 -46 293.001 -138c81.333 -105.333 122 -260.666 122 -465.999l-1 -32h-577c1.33301 -84 20.166 -149 56.499 -195s80.166 -69 131.499 -69c74 0 123.333 50.667 148 152zM639.003 622c-2 82.667 -19.667 144.833 -53 186.5s-73 62.5 -119 62.5
c-48.667 0 -89.667 -21.667 -123 -65c-34 -44 -50.667 -105.333 -50 -184h345zM185.003 1250v241h198v-241h-198zM538.003 1250v241h198v-241h-198z" />
    <glyph glyph-name="igrave" unicode="&#xec;" horiz-adv-x="467" 
d="M121 0v1062h231v-1062h-231zM353 1192h-146l-226 299h258z" />
    <glyph glyph-name="iacute" unicode="&#xed;" horiz-adv-x="467" 
d="M121 0v1062h231v-1062h-231zM120 1192l113 299h259l-226 -299h-146z" />
    <glyph glyph-name="icircumflex" unicode="&#xee;" horiz-adv-x="467" 
d="M121 0v1062h231v-1062h-231zM-41 1196l172 295h213l170 -295h-185l-95 149l-88 -149h-187z" />
    <glyph glyph-name="idieresis" unicode="&#xef;" horiz-adv-x="467" 
d="M121 0v1062h231v-1062h-231zM-39 1250v241h198v-241h-198zM314 1250v241h198v-241h-198z" />
    <glyph glyph-name="eth" unicode="&#xf0;" horiz-adv-x="1026" 
d="M272 1466h241.002l89 -89l148 89l37 -98l-118 -67c100 -123.333 174.167 -249.333 222.5 -378s72.5 -255.334 72.5 -380.001c0 -176.667 -43.333 -315.5 -130 -416.5s-194.334 -151.5 -323.001 -151.5c-124.667 0 -227 47.333 -307 142
c-90.667 107.333 -136 246 -136 416c0 167.333 47 303.333 141 408c72 80.667 152.333 121 241 121c28.667 0 56 -4.5 82 -13.5s59.333 -27.5 100 -55.5c-32.667 72.667 -72.334 145 -119.001 217l-206 -119l-35 96l179 103c-54 60.667 -113.667 119.334 -179 176.001z
M308.002 530c0 -106.667 19.999 -187.668 59.999 -243.001s88.333 -83 145 -83c57.333 0 106.833 27.667 148.5 83s62.5 133 62.5 233c0 100.667 -21.333 179.334 -64 236.001s-92 85 -148 85c-55.333 0 -103.166 -26.667 -143.499 -80s-60.5 -130.333 -60.5 -231z" />
    <glyph glyph-name="ntilde" unicode="&#xf1;" horiz-adv-x="1026" 
d="M913 0h-230.998v542c0 108.667 -4.33301 181 -13 217s-24.834 63.667 -48.501 83s-50.5 29 -80.5 29c-38.667 0 -73.667 -12.5 -105 -37.5s-53.333 -59.5 -66 -103.5s-19 -127 -19 -249v-481h-231v1062h214v-156c38 60 80.833 105 128.5 135s100.5 45 158.5 45
c67.333 0 124.166 -17.5 170.499 -52.5s78.333 -80 96 -135s26.5 -134.5 26.5 -238.5v-660zM337.002 1205l-104.001 0.000976562l-1 33c0 73.333 14.167 128.5 42.5 165.5s64.166 55.5 107.499 55.5c18.667 0 36.334 -2.66699 53.001 -8s43.667 -18 81 -38
c49.333 -26.667 86 -40 110 -40c38 0 60.333 29 67 87h106c-0.666992 -90.667 -14.5 -155.167 -41.5 -193.5s-61.833 -57.5 -104.5 -57.5c-18 0 -35.667 2.33301 -53 7c-12.667 3.33301 -42 15.666 -88 36.999c-55.333 26 -94.666 39 -117.999 39
c-16.667 0 -30.167 -6.5 -40.5 -19.5s-15.833 -35.5 -16.5 -67.5z" />
    <glyph glyph-name="ograve" unicode="&#xf2;" horiz-adv-x="1026" 
d="M67 546c0 104 20.668 198.667 62.001 284s95.333 149.333 162 192s141.667 64 225 64c140 0 250 -54.833 330 -164.5s120 -237.834 120 -384.501c0 -109.333 -20.833 -208 -62.5 -296s-96.334 -154.167 -164.001 -198.5s-141.834 -66.5 -222.501 -66.5
c-129.333 0 -236.666 49.333 -321.999 148s-128 239.334 -128 422.001zM303.001 531c0 -107.333 21 -188.499 63 -243.499s92.667 -82.5 152 -82.5c58 0 107.667 27.667 149 83s62 137 62 245c0 105.333 -21 185.666 -63 240.999s-92.333 83 -151 83
c-58 0 -107.833 -27.667 -149.5 -83s-62.5 -136.333 -62.5 -243zM633.001 1192h-146l-226 299h258z" />
    <glyph glyph-name="oacute" unicode="&#xf3;" horiz-adv-x="1026" 
d="M67 546c0 104 20.668 198.667 62.001 284s95.333 149.333 162 192s141.667 64 225 64c140 0 250 -54.833 330 -164.5s120 -237.834 120 -384.501c0 -109.333 -20.833 -208 -62.5 -296s-96.334 -154.167 -164.001 -198.5s-141.834 -66.5 -222.501 -66.5
c-129.333 0 -236.666 49.333 -321.999 148s-128 239.334 -128 422.001zM303.001 531c0 -107.333 21 -188.499 63 -243.499s92.667 -82.5 152 -82.5c58 0 107.667 27.667 149 83s62 137 62 245c0 105.333 -21 185.666 -63 240.999s-92.333 83 -151 83
c-58 0 -107.833 -27.667 -149.5 -83s-62.5 -136.333 -62.5 -243zM400.001 1192l113 299h259l-226 -299h-146z" />
    <glyph glyph-name="ocircumflex" unicode="&#xf4;" horiz-adv-x="1026" 
d="M67 546c0 104 20.668 198.667 62.001 284s95.333 149.333 162 192s141.667 64 225 64c140 0 250 -54.833 330 -164.5s120 -237.834 120 -384.501c0 -109.333 -20.833 -208 -62.5 -296s-96.334 -154.167 -164.001 -198.5s-141.834 -66.5 -222.501 -66.5
c-129.333 0 -236.666 49.333 -321.999 148s-128 239.334 -128 422.001zM303.001 531c0 -107.333 21 -188.499 63 -243.499s92.667 -82.5 152 -82.5c58 0 107.667 27.667 149 83s62 137 62 245c0 105.333 -21 185.666 -63 240.999s-92.333 83 -151 83
c-58 0 -107.833 -27.667 -149.5 -83s-62.5 -136.333 -62.5 -243zM239.001 1196l172 295h213l170 -295h-185l-95 149l-88 -149h-187z" />
    <glyph glyph-name="otilde" unicode="&#xf5;" horiz-adv-x="1026" 
d="M67 546c0 104 20.668 198.667 62.001 284s95.333 149.333 162 192s141.667 64 225 64c140 0 250 -54.833 330 -164.5s120 -237.834 120 -384.501c0 -109.333 -20.833 -208 -62.5 -296s-96.334 -154.167 -164.001 -198.5s-141.834 -66.5 -222.501 -66.5
c-129.333 0 -236.666 49.333 -321.999 148s-128 239.334 -128 422.001zM303.001 531c0 -107.333 21 -188.499 63 -243.499s92.667 -82.5 152 -82.5c58 0 107.667 27.667 149 83s62 137 62 245c0 105.333 -21 185.666 -63 240.999s-92.333 83 -151 83
c-58 0 -107.833 -27.667 -149.5 -83s-62.5 -136.333 -62.5 -243zM338.001 1205l-104.001 0.000976562l-1 33c0 73.333 14.167 128.5 42.5 165.5s64.166 55.5 107.499 55.5c18.667 0 36.334 -2.66699 53.001 -8s43.667 -18 81 -38c49.333 -26.667 86 -40 110 -40
c38 0 60.333 29 67 87h106c-0.666992 -90.667 -14.5 -155.167 -41.5 -193.5s-61.833 -57.5 -104.5 -57.5c-18 0 -35.667 2.33301 -53 7c-12.667 3.33301 -42 15.666 -88 36.999c-55.333 26 -94.666 39 -117.999 39c-16.667 0 -30.167 -6.5 -40.5 -19.5
s-15.833 -35.5 -16.5 -67.5z" />
    <glyph glyph-name="odieresis" unicode="&#xf6;" horiz-adv-x="1026" 
d="M67 546c0 104 20.668 198.667 62.001 284s95.333 149.333 162 192s141.667 64 225 64c140 0 250 -54.833 330 -164.5s120 -237.834 120 -384.501c0 -109.333 -20.833 -208 -62.5 -296s-96.334 -154.167 -164.001 -198.5s-141.834 -66.5 -222.501 -66.5
c-129.333 0 -236.666 49.333 -321.999 148s-128 239.334 -128 422.001zM303.001 531c0 -107.333 21 -188.499 63 -243.499s92.667 -82.5 152 -82.5c58 0 107.667 27.667 149 83s62 137 62 245c0 105.333 -21 185.666 -63 240.999s-92.333 83 -151 83
c-58 0 -107.833 -27.667 -149.5 -83s-62.5 -136.333 -62.5 -243zM241.001 1250v241h198v-241h-198zM594.001 1250v241h198v-241h-198z" />
    <glyph glyph-name="divide" unicode="&#xf7;" horiz-adv-x="1124" 
d="M421 981v281h281v-281h-281zM49 592v263h1025v-263h-1025zM421 185v281h281v-281h-281z" />
    <glyph glyph-name="oslash" unicode="&#xf8;" horiz-adv-x="1026" 
d="M777 999l85.0029 120l92 -92l-89 -124c30.667 -44 56 -99 76 -165s30 -134.333 30 -205c0 -108.667 -20.833 -206.334 -62.5 -293.001s-96.834 -152.334 -165.501 -197.001s-143.334 -67 -224.001 -67c-93.333 0 -177.333 28 -252 84l-95 -133l-89 95l94 134
c-70 104.667 -105 232.334 -105 383.001c0 106.667 20.333 202.834 61 288.501s94.667 150.167 162 193.5s142.666 65 225.999 65c98 0 183.333 -29 256 -87zM647.003 817c-36.667 36 -78.333 54 -125 54c-60 0 -112 -28.667 -156 -86s-66 -139 -66 -245
c0 -66.667 8 -126 24 -178zM717.004 695l-321 -452.999c36.667 -32 77.667 -48 123 -48c62 0 114.667 28.333 158 85s65 138 65 244c0 59.333 -8.33301 116.666 -25 171.999z" />
    <glyph glyph-name="ugrave" unicode="&#xf9;" horiz-adv-x="1026" 
d="M693 0l-0.00292969 159.001c-32 -57.333 -74 -102.166 -126 -134.499s-106.333 -48.5 -163 -48.5c-57.333 0 -108.666 15 -153.999 45s-79.166 72.667 -101.499 128s-33.5 135.666 -33.5 240.999v672h231v-488c0 -139.333 3.5 -227.833 10.5 -265.5
s22.5 -66.834 46.5 -87.501s53 -31 87 -31c38.667 0 74.334 13.5 107.001 40.5s54.167 61.667 64.5 104s15.5 135.5 15.5 279.5v448h230v-1062h-214zM627.997 1192h-146l-226 299h258z" />
    <glyph glyph-name="uacute" unicode="&#xfa;" horiz-adv-x="1026" 
d="M693 0l-0.00292969 159.001c-32 -57.333 -74 -102.166 -126 -134.499s-106.333 -48.5 -163 -48.5c-57.333 0 -108.666 15 -153.999 45s-79.166 72.667 -101.499 128s-33.5 135.666 -33.5 240.999v672h231v-488c0 -139.333 3.5 -227.833 10.5 -265.5
s22.5 -66.834 46.5 -87.501s53 -31 87 -31c38.667 0 74.334 13.5 107.001 40.5s54.167 61.667 64.5 104s15.5 135.5 15.5 279.5v448h230v-1062h-214zM394.997 1192l113 299h259l-226 -299h-146z" />
    <glyph glyph-name="ucircumflex" unicode="&#xfb;" horiz-adv-x="1026" 
d="M693 0l-0.00292969 159.001c-32 -57.333 -74 -102.166 -126 -134.499s-106.333 -48.5 -163 -48.5c-57.333 0 -108.666 15 -153.999 45s-79.166 72.667 -101.499 128s-33.5 135.666 -33.5 240.999v672h231v-488c0 -139.333 3.5 -227.833 10.5 -265.5
s22.5 -66.834 46.5 -87.501s53 -31 87 -31c38.667 0 74.334 13.5 107.001 40.5s54.167 61.667 64.5 104s15.5 135.5 15.5 279.5v448h230v-1062h-214zM232.997 1196l172 295h213l170 -295h-185l-95 149l-88 -149h-187z" />
    <glyph glyph-name="udieresis" unicode="&#xfc;" horiz-adv-x="1026" 
d="M693 0l-0.00292969 159.001c-32 -57.333 -74 -102.166 -126 -134.499s-106.333 -48.5 -163 -48.5c-57.333 0 -108.666 15 -153.999 45s-79.166 72.667 -101.499 128s-33.5 135.666 -33.5 240.999v672h231v-488c0 -139.333 3.5 -227.833 10.5 -265.5
s22.5 -66.834 46.5 -87.501s53 -31 87 -31c38.667 0 74.334 13.5 107.001 40.5s54.167 61.667 64.5 104s15.5 135.5 15.5 279.5v448h230v-1062h-214zM235.997 1250v241h198v-241h-198zM588.997 1250v241h198v-241h-198z" />
    <glyph glyph-name="yacute" unicode="&#xfd;" 
d="M11 1062l246.002 0.00292969l207 -754l204 754h238l-307 -1022l-59 -199c-26 -74.667 -51.833 -129.334 -77.5 -164.001s-58.334 -61.334 -98.001 -80.001s-88.5 -28 -146.5 -28c-44.667 0 -88.334 5.66699 -131.001 17l-20 220c36 -8.66699 68.333 -13 97 -13
c44 0 80.167 14.667 108.5 44s51.5 82.666 69.5 159.999zM342.002 1192l113 299h259l-226 -299h-146z" />
    <glyph glyph-name="thorn" unicode="&#xfe;" horiz-adv-x="1026" 
d="M114 1466h230.999v-528c46 57.333 88.333 96.333 127 117s81.334 31 128.001 31c99.333 0 184.833 -47.333 256.5 -142s107.5 -229 107.5 -403c0 -182.667 -36 -322.5 -108 -419.5s-157.667 -145.5 -257 -145.5c-46 0 -88.833 11.167 -128.5 33.5
s-81.5 62.833 -125.5 121.5v-535h-231v1870zM342.999 554c0 -91.333 8.66602 -161.001 25.999 -209.001s42 -84.5 74 -109.5s65.667 -37.5 101 -37.5c50.667 0 94 26.5 130 79.5s54 136.833 54 251.5c0 120.667 -18.167 207.834 -54.5 261.501s-82.5 80.5 -138.5 80.5
c-53.333 0 -98.666 -26 -135.999 -78s-56 -131.667 -56 -239z" />
    <glyph glyph-name="ydieresis" unicode="&#xff;" 
d="M11 1062l246.002 0.00292969l207 -754l204 754h238l-307 -1022l-59 -199c-26 -74.667 -51.833 -129.334 -77.5 -164.001s-58.334 -61.334 -98.001 -80.001s-88.5 -28 -146.5 -28c-44.667 0 -88.334 5.66699 -131.001 17l-20 220c36 -8.66699 68.333 -13 97 -13
c44 0 80.167 14.667 108.5 44s51.5 82.666 69.5 159.999zM188.002 1250v241h198v-241h-198zM541.002 1250v241h198v-241h-198z" />
    <glyph glyph-name="Amacron" unicode="&#x100;" horiz-adv-x="1212" 
d="M1206 0h-264l-105 333h-480l-99 -333h-258l468 1466h257zM759 580l-165 544l-163 -544h328zM328 1621v185h528v-185h-528z" />
    <glyph glyph-name="amacron" unicode="&#x101;" 
d="M293 738l-208.997 45.998c25.333 107.333 67.166 184.5 125.499 231.5s142.166 70.5 251.499 70.5c97.333 0 171.666 -13.667 222.999 -41s88 -64.5 110 -111.5s33 -132.5 33 -256.5l-2 -328c0 -92 3.66699 -160.5 11 -205.5s21 -92.833 41 -143.5h-228l-30 116
c-39.333 -46.667 -81.5 -81.667 -126.5 -105s-92.833 -35 -143.5 -35c-84.667 0 -154 28.5 -208 85.5s-81 132.833 -81 227.5c0 60 11 112.333 33 157s53 80.334 93 107.001s104 50.334 192 71.001c106.667 24.667 181 47.667 223 69c0 58.667 -4.16699 97.167 -12.5 115.5
s-23.666 33.333 -45.999 45s-53.833 17.5 -94.5 17.5c-41.333 0 -73.833 -9.33301 -97.5 -28s-42.834 -53.667 -57.501 -105zM601.003 509.998c-29.333 -12 -75 -25.999 -137 -41.999c-71.333 -18.667 -118 -39.334 -140 -62.001s-33 -52 -33 -88
c0 -40.667 12.167 -74.834 36.5 -102.501s54.833 -41.5 91.5 -41.5c32.667 0 65 11.167 97 33.5s54.167 48.833 66.5 79.5s18.5 86.334 18.5 167.001v56zM217.003 1250v185h528v-185h-528z" />
    <glyph glyph-name="Abreve" unicode="&#x102;" horiz-adv-x="1212" 
d="M1206 0h-264l-105 333h-480l-99 -333h-258l468 1466h257zM759 580l-165 544l-163 -544h328zM751 1863h112c-6 -93.333 -32.5 -165.166 -79.5 -215.499s-105.5 -75.5 -175.5 -75.5s-128.5 25.167 -175.5 75.5s-73.833 122.166 -80.5 215.499h112
c8.66699 -96 56.667 -144 144 -144s135 48 143 144z" />
    <glyph glyph-name="abreve" unicode="&#x103;" 
d="M293 738l-208.997 45.998c25.333 107.333 67.166 184.5 125.499 231.5s142.166 70.5 251.499 70.5c97.333 0 171.666 -13.667 222.999 -41s88 -64.5 110 -111.5s33 -132.5 33 -256.5l-2 -328c0 -92 3.66699 -160.5 11 -205.5s21 -92.833 41 -143.5h-228l-30 116
c-39.333 -46.667 -81.5 -81.667 -126.5 -105s-92.833 -35 -143.5 -35c-84.667 0 -154 28.5 -208 85.5s-81 132.833 -81 227.5c0 60 11 112.333 33 157s53 80.334 93 107.001s104 50.334 192 71.001c106.667 24.667 181 47.667 223 69c0 58.667 -4.16699 97.167 -12.5 115.5
s-23.666 33.333 -45.999 45s-53.833 17.5 -94.5 17.5c-41.333 0 -73.833 -9.33301 -97.5 -28s-42.834 -53.667 -57.501 -105zM601.003 509.998c-29.333 -12 -75 -25.999 -137 -41.999c-71.333 -18.667 -118 -39.334 -140 -62.001s-33 -52 -33 -88
c0 -40.667 12.167 -74.834 36.5 -102.501s54.833 -41.5 91.5 -41.5c32.667 0 65 11.167 97 33.5s54.167 48.833 66.5 79.5s18.5 86.334 18.5 167.001v56zM628.003 1491h112c-6 -93.333 -32.5 -165.166 -79.5 -215.499s-105.5 -75.5 -175.5 -75.5s-128.5 25.167 -175.5 75.5
s-73.833 122.166 -80.5 215.499h112c8.66699 -96 56.667 -144 144 -144s135 48 143 144z" />
    <glyph glyph-name="Aogonek" unicode="&#x104;" horiz-adv-x="1212" 
d="M1206 0h-264l-105 333h-480l-99 -333h-258l468 1466h257zM759 580l-165 544l-163 -544h328zM947 26l123.002 -0.000976562c-11.333 -37.333 -17 -85.333 -17 -144c0 -54.667 10.333 -94.667 31 -120s50 -38 88 -38c33.333 0 70 7.66699 110 23v-135
c-54.667 -28.667 -108.334 -43 -161.001 -43c-60.667 0 -109.834 20.333 -147.501 61s-56.5 98 -56.5 172c0 58.667 10 133.334 30 224.001z" />
    <glyph glyph-name="aogonek" unicode="&#x105;" 
d="M293 738l-208.997 45.998c25.333 107.333 67.166 184.5 125.499 231.5s142.166 70.5 251.499 70.5c97.333 0 171.666 -13.667 222.999 -41s88 -64.5 110 -111.5s33 -132.5 33 -256.5l-2 -328c0 -92 3.66699 -160.5 11 -205.5s21 -92.833 41 -143.5h-228l-30 116
c-39.333 -46.667 -81.5 -81.667 -126.5 -105s-92.833 -35 -143.5 -35c-84.667 0 -154 28.5 -208 85.5s-81 132.833 -81 227.5c0 60 11 112.333 33 157s53 80.334 93 107.001s104 50.334 192 71.001c106.667 24.667 181 47.667 223 69c0 58.667 -4.16699 97.167 -12.5 115.5
s-23.666 33.333 -45.999 45s-53.833 17.5 -94.5 17.5c-41.333 0 -73.833 -9.33301 -97.5 -28s-42.834 -53.667 -57.501 -105zM601.003 509.998c-29.333 -12 -75 -25.999 -137 -41.999c-71.333 -18.667 -118 -39.334 -140 -62.001s-33 -52 -33 -88
c0 -40.667 12.167 -74.834 36.5 -102.501s54.833 -41.5 91.5 -41.5c32.667 0 65 11.167 97 33.5s54.167 48.833 66.5 79.5s18.5 86.334 18.5 167.001v56zM646.003 25.999l123.002 -0.000976562c-11.333 -37.333 -17 -85.333 -17 -144c0 -54.667 10.333 -94.667 31 -120
s50 -38 88 -38c33.333 0 70 7.66699 110 23v-135c-54.667 -28.667 -108.334 -43 -161.001 -43c-60.667 0 -109.834 20.333 -147.501 61s-56.5 98 -56.5 172c0 58.667 10 133.334 30 224.001z" />
    <glyph glyph-name="Cacute" unicode="&#x106;" horiz-adv-x="1212" 
d="M892 539l234.998 -90.999c-36.667 -164 -97.667 -283.833 -183 -359.5s-190.333 -113.5 -315 -113.5c-156.667 0 -283.667 60.333 -381 181c-112 139.333 -168 327.333 -168 564c0 250 56.333 445.667 169 587c98 122.667 229.667 184 395 184
c134.667 0 247.334 -46 338.001 -138c64.667 -65.333 112 -162.333 142 -291l-240 -70c-15.333 79.333 -45.833 140.166 -91.5 182.499s-99.5 63.5 -161.5 63.5c-88.667 0 -161 -38.667 -217 -116s-84 -205 -84 -383c0 -184.667 27.333 -316 82 -394s125.667 -117 213 -117
c64 0 119.333 24.833 166 74.5s80.334 128.5 101.001 236.5zM512.998 1564l113 299h259l-226 -299h-146z" />
    <glyph glyph-name="cacute" unicode="&#x107;" 
d="M880 748l-226.999 -50c-16.667 111.333 -69 167 -157 167c-56.667 0 -102.334 -24 -137.001 -72s-52 -129 -52 -243c0 -126 17.333 -215 52 -267s81 -78 139 -78c43.333 0 79 14.833 107 44.5s48 82.167 60 157.5l227 -47c-46.667 -256 -181 -384 -403 -384
c-142 0 -247.333 54 -316 162s-103 238 -103 390c0 182 38.833 320.5 116.5 415.5s179.5 142.5 305.5 142.5c102 0 185.167 -27 249.5 -81s110.5 -139.667 138.5 -257zM386.001 1192l113 299h259l-226 -299h-146z" />
    <glyph glyph-name="Ccircumflex" unicode="&#x108;" horiz-adv-x="1212" 
d="M892 539l234.998 -90.999c-36.667 -164 -97.667 -283.833 -183 -359.5s-190.333 -113.5 -315 -113.5c-156.667 0 -283.667 60.333 -381 181c-112 139.333 -168 327.333 -168 564c0 250 56.333 445.667 169 587c98 122.667 229.667 184 395 184
c134.667 0 247.334 -46 338.001 -138c64.667 -65.333 112 -162.333 142 -291l-240 -70c-15.333 79.333 -45.833 140.166 -91.5 182.499s-99.5 63.5 -161.5 63.5c-88.667 0 -161 -38.667 -217 -116s-84 -205 -84 -383c0 -184.667 27.333 -316 82 -394s125.667 -117 213 -117
c64 0 119.333 24.833 166 74.5s80.334 128.5 101.001 236.5zM331.998 1565l172 295h213l170 -295h-185l-95 149l-88 -149h-187z" />
    <glyph glyph-name="ccircumflex" unicode="&#x109;" 
d="M880 748l-226.999 -50c-16.667 111.333 -69 167 -157 167c-56.667 0 -102.334 -24 -137.001 -72s-52 -129 -52 -243c0 -126 17.333 -215 52 -267s81 -78 139 -78c43.333 0 79 14.833 107 44.5s48 82.167 60 157.5l227 -47c-46.667 -256 -181 -384 -403 -384
c-142 0 -247.333 54 -316 162s-103 238 -103 390c0 182 38.833 320.5 116.5 415.5s179.5 142.5 305.5 142.5c102 0 185.167 -27 249.5 -81s110.5 -139.667 138.5 -257zM199.001 1192l172 295h213l170 -295h-185l-95 149l-88 -149h-187z" />
    <glyph glyph-name="Cdot" unicode="&#x10a;" horiz-adv-x="1212" 
d="M892 539l234.998 -90.999c-36.667 -164 -97.667 -283.833 -183 -359.5s-190.333 -113.5 -315 -113.5c-156.667 0 -283.667 60.333 -381 181c-112 139.333 -168 327.333 -168 564c0 250 56.333 445.667 169 587c98 122.667 229.667 184 395 184
c134.667 0 247.334 -46 338.001 -138c64.667 -65.333 112 -162.333 142 -291l-240 -70c-15.333 79.333 -45.833 140.166 -91.5 182.499s-99.5 63.5 -161.5 63.5c-88.667 0 -161 -38.667 -217 -116s-84 -205 -84 -383c0 -184.667 27.333 -316 82 -394s125.667 -117 213 -117
c64 0 119.333 24.833 166 74.5s80.334 128.5 101.001 236.5zM497.998 1622v266h227v-266h-227z" />
    <glyph glyph-name="cdot" unicode="&#x10b;" 
d="M880 748l-226.999 -50c-16.667 111.333 -69 167 -157 167c-56.667 0 -102.334 -24 -137.001 -72s-52 -129 -52 -243c0 -126 17.333 -215 52 -267s81 -78 139 -78c43.333 0 79 14.833 107 44.5s48 82.167 60 157.5l227 -47c-46.667 -256 -181 -384 -403 -384
c-142 0 -247.333 54 -316 162s-103 238 -103 390c0 182 38.833 320.5 116.5 415.5s179.5 142.5 305.5 142.5c102 0 185.167 -27 249.5 -81s110.5 -139.667 138.5 -257zM374.001 1251v266h227v-266h-227z" />
    <glyph glyph-name="Ccaron" unicode="&#x10c;" horiz-adv-x="1212" 
d="M892 539l234.998 -90.999c-36.667 -164 -97.667 -283.833 -183 -359.5s-190.333 -113.5 -315 -113.5c-156.667 0 -283.667 60.333 -381 181c-112 139.333 -168 327.333 -168 564c0 250 56.333 445.667 169 587c98 122.667 229.667 184 395 184
c134.667 0 247.334 -46 338.001 -138c64.667 -65.333 112 -162.333 142 -291l-240 -70c-15.333 79.333 -45.833 140.166 -91.5 182.499s-99.5 63.5 -161.5 63.5c-88.667 0 -161 -38.667 -217 -116s-84 -205 -84 -383c0 -184.667 27.333 -316 82 -394s125.667 -117 213 -117
c64 0 119.333 24.833 166 74.5s80.334 128.5 101.001 236.5zM349.998 1862h187l88 -149l95 149h185l-170 -295h-213z" />
    <glyph glyph-name="ccaron" unicode="&#x10d;" 
d="M880 748l-226.999 -50c-16.667 111.333 -69 167 -157 167c-56.667 0 -102.334 -24 -137.001 -72s-52 -129 -52 -243c0 -126 17.333 -215 52 -267s81 -78 139 -78c43.333 0 79 14.833 107 44.5s48 82.167 60 157.5l227 -47c-46.667 -256 -181 -384 -403 -384
c-142 0 -247.333 54 -316 162s-103 238 -103 390c0 182 38.833 320.5 116.5 415.5s179.5 142.5 305.5 142.5c102 0 185.167 -27 249.5 -81s110.5 -139.667 138.5 -257zM235.001 1491h187l88 -149l95 149h185l-170 -295h-213z" />
    <glyph glyph-name="Dcaron" unicode="&#x10e;" horiz-adv-x="1212" 
d="M121 1466l443 0.00390625c112 0 196.5 -12.5 253.5 -37.5s109.5 -67.167 157.5 -126.5s85.667 -136.333 113 -231s41 -212.334 41 -353.001c0 -126.667 -14.333 -236.834 -43 -330.501s-65 -167.834 -109 -222.501s-97.167 -95.834 -159.5 -123.501
s-142.5 -41.5 -240.5 -41.5h-456v1466zM363 1218v-971.002h182c78 0 134.5 7.33301 169.5 22s63.667 36.834 86 66.501s40.833 76.5 55.5 140.5s22 148.333 22 253c0 108.667 -7.5 194.334 -22.5 257.001s-38.333 112 -70 148s-70.167 59.667 -115.5 71
c-34 8.66699 -99.667 13 -197 13h-110zM229 1863h187l88 -149l95 149h185l-170 -295h-213z" />
    <glyph glyph-name="dcaron" unicode="&#x10f;" horiz-adv-x="1206" 
d="M920 0l-215 0.000976562v156c-35.333 -60 -77 -105 -125 -135s-97.333 -45 -148 -45c-97.333 0 -182.166 48.5 -254.499 145.5s-108.5 235.5 -108.5 415.5c0 181.333 35.333 318.166 106 410.499s157.667 138.5 261 138.5c48.667 0 94.167 -12.333 136.5 -37
s81.166 -61.667 116.499 -111v528h231v-1466zM305 554.001c0 -96 8.16699 -167.5 24.5 -214.5s39.666 -82.333 69.999 -106s64.5 -35.5 102.5 -35.5c50.667 0 94.667 27.333 132 82s56 137 56 247c0 122 -18.167 209.833 -54.5 263.5s-82.5 80.5 -138.5 80.5
c-53.333 0 -98.666 -26.333 -135.999 -79s-56 -132 -56 -238zM999 1466l230.001 0.000976562v-202c0 -113.333 -13.333 -198 -40 -254c-32.667 -68 -87.334 -119 -164.001 -153l-45 117c45.333 18.667 78 44.167 98 76.5s30.667 77.166 32 134.499h-111v281z" />
    <glyph glyph-name="Dslash" unicode="&#x110;" horiz-adv-x="1212" 
d="M122 1466l443 0.000976562c111.333 0 195.666 -12.5 252.999 -37.5s109.833 -67 157.5 -126s85.167 -136.333 112.5 -232s41 -213.834 41 -354.501c0 -125.333 -14.333 -235 -43 -329s-65 -168.167 -109 -222.5s-97.167 -95.333 -159.5 -123
s-142.166 -41.5 -239.499 -41.5h-456v640h-125v186h125v640zM364 1218v-392.001h257v-186h-257v-393h182c77.333 0 133.666 7.33301 168.999 22s64 36.5 86 65.5s40.5 75.833 55.5 140.5s22.5 147.334 22.5 248.001c0 116.667 -8.16699 206.167 -24.5 268.5
s-40.333 111 -72 146s-70.5 57.833 -116.5 68.5c-33.333 8 -97.666 12 -192.999 12h-109z" />
    <glyph glyph-name="dmacron" unicode="&#x111;" horiz-adv-x="1032" 
d="M689 1201l-248 0.000976562v132h248v133h231v-133h90v-132h-90v-1201h-215v156c-35.333 -60 -77 -105 -125 -135s-97.333 -45 -148 -45c-97.333 0 -182.166 48.5 -254.499 145.5s-108.5 235.5 -108.5 415.5c0 181.333 35.333 318.166 106 410.499
s157.667 138.5 261 138.5c48.667 0 94.167 -12.333 136.5 -37s81.166 -61.667 116.499 -111v263zM305 554.001c0 -96 8.16699 -167.5 24.5 -214.5s39.666 -82.333 69.999 -106s64.5 -35.5 102.5 -35.5c50.667 0 94.667 27.333 132 82s56 137 56 247
c0 122 -18.167 209.833 -54.5 263.5s-82.5 80.5 -138.5 80.5c-53.333 0 -98.666 -26.333 -135.999 -79s-56 -132 -56 -238z" />
    <glyph glyph-name="Emacron" unicode="&#x112;" horiz-adv-x="1120" 
d="M123 0v1466h892v-248h-650v-325h604v-247h-604v-399h672v-247h-914zM315 1622v185h528v-185h-528z" />
    <glyph glyph-name="emacron" unicode="&#x113;" 
d="M626 338l229.003 -47c-30.667 -106.667 -78.334 -185.834 -143.001 -237.501s-143.334 -77.5 -236.001 -77.5c-128.667 0 -228 43 -298 129c-82.667 100 -124 240 -124 420c0 177.333 41.667 319.333 125 426c70.667 90 162 135 274 135
c124.667 0 222.334 -46 293.001 -138c81.333 -105.333 122 -260.666 122 -465.999l-1 -32h-577c1.33301 -84 20.166 -149 56.499 -195s80.166 -69 131.499 -69c74 0 123.333 50.667 148 152zM639.003 622c-2 82.667 -19.667 144.833 -53 186.5s-73 62.5 -119 62.5
c-48.667 0 -89.667 -21.667 -123 -65c-34 -44 -50.667 -105.333 -50 -184h345zM202.003 1250v185h528v-185h-528z" />
    <glyph glyph-name="Ebreve" unicode="&#x114;" horiz-adv-x="1120" 
d="M123 0v1466h892v-248h-650v-325h604v-247h-604v-399h672v-247h-914zM736 1856h112c-6 -93.333 -32.5 -165.166 -79.5 -215.499s-105.5 -75.5 -175.5 -75.5s-128.5 25.167 -175.5 75.5s-73.833 122.166 -80.5 215.499h112c8.66699 -96 56.667 -144 144 -144
s135 48 143 144z" />
    <glyph glyph-name="ebreve" unicode="&#x115;" 
d="M626 338l229.003 -47c-30.667 -106.667 -78.334 -185.834 -143.001 -237.501s-143.334 -77.5 -236.001 -77.5c-128.667 0 -228 43 -298 129c-82.667 100 -124 240 -124 420c0 177.333 41.667 319.333 125 426c70.667 90 162 135 274 135
c124.667 0 222.334 -46 293.001 -138c81.333 -105.333 122 -260.666 122 -465.999l-1 -32h-577c1.33301 -84 20.166 -149 56.499 -195s80.166 -69 131.499 -69c74 0 123.333 50.667 148 152zM639.003 622c-2 82.667 -19.667 144.833 -53 186.5s-73 62.5 -119 62.5
c-48.667 0 -89.667 -21.667 -123 -65c-34 -44 -50.667 -105.333 -50 -184h345zM618.003 1491h112c-6 -93.333 -32.5 -165.166 -79.5 -215.499s-105.5 -75.5 -175.5 -75.5s-128.5 25.167 -175.5 75.5s-73.833 122.166 -80.5 215.499h112c8.66699 -96 56.667 -144 144 -144
s135 48 143 144z" />
    <glyph glyph-name="Edot" unicode="&#x116;" horiz-adv-x="1120" 
d="M123 0v1466h892v-248h-650v-325h604v-247h-604v-399h672v-247h-914zM476 1622v266h227v-266h-227z" />
    <glyph glyph-name="edot" unicode="&#x117;" 
d="M626 338l229.003 -47c-30.667 -106.667 -78.334 -185.834 -143.001 -237.501s-143.334 -77.5 -236.001 -77.5c-128.667 0 -228 43 -298 129c-82.667 100 -124 240 -124 420c0 177.333 41.667 319.333 125 426c70.667 90 162 135 274 135
c124.667 0 222.334 -46 293.001 -138c81.333 -105.333 122 -260.666 122 -465.999l-1 -32h-577c1.33301 -84 20.166 -149 56.499 -195s80.166 -69 131.499 -69c74 0 123.333 50.667 148 152zM639.003 622c-2 82.667 -19.667 144.833 -53 186.5s-73 62.5 -119 62.5
c-48.667 0 -89.667 -21.667 -123 -65c-34 -44 -50.667 -105.333 -50 -184h345zM338.003 1249v266h227v-266h-227z" />
    <glyph glyph-name="Eogonek" unicode="&#x118;" horiz-adv-x="1120" 
d="M123 0v1466h892v-248h-650v-325h604v-247h-604v-399h672v-247h-914zM702 26l123.002 -0.000976562c-11.333 -37.333 -17 -85.333 -17 -144c0 -54.667 10.333 -94.667 31 -120s50 -38 88 -38c33.333 0 70 7.66699 110 23v-135c-54.667 -28.667 -108.334 -43 -161.001 -43
c-60.667 0 -109.834 20.333 -147.501 61s-56.5 98 -56.5 172c0 58.667 10 133.334 30 224.001z" />
    <glyph glyph-name="eogonek" unicode="&#x119;" 
d="M626 338l229.003 -47c-30.667 -106.667 -78.334 -185.834 -143.001 -237.501s-143.334 -77.5 -236.001 -77.5c-128.667 0 -228 43 -298 129c-82.667 100 -124 240 -124 420c0 177.333 41.667 319.333 125 426c70.667 90 162 135 274 135
c124.667 0 222.334 -46 293.001 -138c81.333 -105.333 122 -260.666 122 -465.999l-1 -32h-577c1.33301 -84 20.166 -149 56.499 -195s80.166 -69 131.499 -69c74 0 123.333 50.667 148 152zM639.003 622c-2 82.667 -19.667 144.833 -53 186.5s-73 62.5 -119 62.5
c-48.667 0 -89.667 -21.667 -123 -65c-34 -44 -50.667 -105.333 -50 -184h345zM430.003 25.999l123.002 -0.000976562c-11.333 -37.333 -17 -85.333 -17 -144c0 -54.667 10.333 -94.667 31 -120s50 -38 88 -38c33.333 0 70 7.66699 110 23v-135
c-54.667 -28.667 -108.334 -43 -161.001 -43c-60.667 0 -109.834 20.333 -147.501 61s-56.5 98 -56.5 172c0 58.667 10 133.334 30 224.001z" />
    <glyph glyph-name="Ecaron" unicode="&#x11a;" horiz-adv-x="1120" 
d="M123 0v1466h892v-248h-650v-325h604v-247h-604v-399h672v-247h-914zM295 1863h187l88 -149l95 149h185l-170 -295h-213z" />
    <glyph glyph-name="ecaron" unicode="&#x11b;" 
d="M626 338l229.003 -47c-30.667 -106.667 -78.334 -185.834 -143.001 -237.501s-143.334 -77.5 -236.001 -77.5c-128.667 0 -228 43 -298 129c-82.667 100 -124 240 -124 420c0 177.333 41.667 319.333 125 426c70.667 90 162 135 274 135
c124.667 0 222.334 -46 293.001 -138c81.333 -105.333 122 -260.666 122 -465.999l-1 -32h-577c1.33301 -84 20.166 -149 56.499 -195s80.166 -69 131.499 -69c74 0 123.333 50.667 148 152zM639.003 622c-2 82.667 -19.667 144.833 -53 186.5s-73 62.5 -119 62.5
c-48.667 0 -89.667 -21.667 -123 -65c-34 -44 -50.667 -105.333 -50 -184h345zM194.003 1491h187l88 -149l95 149h185l-170 -295h-213z" />
    <glyph glyph-name="Gcircumflex" unicode="&#x11c;" horiz-adv-x="1307" 
d="M682 539l0.00292969 247.001h523v-584c-52.667 -62 -127.334 -115.333 -224.001 -160s-193.667 -67 -291 -67c-118.667 0 -223.334 29.167 -314.001 87.5s-162.5 145.666 -215.5 261.999s-79.5 253.166 -79.5 410.499c0 161.333 26.833 299.333 80.5 414
s123.334 200.334 209.001 257.001s188.167 85 307.5 85c143.333 0 258.166 -36.5 344.499 -109.5s141.833 -180.167 166.5 -321.5l-240 -55c-18 75.333 -51 133 -99 173s-105.333 60 -172 60c-103.333 0 -187 -40.167 -251 -120.5s-96 -202.833 -96 -367.5
c0 -176.667 34.667 -311 104 -403c59.333 -79.333 139.666 -119 240.999 -119c47.333 0 96.5 11.167 147.5 33.5s96.5 52.833 136.5 91.5v186h-278zM394.003 1565l172 295h213l170 -295h-185l-95 149l-88 -149h-187z" />
    <glyph glyph-name="gcircumflex" unicode="&#x11d;" horiz-adv-x="1026" 
d="M99 -70l263.997 -38.9971c4 -38.667 16.167 -66.167 36.5 -82.5s52.5 -24.5 96.5 -24.5c50.667 0 91.667 8.33301 123 25c22 12 39 32 51 60s18 77.333 18 148v155c-34.667 -57.333 -73.667 -100.333 -117 -129s-91.333 -43 -144 -43c-96.667 0 -178 43.667 -244 131
c-76 100 -114 235.333 -114 406c0 181.333 35.833 318.166 107.5 410.499s158.5 138.5 260.5 138.5c54 0 103.167 -14.333 147.5 -43s83.833 -72 118.5 -130v149h216v-953c0 -152.667 -14 -263.334 -42 -332.001s-71.167 -120.5 -129.5 -155.5
s-139.166 -52.5 -242.499 -52.5c-95.333 0 -171.666 12.667 -228.999 38s-101.166 63.166 -131.499 113.499s-45.5 108.5 -45.5 174.5v35zM304.997 553.003c0 -113.333 18.1689 -196 54.502 -248s80.166 -78 131.499 -78c55.333 0 102.666 26.333 141.999 79
s59 132.667 59 240c0 110.667 -18.833 192.5 -56.5 245.5s-84.167 79.5 -139.5 79.5c-54.667 0 -100.167 -26 -136.5 -78s-54.5 -132 -54.5 -240zM241.999 1196l172 295h213l170 -295h-185l-95 149l-88 -149h-187z" />
    <glyph glyph-name="Gbreve" unicode="&#x11e;" horiz-adv-x="1307" 
d="M682 539l0.00292969 247.001h523v-584c-52.667 -62 -127.334 -115.333 -224.001 -160s-193.667 -67 -291 -67c-118.667 0 -223.334 29.167 -314.001 87.5s-162.5 145.666 -215.5 261.999s-79.5 253.166 -79.5 410.499c0 161.333 26.833 299.333 80.5 414
s123.334 200.334 209.001 257.001s188.167 85 307.5 85c143.333 0 258.166 -36.5 344.499 -109.5s141.833 -180.167 166.5 -321.5l-240 -55c-18 75.333 -51 133 -99 173s-105.333 60 -172 60c-103.333 0 -187 -40.167 -251 -120.5s-96 -202.833 -96 -367.5
c0 -176.667 34.667 -311 104 -403c59.333 -79.333 139.666 -119 240.999 -119c47.333 0 96.5 11.167 147.5 33.5s96.5 52.833 136.5 91.5v186h-278zM806.003 1863h112c-6 -93.333 -32.5 -165.166 -79.5 -215.499s-105.5 -75.5 -175.5 -75.5s-128.5 25.167 -175.5 75.5
s-73.833 122.166 -80.5 215.499h112c8.66699 -96 56.667 -144 144 -144s135 48 143 144z" />
    <glyph glyph-name="gbreve" unicode="&#x11f;" horiz-adv-x="1026" 
d="M99 -70l263.997 -38.9971c4 -38.667 16.167 -66.167 36.5 -82.5s52.5 -24.5 96.5 -24.5c50.667 0 91.667 8.33301 123 25c22 12 39 32 51 60s18 77.333 18 148v155c-34.667 -57.333 -73.667 -100.333 -117 -129s-91.333 -43 -144 -43c-96.667 0 -178 43.667 -244 131
c-76 100 -114 235.333 -114 406c0 181.333 35.833 318.166 107.5 410.499s158.5 138.5 260.5 138.5c54 0 103.167 -14.333 147.5 -43s83.833 -72 118.5 -130v149h216v-953c0 -152.667 -14 -263.334 -42 -332.001s-71.167 -120.5 -129.5 -155.5
s-139.166 -52.5 -242.499 -52.5c-95.333 0 -171.666 12.667 -228.999 38s-101.166 63.166 -131.499 113.499s-45.5 108.5 -45.5 174.5v35zM304.997 553.003c0 -113.333 18.1689 -196 54.502 -248s80.166 -78 131.499 -78c55.333 0 102.666 26.333 141.999 79
s59 132.667 59 240c0 110.667 -18.833 192.5 -56.5 245.5s-84.167 79.5 -139.5 79.5c-54.667 0 -100.167 -26 -136.5 -78s-54.5 -132 -54.5 -240zM656.999 1491h112c-6 -93.333 -32.5 -165.166 -79.5 -215.499s-105.5 -75.5 -175.5 -75.5s-128.5 25.167 -175.5 75.5
s-73.833 122.166 -80.5 215.499h112c8.66699 -96 56.667 -144 144 -144s135 48 143 144z" />
    <glyph glyph-name="Gdot" unicode="&#x120;" horiz-adv-x="1307" 
d="M682 539l0.00292969 247.001h523v-584c-52.667 -62 -127.334 -115.333 -224.001 -160s-193.667 -67 -291 -67c-118.667 0 -223.334 29.167 -314.001 87.5s-162.5 145.666 -215.5 261.999s-79.5 253.166 -79.5 410.499c0 161.333 26.833 299.333 80.5 414
s123.334 200.334 209.001 257.001s188.167 85 307.5 85c143.333 0 258.166 -36.5 344.499 -109.5s141.833 -180.167 166.5 -321.5l-240 -55c-18 75.333 -51 133 -99 173s-105.333 60 -172 60c-103.333 0 -187 -40.167 -251 -120.5s-96 -202.833 -96 -367.5
c0 -176.667 34.667 -311 104 -403c59.333 -79.333 139.666 -119 240.999 -119c47.333 0 96.5 11.167 147.5 33.5s96.5 52.833 136.5 91.5v186h-278zM542.003 1626v266h227v-266h-227z" />
    <glyph glyph-name="gdot" unicode="&#x121;" horiz-adv-x="1026" 
d="M99 -70l263.997 -38.9971c4 -38.667 16.167 -66.167 36.5 -82.5s52.5 -24.5 96.5 -24.5c50.667 0 91.667 8.33301 123 25c22 12 39 32 51 60s18 77.333 18 148v155c-34.667 -57.333 -73.667 -100.333 -117 -129s-91.333 -43 -144 -43c-96.667 0 -178 43.667 -244 131
c-76 100 -114 235.333 -114 406c0 181.333 35.833 318.166 107.5 410.499s158.5 138.5 260.5 138.5c54 0 103.167 -14.333 147.5 -43s83.833 -72 118.5 -130v149h216v-953c0 -152.667 -14 -263.334 -42 -332.001s-71.167 -120.5 -129.5 -155.5
s-139.166 -52.5 -242.499 -52.5c-95.333 0 -171.666 12.667 -228.999 38s-101.166 63.166 -131.499 113.499s-45.5 108.5 -45.5 174.5v35zM304.997 553.003c0 -113.333 18.1689 -196 54.502 -248s80.166 -78 131.499 -78c55.333 0 102.666 26.333 141.999 79
s59 132.667 59 240c0 110.667 -18.833 192.5 -56.5 245.5s-84.167 79.5 -139.5 79.5c-54.667 0 -100.167 -26 -136.5 -78s-54.5 -132 -54.5 -240zM384.999 1249v266h227v-266h-227z" />
    <glyph glyph-name="Gcedilla" unicode="&#x122;" horiz-adv-x="1307" 
d="M682 539l0.00292969 247.001h523v-584c-52.667 -62 -127.334 -115.333 -224.001 -160s-193.667 -67 -291 -67c-118.667 0 -223.334 29.167 -314.001 87.5s-162.5 145.666 -215.5 261.999s-79.5 253.166 -79.5 410.499c0 161.333 26.833 299.333 80.5 414
s123.334 200.334 209.001 257.001s188.167 85 307.5 85c143.333 0 258.166 -36.5 344.499 -109.5s141.833 -180.167 166.5 -321.5l-240 -55c-18 75.333 -51 133 -99 173s-105.333 60 -172 60c-103.333 0 -187 -40.167 -251 -120.5s-96 -202.833 -96 -367.5
c0 -176.667 34.667 -311 104 -403c59.333 -79.333 139.666 -119 240.999 -119c47.333 0 96.5 11.167 147.5 33.5s96.5 52.833 136.5 91.5v186h-278zM427.003 -402.999l-0.00195312 117.999c56 -7.33301 107.667 -11 155 -11c45.333 0 79.333 8.83301 102 26.5
s34 40.167 34 67.5c0 24.667 -9.16699 44.834 -27.5 60.501s-44.166 23.5 -77.499 23.5c-34.667 0 -70.334 -6.66699 -107.001 -20l21 99c42.667 18 89.334 27 140.001 27c62.667 0 112.834 -17.5 150.501 -52.5s56.5 -80.5 56.5 -136.5c0 -64 -25 -116.333 -75 -157
s-120.667 -61 -212 -61c-70.667 0 -124 5.33301 -160 16z" />
    <glyph glyph-name="gcedilla" unicode="&#x123;" horiz-adv-x="1026" 
d="M99 -70l263.997 -38.9971c4 -38.667 16.167 -66.167 36.5 -82.5s52.5 -24.5 96.5 -24.5c50.667 0 91.667 8.33301 123 25c22 12 39 32 51 60s18 77.333 18 148v155c-34.667 -57.333 -73.667 -100.333 -117 -129s-91.333 -43 -144 -43c-96.667 0 -178 43.667 -244 131
c-76 100 -114 235.333 -114 406c0 181.333 35.833 318.166 107.5 410.499s158.5 138.5 260.5 138.5c54 0 103.167 -14.333 147.5 -43s83.833 -72 118.5 -130v149h216v-953c0 -152.667 -14 -263.334 -42 -332.001s-71.167 -120.5 -129.5 -155.5
s-139.166 -52.5 -242.499 -52.5c-95.333 0 -171.666 12.667 -228.999 38s-101.166 63.166 -131.499 113.499s-45.5 108.5 -45.5 174.5v35zM304.997 553.003c0 -113.333 18.1689 -196 54.502 -248s80.166 -78 131.499 -78c55.333 0 102.666 26.333 141.999 79
s59 132.667 59 240c0 110.667 -18.833 192.5 -56.5 245.5s-84.167 79.5 -139.5 79.5c-54.667 0 -100.167 -26 -136.5 -78s-54.5 -132 -54.5 -240zM646.999 1151l-208 -0.000976562v181c0 144.667 60.333 244 181 298l41 -105c-60.667 -23.333 -99 -63.666 -115 -120.999h101
v-253z" />
    <glyph glyph-name="Hcircumflex" unicode="&#x124;" horiz-adv-x="1212" 
d="M123 0v1466h242v-577h476v577h243v-1466h-243v641h-476v-641h-242zM328 1565l172 295h213l170 -295h-185l-95 149l-88 -149h-187z" />
    <glyph glyph-name="hcircumflex" unicode="&#x125;" horiz-adv-x="1026" 
d="M351 1466v-538.998c36.667 53.333 77.167 93.166 121.5 119.499s92.5 39.5 144.5 39.5c69.333 0 127.333 -18.333 174 -55s80 -88.667 100 -156c14.667 -49.333 22 -133.333 22 -252v-623h-230v561c0 130 -8.33301 211.333 -25 244c-23.333 44 -63 66 -119 66
c-59.333 0 -105.5 -23.833 -138.5 -71.5s-49.5 -136.834 -49.5 -267.501v-532h-231v1466h231zM283 1569l172 295h213l170 -295h-185l-95 149l-88 -149h-187z" />
    <glyph glyph-name="Hbar" unicode="&#x126;" horiz-adv-x="1212" 
d="M123 1083h-119v187h119v196h242v-196h477v196h241v-196h119v-187h-119v-1083h-241v641h-477v-641h-242v1083zM365 1083v-194h477v194h-477z" />
    <glyph glyph-name="hbar" unicode="&#x127;" horiz-adv-x="1026" 
d="M-2 1350l118.999 -0.00292969v116h231v-116h281v-146h-281v-278c76.667 106.667 167 160 271 160c63.333 0 120.5 -19.667 171.5 -59s83.833 -88.666 98.5 -147.999s22 -144.666 22 -255.999v-623h-231v561c0 110.667 -7.83301 189.834 -23.5 237.501
s-55.5 71.5 -119.5 71.5c-65.333 0 -113.166 -26.333 -143.499 -79s-45.5 -139 -45.5 -259v-532h-231v1204h-119v146z" />
    <glyph glyph-name="Itilde" unicode="&#x128;" horiz-adv-x="467" 
d="M115 0v1466h242v-1466h-242zM59 1566l-104.001 0.000976562l-1 33c0 73.333 14.167 128.5 42.5 165.5s64.166 55.5 107.499 55.5c18.667 0 36.334 -2.66699 53.001 -8s43.667 -18 81 -38c49.333 -26.667 86 -40 110 -40c38 0 60.333 29 67 87h106
c-0.666992 -90.667 -14.5 -155.167 -41.5 -193.5s-61.833 -57.5 -104.5 -57.5c-18 0 -35.667 2.33301 -53 7c-12.667 3.33301 -42 15.666 -88 36.999c-55.333 26 -94.666 39 -117.999 39c-16.667 0 -30.167 -6.5 -40.5 -19.5s-15.833 -35.5 -16.5 -67.5z" />
    <glyph glyph-name="itilde" unicode="&#x129;" horiz-adv-x="467" 
d="M121 0v1062h231v-1062h-231zM58 1205l-104.001 0.000976562l-1 33c0 73.333 14.167 128.5 42.5 165.5s64.166 55.5 107.499 55.5c18.667 0 36.334 -2.66699 53.001 -8s43.667 -18 81 -38c49.333 -26.667 86 -40 110 -40c38 0 60.333 29 67 87h106
c-0.666992 -90.667 -14.5 -155.167 -41.5 -193.5s-61.833 -57.5 -104.5 -57.5c-18 0 -35.667 2.33301 -53 7c-12.667 3.33301 -42 15.666 -88 36.999c-55.333 26 -94.666 39 -117.999 39c-16.667 0 -30.167 -6.5 -40.5 -19.5s-15.833 -35.5 -16.5 -67.5z" />
    <glyph glyph-name="Imacron" unicode="&#x12a;" horiz-adv-x="467" 
d="M115 0v1466h242v-1466h-242zM-25 1622v185h528v-185h-528z" />
    <glyph glyph-name="imacron" unicode="&#x12b;" horiz-adv-x="467" 
d="M121 0v1062h231v-1062h-231zM-24 1249v185h528v-185h-528z" />
    <glyph glyph-name="Ibreve" unicode="&#x12c;" horiz-adv-x="467" 
d="M115 0v1466h242v-1466h-242zM385 1856h112c-6 -93.333 -32.5 -165.166 -79.5 -215.499s-105.5 -75.5 -175.5 -75.5s-128.5 25.167 -175.5 75.5s-73.833 122.166 -80.5 215.499h112c8.66699 -96 56.667 -144 144 -144s135 48 143 144z" />
    <glyph glyph-name="ibreve" unicode="&#x12d;" horiz-adv-x="467" 
d="M121 0v1062h231v-1062h-231zM375 1491h112c-6 -93.333 -32.5 -165.166 -79.5 -215.499s-105.5 -75.5 -175.5 -75.5s-128.5 25.167 -175.5 75.5s-73.833 122.166 -80.5 215.499h112c8.66699 -96 56.667 -144 144 -144s135 48 143 144z" />
    <glyph glyph-name="Iogonek" unicode="&#x12e;" horiz-adv-x="467" 
d="M115 0v1466h242v-1466h-242zM124 26l123.002 -0.000976562c-11.333 -37.333 -17 -85.333 -17 -144c0 -54.667 10.333 -94.667 31 -120s50 -38 88 -38c33.333 0 70 7.66699 110 23v-135c-54.667 -28.667 -108.334 -43 -161.001 -43c-60.667 0 -109.834 20.333 -147.501 61
s-56.5 98 -56.5 172c0 58.667 10 133.334 30 224.001z" />
    <glyph glyph-name="iogonek" unicode="&#x12f;" horiz-adv-x="467" 
d="M121 1206v260h231v-260h-231zM121 0v1062h231v-1062h-231zM135 26l123.002 -0.000976562c-11.333 -37.333 -17 -85.333 -17 -144c0 -54.667 10.333 -94.667 31 -120s50 -38 88 -38c33.333 0 70 7.66699 110 23v-135c-54.667 -28.667 -108.334 -43 -161.001 -43
c-60.667 0 -109.834 20.333 -147.501 61s-56.5 98 -56.5 172c0 58.667 10 133.334 30 224.001z" />
    <glyph glyph-name="Idot" unicode="&#x130;" horiz-adv-x="467" 
d="M115 0v1466h242v-1466h-242zM125 1596v266h227v-266h-227z" />
    <glyph glyph-name="dotlessi" unicode="&#x131;" horiz-adv-x="467" 
d="M121 0v1062h231v-1062h-231z" />
    <glyph glyph-name="IJ" unicode="&#x132;" horiz-adv-x="1401" 
d="M115 0v1466h242v-1466h-242zM1024 1466l242.999 -0.00195312v-928c0 -150 -15 -261.667 -45 -335s-74.833 -129.666 -134.5 -168.999s-133.167 -59 -220.5 -59c-115.333 0 -205.666 39.667 -270.999 119s-98.333 199 -99 359l229 32c2.66699 -86 13.667 -147 33 -183
c26 -49.333 65 -74 117 -74c50.667 0 88 17.833 112 53.5s36 114.834 36 237.501v947z" />
    <glyph glyph-name="ij" unicode="&#x133;" 
d="M121 1206v260h231v-260h-231zM121 0v1062h231v-1062h-231zM584 1206v260h231v-260h-231zM815 1062v-1029c0 -144.667 -8 -243.667 -24 -297s-44.667 -94.5 -86 -123.5s-92.333 -43.5 -153 -43.5c-46 0 -99.333 10 -160 30l40 240c22 -6 41 -9 57 -9c40 0 67.667 16 83 48
c8 17.333 12 74.333 12 171v1013h231z" />
    <glyph glyph-name="Jcircumflex" unicode="&#x134;" 
d="M556 1466l242.999 -0.00195312v-928c0 -150 -15 -261.667 -45 -335s-74.833 -129.666 -134.5 -168.999s-133.167 -59 -220.5 -59c-115.333 0 -205.666 39.667 -270.999 119s-98.333 199 -99 359l229 32c2.66699 -86 13.667 -147 33 -183c26 -49.333 65 -74 117 -74
c50.667 0 88 17.833 112 53.5s36 114.834 36 237.501v947zM383.999 1565l172 295h213l170 -295h-185l-95 149l-88 -149h-187z" />
    <glyph glyph-name="jcircumflex" unicode="&#x135;" horiz-adv-x="467" 
d="M347 1062v-1029c0 -144.667 -8 -243.667 -24 -297s-44.667 -94.5 -86 -123.5s-92.333 -43.5 -153 -43.5c-46 0 -99.333 10 -160 30l40 240c22 -6 41 -9 57 -9c40 0 67.667 16 83 48c8 17.333 12 74.333 12 171v1013h231zM156 1196h-186l172 295h213l170 -295h-184
l-97 150z" />
    <glyph glyph-name="Kcedilla" unicode="&#x136;" horiz-adv-x="1212" 
d="M125 0v1466h242v-651l491 651h327l-453 -571l477 -895h-314l-331 688l-197 -245v-443h-242zM374 -403l-0.00195312 117.999c56 -7.33301 107.667 -11 155 -11c45.333 0 79.333 8.83301 102 26.5s34 40.167 34 67.5c0 24.667 -9.16699 44.834 -27.5 60.501
s-44.166 23.5 -77.499 23.5c-34.667 0 -70.334 -6.66699 -107.001 -20l21 99c42.667 18 89.334 27 140.001 27c62.667 0 112.834 -17.5 150.501 -52.5s56.5 -80.5 56.5 -136.5c0 -64 -25 -116.333 -75 -157s-120.667 -61 -212 -61c-70.667 0 -124 5.33301 -160 16z" />
    <glyph glyph-name="kcedilla" unicode="&#x137;" 
d="M113 0v1466h231v-778l269 374h284l-298 -388l319 -674h-248l-220 477l-106 -137v-340h-231zM235 -403l-0.00195312 117.999c56 -7.33301 107.667 -11 155 -11c45.333 0 79.333 8.83301 102 26.5s34 40.167 34 67.5c0 24.667 -9.16699 44.834 -27.5 60.501
s-44.166 23.5 -77.499 23.5c-34.667 0 -70.334 -6.66699 -107.001 -20l21 99c42.667 18 89.334 27 140.001 27c62.667 0 112.834 -17.5 150.501 -52.5s56.5 -80.5 56.5 -136.5c0 -64 -25 -116.333 -75 -157s-120.667 -61 -212 -61c-70.667 0 -124 5.33301 -160 16z" />
    <glyph glyph-name="kgreenlandic" unicode="&#x138;" horiz-adv-x="936" 
d="M117 0v1061h231v-367l268 367h281l-350 -449l377 -612h-269l-256 424l-51 -68v-356h-231z" />
    <glyph glyph-name="Lacute" unicode="&#x139;" horiz-adv-x="1026" 
d="M129 0v1454h242v-1207h604v-247h-846zM353 1564l113 299h259l-226 -299h-146z" />
    <glyph glyph-name="lacute" unicode="&#x13a;" horiz-adv-x="467" 
d="M121 0v1466h231v-1466h-231zM100 1541l113 299h259l-226 -299h-146z" />
    <glyph glyph-name="Lcedilla" unicode="&#x13b;" horiz-adv-x="1026" 
d="M129 0v1454h242v-1207h604v-247h-846zM316 -403l-0.00195312 117.999c56 -7.33301 107.667 -11 155 -11c45.333 0 79.333 8.83301 102 26.5s34 40.167 34 67.5c0 24.667 -9.16699 44.834 -27.5 60.501s-44.166 23.5 -77.499 23.5
c-34.667 0 -70.334 -6.66699 -107.001 -20l21 99c42.667 18 89.334 27 140.001 27c62.667 0 112.834 -17.5 150.501 -52.5s56.5 -80.5 56.5 -136.5c0 -64 -25 -116.333 -75 -157s-120.667 -61 -212 -61c-70.667 0 -124 5.33301 -160 16z" />
    <glyph glyph-name="lcedilla" unicode="&#x13c;" horiz-adv-x="467" 
d="M121 0v1466h231v-1466h-231zM-1 -403l-0.00195312 117.999c56 -7.33301 107.667 -11 155 -11c45.333 0 79.333 8.83301 102 26.5s34 40.167 34 67.5c0 24.667 -9.16699 44.834 -27.5 60.501s-44.166 23.5 -77.499 23.5c-34.667 0 -70.334 -6.66699 -107.001 -20l21 99
c42.667 18 89.334 27 140.001 27c62.667 0 112.834 -17.5 150.501 -52.5s56.5 -80.5 56.5 -136.5c0 -64 -25 -116.333 -75 -157s-120.667 -61 -212 -61c-70.667 0 -124 5.33301 -160 16z" />
    <glyph glyph-name="Lcaron" unicode="&#x13d;" horiz-adv-x="1026" 
d="M129 0v1454h242v-1207h604v-247h-846zM690 1479l208 0.000976562v-181c0 -144.667 -60.333 -244 -181 -298l-41 105c60.667 23.333 99 63.666 115 120.999h-101v253z" />
    <glyph glyph-name="lcaron" unicode="&#x13e;" horiz-adv-x="647" 
d="M121 0v1466h231v-1466h-231zM435 1466l230.001 0.000976562v-202c0 -113.333 -13.333 -198 -40 -254c-32.667 -68 -87.334 -119 -164.001 -153l-45 117c45.333 18.667 78 44.167 98 76.5s30.667 77.166 32 134.499h-111v281z" />
    <glyph glyph-name="Ldot" unicode="&#x13f;" horiz-adv-x="1026" 
d="M129 0v1454h242v-1207h604v-247h-846zM637 580v266h227v-266h-227z" />
    <glyph glyph-name="ldot" unicode="&#x140;" horiz-adv-x="684" 
d="M121 0v1466h231v-1466h-231zM456 580v266h227v-266h-227z" />
    <glyph glyph-name="Lslash" unicode="&#x141;" horiz-adv-x="1026" 
d="M135 732v734h242v-485l170 180v-243l-170 -178v-493h604v-247h-846v494l-127 -129v237z" />
    <glyph glyph-name="lslash" unicode="&#x142;" horiz-adv-x="467" 
d="M121 720v746h231v-507l112 116v-190l-112 -116v-769h-231v530l-112 -116v190z" />
    <glyph glyph-name="Nacute" unicode="&#x143;" horiz-adv-x="1212" 
d="M125 0v1466h236l492 -979v979h226v-1466h-244l-484 956v-956h-226zM465 1564l113 299h259l-226 -299h-146z" />
    <glyph glyph-name="nacute" unicode="&#x144;" horiz-adv-x="1026" 
d="M913 0h-230.998v542c0 108.667 -4.33301 181 -13 217s-24.834 63.667 -48.501 83s-50.5 29 -80.5 29c-38.667 0 -73.667 -12.5 -105 -37.5s-53.333 -59.5 -66 -103.5s-19 -127 -19 -249v-481h-231v1062h214v-156c38 60 80.833 105 128.5 135s100.5 45 158.5 45
c67.333 0 124.166 -17.5 170.499 -52.5s78.333 -80 96 -135s26.5 -134.5 26.5 -238.5v-660zM407.002 1192l113 299h259l-226 -299h-146z" />
    <glyph glyph-name="Ncedilla" unicode="&#x145;" horiz-adv-x="1212" 
d="M125 0v1466h236l492 -979v979h226v-1466h-244l-484 956v-956h-226zM353 -403l-0.00195312 117.999c56 -7.33301 107.667 -11 155 -11c45.333 0 79.333 8.83301 102 26.5s34 40.167 34 67.5c0 24.667 -9.16699 44.834 -27.5 60.501s-44.166 23.5 -77.499 23.5
c-34.667 0 -70.334 -6.66699 -107.001 -20l21 99c42.667 18 89.334 27 140.001 27c62.667 0 112.834 -17.5 150.501 -52.5s56.5 -80.5 56.5 -136.5c0 -64 -25 -116.333 -75 -157s-120.667 -61 -212 -61c-70.667 0 -124 5.33301 -160 16z" />
    <glyph glyph-name="ncedilla" unicode="&#x146;" horiz-adv-x="1026" 
d="M913 0h-230.998v542c0 108.667 -4.33301 181 -13 217s-24.834 63.667 -48.501 83s-50.5 29 -80.5 29c-38.667 0 -73.667 -12.5 -105 -37.5s-53.333 -59.5 -66 -103.5s-19 -127 -19 -249v-481h-231v1062h214v-156c38 60 80.833 105 128.5 135s100.5 45 158.5 45
c67.333 0 124.166 -17.5 170.499 -52.5s78.333 -80 96 -135s26.5 -134.5 26.5 -238.5v-660zM268.002 -403l-0.00195312 117.999c56 -7.33301 107.667 -11 155 -11c45.333 0 79.333 8.83301 102 26.5s34 40.167 34 67.5c0 24.667 -9.16699 44.834 -27.5 60.501
s-44.166 23.5 -77.499 23.5c-34.667 0 -70.334 -6.66699 -107.001 -20l21 99c42.667 18 89.334 27 140.001 27c62.667 0 112.834 -17.5 150.501 -52.5s56.5 -80.5 56.5 -136.5c0 -64 -25 -116.333 -75 -157s-120.667 -61 -212 -61c-70.667 0 -124 5.33301 -160 16z" />
    <glyph glyph-name="Ncaron" unicode="&#x147;" horiz-adv-x="1212" 
d="M125 0v1466h236l492 -979v979h226v-1466h-244l-484 956v-956h-226zM326 1863h187l88 -149l95 149h185l-170 -295h-213z" />
    <glyph glyph-name="ncaron" unicode="&#x148;" horiz-adv-x="1026" 
d="M913 0h-230.998v542c0 108.667 -4.33301 181 -13 217s-24.834 63.667 -48.501 83s-50.5 29 -80.5 29c-38.667 0 -73.667 -12.5 -105 -37.5s-53.333 -59.5 -66 -103.5s-19 -127 -19 -249v-481h-231v1062h214v-156c38 60 80.833 105 128.5 135s100.5 45 158.5 45
c67.333 0 124.166 -17.5 170.499 -52.5s78.333 -80 96 -135s26.5 -134.5 26.5 -238.5v-660zM239.002 1491h187l88 -149l95 149h185l-170 -295h-213z" />
    <glyph glyph-name="napostrophe" unicode="&#x149;" horiz-adv-x="1384" 
d="M1265 0h-230.998v542c0 108.667 -4.33301 181 -13 217s-24.834 63.667 -48.501 83s-50.5 29 -80.5 29c-38.667 0 -73.667 -12.5 -105 -37.5s-53.333 -59.5 -66 -103.5s-19 -127 -19 -249v-481h-231v1062h214v-156c38 60 80.833 105 128.5 135s100.5 45 158.5 45
c67.333 0 124.166 -17.5 170.499 -52.5s78.333 -80 96 -135s26.5 -134.5 26.5 -238.5v-660zM76.002 1466l230.001 0.000976562v-202c0 -113.333 -13.333 -198 -40 -254c-32.667 -68 -87.334 -119 -164.001 -153l-45 117c45.333 18.667 78 44.167 98 76.5
s30.667 77.166 32 134.499h-111v281z" />
    <glyph glyph-name="Eng" unicode="&#x14a;" horiz-adv-x="1214" 
d="M127 1466l241.999 -0.000976562v-209c112.667 156 243 234 391 234c116.667 0 208.334 -56.5 275.001 -169.5s100 -312.5 100 -598.5c0 -315.333 -29.833 -519.166 -89.5 -611.499s-145.5 -138.5 -257.5 -138.5c-90 0 -169 23.333 -237 70l72 219
c49.333 -26 93 -39 131 -39c43.333 0 75.333 26.833 96 80.5s31 175.167 31 364.5c0 246.667 -20.833 402.167 -62.5 466.5s-98.167 96.5 -169.5 96.5c-56.667 0 -107.667 -19 -153 -57s-77.833 -81.5 -97.5 -130.5s-29.5 -129.833 -29.5 -242.5v-801h-242v1466z" />
    <glyph glyph-name="eng" unicode="&#x14b;" horiz-adv-x="1026" 
d="M487 -401l40.998 246.998c30.667 -10.667 54.667 -16 72 -16c24 0 42.833 10.5 56.5 31.5s20.834 69.167 21.501 144.5l2 537c0 133.333 -11 221.5 -33 264.5s-58.667 64.5 -110 64.5c-45.333 0 -84.166 -16 -116.499 -48s-52.5 -69.667 -60.5 -113s-12 -120 -12 -230
v-481h-231v1063h215v-158c73.333 120 169.666 180 288.999 180c74 0 140.5 -26.667 199.5 -80s88.5 -168.666 88.5 -345.999v-606c0 -156.667 -6.83301 -261.167 -20.5 -313.5s-42.167 -94.666 -85.5 -126.999s-98.666 -48.5 -165.999 -48.5
c-42.667 0 -92.667 11.667 -150 35z" />
    <glyph glyph-name="Omacron" unicode="&#x14c;" horiz-adv-x="1307" 
d="M74 724c0 174.667 25.834 318.5 77.501 431.5s119.167 197.167 202.5 252.5s184.333 83 303 83c172 0 312.167 -65.667 420.5 -197s162.5 -318.333 162.5 -561c0 -245.333 -57.333 -437 -172 -575c-100.667 -122 -237.334 -183 -410.001 -183
c-174 0 -311.333 60.333 -412 181c-114.667 138 -172 327.333 -172 568zM324.001 734c0 -168.667 32 -295.167 96 -379.5s143.333 -126.5 238 -126.5c95.333 0 174.333 41.833 237 125.5s94 212.167 94 385.5c0 170 -30.5 295.667 -91.5 377s-140.833 122 -239.5 122
s-179 -41 -241 -123s-93 -209 -93 -381zM389.001 1622v185h528v-185h-528z" />
    <glyph glyph-name="omacron" unicode="&#x14d;" horiz-adv-x="1026" 
d="M67 546c0 104 20.668 198.667 62.001 284s95.333 149.333 162 192s141.667 64 225 64c140 0 250 -54.833 330 -164.5s120 -237.834 120 -384.501c0 -109.333 -20.833 -208 -62.5 -296s-96.334 -154.167 -164.001 -198.5s-141.834 -66.5 -222.501 -66.5
c-129.333 0 -236.666 49.333 -321.999 148s-128 239.334 -128 422.001zM303.001 531c0 -107.333 21 -188.499 63 -243.499s92.667 -82.5 152 -82.5c58 0 107.667 27.667 149 83s62 137 62 245c0 105.333 -21 185.666 -63 240.999s-92.333 83 -151 83
c-58 0 -107.833 -27.667 -149.5 -83s-62.5 -136.333 -62.5 -243zM250.001 1249v185h528v-185h-528z" />
    <glyph glyph-name="Obreve" unicode="&#x14e;" horiz-adv-x="1307" 
d="M74 724c0 174.667 25.834 318.5 77.501 431.5s119.167 197.167 202.5 252.5s184.333 83 303 83c172 0 312.167 -65.667 420.5 -197s162.5 -318.333 162.5 -561c0 -245.333 -57.333 -437 -172 -575c-100.667 -122 -237.334 -183 -410.001 -183
c-174 0 -311.333 60.333 -412 181c-114.667 138 -172 327.333 -172 568zM324.001 734c0 -168.667 32 -295.167 96 -379.5s143.333 -126.5 238 -126.5c95.333 0 174.333 41.833 237 125.5s94 212.167 94 385.5c0 170 -30.5 295.667 -91.5 377s-140.833 122 -239.5 122
s-179 -41 -241 -123s-93 -209 -93 -381zM795.001 1912h112c-6 -93.333 -32.5 -165.166 -79.5 -215.499s-105.5 -75.5 -175.5 -75.5s-128.5 25.167 -175.5 75.5s-73.833 122.166 -80.5 215.499h112c8.66699 -96 56.667 -144 144 -144s135 48 143 144z" />
    <glyph glyph-name="obreve" unicode="&#x14f;" horiz-adv-x="1026" 
d="M67 546c0 104 20.668 198.667 62.001 284s95.333 149.333 162 192s141.667 64 225 64c140 0 250 -54.833 330 -164.5s120 -237.834 120 -384.501c0 -109.333 -20.833 -208 -62.5 -296s-96.334 -154.167 -164.001 -198.5s-141.834 -66.5 -222.501 -66.5
c-129.333 0 -236.666 49.333 -321.999 148s-128 239.334 -128 422.001zM303.001 531c0 -107.333 21 -188.499 63 -243.499s92.667 -82.5 152 -82.5c58 0 107.667 27.667 149 83s62 137 62 245c0 105.333 -21 185.666 -63 240.999s-92.333 83 -151 83
c-58 0 -107.833 -27.667 -149.5 -83s-62.5 -136.333 -62.5 -243zM673.001 1483h112c-6 -93.333 -32.5 -165.166 -79.5 -215.499s-105.5 -75.5 -175.5 -75.5s-128.5 25.167 -175.5 75.5s-73.833 122.166 -80.5 215.499h112c8.66699 -96 56.667 -144 144 -144s135 48 143 144z
" />
    <glyph glyph-name="Odblacute" unicode="&#x150;" horiz-adv-x="1307" 
d="M74 724c0 174.667 25.834 318.5 77.501 431.5s119.167 197.167 202.5 252.5s184.333 83 303 83c172 0 312.167 -65.667 420.5 -197s162.5 -318.333 162.5 -561c0 -245.333 -57.333 -437 -172 -575c-100.667 -122 -237.334 -183 -410.001 -183
c-174 0 -311.333 60.333 -412 181c-114.667 138 -172 327.333 -172 568zM324.001 734c0 -168.667 32 -295.167 96 -379.5s143.333 -126.5 238 -126.5c95.333 0 174.333 41.833 237 125.5s94 212.167 94 385.5c0 170 -30.5 295.667 -91.5 377s-140.833 122 -239.5 122
s-179 -41 -241 -123s-93 -209 -93 -381zM456.001 1569l114 298h241l-210 -298h-145zM765.001 1569l115 298h235l-203 -298h-147z" />
    <glyph glyph-name="odblacute" unicode="&#x151;" horiz-adv-x="1026" 
d="M67 546c0 104 20.668 198.667 62.001 284s95.333 149.333 162 192s141.667 64 225 64c140 0 250 -54.833 330 -164.5s120 -237.834 120 -384.501c0 -109.333 -20.833 -208 -62.5 -296s-96.334 -154.167 -164.001 -198.5s-141.834 -66.5 -222.501 -66.5
c-129.333 0 -236.666 49.333 -321.999 148s-128 239.334 -128 422.001zM303.001 531c0 -107.333 21 -188.499 63 -243.499s92.667 -82.5 152 -82.5c58 0 107.667 27.667 149 83s62 137 62 245c0 105.333 -21 185.666 -63 240.999s-92.333 83 -151 83
c-58 0 -107.833 -27.667 -149.5 -83s-62.5 -136.333 -62.5 -243zM270.001 1197l114 298h241l-210 -298h-145zM579.001 1197l115 298h235l-203 -298h-147z" />
    <glyph glyph-name="OE" unicode="&#x152;" horiz-adv-x="1679" 
d="M1627 249v-249h-772v173c-32 -66 -74.333 -115.5 -127 -148.5s-116 -49.5 -190 -49.5c-140 0 -250 55.333 -330 166c-99.333 138.667 -149 336.334 -149 593.001c0 255.333 48.667 450.666 146 585.999c82 114 190 171 324 171c66 0 127.667 -16.5 185 -49.5
s104.333 -78.833 141 -137.5v162h749v-248h-539v-326h494v-248h-494v-395h562zM575 1239c-80 0 -142 -32.999 -186 -98.999c-53.333 -80 -80 -208 -80 -384c0 -196 26.667 -336.667 80 -422c41.333 -66 103.333 -99 186 -99c83.333 0 145 32.667 185 98
c53.333 85.333 80 226.666 80 423.999c0 176.667 -24.167 301.167 -72.5 373.5s-112.5 108.5 -192.5 108.5z" />
    <glyph glyph-name="oe" unicode="&#x153;" horiz-adv-x="1585" 
d="M1281 341l224.001 -44.002c-27.333 -104 -74.5 -183.5 -141.5 -238.5s-146.167 -82.5 -237.5 -82.5c-58 0 -113.667 12.5 -167 37.5s-100 61.833 -140 110.5c-43.333 -49.333 -90.333 -86.333 -141 -111s-105.334 -37 -164.001 -37c-124.667 0 -229.5 50.5 -314.5 151.5
s-127.5 235.5 -127.5 403.5c0 112 20.333 211.333 61 298s93.834 151.167 159.501 193.5s140.5 63.5 224.5 63.5c60.667 0 116.334 -12.333 167.001 -37s96.334 -61.667 137.001 -111c74.667 98.667 171.667 148 291 148c77.333 0 147.166 -22.333 209.499 -67
s110.666 -112.667 144.999 -204s50.833 -213.666 49.5 -366.999h-573c5.33301 -87.333 25 -152.166 59 -194.499s75.667 -63.5 125 -63.5c35.333 0 65.666 11.5 90.999 34.5s46.333 61.833 63 116.5zM1295 623.998c-4.66699 88.667 -23.499 153.333 -56.499 194
s-73.833 61 -122.5 61c-52.667 0 -95.334 -26 -128.001 -78c-22.667 -37.333 -37 -96.333 -43 -177h350zM309.002 514.997c0 -77.333 18.333 -147.667 55 -211s87 -95 151 -95c56 0 103.5 27.167 142.5 81.5s58.5 137.5 58.5 249.5c0 102 -19.5 179.667 -58.5 233
s-86.5 80 -142.5 80c-59.333 0 -108.5 -27.333 -147.5 -82s-58.5 -140 -58.5 -256z" />
    <glyph glyph-name="Racute" unicode="&#x154;" horiz-adv-x="1212" 
d="M123 0v1466h511c130.667 0 224 -13.167 280 -39.5s102 -72 138 -137s54 -142.833 54 -233.5c0 -114.667 -27.5 -207 -82.5 -277s-133.167 -114 -234.5 -132c52 -37.333 95 -78.166 129 -122.499s80.333 -123.833 139 -238.5l146 -286h-289l-176 319
c-63.333 115.333 -106.333 187.5 -129 216.5s-46.667 49 -72 60s-66 16.5 -122 16.5h-50v-612h-242zM365 845.999h180.001c110 0 180 4.83301 210 14.5s54.333 29.167 73 58.5s28 68.333 28 117c0 46.667 -9.33301 84.167 -28 112.5s-44 47.833 -76 58.5
c-22.667 7.33301 -88.334 11 -197.001 11h-190v-372zM417.001 1564l113 299h259l-226 -299h-146z" />
    <glyph glyph-name="racute" unicode="&#x155;" horiz-adv-x="653" 
d="M342 0h-231v1062h214v-151c36.667 70.667 69.5 117.5 98.5 140.5s62.5 34.5 100.5 34.5c52.667 0 103 -17.667 151 -53l-72 -245c-38 30.667 -74 46 -108 46c-32 0 -60.167 -11.833 -84.5 -35.5s-41.833 -66.5 -52.5 -128.5s-16 -176 -16 -342v-328zM245 1192l113 299
h259l-226 -299h-146z" />
    <glyph glyph-name="Rcedilla" unicode="&#x156;" horiz-adv-x="1212" 
d="M123 0v1466h511c130.667 0 224 -13.167 280 -39.5s102 -72 138 -137s54 -142.833 54 -233.5c0 -114.667 -27.5 -207 -82.5 -277s-133.167 -114 -234.5 -132c52 -37.333 95 -78.166 129 -122.499s80.333 -123.833 139 -238.5l146 -286h-289l-176 319
c-63.333 115.333 -106.333 187.5 -129 216.5s-46.667 49 -72 60s-66 16.5 -122 16.5h-50v-612h-242zM365 845.999h180.001c110 0 180 4.83301 210 14.5s54.333 29.167 73 58.5s28 68.333 28 117c0 46.667 -9.33301 84.167 -28 112.5s-44 47.833 -76 58.5
c-22.667 7.33301 -88.334 11 -197.001 11h-190v-372zM388.001 -403.001l-0.00195312 117.999c56 -7.33301 107.667 -11 155 -11c45.333 0 79.333 8.83301 102 26.5s34 40.167 34 67.5c0 24.667 -9.16699 44.834 -27.5 60.501s-44.166 23.5 -77.499 23.5
c-34.667 0 -70.334 -6.66699 -107.001 -20l21 99c42.667 18 89.334 27 140.001 27c62.667 0 112.834 -17.5 150.501 -52.5s56.5 -80.5 56.5 -136.5c0 -64 -25 -116.333 -75 -157s-120.667 -61 -212 -61c-70.667 0 -124 5.33301 -160 16z" />
    <glyph glyph-name="rcedilla" unicode="&#x157;" horiz-adv-x="653" 
d="M342 0h-231v1062h214v-151c36.667 70.667 69.5 117.5 98.5 140.5s62.5 34.5 100.5 34.5c52.667 0 103 -17.667 151 -53l-72 -245c-38 30.667 -74 46 -108 46c-32 0 -60.167 -11.833 -84.5 -35.5s-41.833 -66.5 -52.5 -128.5s-16 -176 -16 -342v-328zM114 -403
l-0.00195312 117.999c56 -7.33301 107.667 -11 155 -11c45.333 0 79.333 8.83301 102 26.5s34 40.167 34 67.5c0 24.667 -9.16699 44.834 -27.5 60.501s-44.166 23.5 -77.499 23.5c-34.667 0 -70.334 -6.66699 -107.001 -20l21 99c42.667 18 89.334 27 140.001 27
c62.667 0 112.834 -17.5 150.501 -52.5s56.5 -80.5 56.5 -136.5c0 -64 -25 -116.333 -75 -157s-120.667 -61 -212 -61c-70.667 0 -124 5.33301 -160 16z" />
    <glyph glyph-name="Rcaron" unicode="&#x158;" horiz-adv-x="1212" 
d="M123 0v1466h511c130.667 0 224 -13.167 280 -39.5s102 -72 138 -137s54 -142.833 54 -233.5c0 -114.667 -27.5 -207 -82.5 -277s-133.167 -114 -234.5 -132c52 -37.333 95 -78.166 129 -122.499s80.333 -123.833 139 -238.5l146 -286h-289l-176 319
c-63.333 115.333 -106.333 187.5 -129 216.5s-46.667 49 -72 60s-66 16.5 -122 16.5h-50v-612h-242zM365 845.999h180.001c110 0 180 4.83301 210 14.5s54.333 29.167 73 58.5s28 68.333 28 117c0 46.667 -9.33301 84.167 -28 112.5s-44 47.833 -76 58.5
c-22.667 7.33301 -88.334 11 -197.001 11h-190v-372zM278.001 1863h187l88 -149l95 149h185l-170 -295h-213z" />
    <glyph glyph-name="rcaron" unicode="&#x159;" horiz-adv-x="653" 
d="M342 0h-231v1062h214v-151c36.667 70.667 69.5 117.5 98.5 140.5s62.5 34.5 100.5 34.5c52.667 0 103 -17.667 151 -53l-72 -245c-38 30.667 -74 46 -108 46c-32 0 -60.167 -11.833 -84.5 -35.5s-41.833 -66.5 -52.5 -128.5s-16 -176 -16 -342v-328zM84 1491h187l88 -149
l95 149h185l-170 -295h-213z" />
    <glyph glyph-name="Sacute" unicode="&#x15a;" horiz-adv-x="1120" 
d="M61 477l236.999 28c26.667 -187.333 114 -281 262 -281c73.333 0 131 19.167 173 57.5s63 85.833 63 142.5c0 33.333 -7.33301 61.666 -22 84.999s-37 42.5 -67 57.5s-102.667 40.167 -218 75.5c-103.333 31.333 -179 65.333 -227 102s-86.167 84.834 -114.5 144.501
s-42.5 123.834 -42.5 192.501c0 80 18.167 152 54.5 216s86.5 112.333 150.5 145s143 49 237 49c141.333 0 251.666 -38.333 330.999 -115s121.333 -186.334 126 -329.001l-243 -13c-10.667 78.667 -33.667 133.667 -69 165s-85.666 47 -150.999 47
s-115.666 -13.667 -150.999 -41s-53 -61.333 -53 -102c0 -40 16 -73.667 48 -101s105.667 -57.333 221 -90c122 -35.333 210.167 -72.5 264.5 -111.5s95.833 -89.333 124.5 -151s43 -136.5 43 -224.5c0 -127.333 -39.167 -234.333 -117.5 -321s-200.833 -130 -367.5 -130
c-294.667 0 -458.667 167.667 -492 503zM468.999 1564l113 299h259l-226 -299h-146z" />
    <glyph glyph-name="sacute" unicode="&#x15b;" 
d="M40 303l231 42.998c20 -111.333 82 -167 186 -167c55.333 0 96.666 10.667 123.999 32s41 49 41 83c0 23.333 -6 41.666 -18 54.999c-12.667 13.333 -37.667 25 -75 35c-189.333 50 -309.666 97.667 -360.999 143c-64 56.667 -96 134.334 -96 233.001
s31.333 177.667 94 237s153.667 89 273 89c114 0 200.667 -22.167 260 -66.5s101 -115.833 125 -214.5l-217 -49c-19.333 85.333 -74 128 -164 128c-56.667 0 -97 -8.16699 -121 -24.5s-36 -37.5 -36 -63.5c0 -23.333 11 -42.666 33 -57.999c22 -16 90.333 -40 205 -72
c128.667 -36 216 -79.667 262 -131c45.333 -51.333 68 -119.666 68 -204.999c0 -102.667 -35.167 -187.334 -105.5 -254.001s-167.5 -100 -291.5 -100c-112.667 0 -204.667 27.833 -276 83.5s-118.333 136.834 -141 243.501zM315 1192l113 299h259l-226 -299h-146z" />
    <glyph glyph-name="Scircumflex" unicode="&#x15c;" horiz-adv-x="1120" 
d="M61 477l236.999 28c26.667 -187.333 114 -281 262 -281c73.333 0 131 19.167 173 57.5s63 85.833 63 142.5c0 33.333 -7.33301 61.666 -22 84.999s-37 42.5 -67 57.5s-102.667 40.167 -218 75.5c-103.333 31.333 -179 65.333 -227 102s-86.167 84.834 -114.5 144.501
s-42.5 123.834 -42.5 192.501c0 80 18.167 152 54.5 216s86.5 112.333 150.5 145s143 49 237 49c141.333 0 251.666 -38.333 330.999 -115s121.333 -186.334 126 -329.001l-243 -13c-10.667 78.667 -33.667 133.667 -69 165s-85.666 47 -150.999 47
s-115.666 -13.667 -150.999 -41s-53 -61.333 -53 -102c0 -40 16 -73.667 48 -101s105.667 -57.333 221 -90c122 -35.333 210.167 -72.5 264.5 -111.5s95.833 -89.333 124.5 -151s43 -136.5 43 -224.5c0 -127.333 -39.167 -234.333 -117.5 -321s-200.833 -130 -367.5 -130
c-294.667 0 -458.667 167.667 -492 503zM271.999 1565l172 295h213l170 -295h-185l-95 149l-88 -149h-187z" />
    <glyph glyph-name="scircumflex" unicode="&#x15d;" 
d="M40 303l231 42.998c20 -111.333 82 -167 186 -167c55.333 0 96.666 10.667 123.999 32s41 49 41 83c0 23.333 -6 41.666 -18 54.999c-12.667 13.333 -37.667 25 -75 35c-189.333 50 -309.666 97.667 -360.999 143c-64 56.667 -96 134.334 -96 233.001
s31.333 177.667 94 237s153.667 89 273 89c114 0 200.667 -22.167 260 -66.5s101 -115.833 125 -214.5l-217 -49c-19.333 85.333 -74 128 -164 128c-56.667 0 -97 -8.16699 -121 -24.5s-36 -37.5 -36 -63.5c0 -23.333 11 -42.666 33 -57.999c22 -16 90.333 -40 205 -72
c128.667 -36 216 -79.667 262 -131c45.333 -51.333 68 -119.666 68 -204.999c0 -102.667 -35.167 -187.334 -105.5 -254.001s-167.5 -100 -291.5 -100c-112.667 0 -204.667 27.833 -276 83.5s-118.333 136.834 -141 243.501zM169 1196l172 295h213l170 -295h-185l-95 149
l-88 -149h-187z" />
    <glyph glyph-name="Scedilla" unicode="&#x15e;" horiz-adv-x="1120" 
d="M61 477l236.999 28c26.667 -187.333 114 -281 262 -281c73.333 0 131 19.167 173 57.5s63 85.833 63 142.5c0 33.333 -7.33301 61.666 -22 84.999s-37 42.5 -67 57.5s-102.667 40.167 -218 75.5c-103.333 31.333 -179 65.333 -227 102s-86.167 84.834 -114.5 144.501
s-42.5 123.834 -42.5 192.501c0 80 18.167 152 54.5 216s86.5 112.333 150.5 145s143 49 237 49c141.333 0 251.666 -38.333 330.999 -115s121.333 -186.334 126 -329.001l-243 -13c-10.667 78.667 -33.667 133.667 -69 165s-85.666 47 -150.999 47
s-115.666 -13.667 -150.999 -41s-53 -61.333 -53 -102c0 -40 16 -73.667 48 -101s105.667 -57.333 221 -90c122 -35.333 210.167 -72.5 264.5 -111.5s95.833 -89.333 124.5 -151s43 -136.5 43 -224.5c0 -127.333 -39.167 -234.333 -117.5 -321s-200.833 -130 -367.5 -130
c-294.667 0 -458.667 167.667 -492 503zM310.999 -403l-0.00195312 117.999c56 -7.33301 107.667 -11 155 -11c45.333 0 79.333 8.83301 102 26.5s34 40.167 34 67.5c0 24.667 -9.16699 44.834 -27.5 60.501s-44.166 23.5 -77.499 23.5
c-34.667 0 -70.334 -6.66699 -107.001 -20l21 99c42.667 18 89.334 27 140.001 27c62.667 0 112.834 -17.5 150.501 -52.5s56.5 -80.5 56.5 -136.5c0 -64 -25 -116.333 -75 -157s-120.667 -61 -212 -61c-70.667 0 -124 5.33301 -160 16z" />
    <glyph glyph-name="scedilla" unicode="&#x15f;" 
d="M40 303l231 42.998c20 -111.333 82 -167 186 -167c55.333 0 96.666 10.667 123.999 32s41 49 41 83c0 23.333 -6 41.666 -18 54.999c-12.667 13.333 -37.667 25 -75 35c-189.333 50 -309.666 97.667 -360.999 143c-64 56.667 -96 134.334 -96 233.001
s31.333 177.667 94 237s153.667 89 273 89c114 0 200.667 -22.167 260 -66.5s101 -115.833 125 -214.5l-217 -49c-19.333 85.333 -74 128 -164 128c-56.667 0 -97 -8.16699 -121 -24.5s-36 -37.5 -36 -63.5c0 -23.333 11 -42.666 33 -57.999c22 -16 90.333 -40 205 -72
c128.667 -36 216 -79.667 262 -131c45.333 -51.333 68 -119.666 68 -204.999c0 -102.667 -35.167 -187.334 -105.5 -254.001s-167.5 -100 -291.5 -100c-112.667 0 -204.667 27.833 -276 83.5s-118.333 136.834 -141 243.501zM215 -403.002l-0.00195312 117.999
c56 -7.33301 107.667 -11 155 -11c45.333 0 79.333 8.83301 102 26.5s34 40.167 34 67.5c0 24.667 -9.16699 44.834 -27.5 60.501s-44.166 23.5 -77.499 23.5c-34.667 0 -70.334 -6.66699 -107.001 -20l21 99c42.667 18 89.334 27 140.001 27
c62.667 0 112.834 -17.5 150.501 -52.5s56.5 -80.5 56.5 -136.5c0 -64 -25 -116.333 -75 -157s-120.667 -61 -212 -61c-70.667 0 -124 5.33301 -160 16z" />
    <glyph glyph-name="Scaron" unicode="&#x160;" horiz-adv-x="1120" 
d="M61 477l236.999 28c26.667 -187.333 114 -281 262 -281c73.333 0 131 19.167 173 57.5s63 85.833 63 142.5c0 33.333 -7.33301 61.666 -22 84.999s-37 42.5 -67 57.5s-102.667 40.167 -218 75.5c-103.333 31.333 -179 65.333 -227 102s-86.167 84.834 -114.5 144.501
s-42.5 123.834 -42.5 192.501c0 80 18.167 152 54.5 216s86.5 112.333 150.5 145s143 49 237 49c141.333 0 251.666 -38.333 330.999 -115s121.333 -186.334 126 -329.001l-243 -13c-10.667 78.667 -33.667 133.667 -69 165s-85.666 47 -150.999 47
s-115.666 -13.667 -150.999 -41s-53 -61.333 -53 -102c0 -40 16 -73.667 48 -101s105.667 -57.333 221 -90c122 -35.333 210.167 -72.5 264.5 -111.5s95.833 -89.333 124.5 -151s43 -136.5 43 -224.5c0 -127.333 -39.167 -234.333 -117.5 -321s-200.833 -130 -367.5 -130
c-294.667 0 -458.667 167.667 -492 503zM281.999 1862h187l88 -149l95 149h185l-170 -295h-213z" />
    <glyph glyph-name="scaron" unicode="&#x161;" 
d="M40 303l231 42.998c20 -111.333 82 -167 186 -167c55.333 0 96.666 10.667 123.999 32s41 49 41 83c0 23.333 -6 41.666 -18 54.999c-12.667 13.333 -37.667 25 -75 35c-189.333 50 -309.666 97.667 -360.999 143c-64 56.667 -96 134.334 -96 233.001
s31.333 177.667 94 237s153.667 89 273 89c114 0 200.667 -22.167 260 -66.5s101 -115.833 125 -214.5l-217 -49c-19.333 85.333 -74 128 -164 128c-56.667 0 -97 -8.16699 -121 -24.5s-36 -37.5 -36 -63.5c0 -23.333 11 -42.666 33 -57.999c22 -16 90.333 -40 205 -72
c128.667 -36 216 -79.667 262 -131c45.333 -51.333 68 -119.666 68 -204.999c0 -102.667 -35.167 -187.334 -105.5 -254.001s-167.5 -100 -291.5 -100c-112.667 0 -204.667 27.833 -276 83.5s-118.333 136.834 -141 243.501zM169 1491h187l88 -149l95 149h185l-170 -295
h-213z" />
    <glyph glyph-name="Tcedilla" unicode="&#x162;" horiz-adv-x="1026" 
d="M393 0v1218h-357v248h955v-248h-356v-1218h-242zM291 -403l-0.00195312 117.999c56 -7.33301 107.667 -11 155 -11c45.333 0 79.333 8.83301 102 26.5s34 40.167 34 67.5c0 24.667 -9.16699 44.834 -27.5 60.501s-44.166 23.5 -77.499 23.5
c-34.667 0 -70.334 -6.66699 -107.001 -20l21 99c42.667 18 89.334 27 140.001 27c62.667 0 112.834 -17.5 150.501 -52.5s56.5 -80.5 56.5 -136.5c0 -64 -25 -116.333 -75 -157s-120.667 -61 -212 -61c-70.667 0 -124 5.33301 -160 16z" />
    <glyph glyph-name="tcedilla" unicode="&#x163;" horiz-adv-x="559" 
d="M519 1062l-0.000976562 -224h-157v-428c0 -92.667 2.33301 -146.334 7 -161.001c9.33301 -26.667 28.333 -40 57 -40c21.333 0 52 9 92 27l20 -218c-53.333 -28 -113.666 -42 -180.999 -42c-58.667 0 -105.667 14 -141 42s-59 68.333 -71 121
c-9.33301 38.667 -14 117.334 -14 236.001v463h-106v224h106v211l231 164v-375h157zM100.999 -403l-0.00195312 117.999c56 -7.33301 107.667 -11 155 -11c45.333 0 79.333 8.83301 102 26.5s34 40.167 34 67.5c0 24.667 -9.16699 44.834 -27.5 60.501
s-44.166 23.5 -77.499 23.5c-34.667 0 -70.334 -6.66699 -107.001 -20l21 99c42.667 18 89.334 27 140.001 27c62.667 0 112.834 -17.5 150.501 -52.5s56.5 -80.5 56.5 -136.5c0 -64 -25 -116.333 -75 -157s-120.667 -61 -212 -61c-70.667 0 -124 5.33301 -160 16z" />
    <glyph glyph-name="Tcaron" unicode="&#x164;" horiz-adv-x="1026" 
d="M393 0v1218h-357v248h955v-248h-356v-1218h-242zM233 1863h187l88 -149l95 149h185l-170 -295h-213z" />
    <glyph glyph-name="tcaron" unicode="&#x165;" horiz-adv-x="805" 
d="M519 1062l-0.000976562 -224h-157v-428c0 -92.667 2.33301 -146.334 7 -161.001c9.33301 -26.667 28.333 -40 57 -40c21.333 0 52 9 92 27l20 -218c-53.333 -28 -113.666 -42 -180.999 -42c-58.667 0 -105.667 14 -141 42s-59 68.333 -71 121
c-9.33301 38.667 -14 117.334 -14 236.001v463h-106v224h106v211l231 164v-375h157zM597.999 1479l208 0.000976562v-181c0 -144.667 -60.333 -244 -181 -298l-41 105c60.667 23.333 99 63.666 115 120.999h-101v253z" />
    <glyph glyph-name="Tbar" unicode="&#x166;" horiz-adv-x="1026" 
d="M393 553h-258v186h258v480h-358v247h956v-247h-356v-480h258v-186h-258v-553h-242v553z" />
    <glyph glyph-name="tbar" unicode="&#x167;" horiz-adv-x="559" 
d="M350 606l146.002 -0.000976562v-174h-146v-24c0 -92.667 4.16699 -149 12.5 -169s26.166 -30 53.499 -30c22 0 52.667 9 92 27l18 -218c-52.667 -28.667 -112.667 -43 -180 -43c-62.667 0 -111.334 15.167 -146.001 45.5s-56.5 67.833 -65.5 112.5
s-13.5 125.334 -13.5 242.001v57h-117v174h117v232h-107v225h107v211l229 164v-375h158v-225h-158v-232z" />
    <glyph glyph-name="Utilde" unicode="&#x168;" horiz-adv-x="1212" 
d="M120 1466h242v-794c0 -123.333 3 -203.666 9 -240.999c10.667 -64.667 36.167 -114.667 76.5 -150s93.5 -53 159.5 -53c56 0 101.667 12.5 137 37.5s59.5 59.667 72.5 104s19.5 139.5 19.5 285.5v811h243v-770c0 -196.667 -10.5 -338.834 -31.5 -426.501
s-68.333 -158.667 -142 -213s-170.834 -81.5 -291.501 -81.5c-125.333 0 -223.166 22.5 -293.499 67.5s-121.333 108.333 -153 190s-47.5 232.167 -47.5 451.5v782zM415 1566l-104.001 0.000976562l-1 33c0 73.333 14.167 128.5 42.5 165.5s64.166 55.5 107.499 55.5
c18.667 0 36.334 -2.66699 53.001 -8s43.667 -18 81 -38c49.333 -26.667 86 -40 110 -40c38 0 60.333 29 67 87h106c-0.666992 -90.667 -14.5 -155.167 -41.5 -193.5s-61.833 -57.5 -104.5 -57.5c-18 0 -35.667 2.33301 -53 7c-12.667 3.33301 -42 15.666 -88 36.999
c-55.333 26 -94.666 39 -117.999 39c-16.667 0 -30.167 -6.5 -40.5 -19.5s-15.833 -35.5 -16.5 -67.5z" />
    <glyph glyph-name="utilde" unicode="&#x169;" horiz-adv-x="1026" 
d="M693 0l-0.00292969 159.001c-32 -57.333 -74 -102.166 -126 -134.499s-106.333 -48.5 -163 -48.5c-57.333 0 -108.666 15 -153.999 45s-79.166 72.667 -101.499 128s-33.5 135.666 -33.5 240.999v672h231v-488c0 -139.333 3.5 -227.833 10.5 -265.5
s22.5 -66.834 46.5 -87.501s53 -31 87 -31c38.667 0 74.334 13.5 107.001 40.5s54.167 61.667 64.5 104s15.5 135.5 15.5 279.5v448h230v-1062h-214zM334.997 1205l-104.001 0.000976562l-1 33c0 73.333 14.167 128.5 42.5 165.5s64.166 55.5 107.499 55.5
c18.667 0 36.334 -2.66699 53.001 -8s43.667 -18 81 -38c49.333 -26.667 86 -40 110 -40c38 0 60.333 29 67 87h106c-0.666992 -90.667 -14.5 -155.167 -41.5 -193.5s-61.833 -57.5 -104.5 -57.5c-18 0 -35.667 2.33301 -53 7c-12.667 3.33301 -42 15.666 -88 36.999
c-55.333 26 -94.666 39 -117.999 39c-16.667 0 -30.167 -6.5 -40.5 -19.5s-15.833 -35.5 -16.5 -67.5z" />
    <glyph glyph-name="Umacron" unicode="&#x16a;" horiz-adv-x="1212" 
d="M120 1466h242v-794c0 -123.333 3 -203.666 9 -240.999c10.667 -64.667 36.167 -114.667 76.5 -150s93.5 -53 159.5 -53c56 0 101.667 12.5 137 37.5s59.5 59.667 72.5 104s19.5 139.5 19.5 285.5v811h243v-770c0 -196.667 -10.5 -338.834 -31.5 -426.501
s-68.333 -158.667 -142 -213s-170.834 -81.5 -291.501 -81.5c-125.333 0 -223.166 22.5 -293.499 67.5s-121.333 108.333 -153 190s-47.5 232.167 -47.5 451.5v782zM335 1622v185h528v-185h-528z" />
    <glyph glyph-name="umacron" unicode="&#x16b;" horiz-adv-x="1026" 
d="M693 0l-0.00292969 159.001c-32 -57.333 -74 -102.166 -126 -134.499s-106.333 -48.5 -163 -48.5c-57.333 0 -108.666 15 -153.999 45s-79.166 72.667 -101.499 128s-33.5 135.666 -33.5 240.999v672h231v-488c0 -139.333 3.5 -227.833 10.5 -265.5
s22.5 -66.834 46.5 -87.501s53 -31 87 -31c38.667 0 74.334 13.5 107.001 40.5s54.167 61.667 64.5 104s15.5 135.5 15.5 279.5v448h230v-1062h-214zM249.997 1249v185h528v-185h-528z" />
    <glyph glyph-name="Ubreve" unicode="&#x16c;" horiz-adv-x="1212" 
d="M120 1466h242v-794c0 -123.333 3 -203.666 9 -240.999c10.667 -64.667 36.167 -114.667 76.5 -150s93.5 -53 159.5 -53c56 0 101.667 12.5 137 37.5s59.5 59.667 72.5 104s19.5 139.5 19.5 285.5v811h243v-770c0 -196.667 -10.5 -338.834 -31.5 -426.501
s-68.333 -158.667 -142 -213s-170.834 -81.5 -291.501 -81.5c-125.333 0 -223.166 22.5 -293.499 67.5s-121.333 108.333 -153 190s-47.5 232.167 -47.5 451.5v782zM746 1856h112c-6 -93.333 -32.5 -165.166 -79.5 -215.499s-105.5 -75.5 -175.5 -75.5
s-128.5 25.167 -175.5 75.5s-73.833 122.166 -80.5 215.499h112c8.66699 -96 56.667 -144 144 -144s135 48 143 144z" />
    <glyph glyph-name="ubreve" unicode="&#x16d;" horiz-adv-x="1026" 
d="M693 0l-0.00292969 159.001c-32 -57.333 -74 -102.166 -126 -134.499s-106.333 -48.5 -163 -48.5c-57.333 0 -108.666 15 -153.999 45s-79.166 72.667 -101.499 128s-33.5 135.666 -33.5 240.999v672h231v-488c0 -139.333 3.5 -227.833 10.5 -265.5
s22.5 -66.834 46.5 -87.501s53 -31 87 -31c38.667 0 74.334 13.5 107.001 40.5s54.167 61.667 64.5 104s15.5 135.5 15.5 279.5v448h230v-1062h-214zM662.997 1491h112c-6 -93.333 -32.5 -165.166 -79.5 -215.499s-105.5 -75.5 -175.5 -75.5s-128.5 25.167 -175.5 75.5
s-73.833 122.166 -80.5 215.499h112c8.66699 -96 56.667 -144 144 -144s135 48 143 144z" />
    <glyph glyph-name="Uring" unicode="&#x16e;" horiz-adv-x="1212" 
d="M120 1466h242v-794c0 -123.333 3 -203.666 9 -240.999c10.667 -64.667 36.167 -114.667 76.5 -150s93.5 -53 159.5 -53c56 0 101.667 12.5 137 37.5s59.5 59.667 72.5 104s19.5 139.5 19.5 285.5v811h243v-770c0 -196.667 -10.5 -338.834 -31.5 -426.501
s-68.333 -158.667 -142 -213s-170.834 -81.5 -291.501 -81.5c-125.333 0 -223.166 22.5 -293.499 67.5s-121.333 108.333 -153 190s-47.5 232.167 -47.5 451.5v782zM761 1783c0 -56 -16.167 -102.667 -48.5 -140s-69.833 -56 -112.5 -56s-80.167 18.667 -112.5 56
s-48.5 84 -48.5 140c0 56.667 16 103.5 48 140.5s69.667 55.5 113 55.5c42.667 0 80.167 -18.5 112.5 -55.5s48.5 -83.833 48.5 -140.5zM673 1783c0 26 -7.33301 47.333 -22 64s-31.667 25 -51 25s-36.333 -8.33301 -51 -25s-22 -38 -22 -64
c0 -25.333 7.33301 -46.5 22 -63.5s31.667 -25.5 51 -25.5s36.333 8.5 51 25.5s22 38.167 22 63.5z" />
    <glyph glyph-name="uring" unicode="&#x16f;" horiz-adv-x="1026" 
d="M693 0l-0.00292969 159.001c-32 -57.333 -74 -102.166 -126 -134.499s-106.333 -48.5 -163 -48.5c-57.333 0 -108.666 15 -153.999 45s-79.166 72.667 -101.499 128s-33.5 135.666 -33.5 240.999v672h231v-488c0 -139.333 3.5 -227.833 10.5 -265.5
s22.5 -66.834 46.5 -87.501s53 -31 87 -31c38.667 0 74.334 13.5 107.001 40.5s54.167 61.667 64.5 104s15.5 135.5 15.5 279.5v448h230v-1062h-214zM671.997 1342c0 -56 -16.167 -102.667 -48.5 -140s-69.833 -56 -112.5 -56s-80.167 18.667 -112.5 56s-48.5 84 -48.5 140
c0 56.667 16 103.5 48 140.5s69.667 55.5 113 55.5c42.667 0 80.167 -18.5 112.5 -55.5s48.5 -83.833 48.5 -140.5zM583.997 1342c0 26 -7.33301 47.333 -22 64s-31.667 25 -51 25s-36.333 -8.33301 -51 -25s-22 -38 -22 -64c0 -25.333 7.33301 -46.5 22 -63.5
s31.667 -25.5 51 -25.5s36.333 8.5 51 25.5s22 38.167 22 63.5z" />
    <glyph glyph-name="Udblacute" unicode="&#x170;" horiz-adv-x="1212" 
d="M120 1466h242v-794c0 -123.333 3 -203.666 9 -240.999c10.667 -64.667 36.167 -114.667 76.5 -150s93.5 -53 159.5 -53c56 0 101.667 12.5 137 37.5s59.5 59.667 72.5 104s19.5 139.5 19.5 285.5v811h243v-770c0 -196.667 -10.5 -338.834 -31.5 -426.501
s-68.333 -158.667 -142 -213s-170.834 -81.5 -291.501 -81.5c-125.333 0 -223.166 22.5 -293.499 67.5s-121.333 108.333 -153 190s-47.5 232.167 -47.5 451.5v782zM354 1569l114 298h241l-210 -298h-145zM663 1569l115 298h235l-203 -298h-147z" />
    <glyph glyph-name="udblacute" unicode="&#x171;" horiz-adv-x="1026" 
d="M693 0l-0.00292969 159.001c-32 -57.333 -74 -102.166 -126 -134.499s-106.333 -48.5 -163 -48.5c-57.333 0 -108.666 15 -153.999 45s-79.166 72.667 -101.499 128s-33.5 135.666 -33.5 240.999v672h231v-488c0 -139.333 3.5 -227.833 10.5 -265.5
s22.5 -66.834 46.5 -87.501s53 -31 87 -31c38.667 0 74.334 13.5 107.001 40.5s54.167 61.667 64.5 104s15.5 135.5 15.5 279.5v448h230v-1062h-214zM288.997 1197l114 298h241l-210 -298h-145zM597.997 1197l115 298h235l-203 -298h-147z" />
    <glyph glyph-name="Uogonek" unicode="&#x172;" horiz-adv-x="1212" 
d="M120 1466h242v-794c0 -123.333 3 -203.666 9 -240.999c10.667 -64.667 36.167 -114.667 76.5 -150s93.5 -53 159.5 -53c56 0 101.667 12.5 137 37.5s59.5 59.667 72.5 104s19.5 139.5 19.5 285.5v811h243v-770c0 -196.667 -10.5 -338.834 -31.5 -426.501
s-68.333 -158.667 -142 -213s-170.834 -81.5 -291.501 -81.5c-125.333 0 -223.166 22.5 -293.499 67.5s-121.333 108.333 -153 190s-47.5 232.167 -47.5 451.5v782zM544 26l123.002 -0.000976562c-11.333 -37.333 -17 -85.333 -17 -144c0 -54.667 10.333 -94.667 31 -120
s50 -38 88 -38c33.333 0 70 7.66699 110 23v-135c-54.667 -28.667 -108.334 -43 -161.001 -43c-60.667 0 -109.834 20.333 -147.501 61s-56.5 98 -56.5 172c0 58.667 10 133.334 30 224.001z" />
    <glyph glyph-name="uogonek" unicode="&#x173;" horiz-adv-x="1026" 
d="M693 0l-0.00292969 159.001c-32 -57.333 -74 -102.166 -126 -134.499s-106.333 -48.5 -163 -48.5c-57.333 0 -108.666 15 -153.999 45s-79.166 72.667 -101.499 128s-33.5 135.666 -33.5 240.999v672h231v-488c0 -139.333 3.5 -227.833 10.5 -265.5
s22.5 -66.834 46.5 -87.501s53 -31 87 -31c38.667 0 74.334 13.5 107.001 40.5s54.167 61.667 64.5 104s15.5 135.5 15.5 279.5v448h230v-1062h-214zM704.997 26.001l123.002 -0.000976562c-11.333 -37.333 -17 -85.333 -17 -144c0 -54.667 10.333 -94.667 31 -120
s50 -38 88 -38c33.333 0 70 7.66699 110 23v-135c-54.667 -28.667 -108.334 -43 -161.001 -43c-60.667 0 -109.834 20.333 -147.501 61s-56.5 98 -56.5 172c0 58.667 10 133.334 30 224.001z" />
    <glyph glyph-name="Wcircumflex" unicode="&#x174;" horiz-adv-x="1585" 
d="M292 0l-287 1466h249l180 -1007l220 1007h289l211 -1024l185 1024h244l-292 -1466h-258l-240 1096l-238 -1096h-263zM521 1565l172 295h213l170 -295h-185l-95 149l-88 -149h-187z" />
    <glyph glyph-name="wcircumflex" unicode="&#x175;" horiz-adv-x="1307" 
d="M284 0l-276 1062h224l163 -696l150 696h222l145 -696l167 696h227l-280 -1062h-221l-150 683l-148 -683h-223zM380 1192l172 295h213l170 -295h-185l-95 149l-88 -149h-187z" />
    <glyph glyph-name="Ycircumflex" unicode="&#x176;" horiz-adv-x="1120" 
d="M438 0v617l-440 849h284l283 -580l278 580h279l-442 -851v-615h-242zM288 1565l172 295h213l170 -295h-185l-95 149l-88 -149h-187z" />
    <glyph glyph-name="ycircumflex" unicode="&#x177;" 
d="M11 1062l246.002 0.00292969l207 -754l204 754h238l-307 -1022l-59 -199c-26 -74.667 -51.833 -129.334 -77.5 -164.001s-58.334 -61.334 -98.001 -80.001s-88.5 -28 -146.5 -28c-44.667 0 -88.334 5.66699 -131.001 17l-20 220c36 -8.66699 68.333 -13 97 -13
c44 0 80.167 14.667 108.5 44s51.5 82.666 69.5 159.999zM187.002 1192l172 295h213l170 -295h-185l-95 149l-88 -149h-187z" />
    <glyph glyph-name="Ydieresis" unicode="&#x178;" horiz-adv-x="1120" 
d="M438 0v617l-440 849h284l283 -580l278 580h279l-442 -851v-615h-242zM285 1621v241h198v-241h-198zM638 1621v241h198v-241h-198z" />
    <glyph glyph-name="Zacute" unicode="&#x179;" horiz-adv-x="1026" 
d="M18 0v267l632 951h-561v248h880v-230l-658 -989h684v-247h-977zM426 1564l113 299h259l-226 -299h-146z" />
    <glyph glyph-name="zacute" unicode="&#x17a;" horiz-adv-x="840" 
d="M28 0l0.000976562 219l327 457c53.333 74.667 92.666 127.667 117.999 159c-26.667 -2 -62 -3.33301 -106 -4l-307 -2v233h720v-199l-333 -468l-117 -155c64 4.66699 103.667 7 119 7h357v-247h-778zM285.001 1192l113 299h259l-226 -299h-146z" />
    <glyph glyph-name="Zdot" unicode="&#x17b;" horiz-adv-x="1026" 
d="M18 0v267l632 951h-561v248h880v-230l-658 -989h684v-247h-977zM405 1623v266h227v-266h-227z" />
    <glyph glyph-name="zdot" unicode="&#x17c;" horiz-adv-x="840" 
d="M28 0l0.000976562 219l327 457c53.333 74.667 92.666 127.667 117.999 159c-26.667 -2 -62 -3.33301 -106 -4l-307 -2v233h720v-199l-333 -468l-117 -155c64 4.66699 103.667 7 119 7h357v-247h-778zM319.001 1249v266h227v-266h-227z" />
    <glyph glyph-name="Zcaron" unicode="&#x17d;" horiz-adv-x="1026" 
d="M18 0v267l632 951h-561v248h880v-230l-658 -989h684v-247h-977zM239 1862h187l88 -149l95 149h185l-170 -295h-213z" />
    <glyph glyph-name="zcaron" unicode="&#x17e;" horiz-adv-x="840" 
d="M28 0l0.000976562 219l327 457c53.333 74.667 92.666 127.667 117.999 159c-26.667 -2 -62 -3.33301 -106 -4l-307 -2v233h720v-199l-333 -468l-117 -155c64 4.66699 103.667 7 119 7h357v-247h-778zM139.001 1491h187l88 -149l95 149h185l-170 -295h-213z" />
    <glyph glyph-name="longs" unicode="&#x17f;" horiz-adv-x="467" 
d="M577 1455l-31 -195.999c-37.333 10.667 -73.333 16 -108 16c-32.667 0 -56.167 -9.83301 -70.5 -29.5s-21.5 -55.834 -21.5 -108.501v-1137h-230v1142c0 85.333 7.5 151 22.5 197s44 82.833 87 110.5s95.167 41.5 156.5 41.5c67.333 0 132.333 -12 195 -36z" />
    <glyph glyph-name="florin" unicode="&#x192;" 
d="M226 851l30.998 210.998h165l13 89c15.333 98 28 161.333 38 190c18 50.667 46 88.334 84 113.001s91.333 37 160 37c74 0 147.333 -13.667 220 -41l-44 -226c-51.333 18.667 -94.666 28 -129.999 28c-29.333 0 -51.166 -8 -65.499 -24s-26.166 -52.667 -35.499 -110
l-9 -56h170l-30 -211h-168l-141 -978c-15.333 -106.667 -39.333 -181 -72 -223c-42 -54 -107 -81 -195 -81c-87.333 0 -165 13.333 -233 40l47 221c59.333 -15.333 105 -23 137 -23c33.333 0 56.166 10.833 68.499 32.5s23.5 67.834 33.5 138.501l122 873h-166z" />
    <glyph glyph-name="Aringacute" unicode="&#x1fa;" horiz-adv-x="1251" 
d="M1206 0h-264l-105 333h-480l-99 -333h-258l468 1466h257zM759 580l-165 544l-163 -544h328zM765 1714c0 -56 -16.167 -102.667 -48.5 -140s-69.833 -56 -112.5 -56s-80.167 18.667 -112.5 56s-48.5 84 -48.5 140c0 56.667 16 103.5 48 140.5s69.667 55.5 113 55.5
c42.667 0 80.167 -18.5 112.5 -55.5s48.5 -83.833 48.5 -140.5zM677 1714c0 26 -7.33301 47.333 -22 64s-31.667 25 -51 25s-36.333 -8.33301 -51 -25s-22 -38 -22 -64c0 -25.333 7.33301 -46.5 22 -63.5s31.667 -25.5 51 -25.5s36.333 8.5 51 25.5s22 38.167 22 63.5z
M489 1972l113 299h259l-226 -299h-146z" />
    <glyph glyph-name="aringacute" unicode="&#x1fb;" horiz-adv-x="1024" 
d="M293 738l-208.997 45.998c25.333 107.333 67.166 184.5 125.499 231.5s142.166 70.5 251.499 70.5c97.333 0 171.666 -13.667 222.999 -41s88 -64.5 110 -111.5s33 -132.5 33 -256.5l-2 -328c0 -92 3.66699 -160.5 11 -205.5s21 -92.833 41 -143.5h-228l-30 116
c-39.333 -46.667 -81.5 -81.667 -126.5 -105s-92.833 -35 -143.5 -35c-84.667 0 -154 28.5 -208 85.5s-81 132.833 -81 227.5c0 60 11 112.333 33 157s53 80.334 93 107.001s104 50.334 192 71.001c106.667 24.667 181 47.667 223 69c0 58.667 -4.16699 97.167 -12.5 115.5
s-23.666 33.333 -45.999 45s-53.833 17.5 -94.5 17.5c-41.333 0 -73.833 -9.33301 -97.5 -28s-42.834 -53.667 -57.501 -105zM601.003 509.998c-29.333 -12 -75 -25.999 -137 -41.999c-71.333 -18.667 -118 -39.334 -140 -62.001s-33 -52 -33 -88
c0 -40.667 12.167 -74.834 36.5 -102.501s54.833 -41.5 91.5 -41.5c32.667 0 65 11.167 97 33.5s54.167 48.833 66.5 79.5s18.5 86.334 18.5 167.001v56zM630.003 1342c0 -56 -16.167 -102.667 -48.5 -140s-69.833 -56 -112.5 -56s-80.167 18.667 -112.5 56
s-48.5 84 -48.5 140c0 56.667 16 103.5 48 140.5s69.667 55.5 113 55.5c42.667 0 80.167 -18.5 112.5 -55.5s48.5 -83.833 48.5 -140.5zM542.003 1342c0 26 -7.33301 47.333 -22 64s-31.667 25 -51 25s-36.333 -8.33301 -51 -25s-22 -38 -22 -64
c0 -25.333 7.33301 -46.5 22 -63.5s31.667 -25.5 51 -25.5s36.333 8.5 51 25.5s22 38.167 22 63.5zM373.003 1620l113 299h259l-226 -299h-146z" />
    <glyph glyph-name="AEacute" unicode="&#x1fc;" horiz-adv-x="1679" 
d="M-70 0l561 1466h1085v-248h-595v-326h549v-248h-549v-397h617v-247h-859v345h-417l-123 -345h-269zM411 601h330v643h-94zM837 1565l113 299h259l-226 -299h-146z" />
    <glyph glyph-name="aeacute" unicode="&#x1fd;" horiz-adv-x="1493" 
d="M1177 339l226.001 -49.001c-62.667 -209.333 -190.667 -314 -384 -314c-124 0 -228 48.667 -312 146c-40.667 -43.333 -91.834 -78.5 -153.501 -105.5s-123.167 -40.5 -184.5 -40.5c-90 0 -162 28.5 -216 85.5s-81 132.5 -81 226.5c0 71.333 16.667 134.333 50 189
c25.333 42 63.666 75 114.999 99c32.667 16 110.334 39.333 233.001 70c53.333 14 99.333 28.667 138 44c0 54 -4.5 91.333 -13.5 112s-24.5 37.334 -46.5 50.001s-49.667 19 -83 19c-42 0 -76.167 -10.333 -102.5 -31s-45.5 -54.667 -57.5 -102l-208 49
c28 107.333 72 184 132 230s148.333 69 265 69c114.667 0 203.334 -32.667 266.001 -98c67.333 65.333 146.666 98 237.999 98c84 0 156.833 -21.833 218.5 -65.5s110 -110 145 -199s52.5 -213.5 52.5 -373.5h-579c16.667 -172 77 -258 181 -258
c79.333 0 133 49.667 161 149zM1187 623.999c-4 65.333 -13.5 114.168 -28.5 146.501s-35.667 57.166 -62 74.499s-55.833 26 -88.5 26c-56 0 -98.833 -25.833 -128.5 -77.5s-43.5 -108.167 -41.5 -169.5h349zM606.001 508.001c-136 -44.667 -208.667 -69.3311 -218 -73.998
c-30 -12.667 -51.667 -29.167 -65 -49.5s-20 -43.833 -20 -70.5c0 -40.667 12.167 -74.167 36.5 -100.5s54.833 -39.5 91.5 -39.5c34.667 0 67.5 11.667 98.5 35s51.5 51.666 61.5 84.999s15 104.666 15 213.999zM599.001 1192l113 299h259l-226 -299h-146z" />
    <glyph glyph-name="Oslashacute" unicode="&#x1fe;" horiz-adv-x="1307" 
d="M1016 1359l129.002 177l115 -122l-137 -188c76.667 -128 115 -296 115 -504c0 -205.333 -45.333 -377.333 -136 -516c-100.667 -154 -247.334 -231 -440.001 -231c-148.667 0 -269 41.667 -361 125l-132 -182l-117 124l140 192c-40.667 68 -69.334 137.333 -86.001 208
c-22.667 93.333 -34 194 -34 302c0 237.333 58.333 426 175 566c100 120.667 236 181 408 181c144 0 264.333 -44 361 -132zM865.002 1153c-54.667 57.333 -124.333 85.999 -209 85.999c-98 0 -178 -41.167 -240 -123.5s-93 -209.166 -93 -380.499
c0 -108 12.333 -198.667 37 -272zM955.003 995.999l-504 -691c55.333 -60 123 -90 203 -90c96.667 0 176.5 42.5 239.5 127.5s94.5 215.167 94.5 390.5c0 101.333 -11 189 -33 263zM512.003 1565l113 299h259l-226 -299h-146z" />
    <glyph glyph-name="oslashacute" unicode="&#x1ff;" horiz-adv-x="1026" 
d="M777 999l85.0029 120l92 -92l-89 -124c30.667 -44 56 -99 76 -165s30 -134.333 30 -205c0 -108.667 -20.833 -206.334 -62.5 -293.001s-96.834 -152.334 -165.501 -197.001s-143.334 -67 -224.001 -67c-93.333 0 -177.333 28 -252 84l-95 -133l-89 95l94 134
c-70 104.667 -105 232.334 -105 383.001c0 106.667 20.333 202.834 61 288.501s94.667 150.167 162 193.5s142.666 65 225.999 65c98 0 183.333 -29 256 -87zM647.003 817c-36.667 36 -78.333 54 -125 54c-60 0 -112 -28.667 -156 -86s-66 -139 -66 -245
c0 -66.667 8 -126 24 -178zM717.004 695l-321 -452.999c36.667 -32 77.667 -48 123 -48c62 0 114.667 28.333 158 85s65 138 65 244c0 59.333 -8.33301 116.666 -25 171.999zM404.004 1192l113 299h259l-226 -299h-146z" />
    <glyph glyph-name="uni0218" unicode="&#x218;" horiz-adv-x="1120" 
d="M61 477l236.999 28c26.667 -187.333 114 -281 262 -281c73.333 0 131 19.167 173 57.5s63 85.833 63 142.5c0 33.333 -7.33301 61.666 -22 84.999s-37 42.5 -67 57.5s-102.667 40.167 -218 75.5c-103.333 31.333 -179 65.333 -227 102s-86.167 84.834 -114.5 144.501
s-42.5 123.834 -42.5 192.501c0 80 18.167 152 54.5 216s86.5 112.333 150.5 145s143 49 237 49c141.333 0 251.666 -38.333 330.999 -115s121.333 -186.334 126 -329.001l-243 -13c-10.667 78.667 -33.667 133.667 -69 165s-85.666 47 -150.999 47
s-115.666 -13.667 -150.999 -41s-53 -61.333 -53 -102c0 -40 16 -73.667 48 -101s105.667 -57.333 221 -90c122 -35.333 210.167 -72.5 264.5 -111.5s95.833 -89.333 124.5 -151s43 -136.5 43 -224.5c0 -127.333 -39.167 -234.333 -117.5 -321s-200.833 -130 -367.5 -130
c-294.667 0 -458.667 167.667 -492 503zM446.999 -121l208 0.000976562v-181c0 -144.667 -60.333 -244 -181 -298l-41 105c60.667 23.333 99 63.666 115 120.999h-101v253z" />
    <glyph glyph-name="uni0219" unicode="&#x219;" 
d="M40 303l231 42.998c20 -111.333 82 -167 186 -167c55.333 0 96.666 10.667 123.999 32s41 49 41 83c0 23.333 -6 41.666 -18 54.999c-12.667 13.333 -37.667 25 -75 35c-189.333 50 -309.666 97.667 -360.999 143c-64 56.667 -96 134.334 -96 233.001
s31.333 177.667 94 237s153.667 89 273 89c114 0 200.667 -22.167 260 -66.5s101 -115.833 125 -214.5l-217 -49c-19.333 85.333 -74 128 -164 128c-56.667 0 -97 -8.16699 -121 -24.5s-36 -37.5 -36 -63.5c0 -23.333 11 -42.666 33 -57.999c22 -16 90.333 -40 205 -72
c128.667 -36 216 -79.667 262 -131c45.333 -51.333 68 -119.666 68 -204.999c0 -102.667 -35.167 -187.334 -105.5 -254.001s-167.5 -100 -291.5 -100c-112.667 0 -204.667 27.833 -276 83.5s-118.333 136.834 -141 243.501zM350 -121.002l208 0.000976562v-181
c0 -144.667 -60.333 -244 -181 -298l-41 105c60.667 23.333 99 63.666 115 120.999h-101v253z" />
    <glyph glyph-name="uni021A" unicode="&#x21a;" horiz-adv-x="1026" 
d="M393 0v1218h-357v248h955v-248h-356v-1218h-242zM407 -121l208 0.000976562v-181c0 -144.667 -60.333 -244 -181 -298l-41 105c60.667 23.333 99 63.666 115 120.999h-101v253z" />
    <glyph glyph-name="uni021B" unicode="&#x21b;" horiz-adv-x="559" 
d="M519 1062l-0.000976562 -224h-157v-428c0 -92.667 2.33301 -146.334 7 -161.001c9.33301 -26.667 28.333 -40 57 -40c21.333 0 52 9 92 27l20 -218c-53.333 -28 -113.666 -42 -180.999 -42c-58.667 0 -105.667 14 -141 42s-59 68.333 -71 121
c-9.33301 38.667 -14 117.334 -14 236.001v463h-106v224h106v211l231 164v-375h157zM229.999 -121l208 0.000976562v-181c0 -144.667 -60.333 -244 -181 -298l-41 105c60.667 23.333 99 63.666 115 120.999h-101v253z" />
    <glyph glyph-name="circumflex" unicode="&#x2c6;" horiz-adv-x="559" 
d="M2 1196l172 295h213l170 -295h-185l-95 149l-88 -149h-187z" />
    <glyph glyph-name="caron" unicode="&#x2c7;" horiz-adv-x="559" 
d="M2 1491h187l88 -149l95 149h185l-170 -295h-213z" />
    <glyph glyph-name="macron" unicode="&#x2c9;" horiz-adv-x="559" 
d="M15 1237v185h528v-185h-528z" />
    <glyph glyph-name="breve" unicode="&#x2d8;" horiz-adv-x="559" 
d="M420 1491h112c-6 -93.333 -32.5 -165.166 -79.5 -215.499s-105.5 -75.5 -175.5 -75.5s-128.5 25.167 -175.5 75.5s-73.833 122.166 -80.5 215.499h112c8.66699 -96 56.667 -144 144 -144s135 48 143 144z" />
    <glyph glyph-name="dotaccent" unicode="&#x2d9;" horiz-adv-x="559" 
d="M168 1225v266h227v-266h-227z" />
    <glyph glyph-name="ring" unicode="&#x2da;" horiz-adv-x="559" 
d="M441 1342c0 -56 -16.167 -102.667 -48.5 -140s-69.833 -56 -112.5 -56s-80.167 18.667 -112.5 56s-48.5 84 -48.5 140c0 56.667 16 103.5 48 140.5s69.667 55.5 113 55.5c42.667 0 80.167 -18.5 112.5 -55.5s48.5 -83.833 48.5 -140.5zM353 1342
c0 26 -7.33301 47.333 -22 64s-31.667 25 -51 25s-36.333 -8.33301 -51 -25s-22 -38 -22 -64c0 -25.333 7.33301 -46.5 22 -63.5s31.667 -25.5 51 -25.5s36.333 8.5 51 25.5s22 38.167 22 63.5z" />
    <glyph glyph-name="ogonek" unicode="&#x2db;" horiz-adv-x="559" 
d="M161 26l123.002 -0.000976562c-11.333 -37.333 -17 -85.333 -17 -144c0 -54.667 10.333 -94.667 31 -120s50 -38 88 -38c33.333 0 70 7.66699 110 23v-135c-54.667 -28.667 -108.334 -43 -161.001 -43c-60.667 0 -109.834 20.333 -147.501 61s-56.5 98 -56.5 172
c0 58.667 10 133.334 30 224.001z" />
    <glyph glyph-name="tilde" unicode="&#x2dc;" horiz-adv-x="559" 
d="M94 1205l-104.001 0.000976562l-1 33c0 73.333 14.167 128.5 42.5 165.5s64.166 55.5 107.499 55.5c18.667 0 36.334 -2.66699 53.001 -8s43.667 -18 81 -38c49.333 -26.667 86 -40 110 -40c38 0 60.333 29 67 87h106c-0.666992 -90.667 -14.5 -155.167 -41.5 -193.5
s-61.833 -57.5 -104.5 -57.5c-18 0 -35.667 2.33301 -53 7c-12.667 3.33301 -42 15.666 -88 36.999c-55.333 26 -94.666 39 -117.999 39c-16.667 0 -30.167 -6.5 -40.5 -19.5s-15.833 -35.5 -16.5 -67.5z" />
    <glyph glyph-name="hungarumlaut" unicode="&#x2dd;" horiz-adv-x="559" 
d="M79 1197l114 298h241l-210 -298h-145zM388 1197l115 298h235l-203 -298h-147z" />
    <glyph glyph-name="tonos" unicode="&#x384;" horiz-adv-x="559" 
d="M153 1192l113 299h259l-226 -299h-146z" />
    <glyph glyph-name="dieresistonos" unicode="&#x385;" horiz-adv-x="559" 
d="M131 1194l86 297h248l-186 -297h-148zM680 1194h-199v240h199v-240zM78 1194h-199v240h199v-240z" />
    <glyph glyph-name="Alphatonos" unicode="&#x386;" horiz-adv-x="1212" 
d="M1206 0h-264l-105 333h-480l-99 -333h-258l468 1466h257zM759 580l-165 544l-163 -544h328zM25 1168l113 299h259l-226 -299h-146z" />
    <glyph glyph-name="anoteleia" unicode="&#x387;" horiz-adv-x="559" 
d="M164 781v281h231v-281h-231z" />
    <glyph glyph-name="Epsilontonos" unicode="&#x388;" horiz-adv-x="1434" 
d="M435 0v1466h892v-248h-650v-325h604v-247h-604v-399h672v-247h-914zM-11 1168l113 299h259l-226 -299h-146z" />
    <glyph glyph-name="Etatonos" unicode="&#x389;" horiz-adv-x="1522" 
d="M435 0v1466h242v-577h476v577h243v-1466h-243v641h-476v-641h-242zM-11 1168l113 299h259l-226 -299h-146z" />
    <glyph glyph-name="Iotatonos" unicode="&#x38a;" horiz-adv-x="789" 
d="M439 0v1466h242v-1466h-242zM-11 1168l113 299h259l-226 -299h-146z" />
    <glyph glyph-name="Omicrontonos" unicode="&#x38c;" horiz-adv-x="1382" 
d="M146 724c0 174.667 25.834 318.5 77.501 431.5s119.167 197.167 202.5 252.5s184.333 83 303 83c172 0 312.167 -65.667 420.5 -197s162.5 -318.333 162.5 -561c0 -245.333 -57.333 -437 -172 -575c-100.667 -122 -237.334 -183 -410.001 -183
c-174 0 -311.333 60.333 -412 181c-114.667 138 -172 327.333 -172 568zM396.001 734c0 -168.667 32 -295.167 96 -379.5s143.333 -126.5 238 -126.5c95.333 0 174.333 41.833 237 125.5s94 212.167 94 385.5c0 170 -30.5 295.667 -91.5 377s-140.833 122 -239.5 122
s-179 -41 -241 -123s-93 -209 -93 -381zM-46.999 1168l113 299h259l-226 -299h-146z" />
    <glyph glyph-name="Upsilontonos" unicode="&#x38e;" horiz-adv-x="1558" 
d="M874 0v617l-440 849h284l283 -580l278 580h279l-442 -851v-615h-242zM-7 1168l113 299h259l-226 -299h-146z" />
    <glyph glyph-name="Omegatonos" unicode="&#x38f;" horiz-adv-x="1407" 
d="M691 0l-551 -0.000976562v248h233c-142 184.667 -213 381.334 -213 590.001c0 192 52.667 348.833 158 470.5s243.333 182.5 414 182.5c171.333 0 310 -61 416 -183s159 -278.667 159 -470c0 -210 -71.667 -406.667 -215 -590h234v-248h-551v236
c188 92 282 268.667 282 530c0 140.667 -30 254.667 -90 342s-138.333 131 -235 131s-174.5 -43.5 -233.5 -130.5s-88.5 -201.167 -88.5 -342.5c0 -261.333 93.667 -438 281 -530v-236zM-51 1168l113 299h259l-226 -299h-146z" />
    <glyph glyph-name="iotadieresistonos" unicode="&#x390;" horiz-adv-x="467" 
d="M121 0v1062h231v-1062h-231zM66 1194l86 297h248l-186 -297h-148zM615 1194h-199v240h199v-240zM13 1194h-199v240h199v-240z" />
    <glyph glyph-name="Alpha" unicode="&#x391;" horiz-adv-x="1212" 
d="M1206 0h-264l-105 333h-480l-99 -333h-258l468 1466h257zM759 580l-165 544l-163 -544h328z" />
    <glyph glyph-name="Beta" unicode="&#x392;" horiz-adv-x="1212" 
d="M122 1466l481.002 0.000976562c131.333 0 223.666 -12 276.999 -36s98.333 -66.333 135 -127s55 -129.334 55 -206.001c0 -70.667 -15.667 -134.5 -47 -191.5s-72 -99.167 -122 -126.5c71.333 -25.333 127.166 -68.666 167.499 -129.999s60.5 -136 60.5 -224
c0 -106.667 -25.667 -196.834 -77 -270.501s-112 -119.167 -182 -136.5c-48.667 -12 -161.667 -18 -339 -18h-409v1466zM364.002 1222l0.000976562 -339h160c96 0 155.333 1.66699 178 5c41.333 6.66699 73.666 24.167 96.999 52.5s35 66.833 35 115.5
c0 43.333 -9.5 78.5 -28.5 105.5s-42 43.833 -69 50.5s-104.5 10 -232.5 10h-140zM364.003 639.001v-391.999h225c98.667 0 162 5.16699 190 15.5s51.5 30.666 70.5 60.999s28.5 68.833 28.5 115.5c0 48 -10.167 87.5 -30.5 118.5s-47.333 52.333 -81 64
s-102.5 17.5 -206.5 17.5h-196z" />
    <glyph glyph-name="Gamma" unicode="&#x393;" horiz-adv-x="1010" 
d="M127 0v1454h846v-248h-604v-1206h-242z" />
    <glyph glyph-name="Delta" unicode="&#x394;" horiz-adv-x="1206" 
d="M725 1466l481 -1466h-1206l467 1466h258zM332 248h532l-270 876z" />
    <glyph glyph-name="Epsilon" unicode="&#x395;" horiz-adv-x="1120" 
d="M123 0v1466h892v-248h-650v-325h604v-247h-604v-399h672v-247h-914z" />
    <glyph glyph-name="Zeta" unicode="&#x396;" horiz-adv-x="1026" 
d="M18 0v267l632 951h-561v248h880v-230l-658 -989h684v-247h-977z" />
    <glyph glyph-name="Eta" unicode="&#x397;" horiz-adv-x="1212" 
d="M123 0v1466h242v-577h476v577h243v-1466h-243v641h-476v-641h-242z" />
    <glyph glyph-name="Theta" unicode="&#x398;" horiz-adv-x="1307" 
d="M665 -25c-196.667 0 -344.333 70.332 -443 210.999s-148 320.334 -148 539.001c0 240 51.667 427.667 155 563s245.333 203 426 203c177.333 0 319 -67.167 425 -201.5s159 -311.5 159 -531.5c0 -248 -50.833 -440.5 -152.5 -577.5s-242.167 -205.5 -421.5 -205.5z
M657.001 1239c-105.333 0 -187.333 -43.834 -246 -131.501s-88 -212.5 -88 -374.5c0 -159.333 30.333 -283.5 91 -372.5s143.667 -133.5 249 -133.5c98 0 176.833 44.833 236.5 134.5s89.5 214.834 89.5 375.501c0 161.333 -29 285.333 -87 372s-139.667 130 -245 130z
M852.001 609.998h-391v248h391v-248z" />
    <glyph glyph-name="Iota" unicode="&#x399;" horiz-adv-x="467" 
d="M115 0v1466h242v-1466h-242z" />
    <glyph glyph-name="Kappa" unicode="&#x39a;" horiz-adv-x="1212" 
d="M125 0v1466h242v-651l491 651h327l-453 -571l477 -895h-314l-331 688l-197 -245v-443h-242z" />
    <glyph glyph-name="Lambda" unicode="&#x39b;" horiz-adv-x="1120" 
d="M430 1466h260l430 -1466h-264l-303 1085l-295 -1085h-258z" />
    <glyph glyph-name="Mu" unicode="&#x39c;" horiz-adv-x="1399" 
d="M119 0v1466h363l218 -1000l216 1000h364v-1466h-225v1154l-239 -1154h-234l-237 1154v-1154h-226z" />
    <glyph glyph-name="Nu" unicode="&#x39d;" horiz-adv-x="1212" 
d="M125 0v1466h236l492 -979v979h226v-1466h-244l-484 956v-956h-226z" />
    <glyph glyph-name="Xi" unicode="&#x39e;" horiz-adv-x="1081" 
d="M106 1219v247h869v-247h-869zM152 649v248h778v-248h-778zM84 0v248h913v-248h-913z" />
    <glyph glyph-name="Omicron" unicode="&#x39f;" horiz-adv-x="1307" 
d="M74 724c0 174.667 25.834 318.5 77.501 431.5s119.167 197.167 202.5 252.5s184.333 83 303 83c172 0 312.167 -65.667 420.5 -197s162.5 -318.333 162.5 -561c0 -245.333 -57.333 -437 -172 -575c-100.667 -122 -237.334 -183 -410.001 -183
c-174 0 -311.333 60.333 -412 181c-114.667 138 -172 327.333 -172 568zM324.001 734c0 -168.667 32 -295.167 96 -379.5s143.333 -126.5 238 -126.5c95.333 0 174.333 41.833 237 125.5s94 212.167 94 385.5c0 170 -30.5 295.667 -91.5 377s-140.833 122 -239.5 122
s-179 -41 -241 -123s-93 -209 -93 -381z" />
    <glyph glyph-name="Pi" unicode="&#x3a0;" horiz-adv-x="1212" 
d="M367 0h-242v1466h960v-1466h-241v1219h-477v-1219z" />
    <glyph glyph-name="Rho" unicode="&#x3a1;" horiz-adv-x="1120" 
d="M122 0l0.000976562 1466h390c145.333 0 240.333 -7 285 -21c71.333 -22.667 130.166 -71 176.499 -145s69.5 -169.333 69.5 -286c0 -106 -20 -194.833 -60 -266.5s-90 -122 -150 -151s-163.333 -43.5 -310 -43.5h-159v-553h-242zM364.001 1218l-0.00195312 -415.999h134
c90 0 151.167 6.33301 183.5 19s58.833 35.5 79.5 68.5s31 73.5 31 121.5c0 48.667 -10.667 89.667 -32 123s-47.666 55.666 -78.999 66.999s-97.666 17 -198.999 17h-118z" />
    <glyph glyph-name="Sigma" unicode="&#x3a3;" horiz-adv-x="1008" 
d="M88 1202v264h834v-247h-533l311 -453l-344 -518h590v-248h-872v274l321 492z" />
    <glyph glyph-name="Tau" unicode="&#x3a4;" horiz-adv-x="1026" 
d="M393 0v1218h-357v248h955v-248h-356v-1218h-242z" />
    <glyph glyph-name="Upsilon" unicode="&#x3a5;" horiz-adv-x="1120" 
d="M438 0v617l-440 849h284l283 -580l278 580h279l-442 -851v-615h-242z" />
    <glyph glyph-name="Phi" unicode="&#x3a6;" horiz-adv-x="1374" 
d="M565 1372l0.00195312 130.999h242v-131c155.333 -8.66699 277.166 -69.834 365.499 -183.501s132.5 -259.834 132.5 -438.501c0 -173.333 -43.833 -318.666 -131.5 -435.999s-209.834 -183 -366.501 -197v-176h-242v176c-156.667 14 -278.667 79.5 -366 196.5
s-131 262.5 -131 436.5c0 178.667 44 324.834 132 438.501s209.667 174.834 365 183.501zM565.002 378.999v743.002c-78.667 -10.667 -139.667 -49.334 -183 -116.001s-65 -152 -65 -256c0 -105.333 21.5 -190.833 64.5 -256.5s104.167 -103.834 183.5 -114.501z
M807.002 1122v-743c79.333 10.667 140.5 49.167 183.5 115.5s64.5 151.5 64.5 255.5s-21.5 189.5 -64.5 256.5s-104.167 105.5 -183.5 115.5z" />
    <glyph glyph-name="Chi" unicode="&#x3a7;" horiz-adv-x="1120" 
d="M1 0l411 765l-373 701h284l241 -471l236 471h281l-373 -712l411 -754h-293l-267 507l-267 -507h-291z" />
    <glyph glyph-name="Psi" unicode="&#x3a8;" horiz-adv-x="1358" 
d="M70 1051l-0.000976562 415.001h241v-370c0 -158 19 -267.167 57 -327.5s101.667 -90.5 191 -90.5v788h242v-788c88.667 -0.666992 151.834 29.166 189.501 89.499s56.5 169.833 56.5 328.5v370h241v-415c0 -216.667 -39.333 -373.5 -118 -470.5
s-201.667 -147.833 -369 -152.5v-428h-242v428c-168 5.33301 -291.5 56.5 -370.5 153.5s-118.5 253.5 -118.5 469.5z" />
    <glyph glyph-name="Ohm" unicode="&#x3a9;" horiz-adv-x="1346" 
d="M631 0l-551 -0.000976562v248h233c-142 184.667 -213 381.334 -213 590.001c0 192 52.667 348.833 158 470.5s243.333 182.5 414 182.5c171.333 0 310 -61 416 -183s159 -278.667 159 -470c0 -210 -71.667 -406.667 -215 -590h234v-248h-551v236
c188 92 282 268.667 282 530c0 140.667 -30 254.667 -90 342s-138.333 131 -235 131s-174.5 -43.5 -233.5 -130.5s-88.5 -201.167 -88.5 -342.5c0 -261.333 93.667 -438 281 -530v-236z" />
    <glyph glyph-name="Iotadieresis" unicode="&#x3aa;" horiz-adv-x="467" 
d="M115 0v1466h242v-1466h-242zM-39 1621v241h198v-241h-198zM314 1621v241h198v-241h-198z" />
    <glyph glyph-name="Upsilondieresis" unicode="&#x3ab;" horiz-adv-x="1120" 
d="M438 0v617l-440 849h284l283 -580l278 580h279l-442 -851v-615h-242zM293 1622v241h198v-241h-198zM646 1622v241h198v-241h-198z" />
    <glyph glyph-name="alphatonos" unicode="&#x3ac;" horiz-adv-x="1032" 
d="M731 176c-70 -134 -166.336 -201.001 -289.003 -201.001c-110.667 0 -201.5 55 -272.5 165s-106.5 249.667 -106.5 419c0 156 35.333 283 106 381s162.334 147 275.001 147c116.667 0 212.334 -69.333 287.001 -208c12.667 60.667 28.334 121.334 47.001 182.001h199
c-70 -180.667 -105 -367.667 -105 -561c0 -156 32.333 -322.667 97 -500h-195c-22.667 87.333 -37 146 -43 176zM482.997 863.999c-54.667 0 -98.667 -29.333 -132 -88s-50 -138.334 -50 -239.001c0 -104.667 17.167 -187.167 51.5 -247.5s77.833 -90.5 130.5 -90.5
c56 0 100.167 28.5 132.5 85.5s48.5 138.167 48.5 243.5c0 104.667 -17.5 186.834 -52.5 246.501s-77.833 89.5 -128.5 89.5zM334.997 1192l113 299h259l-226 -299h-146z" />
    <glyph glyph-name="epsilontonos" unicode="&#x3ad;" horiz-adv-x="797" 
d="M541 438h-23c-82.667 0 -139.5 -10.167 -170.5 -30.5s-46.5 -51.833 -46.5 -94.5c0 -33.333 11.167 -60.666 33.5 -81.999s50.833 -32 85.5 -32c57.333 0 125.666 32.667 204.999 98l151 -182c-129.333 -93.333 -248.666 -140 -357.999 -140
c-106.667 0 -192.5 29.333 -257.5 88s-97.5 134 -97.5 226c0 121.333 52 208.666 156 261.999c-80.667 54.667 -121 131.667 -121 231c0 94 28.833 168.333 86.5 223s137.5 82 239.5 82c128 0 233.667 -36 317 -108l-137 -178c-58.667 38 -112 57 -160 57
c-80 0 -120 -31.333 -120 -94c0 -74.667 72.333 -111 217 -109v-217zM315 1192l113 299h259l-226 -299h-146z" />
    <glyph glyph-name="etatonos" unicode="&#x3ae;" horiz-adv-x="1026" 
d="M332 1061l-0.000976562 -156c76 121.333 171.333 182 286 182c72.667 0 139.667 -26.333 201 -79s92 -169 92 -349v-1062h-231v946c0 143.333 -12.167 234 -36.5 272s-59.166 57 -104.499 57c-44.667 0 -83.167 -15.667 -115.5 -47s-53 -71.333 -62 -120
s-13.5 -122.667 -13.5 -222v-483h-231v1061h215zM328.999 1192l113 299h259l-226 -299h-146z" />
    <glyph glyph-name="iotatonos" unicode="&#x3af;" horiz-adv-x="467" 
d="M121 0v1062h231v-1062h-231zM100 1192l113 299h259l-226 -299h-146z" />
    <glyph glyph-name="upsilondieresistonos" unicode="&#x3b0;" horiz-adv-x="977" 
d="M96 539v522h232v-565c0 -194 53 -291 159 -291c108 0 162 97 162 291v565h232v-522c0 -376 -131.333 -564 -394 -564c-260.667 0 -391 188 -391 564zM338 1194l86 297h248l-186 -297h-148zM887 1194h-199v240h199v-240zM285 1194h-199v240h199v-240z" />
    <glyph glyph-name="alpha" unicode="&#x3b1;" horiz-adv-x="1032" 
d="M731 176c-70 -134 -166.336 -201.001 -289.003 -201.001c-110.667 0 -201.5 55 -272.5 165s-106.5 249.667 -106.5 419c0 156 35.333 283 106 381s162.334 147 275.001 147c116.667 0 212.334 -69.333 287.001 -208c12.667 60.667 28.334 121.334 47.001 182.001h199
c-70 -180.667 -105 -367.667 -105 -561c0 -156 32.333 -322.667 97 -500h-195c-22.667 87.333 -37 146 -43 176zM482.997 863.999c-54.667 0 -98.667 -29.333 -132 -88s-50 -138.334 -50 -239.001c0 -104.667 17.167 -187.167 51.5 -247.5s77.833 -90.5 130.5 -90.5
c56 0 100.167 28.5 132.5 85.5s48.5 138.167 48.5 243.5c0 104.667 -17.5 186.834 -52.5 246.501s-77.833 89.5 -128.5 89.5z" />
    <glyph glyph-name="beta" unicode="&#x3b2;" horiz-adv-x="1026" 
d="M696 807c86.667 -20 153.166 -65.665 199.499 -136.998s69.5 -158 69.5 -260c0 -126.667 -30.5 -230.834 -91.5 -312.501s-139.167 -122.5 -234.5 -122.5c-117.333 0 -213.666 60.333 -288.999 181v-559h-231v1374c0 165.333 37 293.333 111 384s173.333 136 298 136
c105.333 0 193.5 -35.667 264.5 -107s106.5 -162 106.5 -272c0 -69.333 -18 -131.833 -54 -187.5s-85.667 -94.834 -149 -117.501zM349.999 944.002l0.000976562 -347.999c0 -127.333 20.667 -225.333 62 -294s93.666 -103 156.999 -103c46 0 83.833 19.667 113.5 59
s44.5 91.333 44.5 156c0 91.333 -23.5 164.666 -70.5 219.999s-114.833 83 -203.5 83v155c70.667 4 125.167 24.833 163.5 62.5s57.5 86.5 57.5 146.5c0 55.333 -15.167 100.333 -45.5 135s-67.833 52 -112.5 52c-110.667 0 -166 -108 -166 -324z" />
    <glyph glyph-name="gamma" unicode="&#x3b3;" 
d="M352 -403v403l-340 1061h242l164 -541l47 -180l49 180l166 541h238l-334 -1061v-403h-232z" />
    <glyph glyph-name="delta" unicode="&#x3b4;" horiz-adv-x="1018" 
d="M145 1268v198.002h736v-233h-412c42 -46.667 102.667 -102.834 182 -168.501s137.833 -118.834 175.5 -159.501s68.667 -92 93 -154s36.5 -138.333 36.5 -229c0 -164 -40.833 -296.167 -122.5 -396.5s-191.5 -150.5 -329.5 -150.5c-146 0 -256 58 -330 174
s-111 240.333 -111 373c0 134 29 249 87 345s137 156 237 180l-125 108zM512 834.002c-67.333 0 -121.333 -30 -162 -90s-61 -140.667 -61 -242c0 -96 20.333 -172 61 -228s93.334 -84 158.001 -84s118 29.5 160 88.5s63 136.833 63 233.5s-20.833 174.5 -62.5 233.5
s-93.834 88.5 -156.501 88.5z" />
    <glyph glyph-name="epsilon" unicode="&#x3b5;" horiz-adv-x="797" 
d="M541 438h-23c-82.667 0 -139.5 -10.167 -170.5 -30.5s-46.5 -51.833 -46.5 -94.5c0 -33.333 11.167 -60.666 33.5 -81.999s50.833 -32 85.5 -32c57.333 0 125.666 32.667 204.999 98l151 -182c-129.333 -93.333 -248.666 -140 -357.999 -140
c-106.667 0 -192.5 29.333 -257.5 88s-97.5 134 -97.5 226c0 121.333 52 208.666 156 261.999c-80.667 54.667 -121 131.667 -121 231c0 94 28.833 168.333 86.5 223s137.5 82 239.5 82c128 0 233.667 -36 317 -108l-137 -178c-58.667 38 -112 57 -160 57
c-80 0 -120 -31.333 -120 -94c0 -74.667 72.333 -111 217 -109v-217z" />
    <glyph glyph-name="zeta" unicode="&#x3b6;" horiz-adv-x="772" 
d="M152 1233l-0.00195312 233.002h606v-188c-162.667 -134 -281.5 -275.333 -356.5 -424s-112.5 -282.334 -112.5 -401.001c0 -70 12 -116.667 36 -140s56.667 -39.666 98 -48.999c74 -16.667 127.833 -31.334 161.5 -44.001s66.834 -40.834 99.501 -84.501
s49 -106.5 49 -188.5c0 -254 -135 -379.667 -405 -377l57 252c8.66699 -1.33301 21 -2 37 -2c24 0 44.333 8.83301 61 26.5s25 39.5 25 65.5c0 24.667 -8.83301 44.667 -26.5 60s-55.167 25.333 -112.5 30c-97.333 9.33301 -172.666 54.5 -225.999 135.5
s-80 178.5 -80 292.5c0 247.333 136.667 515 410 803h-321z" />
    <glyph glyph-name="eta" unicode="&#x3b7;" horiz-adv-x="1026" 
d="M332 1061l-0.000976562 -156c76 121.333 171.333 182 286 182c72.667 0 139.667 -26.333 201 -79s92 -169 92 -349v-1062h-231v946c0 143.333 -12.167 234 -36.5 272s-59.166 57 -104.499 57c-44.667 0 -83.167 -15.667 -115.5 -47s-53 -71.333 -62 -120
s-13.5 -122.667 -13.5 -222v-483h-231v1061h215z" />
    <glyph glyph-name="theta" unicode="&#x3b8;" horiz-adv-x="907" 
d="M63 735c0 504 130.667 756 392 756c259.333 0 389 -252.667 389 -758s-129.667 -758 -389 -758c-261.333 0 -392 253.333 -392 760zM301 850h305c-4 150 -17.333 256.167 -40 318.5s-59.667 93.5 -111 93.5c-52.667 0 -90.5 -31.5 -113.5 -94.5
s-36.5 -168.833 -40.5 -317.5zM606 616l-305 0.000976562c4 -148 17.5 -253.5 40.5 -316.5s60.833 -94.5 113.5 -94.5c52 0 89.167 30.667 111.5 92s35.5 167.666 39.5 318.999z" />
    <glyph glyph-name="iota" unicode="&#x3b9;" horiz-adv-x="467" 
d="M121 0v1062h231v-1062h-231z" />
    <glyph glyph-name="kappa" unicode="&#x3ba;" horiz-adv-x="936" 
d="M117 0v1061h231v-367l268 367h281l-350 -449l377 -612h-269l-256 424l-51 -68v-356h-231z" />
    <glyph glyph-name="lambda" unicode="&#x3bb;" 
d="M446 1466l472 -1466h-238l-152 483c-17.333 54.667 -39 134.667 -65 240c-15.333 -63.333 -37.333 -142 -66 -236l-147 -487h-238l334 1061l-127 405h227z" />
    <glyph glyph-name="mu" unicode="&#x3bc;" horiz-adv-x="1026" 
d="M692 0l-0.000976562 129c-45.333 -102.667 -104 -154 -176 -154c-75.333 0 -132.666 51.333 -171.999 154v-532h-231v1464h231v-479c0 -139.333 13.5 -238 40.5 -296s70.833 -87 131.5 -87c48.667 0 87.167 22.833 115.5 68.5s42.5 107.5 42.5 185.5v608h231v-1061h-213z
" />
    <glyph glyph-name="nu" unicode="&#x3bd;" 
d="M360 0l-351 1062h242l164 -542l47 -181l49 181l166 542h236l-346 -1062h-207z" />
    <glyph glyph-name="xi" unicode="&#x3be;" horiz-adv-x="748" 
d="M602 1016l43.002 -0.000976562v-230c-101.333 0 -184 -32.167 -248 -96.5s-96 -136.5 -96 -216.5c0 -68.667 13.333 -116.834 40 -144.501s69 -53.167 127 -76.5s104.667 -45.166 140 -65.499s67.5 -51.5 96.5 -93.5s43.5 -96.333 43.5 -163
c0 -98.667 -33.167 -183.167 -99.5 -253.5s-172.5 -105.833 -318.5 -106.5l53 252c84.667 2.66699 127 34 127 94c0 17.333 -6 32.833 -18 46.5s-45.667 28.834 -101 45.501c-140.667 44 -230.5 103.167 -269.5 177.5s-58.5 152.5 -58.5 234.5c0 178.667 86.333 326 259 442
c-146.667 53.333 -220 156.333 -220 309c0 97.333 32.167 175 96.5 233s151.166 87 260.499 87h196v-246c-52.667 4 -85.334 6 -98.001 6c-144.667 0 -217 -41.667 -217 -125c0 -50 19.333 -80.833 58 -92.5s106.667 -17.5 204 -17.5z" />
    <glyph glyph-name="omicron" unicode="&#x3bf;" horiz-adv-x="1026" 
d="M67 546c0 104 20.668 198.667 62.001 284s95.333 149.333 162 192s141.667 64 225 64c140 0 250 -54.833 330 -164.5s120 -237.834 120 -384.501c0 -109.333 -20.833 -208 -62.5 -296s-96.334 -154.167 -164.001 -198.5s-141.834 -66.5 -222.501 -66.5
c-129.333 0 -236.666 49.333 -321.999 148s-128 239.334 -128 422.001zM303.001 531c0 -107.333 21 -188.499 63 -243.499s92.667 -82.5 152 -82.5c58 0 107.667 27.667 149 83s62 137 62 245c0 105.333 -21 185.666 -63 240.999s-92.333 83 -151 83
c-58 0 -107.833 -27.667 -149.5 -83s-62.5 -136.333 -62.5 -243z" />
    <glyph glyph-name="pi" unicode="&#x3c0;" horiz-adv-x="1286" 
d="M39 827v234h1206v-234h-229v-827h-232v827h-282v-827h-232v827h-231z" />
    <glyph glyph-name="rho" unicode="&#x3c1;" horiz-adv-x="1038" 
d="M96 -403v867.999c0 414.667 142.667 622 428 622c128 0 235.167 -53.667 321.5 -161s129.5 -242.666 129.5 -405.999c0 -154 -40.667 -283.333 -122 -388s-179.333 -157 -294 -157c-80.667 0 -157.667 30.333 -231 91v-469h-232zM535 857.999
c-63.333 0 -113.999 -29 -151.999 -87s-57 -137.667 -57 -239c0 -105.333 18 -186.166 54 -242.499s86 -84.5 150 -84.5c61.333 0 111.166 29.667 149.499 89s57.5 138.666 57.5 237.999c0 103.333 -17.833 183.5 -53.5 240.5s-85.167 85.5 -148.5 85.5z" />
    <glyph glyph-name="sigma1" unicode="&#x3c2;" horiz-adv-x="872" 
d="M309 -418l47 244c50.667 -16.667 90.334 -25 119.001 -25c34.667 0 63.5 9.66699 86.5 29s34.5 44.666 34.5 75.999c0 36.667 -15.667 64.167 -47 82.5s-76.333 34.5 -135 48.5c-106 25.333 -191 79.333 -255 162s-96 179.334 -96 290.001c0 162 51.667 302.667 155 422
s233.333 179 390 179c82.667 0 161.334 -17.333 236.001 -52l-47 -235c-58.667 23.333 -116 35 -172 35c-98.667 0 -181.834 -34 -249.501 -102s-101.5 -146 -101.5 -234c0 -66.667 18.333 -117.167 55 -151.5s106.667 -68.333 210 -102s176.166 -79.834 218.499 -138.501
s63.5 -126 63.5 -202c0 -103.333 -32.167 -185.166 -96.5 -245.499s-148.833 -90.5 -253.5 -90.5c-50.667 0 -104.667 3.33301 -162 10z" />
    <glyph glyph-name="sigma" unicode="&#x3c3;" horiz-adv-x="1149" 
d="M657 1061l452.998 -0.000976562v-234h-211c42.667 -90 64 -187.333 64 -292c0 -161.333 -42.667 -295 -128 -401s-193.666 -159 -324.999 -159s-238.666 50.5 -321.999 151.5s-125 234.167 -125 399.5c0 168.667 41.5 304.334 124.5 407.001s192.5 154 328.5 154
c31.333 0 63.333 -4.33301 96 -13zM511.998 857.999c-62.667 0 -113.498 -29.332 -152.498 -87.999s-58.5 -138.667 -58.5 -240c0 -100 19.5 -179.167 58.5 -237.5s89.833 -87.5 152.5 -87.5c63.333 0 114.666 29.5 153.999 88.5s59 140.167 59 243.5
c0 97.333 -19.833 175.166 -59.5 233.499s-90.834 87.5 -153.501 87.5z" />
    <glyph glyph-name="tau" unicode="&#x3c4;" horiz-adv-x="750" 
d="M39 827v234h670v-234h-211v-827h-232v827h-227z" />
    <glyph glyph-name="upsilon" unicode="&#x3c5;" horiz-adv-x="977" 
d="M96 539v522h232v-565c0 -194 53 -291 159 -291c108 0 162 97 162 291v565h232v-522c0 -376 -131.333 -564 -394 -564c-260.667 0 -391 188 -391 564z" />
    <glyph glyph-name="phi" unicode="&#x3c6;" horiz-adv-x="1202" 
d="M430 1085h37l-51 -247c-76.667 -36 -115 -127 -115 -273c0 -182 62 -301.333 186 -358v502c0 136 19.667 233 59 291s102.333 87 189 87c118 0 214.833 -50.5 290.5 -151.5s113.5 -227.167 113.5 -378.5c0 -146 -37 -272.5 -111 -379.5s-177 -175.833 -309 -206.5v-374
h-232v374c-134.667 27.333 -239 93 -313 197s-111 231 -111 381c0 158 34.5 286.833 103.5 386.5s156.833 149.5 263.5 149.5zM719 662v-468.999c65.333 30 112 72.667 140 128s42 146.333 42 273c0 71.333 -13.167 133.166 -39.5 185.499s-54.833 78.5 -85.5 78.5
c-22 0 -37 -11.667 -45 -35s-12 -77 -12 -161z" />
    <glyph glyph-name="chi" unicode="&#x3c7;" horiz-adv-x="967" 
d="M348 336l-313 725h254l192 -490l211 490h242l-313 -725l335 -739h-264l-211 503l-217 -503h-250z" />
    <glyph glyph-name="psi" unicode="&#x3c8;" horiz-adv-x="1266" 
d="M96 512l-0.000976562 549h232v-551c0 -110 15.333 -187.833 46 -233.5s78 -71.5 142 -77.5v862h232v-862c64.667 6.66699 112.5 32.834 143.5 78.501s46.5 123.167 46.5 232.5v551h231v-549c0 -179.333 -34.333 -311.333 -103 -396s-174.667 -133.667 -318 -147v-372
h-232v372c-143.333 13.333 -249.166 61.666 -317.499 144.999s-102.5 216 -102.5 398z" />
    <glyph glyph-name="omega" unicode="&#x3c9;" horiz-adv-x="1419" 
d="M594 442v349h231v-349c0 -162 43.667 -243 131 -243c108 0 162 105 162 315c0 184 -35.333 366.333 -106 547h219c83.333 -186 125 -369.667 125 -551c0 -160 -34.667 -289.167 -104 -387.5s-158.333 -147.5 -267 -147.5c-132.667 0 -224.667 74.667 -276 224
c-52 -149.333 -144.333 -224 -277 -224c-108 0 -196.5 49.167 -265.5 147.5s-103.5 227.5 -103.5 387.5c0 185.333 41.667 369 125 551h220c-71.333 -184 -107 -366.333 -107 -547c0 -210 53.333 -315 160 -315c88.667 0 133 81 133 243z" />
    <glyph glyph-name="iotadieresis" unicode="&#x3ca;" horiz-adv-x="467" 
d="M121 0v1062h231v-1062h-231zM-38 1250v241h198v-241h-198zM315 1250v241h198v-241h-198z" />
    <glyph glyph-name="upsilondieresis" unicode="&#x3cb;" horiz-adv-x="977" 
d="M96 539v522h232v-565c0 -194 53 -291 159 -291c108 0 162 97 162 291v565h232v-522c0 -376 -131.333 -564 -394 -564c-260.667 0 -391 188 -391 564zM213 1250v241h198v-241h-198zM566 1250v241h198v-241h-198z" />
    <glyph glyph-name="omicrontonos" unicode="&#x3cc;" horiz-adv-x="1026" 
d="M67 546c0 104 20.668 198.667 62.001 284s95.333 149.333 162 192s141.667 64 225 64c140 0 250 -54.833 330 -164.5s120 -237.834 120 -384.501c0 -109.333 -20.833 -208 -62.5 -296s-96.334 -154.167 -164.001 -198.5s-141.834 -66.5 -222.501 -66.5
c-129.333 0 -236.666 49.333 -321.999 148s-128 239.334 -128 422.001zM303.001 531c0 -107.333 21 -188.499 63 -243.499s92.667 -82.5 152 -82.5c58 0 107.667 27.667 149 83s62 137 62 245c0 105.333 -21 185.666 -63 240.999s-92.333 83 -151 83
c-58 0 -107.833 -27.667 -149.5 -83s-62.5 -136.333 -62.5 -243zM356.001 1192l113 299h259l-226 -299h-146z" />
    <glyph glyph-name="upsilontonos" unicode="&#x3cd;" horiz-adv-x="977" 
d="M96 539v522h232v-565c0 -194 53 -291 159 -291c108 0 162 97 162 291v565h232v-522c0 -376 -131.333 -564 -394 -564c-260.667 0 -391 188 -391 564zM339 1192l113 299h259l-226 -299h-146z" />
    <glyph glyph-name="omegatonos" unicode="&#x3ce;" horiz-adv-x="1419" 
d="M594 442v349h231v-349c0 -162 43.667 -243 131 -243c108 0 162 105 162 315c0 184 -35.333 366.333 -106 547h219c83.333 -186 125 -369.667 125 -551c0 -160 -34.667 -289.167 -104 -387.5s-158.333 -147.5 -267 -147.5c-132.667 0 -224.667 74.667 -276 224
c-52 -149.333 -144.333 -224 -277 -224c-108 0 -196.5 49.167 -265.5 147.5s-103.5 227.5 -103.5 387.5c0 185.333 41.667 369 125 551h220c-71.333 -184 -107 -366.333 -107 -547c0 -210 53.333 -315 160 -315c88.667 0 133 81 133 243zM543 1192l113 299h259l-226 -299
h-146z" />
    <glyph glyph-name="afii10023" unicode="&#x401;" horiz-adv-x="1120" 
d="M123 0v1466h892v-248h-650v-325h604v-247h-604v-399h672v-247h-914zM292 1622v241h198v-241h-198zM645 1622v241h198v-241h-198z" />
    <glyph glyph-name="afii10051" unicode="&#x402;" horiz-adv-x="1487" 
d="M395 0l-0.000976562 1219h-356v247h954v-247h-356v-330c125.333 66.667 238 100 338 100c134.667 0 242.667 -45.833 324 -137.5s122 -213.167 122 -364.5c0 -149.333 -38.167 -269.5 -114.5 -360.5s-171.833 -136.5 -286.5 -136.5c-54 0 -107.333 9.33301 -160 28
l37 246c39.333 -22 74 -33 104 -33c52.667 0 97.334 22.667 134.001 68s55 101.333 55 168c0 74 -21.5 134.833 -64.5 182.5s-100.167 71.5 -171.5 71.5c-92 0 -197.667 -39 -317 -117v-604h-242z" />
    <glyph glyph-name="afii10052" unicode="&#x403;" horiz-adv-x="1010" 
d="M127 0v1454h846v-248h-604v-1206h-242zM431 1565l113 299h259l-226 -299h-146z" />
    <glyph glyph-name="afii10053" unicode="&#x404;" horiz-adv-x="1194" 
d="M330 856l374.999 0.00195312v-248h-375c12 -124.667 42.333 -219.334 91 -284.001s111 -97 187 -97c72 0 132.333 27 181 81s78.667 131 90 231l243 -93c-64 -314 -231 -471 -501 -471c-179.333 0 -315.666 72.667 -408.999 218s-140 322.666 -140 531.999
c0 236 50.333 422.667 151 560s236 206 406 206c128 0 235 -37 321 -111s142.667 -180.333 170 -319l-241 -66c-42 162.667 -127.333 244 -256 244c-79.333 0 -145 -33.167 -197 -99.5s-84 -160.833 -96 -283.5z" />
    <glyph glyph-name="afii10054" unicode="&#x405;" horiz-adv-x="1120" 
d="M61 477l236.999 28c26.667 -187.333 114 -281 262 -281c73.333 0 131 19.167 173 57.5s63 85.833 63 142.5c0 33.333 -7.33301 61.666 -22 84.999s-37 42.5 -67 57.5s-102.667 40.167 -218 75.5c-103.333 31.333 -179 65.333 -227 102s-86.167 84.834 -114.5 144.501
s-42.5 123.834 -42.5 192.501c0 80 18.167 152 54.5 216s86.5 112.333 150.5 145s143 49 237 49c141.333 0 251.666 -38.333 330.999 -115s121.333 -186.334 126 -329.001l-243 -13c-10.667 78.667 -33.667 133.667 -69 165s-85.666 47 -150.999 47
s-115.666 -13.667 -150.999 -41s-53 -61.333 -53 -102c0 -40 16 -73.667 48 -101s105.667 -57.333 221 -90c122 -35.333 210.167 -72.5 264.5 -111.5s95.833 -89.333 124.5 -151s43 -136.5 43 -224.5c0 -127.333 -39.167 -234.333 -117.5 -321s-200.833 -130 -367.5 -130
c-294.667 0 -458.667 167.667 -492 503z" />
    <glyph glyph-name="afii10055" unicode="&#x406;" horiz-adv-x="467" 
d="M115 0v1466h242v-1466h-242z" />
    <glyph glyph-name="afii10056" unicode="&#x407;" horiz-adv-x="467" 
d="M115 0v1466h242v-1466h-242zM-39 1621v241h198v-241h-198zM314 1621v241h198v-241h-198z" />
    <glyph glyph-name="afii10057" unicode="&#x408;" 
d="M556 1466l242.999 -0.00195312v-928c0 -150 -15 -261.667 -45 -335s-74.833 -129.666 -134.5 -168.999s-133.167 -59 -220.5 -59c-115.333 0 -205.666 39.667 -270.999 119s-98.333 199 -99 359l229 32c2.66699 -86 13.667 -147 33 -183c26 -49.333 65 -74 117 -74
c50.667 0 88 17.833 112 53.5s36 114.834 36 237.501v947z" />
    <glyph glyph-name="afii10058" unicode="&#x409;" horiz-adv-x="1837" 
d="M758 0v1219h-334v-762c0 -115.333 -7.66699 -203.833 -23 -265.5s-44.833 -110.334 -88.5 -146.001s-97.834 -53.5 -162.501 -53.5c-28 0 -70.333 2.66699 -127 8v246c48.667 -8.66699 78.667 -13 90 -13c26.667 0 44.834 9.5 54.501 28.5s14.5 59.5 14.5 121.5v1083h817
v-583h344c128 0 229.333 -41.167 304 -123.5s112 -190.833 112 -325.5c0 -115.333 -31.333 -216.5 -94 -303.5s-170 -130.5 -322 -130.5h-585zM999 635.001l-0.00195312 -387h256c66.667 0 114.834 4.33301 144.501 13s55.334 29.667 77.001 63s32.5 72 32.5 116
c0 130 -81.667 195 -245 195h-265z" />
    <glyph glyph-name="afii10059" unicode="&#x40a;" horiz-adv-x="1786" 
d="M942 1466v-576.999h342c128.667 0 230.5 -41.333 305.5 -124s112.5 -192.334 112.5 -329.001c0 -114 -30.667 -215.167 -92 -303.5s-169.333 -132.5 -324 -132.5h-586v641h-329v-641h-242v1466h242v-577h329v577h242zM942 641.001l-0.000976562 -393h254
c66.667 0 114.834 4.5 144.501 13.5s55.667 30.333 78 64s33.5 72.5 33.5 116.5c0 132.667 -82 199 -246 199h-264z" />
    <glyph glyph-name="afii10060" unicode="&#x40b;" horiz-adv-x="1468" 
d="M45 1219v247h954v-247h-356v-301c108.667 48.667 207.667 73 297 73c68.667 0 131 -13.5 187 -40.5s102.5 -65 139.5 -114s60.167 -99.333 69.5 -151s14 -122.5 14 -212.5v-473h-242v399c0 142.667 -19.833 235 -59.5 277s-94.167 63 -163.5 63
c-83.333 0 -164 -25 -242 -75v-664h-242v1219h-356z" />
    <glyph glyph-name="afii10061" unicode="&#x40c;" horiz-adv-x="1026" 
d="M127 0v1466h242v-624c54 6.66699 91.333 24.834 112 54.501s48 101.167 82 214.5s69.333 195.833 106 247.5s75.667 83.167 117 94.5s112.333 19.333 213 24v-220h-34c-68.667 0 -115.167 -15.833 -139.5 -47.5s-49.333 -92.834 -75 -183.501s-47.667 -151 -66 -181
s-47.833 -59.667 -88.5 -89c53.333 -22 96.833 -57.667 130.5 -107s74.167 -132 121.5 -248l164 -401h-285l-145 379c-36.667 96.667 -68.167 164.167 -94.5 202.5s-65.833 58.166 -118.5 59.499v-641h-242zM400 1564l113 299h259l-226 -299h-146z" />
    <glyph glyph-name="afii10062" unicode="&#x40e;" horiz-adv-x="1044" 
d="M442 414l-442.002 1052h272l279 -761l242 761h251l-405 -1114c-50 -136 -98.333 -231.667 -145 -287s-102.667 -83 -168 -83c-62.667 0 -118.667 6 -168 18v219c40 -2.66699 70.333 -4 91 -4c58.667 0 99.834 12.333 123.501 37s46.834 78.667 69.501 162zM671.998 1855
h112c-6 -93.333 -32.5 -165.166 -79.5 -215.499s-105.5 -75.5 -175.5 -75.5s-128.5 25.167 -175.5 75.5s-73.833 122.166 -80.5 215.499h112c8.66699 -96 56.667 -144 144 -144s135 48 143 144z" />
    <glyph glyph-name="afii10145" unicode="&#x40f;" horiz-adv-x="1208" 
d="M1081 0h-379v-403h-198v403h-379v1466h242v-1218h473v1218h241v-1466z" />
    <glyph glyph-name="afii10017" unicode="&#x410;" horiz-adv-x="1212" 
d="M1206 0h-264l-105 333h-480l-99 -333h-258l468 1466h257zM759 580l-165 544l-163 -544h328z" />
    <glyph glyph-name="afii10018" unicode="&#x411;" horiz-adv-x="1208" 
d="M127 0v1466h899v-247h-657v-336h344c130 0 232 -40.5 306 -121.5s111 -188.167 111 -321.5c0 -116 -31.5 -218.333 -94.5 -307s-170.5 -133 -322.5 -133h-586zM369 635l-0.000976562 -387h256c66.667 0 114.834 4.5 144.501 13.5s55.667 29.833 78 62.5
s33.5 70.667 33.5 114c0 131.333 -82 197 -246 197h-266z" />
    <glyph glyph-name="afii10019" unicode="&#x412;" horiz-adv-x="1212" 
d="M122 1466l481.002 0.000976562c131.333 0 223.666 -12 276.999 -36s98.333 -66.333 135 -127s55 -129.334 55 -206.001c0 -70.667 -15.667 -134.5 -47 -191.5s-72 -99.167 -122 -126.5c71.333 -25.333 127.166 -68.666 167.499 -129.999s60.5 -136 60.5 -224
c0 -106.667 -25.667 -196.834 -77 -270.501s-112 -119.167 -182 -136.5c-48.667 -12 -161.667 -18 -339 -18h-409v1466zM364.002 1222l0.000976562 -339h160c96 0 155.333 1.66699 178 5c41.333 6.66699 73.666 24.167 96.999 52.5s35 66.833 35 115.5
c0 43.333 -9.5 78.5 -28.5 105.5s-42 43.833 -69 50.5s-104.5 10 -232.5 10h-140zM364.003 639.001v-391.999h225c98.667 0 162 5.16699 190 15.5s51.5 30.666 70.5 60.999s28.5 68.833 28.5 115.5c0 48 -10.167 87.5 -30.5 118.5s-47.333 52.333 -81 64
s-102.5 17.5 -206.5 17.5h-196z" />
    <glyph glyph-name="afii10020" unicode="&#x413;" horiz-adv-x="1010" 
d="M127 0v1454h846v-248h-604v-1206h-242z" />
    <glyph glyph-name="afii10021" unicode="&#x414;" horiz-adv-x="1196" 
d="M1049 248h104.001v-567h-199v319h-759v-319h-199v567h100c39.333 102.667 69.666 226.667 90.999 372s32 362 32 650v196h830v-1218zM807.001 1219l-358 0.000976562c0 -432.667 -33 -756.334 -99 -971.001h457v971z" />
    <glyph glyph-name="afii10022" unicode="&#x415;" horiz-adv-x="1120" 
d="M123 0v1466h892v-248h-650v-325h604v-247h-604v-399h672v-247h-914z" />
    </font>
</defs>
</svg>
